<svg width="28" height="29" viewBox="0 0 28 29" fill="none" xmlns="http://www.w3.org/2000/svg">
<path d="M14.3492 0.869141C6.86392 0.869141 0.795898 6.98948 0.795898 14.5392C1.5098 32.6723 27.1914 32.6671 27.9026 14.5391C27.9026 6.98948 21.8345 0.869141 14.3492 0.869141ZM15.1967 5.04056L17.9941 3.16174C20.388 3.9495 22.4724 5.48312 23.947 7.54182L23.0447 10.7891L18.6259 12.2176L15.1967 9.67553V5.04056ZM10.7045 3.16174L13.5026 5.04091V9.67519L10.0729 12.2176L5.65383 10.7888L4.75157 7.54167C6.22617 5.48295 8.31052 3.94935 10.7045 3.16174ZM4.78617 21.5835C3.29171 19.5383 2.4872 17.0634 2.49088 14.5227L5.13319 12.4147L9.54868 13.8424L10.866 17.9791L8.13287 21.7215L4.78617 21.5835ZM18.0314 25.9028C15.7332 26.693 12.965 26.6929 10.6668 25.9027L9.50069 22.7303L12.2377 18.9825H16.461L19.1975 22.7304L18.0314 25.9028ZM23.9121 21.5836L20.5654 21.7217L17.8327 17.9792L19.1502 13.8423L23.5654 12.415L26.2076 14.5229C26.2113 17.0635 25.4067 19.5384 23.9121 21.5836Z" fill="#151339"/>
</svg>
