<svg width="30" height="30" viewBox="0 0 30 30" fill="none" xmlns="http://www.w3.org/2000/svg">
<path d="M13.084 20.9315V24.1538C11.874 24.1538 11.0672 24.9594 11.0672 26.1678C11.0672 27.3762 11.874 28.1818 13.084 28.1818H17.1176C18.3277 28.1818 19.1345 27.3762 19.1345 26.1678C19.1345 24.9594 18.3277 24.1538 17.1176 24.1538V20.9315C18.1261 21.7371 19.5378 22.1399 20.7479 22.1399C22.3613 22.1399 23.9748 21.5357 25.1849 20.3273C26.395 19.1189 27 17.5077 27 15.8965C27 14.2853 26.395 12.6741 25.1849 11.4657L16.5126 2.6042C15.7059 1.7986 14.4958 1.7986 13.6891 2.6042L4.81513 11.2643C3.60504 12.4727 3 14.0839 3 15.6951C3 17.3063 3.60504 18.9175 4.81513 20.1259C7.03361 22.5427 10.6639 22.7441 13.084 20.9315Z" fill="#423D72"/>
</svg>
