<svg width="30" height="30" viewBox="0 0 30 30" fill="none" xmlns="http://www.w3.org/2000/svg">
<path d="M14.5 7C8.28875 7 2 8.9325 2 12.625C2 16.3175 8.28875 18.25 14.5 18.25C20.7125 18.25 27 16.3175 27 12.625C27 8.9325 20.7125 7 14.5 7ZM8.25 19.4225V23.1725C9.79625 23.5463 11.5063 23.775 13.25 23.8488V20.0988C11.5656 20.0331 9.89132 19.8067 8.25 19.4225ZM15.75 20.0975V23.8475C17.4345 23.7832 19.1089 23.5567 20.75 23.1713V19.4213C19.1089 19.8067 17.4345 20.0332 15.75 20.0975ZM23.25 18.6213V22.3713C25.5013 21.4275 27 20.05 27 18.25V14.5C27 16.3 25.5013 17.6775 23.25 18.6213ZM5.75 22.3713V18.6213C3.5 17.6775 2 16.2988 2 14.5V18.25C2 20.0488 3.5 21.4275 5.75 22.3713Z" fill="#423D72"/>
</svg>
