<svg width="25" height="25" viewBox="0 0 25 25" fill="none" xmlns="http://www.w3.org/2000/svg">
<path d="M24.1667 4.16667H20.5098C20.6931 3.06418 20.8012 1.9505 20.8333 0.833333C20.8334 0.723881 20.8119 0.61549 20.77 0.514357C20.7282 0.413224 20.6668 0.321333 20.5894 0.243939C20.512 0.166544 20.4201 0.105163 20.319 0.0633067C20.2178 0.0214499 20.1095 -6.23058e-05 20 1.35542e-07H5C4.89055 -6.23058e-05 4.78216 0.0214499 4.68102 0.0633067C4.57989 0.105163 4.488 0.166544 4.4106 0.243939C4.33321 0.321333 4.27183 0.413224 4.22997 0.514357C4.18812 0.61549 4.1666 0.723881 4.16667 0.833333C4.19879 1.9505 4.30689 3.06418 4.4902 4.16667H0.833333C0.723881 4.1666 0.61549 4.18812 0.514357 4.22997C0.413224 4.27183 0.321333 4.33321 0.243939 4.4106C0.166544 4.488 0.105163 4.57989 0.0633067 4.68102C0.0214499 4.78216 -6.23058e-05 4.89055 1.35542e-07 5V8.33333C0.0061717 9.6459 0.296216 10.9416 0.850232 12.1315C1.40425 13.3214 2.20912 14.3774 3.20963 15.2271C4.37031 16.2107 5.83863 16.7572 7.36 16.7717C7.534 16.7717 7.70862 16.7607 7.88328 16.7458C8.36009 17.9056 8.98392 18.9992 9.73943 20H8.33333C8.22388 19.9999 8.11549 20.0215 8.01436 20.0633C7.91322 20.1052 7.82133 20.1665 7.74394 20.2439C7.66654 20.3213 7.60516 20.4132 7.56331 20.5144C7.52145 20.6155 7.49994 20.7239 7.5 20.8333V24.1667C7.49994 24.2761 7.52145 24.3845 7.56331 24.4856C7.60516 24.5868 7.66654 24.6787 7.74394 24.7561C7.82133 24.8335 7.91322 24.8948 8.01436 24.9367C8.11549 24.9785 8.22388 25.0001 8.33333 25H16.6667C16.7761 25.0001 16.8845 24.9785 16.9856 24.9367C17.0868 24.8948 17.1787 24.8335 17.2561 24.7561C17.3335 24.6787 17.3948 24.5868 17.4367 24.4856C17.4785 24.3845 17.5001 24.2761 17.5 24.1667V20.8333C17.5001 20.7239 17.4785 20.6155 17.4367 20.5144C17.3948 20.4132 17.3335 20.3213 17.2561 20.2439C17.1787 20.1665 17.0868 20.1052 16.9856 20.0633C16.8845 20.0215 16.7761 19.9999 16.6667 20H15.2606C16.0161 18.9992 16.6399 17.9056 17.1167 16.7458C17.2913 16.7607 17.4659 16.7717 17.6399 16.7717C19.1612 16.7568 20.6294 16.2104 21.7903 15.2271C22.7909 14.3775 23.5957 13.3215 24.1498 12.1315C24.7038 10.9416 24.9938 9.6459 25 8.33333V5C25.0001 4.89055 24.9785 4.78216 24.9367 4.68102C24.8948 4.57989 24.8335 4.488 24.7561 4.4106C24.6787 4.33321 24.5868 4.27183 24.4856 4.22997C24.3845 4.18812 24.2761 4.1666 24.1667 4.16667ZM4.26595 13.938C3.45945 13.242 2.8105 12.3822 2.36231 11.4158C1.91411 10.4494 1.67697 9.39856 1.66667 8.33333V5.83333H4.76822C5.18677 8.12661 5.73116 10.3951 6.39892 12.6286C6.6688 13.5197 6.94453 14.3372 7.22468 15.0977C6.13707 15.0502 5.09617 14.6422 4.26595 13.938ZM15.8333 21.6667V23.3333H9.16667V21.6667H15.8333ZM23.3333 8.33333C23.323 9.39856 23.0859 10.4494 22.6377 11.4158C22.1895 12.3822 21.5405 13.242 20.734 13.938C19.9038 14.6414 18.8631 15.0487 17.776 15.0956C18.0559 14.3359 18.3314 13.5189 18.6011 12.6286C19.2688 10.3951 19.8132 8.12661 20.2318 5.83333H23.3333V8.33333Z" fill="#F7F9FB"/>
</svg>
