<svg width="31" height="31" viewBox="0 0 31 31" fill="none" xmlns="http://www.w3.org/2000/svg">
<path d="M11.6435 6.30469C11.6435 6.30469 6.70509 8.87258 5.43094 12.7352C4.78216 15.0453 5.37102 16.453 5.95801 17.2142C6.66016 18.1279 7.81073 18.6718 9.0362 18.6718C9.63068 18.6718 10.1999 18.4883 10.7017 18.2032L10.4077 20.8163C10.3881 20.9395 10.4264 21.092 10.5098 21.1861C10.5912 21.2801 10.7129 21.3611 10.8393 21.3611H12.6649C12.7913 21.3611 12.912 21.2801 12.9944 21.1861C13.0777 21.092 13.1152 20.9536 13.0965 20.8304L12.8165 18.3076C13.3015 18.5372 13.8351 18.6756 14.3584 18.6756C15.583 18.6756 16.7345 18.1289 17.4376 17.2152C18.0236 16.4558 18.6125 15.0453 17.9637 12.7352C16.6933 8.87258 11.6435 6.30469 11.6435 6.30469Z" fill="#151339"/>
<path d="M29.0758 4.51895L22.9353 2.67089V2.53916C22.9353 1.50033 22.0965 0.657227 21.063 0.657227H2.33917C1.30562 0.657227 0.466797 1.50033 0.466797 2.53916V26.0633C0.466797 27.1021 1.30562 27.9452 2.33917 27.9452H12.2731L21.2858 30.6589C22.2763 30.9572 23.3201 30.3917 23.6159 29.3962L30.3322 6.86195C30.6289 5.86641 30.0653 4.81723 29.0758 4.51895ZM2.33917 2.53916H21.063V26.0633H2.33917V2.53916Z" fill="#151339"/>
</svg>
