<svg width="30" height="30" viewBox="0 0 30 30" fill="none" xmlns="http://www.w3.org/2000/svg">
<path d="M24.8933 5.10667C22.3733 2.58667 18.8267 1 15 1C11.1733 1 7.62667 2.58667 5.10667 5.10667C2.58667 7.62667 1 11.1733 1 15C1 18.8267 2.58667 22.3733 5.10667 24.8933C7.62667 27.4133 11.1733 29 15 29C18.8267 29 22.3733 27.4133 24.8933 24.8933C27.4133 22.3733 29 18.8267 29 15C29 11.1733 27.4133 7.62667 24.8933 5.10667ZM24.24 7.16C25.8267 9.02667 26.9467 11.4533 27.1333 14.0667H25.2667C25.08 11.92 24.24 9.96 22.9333 8.46667L24.24 7.16ZM14.0667 2.96V4.82667C11.92 5.01333 9.96 5.85333 8.46667 7.16L7.16 5.76C9.02667 4.17333 11.4533 3.14667 14.0667 2.96ZM5.76 22.84C4.17333 20.9733 3.05333 18.5467 2.86667 15.9333H4.73333C4.92 18.08 5.76 20.04 7.06667 21.5333L5.76 22.84ZM4.82667 14.0667H2.96C3.14667 11.4533 4.17333 9.02667 5.85333 7.16L7.16 8.46667C5.85333 9.96 5.01333 11.92 4.82667 14.0667ZM14.0667 27.04C11.4533 26.8533 9.02667 25.8267 7.16 24.1467L8.46667 22.84C10.0533 24.1467 12.0133 24.9867 14.0667 25.1733V27.04ZM15 20.6C14.72 20.6 14.44 20.5067 14.2533 20.2267L10.52 15.56C10.24 15.1867 10.24 14.72 10.52 14.44L14.2533 9.77333C14.6267 9.30667 15.3733 9.30667 15.7467 9.77333L19.48 14.44C19.76 14.8133 19.76 15.28 19.48 15.56L15.7467 20.2267C15.56 20.5067 15.28 20.6 15 20.6ZM15.9333 27.04V25.1733C18.08 24.9867 20.04 24.1467 21.5333 22.84L22.84 24.1467C20.9733 25.8267 18.5467 26.8533 15.9333 27.04ZM21.5333 7.16C19.9467 5.85333 17.9867 5.01333 15.9333 4.82667V2.96C18.5467 3.14667 20.9733 4.17333 22.84 5.85333L21.5333 7.16ZM24.24 22.84L22.84 21.5333C24.1467 19.9467 24.9867 17.9867 25.1733 15.9333H27.04C26.8533 18.5467 25.8267 20.9733 24.24 22.84Z" fill="#423D72"/>
</svg>
