<svg width="25" height="26" viewBox="0 0 25 26" fill="none" xmlns="http://www.w3.org/2000/svg">
<path fill-rule="evenodd" clip-rule="evenodd" d="M19.6728 25.2665C18.689 24.8954 17.8501 24.4151 17.1893 23.9647C15.7401 24.5485 14.1566 24.8696 12.5 24.8696C5.59644 24.8696 0 19.3023 0 12.4348C0 5.56726 5.59644 0 12.5 0C19.4035 0 25 5.56726 25 12.4348C25 15.0108 24.2114 17.4068 22.8612 19.3928C22.7756 21.0348 23.6425 22.5185 24.5423 23.8314C25.3303 24.9812 25.1326 25.9078 23.6632 25.9907C23.0045 26.0277 21.5799 25.9858 19.6728 25.2665ZM2.27273 12.4348C2.27273 6.8159 6.85164 2.26087 12.5 2.26087C18.1484 2.26087 22.7273 6.8159 22.7273 12.4348C22.7273 14.6395 22.0236 16.6775 20.8273 18.3427C20.298 19.0797 20.5702 20.4607 20.7518 21.2535C20.9281 22.0229 21.3105 22.8406 21.6882 23.527C21.3266 23.4403 20.9217 23.3196 20.4786 23.1525C19.459 22.7678 18.6164 22.2271 18.022 21.7733C17.6848 21.5158 17.2312 21.4672 16.8466 21.6472C15.5289 22.2636 14.0565 22.6087 12.5 22.6087C6.85164 22.6087 2.27273 18.0538 2.27273 12.4348ZM7.98865 16.1003C7.81168 15.3961 8.37067 14.6959 9.09109 14.6955H15.9093C16.6287 14.6959 17.1886 15.3934 17.0117 16.0974C16.4233 18.0735 14.5289 19.2174 12.5002 19.2174C10.5493 19.2174 8.48752 18.0854 7.98865 16.1003ZM17.6136 10.1739C17.6136 11.1104 16.8505 11.8696 15.9091 11.8696C14.9677 11.8696 14.2045 11.1104 14.2045 10.1739C14.2045 9.23744 14.9677 8.47828 15.9091 8.47828C16.8505 8.47828 17.6136 9.23744 17.6136 10.1739ZM9.09091 11.8696C10.0323 11.8696 10.7955 11.1104 10.7955 10.1739C10.7955 9.23744 10.0323 8.47828 9.09091 8.47828C8.14951 8.47828 7.38636 9.23744 7.38636 10.1739C7.38636 11.1104 8.14951 11.8696 9.09091 11.8696Z" fill="white"/>
</svg>
