<svg width="18" height="22" viewBox="0 0 18 22" fill="none" xmlns="http://www.w3.org/2000/svg">
<path d="M15.5022 13.5099C15.7401 9.8531 14.8904 5.4194 13.2315 1.17174C13.0718 0.60464 12.958 0.489798 12.9173 0.416016L11.4867 0.776553C11.6171 1.01391 11.9345 2.41698 11.9345 2.79616C11.9345 6.716 9.45068 10.1521 7.04511 12.5092C6.3238 11.8843 5.3869 11.5045 4.36089 11.5045C2.08249 11.5045 0.235352 13.3675 0.235352 15.6656C0.235352 17.9649 2.08249 19.8279 4.36089 19.8279C6.63929 19.8279 8.48703 17.9649 8.48703 15.6656C8.48703 14.8982 8.27714 14.181 7.91777 13.5638C10.0244 11.3396 12.0967 8.31471 12.951 5.04285C13.8949 8.00936 14.2575 10.7116 14.0329 13.1289C13.9413 13.1225 13.8497 13.1148 13.7569 13.1148C11.4785 13.1148 9.63073 14.9778 9.63073 17.2765C9.63073 19.5751 11.4785 21.4381 13.7569 21.4381C16.0352 21.4381 17.8824 19.5751 17.8824 17.2765C17.8824 15.6084 16.908 14.1739 15.5022 13.5099ZM3.02647 15.1927C2.46164 15.1927 2.00368 14.7315 2.00368 14.1611C2.00368 13.5921 2.46164 13.1302 3.02647 13.1302C3.5913 13.1302 4.04992 13.5921 4.04992 14.1611C4.04988 14.7314 3.5913 15.1927 3.02647 15.1927ZM12.5916 17.2559C11.9657 17.2559 11.4581 16.7446 11.4581 16.1127C11.4581 15.4821 11.9657 14.9701 12.5916 14.9701C13.2175 14.9701 13.7244 15.4821 13.7244 16.1127C13.7244 16.7446 13.2175 17.2559 12.5916 17.2559Z" fill="#151339"/>
</svg>
