<svg width="35" height="35" viewBox="0 0 35 35" fill="none" xmlns="http://www.w3.org/2000/svg">
<path d="M19.9745 17.5L24.9253 12.551C25.2536 12.2226 25.4381 11.7773 25.4381 11.3129C25.4381 10.8485 25.2536 10.4031 24.9253 10.0747C24.5969 9.74638 24.1515 9.5619 23.6871 9.5619C23.2227 9.5619 22.7774 9.74638 22.449 10.0747L17.5 15.0255L12.551 10.0747C12.2226 9.74638 11.7773 9.5619 11.3129 9.5619C10.8485 9.5619 10.4031 9.74638 10.0747 10.0747C9.74638 10.4031 9.5619 10.8485 9.5619 11.3129C9.5619 11.7773 9.74638 12.2226 10.0747 12.551L15.0255 17.5L10.0747 22.449C9.74638 22.7774 9.5619 23.2227 9.5619 23.6871C9.5619 24.1515 9.74638 24.5969 10.0747 24.9253C10.4031 25.2536 10.8485 25.4381 11.3129 25.4381C11.7773 25.4381 12.2226 25.2536 12.551 24.9253L17.5 19.9745L22.449 24.9253C22.7774 25.2536 23.2227 25.4381 23.6871 25.4381C24.1515 25.4381 24.5969 25.2536 24.9253 24.9253C25.2536 24.5969 25.4381 24.1515 25.4381 23.6871C25.4381 23.2227 25.2536 22.7774 24.9253 22.449L19.9745 17.5ZM7 0H28C29.8565 0 31.637 0.737498 32.9497 2.05025C34.2625 3.36301 35 5.14348 35 7V28C35 29.8565 34.2625 31.637 32.9497 32.9497C31.637 34.2625 29.8565 35 28 35H7C5.14348 35 3.36301 34.2625 2.05025 32.9497C0.737498 31.637 0 29.8565 0 28V7C0 5.14348 0.737498 3.36301 2.05025 2.05025C3.36301 0.737498 5.14348 0 7 0Z" fill="#E9E9EA"/>
</svg>
