<svg width="25" height="25" viewBox="0 0 25 25" fill="none" xmlns="http://www.w3.org/2000/svg">
<path d="M12 10.4799L6.34331 4.82322L6.16653 4.64645L5.98975 4.82322L4.82322 5.98975L4.64645 6.16653L4.82322 6.34331L10.4799 12L4.82322 17.6567L4.64645 17.8335L4.82322 18.0102L5.98975 19.1768L6.16653 19.3536L6.34331 19.1768L12 13.5201L17.6567 19.1768L17.8335 19.3536L18.0102 19.1768L19.1768 18.0102L19.3536 17.8335L19.1768 17.6567L13.5201 12L19.1768 6.34331L19.3536 6.16653L19.1768 5.98975L18.0102 4.82322L17.8335 4.64645L17.6567 4.82322L12 10.4799Z" fill="#DFDCF6" stroke="#DFDCF6" stroke-width="0.5"/>
</svg>
