<svg width="30" height="30" viewBox="0 0 30 30" fill="none" xmlns="http://www.w3.org/2000/svg">
<path d="M17.121 15L21.3645 10.758C21.646 10.4765 21.8041 10.0948 21.8041 9.69675C21.8041 9.2987 21.646 8.91696 21.3645 8.6355C21.083 8.35404 20.7013 8.19592 20.3032 8.19592C19.9052 8.19592 19.5235 8.35404 19.242 8.6355L15 12.879L10.758 8.6355C10.4765 8.35404 10.0948 8.19592 9.69675 8.19592C9.2987 8.19592 8.91696 8.35404 8.6355 8.6355C8.35404 8.91696 8.19592 9.2987 8.19592 9.69675C8.19592 10.0948 8.35404 10.4765 8.6355 10.758L12.879 15L8.6355 19.242C8.35404 19.5235 8.19592 19.9052 8.19592 20.3032C8.19592 20.7013 8.35404 21.083 8.6355 21.3645C8.91696 21.646 9.2987 21.8041 9.69675 21.8041C10.0948 21.8041 10.4765 21.646 10.758 21.3645L15 17.121L19.242 21.3645C19.5235 21.646 19.9052 21.8041 20.3032 21.8041C20.7013 21.8041 21.083 21.646 21.3645 21.3645C21.646 21.083 21.8041 20.7013 21.8041 20.3032C21.8041 19.9052 21.646 19.5235 21.3645 19.242L17.121 15ZM6 0H24C25.5913 0 27.1174 0.632141 28.2426 1.75736C29.3679 2.88258 30 4.4087 30 6V24C30 25.5913 29.3679 27.1174 28.2426 28.2426C27.1174 29.3679 25.5913 30 24 30H6C4.4087 30 2.88258 29.3679 1.75736 28.2426C0.632141 27.1174 0 25.5913 0 24V6C0 4.4087 0.632141 2.88258 1.75736 1.75736C2.88258 0.632141 4.4087 0 6 0Z" fill="#151339"/>
</svg>
