<svg width="21" height="21" viewBox="0 0 21 21" fill="none" xmlns="http://www.w3.org/2000/svg">
<path d="M10.5 8.5633L2.75992 0.823223L2.58315 0.646447L2.40637 0.823223L0.823223 2.40637L0.646447 2.58315L0.823223 2.75992L8.5633 10.5L0.823223 18.2401L0.646447 18.4169L0.823223 18.5936L2.40637 20.1768L2.58315 20.3536L2.75992 20.1768L10.5 12.4367L18.2401 20.1768L18.4169 20.3536L18.5936 20.1768L20.1768 18.5936L20.3536 18.4169L20.1768 18.2401L12.4367 10.5L20.1768 2.75992L20.3536 2.58315L20.1768 2.40637L18.5936 0.823223L18.4169 0.646447L18.2401 0.823223L10.5 8.5633Z" fill="#7C78A6" stroke="#7C78A6" stroke-width="0.5"/>
</svg>
