<svg width="24" height="24" viewBox="0 0 24 24" fill="none" xmlns="http://www.w3.org/2000/svg">
<path d="M11.7499 11.7493C13.0185 4.253 10.0713 2.42735 7.91094 3.60828C6.17947 4.55467 6.47234 6.40414 6.47609 6.47551C6.27497 6.46492 4.53164 6.22359 3.60952 7.91067C2.42373 10.08 4.26088 13.0167 11.7499 11.7493Z" fill="white"/>
<path d="M16.0884 20.3897C17.8199 19.4433 17.527 17.5939 17.5233 17.5225C17.6068 17.5269 19.4457 17.8146 20.3898 16.0874C21.5755 13.9184 19.7387 10.9814 12.2495 12.2487C10.9811 19.7441 13.9274 21.571 16.0884 20.3897Z" fill="white"/>
<path d="M11.8473 18.7947C11.3727 17.4924 11.1426 15.4738 11.6488 12.352C8.41634 12.8761 6.43444 12.6018 5.20506 12.1533C1.30806 13.6523 3.17953 17.9857 6.17263 17.8281C6.01518 20.8196 10.3484 22.6919 11.8473 18.7947Z" fill="white"/>
<path d="M12.3521 11.6482C15.4747 11.1419 17.4935 11.3722 18.7957 11.8469C22.6929 10.348 20.8214 6.01455 17.8283 6.17208C17.9857 3.18061 13.6522 1.30767 12.1533 5.20455C12.6282 6.50687 12.8585 8.52563 12.3521 11.6482Z" fill="white"/>
</svg>
