<svg width="29" height="33" viewBox="0 0 29 33" fill="none" xmlns="http://www.w3.org/2000/svg">
<path fill-rule="evenodd" clip-rule="evenodd" d="M19.4402 32.0705C17.608 32.0705 15.817 31.5223 14.2936 30.4953C12.7703 29.4683 11.5829 28.0085 10.8818 26.3006C10.1807 24.5928 9.9972 22.7135 10.3546 20.9004C10.7121 19.0873 11.5943 17.4219 12.8899 16.1148C14.1854 14.8076 15.836 13.9174 17.633 13.5568C19.4299 13.1962 21.2925 13.3813 22.9852 14.0887C24.6779 14.7961 26.1247 15.9941 27.1426 17.5311C28.1605 19.0682 28.7038 20.8753 28.7038 22.7238C28.7038 25.2027 27.7278 27.5801 25.9905 29.3329C24.2533 31.0857 21.897 32.0705 19.4402 32.0705ZM15.1835 21.5996H17.6663V24.1046H15.1835V21.5996ZM23.7235 21.5996H21.2407V24.1046H23.7235V21.5996ZM18.2048 24.663H20.6876V27.1681H18.2048V24.663ZM20.6876 18.5362H18.2048V21.0412H20.6876V18.5362ZM17.6663 18.5362V21.0412H15.1835C16.0152 20.2104 16.8427 19.3753 17.6663 18.5362ZM21.2415 21.0412H23.7243C22.8927 20.2103 22.065 19.3754 21.2415 18.5362V21.0412ZM15.1835 24.663H17.6663V27.1681C16.8428 26.3289 16.0151 25.494 15.1835 24.663ZM23.6443 24.663H21.1615C21.9932 25.494 22.8208 26.3289 23.6443 27.1681V24.663Z" fill="#151339"/>
<path d="M9.40468 11.5967C14.0951 11.5967 17.8963 9.2055 17.8963 6.25664C17.8963 3.30778 14.0951 0.915039 9.40468 0.915039C4.71423 0.915039 0.913086 3.30622 0.913086 6.25664C0.913086 9.20706 4.71423 11.5967 9.40468 11.5967Z" fill="#151339"/>
<path d="M8.12785 17.739C8.65488 16.5331 9.36772 15.419 10.2399 14.4381C10.1476 14.4437 10.0559 14.4513 9.96418 14.4589L9.96403 14.4589C9.77979 14.4742 9.59533 14.4895 9.40468 14.4895C4.71423 14.4895 0.913086 12.0983 0.913086 9.14942V12.4862C0.913086 15.1609 4.05034 17.348 8.12785 17.739Z" fill="#151339"/>
<path d="M7.3034 24.992C7.16363 24.2441 7.09179 23.4849 7.08879 22.7238C7.08879 22.35 7.11195 21.9808 7.14437 21.6147C3.55629 20.9932 0.913086 18.9478 0.913086 16.4928V19.8311C0.913086 22.3219 3.63348 24.4016 7.3034 24.992Z" fill="#151339"/>
<path d="M9.40468 32.0705C9.96157 32.07 10.5179 32.0352 11.0706 31.9661C10.6883 31.604 10.3405 31.2065 10.0315 30.7791C9.48431 30.1315 9.00374 29.4295 8.59721 28.6839C4.2912 28.4253 0.913086 26.1681 0.913086 23.3921V26.7289C0.913086 29.6793 4.71423 32.0705 9.40468 32.0705Z" fill="#151339"/>
</svg>
