<svg width="31" height="31" viewBox="0 0 31 31" fill="none" xmlns="http://www.w3.org/2000/svg">
<path d="M15.5002 2.58398C12.9455 2.58398 10.4482 3.34153 8.32405 4.76084C6.19992 6.18014 4.54436 8.19744 3.56672 10.5577C2.58909 12.9179 2.3333 15.515 2.83169 18.0206C3.33008 20.5262 4.56028 22.8277 6.36671 24.6341C8.17313 26.4405 10.4747 27.6707 12.9803 28.1691C15.4858 28.6675 18.083 28.4117 20.4432 27.4341C22.8034 26.4565 24.8207 24.8009 26.24 22.6768C27.6593 20.5526 28.4168 18.0553 28.4168 15.5007C28.4168 13.8044 28.0827 12.1248 27.4336 10.5577C26.7845 8.99053 25.8331 7.56661 24.6336 6.36719C23.4342 5.16777 22.0103 4.21633 20.4432 3.56721C18.876 2.91808 17.1964 2.58398 15.5002 2.58398ZM20.2923 18.4586C20.4133 18.5786 20.5094 18.7215 20.575 18.8789C20.6406 19.0363 20.6743 19.2051 20.6743 19.3757C20.6743 19.5462 20.6406 19.715 20.575 19.8724C20.5094 20.0298 20.4133 20.1727 20.2923 20.2927C20.1722 20.4138 20.0293 20.5099 19.8719 20.5755C19.7145 20.641 19.5457 20.6748 19.3752 20.6748C19.2047 20.6748 19.0358 20.641 18.8784 20.5755C18.721 20.5099 18.5782 20.4138 18.4581 20.2927L15.5002 17.3348L12.5423 20.2927C12.4222 20.4138 12.2793 20.5099 12.1219 20.5755C11.9645 20.641 11.7957 20.6748 11.6252 20.6748C11.4547 20.6748 11.2858 20.641 11.1284 20.5755C10.971 20.5099 10.8282 20.4138 10.7081 20.2927C10.587 20.1727 10.4909 20.0298 10.4254 19.8724C10.3598 19.715 10.326 19.5462 10.326 19.3757C10.326 19.2051 10.3598 19.0363 10.4254 18.8789C10.4909 18.7215 10.587 18.5786 10.7081 18.4586L13.666 15.5007L10.7081 12.5427C10.4649 12.2995 10.3282 11.9696 10.3282 11.6257C10.3282 11.2817 10.4649 10.9518 10.7081 10.7086C10.9513 10.4653 11.2812 10.3287 11.6252 10.3287C11.9691 10.3287 12.299 10.4653 12.5423 10.7086L15.5002 13.6665L18.4581 10.7086C18.7013 10.4653 19.0312 10.3287 19.3752 10.3287C19.7191 10.3287 20.049 10.4653 20.2923 10.7086C20.5355 10.9518 20.6721 11.2817 20.6721 11.6257C20.6721 11.9696 20.5355 12.2995 20.2923 12.5427L17.3343 15.5007L20.2923 18.4586Z" fill="#151339"/>
</svg>
