<svg width="29" height="19" viewBox="0 0 29 19" fill="none" xmlns="http://www.w3.org/2000/svg">
<path d="M26.6376 0.655273C25.7089 0.655273 24.9534 1.41469 24.9534 2.34813C24.9534 2.81486 25.1423 3.2381 25.4472 3.54459L20.3216 8.69644L15.3872 3.73685C15.824 3.43068 16.111 2.92282 16.111 2.34819C16.111 1.41474 15.3554 0.655328 14.4267 0.655328C13.498 0.655328 12.7424 1.41474 12.7424 2.34819C12.7424 2.92282 13.0293 3.43068 13.4662 3.73685L8.53176 8.69644L3.40617 3.54459C3.71111 3.2381 3.9 2.81486 3.9 2.34813C3.9 1.41469 3.14444 0.655273 2.21573 0.655273C1.28703 0.655273 0.53125 1.41469 0.53125 2.34813C0.53125 3.13526 1.06921 3.79664 1.79448 3.98529V18.8537H27.0587V3.98535C27.784 3.79664 28.3219 3.13526 28.3219 2.34813C28.3219 1.41469 27.5664 0.655273 26.6376 0.655273Z" fill="#151339"/>
</svg>
