<svg width="26" height="26" viewBox="0 0 26 26" fill="none" xmlns="http://www.w3.org/2000/svg">
<path d="M24.5736 4.81601H20.9755C21.1558 3.72568 21.2622 2.62429 21.2938 1.51945C21.2939 1.41121 21.2727 1.30401 21.2315 1.20399C21.1903 1.10398 21.1299 1.0131 21.0538 0.93656C20.9776 0.860019 20.8872 0.799316 20.7877 0.757921C20.6882 0.716526 20.5816 0.695251 20.4739 0.695313H5.71466C5.60696 0.695251 5.50031 0.716526 5.4008 0.757921C5.30129 0.799316 5.21087 0.860019 5.13472 0.93656C5.05857 1.0131 4.99817 1.10398 4.95699 1.20399C4.91581 1.30401 4.89464 1.41121 4.8947 1.51945C4.92631 2.62429 5.03267 3.72568 5.21304 4.81601H1.61488C1.50718 4.81595 1.40053 4.83722 1.30102 4.87862C1.20151 4.92001 1.1111 4.98071 1.03494 5.05725C0.958792 5.13379 0.898397 5.22467 0.857212 5.32469C0.816027 5.42471 0.794861 5.5319 0.794922 5.64015V8.9367C0.800995 10.2348 1.08638 11.5162 1.6315 12.693C2.17663 13.8698 2.96858 14.9141 3.95303 15.7544C5.09508 16.7272 6.53983 17.2676 8.03677 17.2819C8.20798 17.2819 8.37979 17.2711 8.55164 17.2564C9.02081 18.4033 9.63462 19.4849 10.378 20.4746H8.99448C8.88678 20.4746 8.78013 20.4959 8.68062 20.5373C8.58111 20.5786 8.4907 20.6394 8.41455 20.7159C8.33839 20.7924 8.278 20.8833 8.23681 20.9833C8.19563 21.0833 8.17446 21.1905 8.17452 21.2988V24.5953C8.17446 24.7036 8.19563 24.8108 8.23681 24.9108C8.278 25.0108 8.33839 25.1017 8.41455 25.1782C8.4907 25.2548 8.58111 25.3155 8.68062 25.3569C8.78013 25.3983 8.88678 25.4195 8.99448 25.4195H17.194C17.3017 25.4195 17.4084 25.3983 17.5079 25.3569C17.6074 25.3155 17.6978 25.2548 17.774 25.1782C17.8501 25.1017 17.9105 25.0108 17.9517 24.9108C17.9929 24.8108 18.0141 24.7036 18.014 24.5953V21.2988C18.0141 21.1905 17.9929 21.0833 17.9517 20.9833C17.9105 20.8833 17.8501 20.7924 17.774 20.7159C17.6978 20.6394 17.6074 20.5786 17.5079 20.5373C17.4084 20.4959 17.3017 20.4746 17.194 20.4746H15.8105C16.5539 19.4849 17.1677 18.4033 17.6368 17.2564C17.8087 17.2711 17.9805 17.2819 18.1517 17.2819C19.6486 17.2672 21.0932 16.7268 22.2354 15.7544C23.2199 14.9141 24.0119 13.8698 24.557 12.693C25.1021 11.5162 25.3875 10.2348 25.3936 8.9367V5.64015C25.3937 5.5319 25.3725 5.42471 25.3313 5.32469C25.2901 5.22467 25.2297 5.13379 25.1536 5.05725C25.0774 4.98071 24.987 4.92001 24.8875 4.87862C24.788 4.83722 24.6813 4.81595 24.5736 4.81601ZM4.99239 14.4795C4.19884 13.7912 3.5603 12.9409 3.1193 11.9851C2.67831 11.0294 2.44497 9.99018 2.43483 8.9367V6.46428H5.48659C5.89842 8.73225 6.43408 10.9757 7.09112 13.1846C7.35667 14.0658 7.62797 14.8743 7.90363 15.6264C6.83348 15.5794 5.80928 15.1759 4.99239 14.4795ZM16.3741 22.1229V23.7712H9.81443V22.1229H16.3741ZM23.7537 8.9367C23.7435 9.99018 23.5102 11.0294 23.0692 11.9851C22.6282 12.9409 21.9897 13.7912 21.1961 14.4795C20.3792 15.1752 19.3553 15.578 18.2855 15.6244C18.5609 14.8731 18.832 14.065 19.0974 13.1846C19.7544 10.9757 20.2901 8.73225 20.7019 6.46428H23.7537V8.9367Z" fill="#151339"/>
</svg>
