<svg width="25" height="25" viewBox="0 0 25 25" fill="none" xmlns="http://www.w3.org/2000/svg">
<path d="M17.8995 17.7626C16.0754 18.5367 13.8988 18.9617 11.999 18.9617C10.0993 18.9617 7.9276 18.5271 6.09821 17.7626C4.26881 16.9981 4 16.3508 4 16.3508V17.8199C4 19.0178 4.69222 19.4981 6.58891 20.2946C8.04297 20.9053 9.96773 21.2287 11.999 21.2287C14.0303 21.2287 15.9551 20.9053 17.4091 20.2946C19.3058 19.4981 19.998 19.0178 19.998 17.8199V16.3508C19.998 16.3508 19.7235 16.9888 17.8995 17.7626Z" fill="#4D487E"/>
<path d="M4.60366 9.43088C5.03553 9.80929 5.67353 10.1804 6.44959 10.5046C8.08324 11.1876 10.1588 11.5956 12.0012 11.5956C13.8437 11.5956 15.9192 11.1876 17.5529 10.5046C18.327 10.1804 18.965 9.80929 19.3969 9.43088C19.6299 9.22667 19.8141 9.04169 19.9149 8.9367C19.9697 8.87936 20.0003 8.80302 20.0002 8.72365V7.72147V7.71762C19.9679 6.61045 19.05 5.62519 17.4156 4.94335C15.9538 4.33496 14.0314 4 11.9993 4C9.96724 4 8.04478 4.33496 6.58688 4.94335C4.95593 5.62365 4.03873 6.6066 4.0022 7.71109V8.72365C4.00201 8.80297 4.03245 8.8793 4.08719 8.9367C4.18641 9.04169 4.37023 9.22667 4.60366 9.43088Z" fill="#4D487E"/>
<path d="M17.8995 11.3034C16.1908 12.0375 13.8988 12.5024 11.999 12.5024C10.0993 12.5024 7.81223 12.0306 6.09859 11.3034C4.38495 10.5761 4 9.8916 4 9.8916V11.7129C4.00308 12.0021 4.21151 12.3359 4.60339 12.6793C5.03564 13.0578 5.67326 13.4292 6.44932 13.7531C8.08104 14.4364 10.1566 14.8448 11.999 14.8448C13.8415 14.8448 15.917 14.4372 17.5507 13.7538C18.3248 13.43 18.9628 13.0585 19.3947 12.6801C19.7888 12.334 19.9977 11.999 19.998 11.7083V9.8916C19.998 9.8916 19.6085 10.5692 17.8995 11.3034Z" fill="#4D487E"/>
<path d="M17.8995 14.5519C16.0754 15.3064 13.8988 15.751 11.999 15.751C10.0993 15.751 7.77377 15.2587 6.09859 14.5519C4.42341 13.8451 4 13.1401 4 13.1401V14.9188C4 15.2091 4.20921 15.5448 4.60339 15.8902C5.03526 16.2686 5.67287 16.6401 6.44932 16.9639C8.08296 17.6473 10.1581 18.0549 12.0009 18.0549C13.8438 18.0549 15.9189 17.6473 17.5526 16.9639C18.3267 16.6397 18.9647 16.2686 19.3966 15.8902C19.7885 15.5468 19.9969 15.213 20 14.9238V13.1401C20 13.1401 19.7238 13.7974 17.8995 14.5519Z" fill="#4D487E"/>
</svg>
