<svg width="26" height="29" viewBox="0 0 26 29" fill="none" xmlns="http://www.w3.org/2000/svg">
<path d="M24.5534 6.08727L15.0085 0.540496C14.3977 0.186452 13.7043 0 12.9983 0C12.2923 0 11.5988 0.186452 10.988 0.540496L1.4438 6.08727C1.4062 6.10933 1.37503 6.14083 1.35337 6.17865C1.33171 6.21648 1.32031 6.2593 1.32031 6.30289C1.32031 6.34648 1.33171 6.38931 1.35337 6.42713C1.37503 6.46495 1.4062 6.49645 1.4438 6.51851L12.8736 13.2421C12.912 13.2648 12.9558 13.2767 13.0005 13.2767C13.0451 13.2767 13.0889 13.2648 13.1273 13.2421L24.5546 6.51851C24.5922 6.49635 24.6232 6.46475 24.6448 6.42687C24.6663 6.38898 24.6776 6.34612 24.6775 6.30253C24.6774 6.25895 24.6658 6.21615 24.6441 6.17839C24.6223 6.14063 24.591 6.10922 24.5534 6.08727ZM12.9986 7.50162C12.1705 7.50162 11.4986 7.05413 11.4986 6.50164C11.4986 5.94915 12.1705 5.50166 12.9986 5.50166C13.8267 5.50166 14.4986 5.94915 14.4986 6.50164C14.4986 7.05413 13.8267 7.50162 12.9986 7.50162Z" fill="#151339"/>
<path d="M11.8748 14.927L0.374993 8.21904C0.337008 8.19711 0.293921 8.18556 0.25006 8.18555C0.206198 8.18554 0.163105 8.19706 0.125109 8.21898C0.087112 8.24089 0.055549 8.27241 0.033589 8.31038C0.011629 8.34835 4.49626e-05 8.39142 0 8.43529V19.3051C0.000943548 19.8288 0.138978 20.3432 0.400376 20.797C0.661773 21.2508 1.03743 21.6283 1.48997 21.8919L11.6248 27.9687C11.6628 27.9906 11.7059 28.0022 11.7497 28.0022C11.7936 28.0022 11.8367 27.9907 11.8747 27.9687C11.9127 27.9468 11.9442 27.9153 11.9662 27.8773C11.9882 27.8394 11.9997 27.7963 11.9998 27.7524V15.1433C11.9997 15.0994 11.9882 15.0564 11.9662 15.0184C11.9443 14.9805 11.9128 14.949 11.8748 14.927ZM2.99995 21.0013C2.44746 21.0013 1.99996 20.3294 1.99996 19.5013C1.99996 18.6732 2.44746 18.0014 2.99995 18.0014C3.55244 18.0014 3.99993 18.6732 3.99993 19.5013C3.99993 20.3294 3.55244 21.0013 2.99995 21.0013ZM8.99984 19.0013C8.44735 19.0013 7.99985 18.3295 7.99985 17.5014C7.99985 16.6733 8.44735 16.0014 8.99984 16.0014C9.55233 16.0014 9.99982 16.6733 9.99982 17.5014C9.99982 18.3295 9.55233 19.0013 8.99984 19.0013Z" fill="#151339"/>
<path d="M25.6248 8.221L14.125 14.974C14.0871 14.9959 14.0556 15.0273 14.0337 15.0651C14.0118 15.103 14.0002 15.1459 14 15.1896V27.7513C14 27.7951 14.0116 27.8382 14.0336 27.8762C14.0555 27.9141 14.0871 27.9457 14.1251 27.9676C14.1631 27.9895 14.2062 28.001 14.2501 28.001C14.2939 28.001 14.337 27.9894 14.375 27.9675L24.5092 21.8907C24.9617 21.6273 25.3373 21.2501 25.5988 20.7965C25.8603 20.3429 25.9986 19.8287 25.9998 19.3052V8.43912C26.0001 8.3951 25.9887 8.35178 25.9669 8.31355C25.9451 8.27532 25.9135 8.24353 25.8755 8.2214C25.8374 8.19926 25.7942 8.18757 25.7502 8.1875C25.7062 8.18743 25.6629 8.19898 25.6248 8.221ZM16.9999 24.5013C16.4475 24.5013 16 23.8295 16 23.0014C16 22.1732 16.4475 21.5014 16.9999 21.5014C17.5524 21.5014 17.9999 22.1732 17.9999 23.0014C17.9999 23.8295 17.5524 24.5013 16.9999 24.5013ZM16.9999 19.0014C16.4475 19.0014 16 18.3296 16 17.5015C16 16.6733 16.4475 16.0015 16.9999 16.0015C17.5524 16.0015 17.9999 16.6733 17.9999 17.5015C17.9999 18.3296 17.5524 19.0014 16.9999 19.0014ZM22.9998 21.0014C22.4473 21.0014 21.9999 20.3295 21.9999 19.5014C21.9999 18.6733 22.4473 18.0014 22.9998 18.0014C23.5523 18.0014 23.9998 18.6733 23.9998 19.5014C23.9998 20.3295 23.5523 21.0014 22.9998 21.0014ZM22.9998 15.5015C22.4473 15.5015 21.9999 14.8296 21.9999 14.0015C21.9999 13.1734 22.4473 12.5015 22.9998 12.5015C23.5523 12.5015 23.9998 13.1734 23.9998 14.0015C23.9998 14.8296 23.5523 15.5015 22.9998 15.5015Z" fill="#151339"/>
</svg>
