<svg width="25" height="25" viewBox="0 0 25 25" fill="none" xmlns="http://www.w3.org/2000/svg">
<path d="M15.4875 19.0831L13.47 17.0644C12.6898 17.3433 11.8464 17.395 11.038 17.2133C10.2296 17.0317 9.48941 16.6242 8.90352 16.0383C8.31764 15.4525 7.91018 14.7122 7.72854 13.9038C7.5469 13.0954 7.59856 12.2521 7.8775 11.4719L5.3025 8.89687C3.1725 10.7906 2 12.9431 2 12.9431C2 12.9431 5.75 19.8181 12 19.8181C13.2005 19.8139 14.3874 19.5638 15.4875 19.0831ZM8.5125 6.80312C9.61257 6.3224 10.7995 6.07225 12 6.06812C18.25 6.06812 22 12.9431 22 12.9431C22 12.9431 20.8263 15.0944 18.6987 16.9906L16.1213 14.4131C16.4002 13.6329 16.4519 12.7895 16.2702 11.9811C16.0886 11.1727 15.6811 10.4325 15.0952 9.84664C14.5093 9.26076 13.7691 8.85329 12.9607 8.67165C12.1523 8.49001 11.3089 8.54167 10.5287 8.82062L8.5125 6.80312Z" fill="#7771A6"/>
<path d="M8.90057 12.5C8.83181 12.9804 8.87588 13.4702 9.02927 13.9306C9.18267 14.391 9.44119 14.8093 9.78433 15.1525C10.1275 15.4956 10.5458 15.7541 11.0062 15.9075C11.4666 16.0609 11.9564 16.105 12.4368 16.0363L8.90057 12.5ZM15.0881 13.385L11.5518 9.8475C12.0322 9.77874 12.522 9.82281 12.9824 9.9762C13.4428 10.1296 13.8612 10.3881 14.2043 10.7313C14.5475 11.0744 14.806 11.4928 14.9594 11.9532C15.1128 12.4136 15.1568 12.9034 15.0881 13.3838V13.385ZM19.0518 20.885L4.05182 5.885L4.93682 5L19.9368 20L19.0518 20.885Z" fill="#7771A6"/>
</svg>
