<svg width="25" height="25" viewBox="0 0 25 25" fill="none" xmlns="http://www.w3.org/2000/svg">
<path d="M15.125 12.875C15.125 13.7038 14.7958 14.4987 14.2097 15.0847C13.6237 15.6708 12.8288 16 12 16C11.1712 16 10.3763 15.6708 9.79029 15.0847C9.20424 14.4987 8.875 13.7038 8.875 12.875C8.875 12.0462 9.20424 11.2513 9.79029 10.6653C10.3763 10.0792 11.1712 9.75 12 9.75C12.8288 9.75 13.6237 10.0792 14.2097 10.6653C14.7958 11.2513 15.125 12.0462 15.125 12.875Z" fill="#7771A6"/>
<path d="M2 12.875C2 12.875 5.75 6 12 6C18.25 6 22 12.875 22 12.875C22 12.875 18.25 19.75 12 19.75C5.75 19.75 2 12.875 2 12.875ZM12 17.25C13.1603 17.25 14.2731 16.7891 15.0936 15.9686C15.9141 15.1481 16.375 14.0353 16.375 12.875C16.375 11.7147 15.9141 10.6019 15.0936 9.78141C14.2731 8.96094 13.1603 8.5 12 8.5C10.8397 8.5 9.72688 8.96094 8.90641 9.78141C8.08594 10.6019 7.625 11.7147 7.625 12.875C7.625 14.0353 8.08594 15.1481 8.90641 15.9686C9.72688 16.7891 10.8397 17.25 12 17.25Z" fill="#7771A6"/>
</svg>
