<svg width="25" height="25" viewBox="0 0 25 25" fill="none" xmlns="http://www.w3.org/2000/svg">
<path d="M12.7202 25C10.9727 24.9998 9.26554 24.4747 7.82008 23.4927C6.37462 22.5107 5.25752 21.117 4.61361 19.4925C3.96971 17.8679 3.82871 16.0874 4.20889 14.3818C4.58907 12.6761 5.47289 11.124 6.74577 9.92674C8.30623 8.45814 12.1388 5.81395 11.5574 0C18.5341 4.65116 22.0225 9.30233 15.0458 16.2791C16.2086 16.2791 17.9527 16.2791 20.8597 13.407C21.1737 14.3058 21.4411 15.2721 21.4411 16.2791C21.4411 18.592 20.5223 20.8102 18.8868 22.4457C17.2513 24.0812 15.0331 25 12.7202 25Z" fill="#EA4382"/>
</svg>
