<svg width="30" height="30" viewBox="0 0 30 30" fill="none" xmlns="http://www.w3.org/2000/svg">
<path d="M18.2998 2.41663C17.8753 0.917359 16.7046 0 15 0C13.2954 0 12.1247 0.910513 11.7002 2.41663C5.48411 3.92958 1 9.55697 1 15.9922C1 23.7076 7.27775 29.9922 15 29.9922C22.7222 29.9922 29 23.7144 29 15.9922C29 9.55697 24.5159 3.92958 18.2998 2.41663ZM22.332 15.3076H16.6499L20.6753 11.2822C21.6064 12.4049 22.1883 13.8015 22.332 15.3076ZM10.3037 21.6538L14.3154 17.6421V23.3174C12.7956 23.1736 11.4196 22.578 10.3037 21.6538ZM7.67482 16.6768H13.3501L9.33839 20.6885C8.41418 19.5726 7.81858 18.1966 7.67482 16.6768ZM14.3154 11.1932V14.3355L10.29 10.31C11.0636 9.6665 11.9672 9.18729 12.9667 8.9066C13.5281 10.0156 14.0758 10.844 14.3154 11.1932ZM9.31785 11.2753L13.3433 15.3007H7.66112C7.80489 13.7946 8.3868 12.398 9.31785 11.2753ZM15.6846 17.6421L19.6963 21.6538C18.5804 22.578 17.2044 23.1736 15.6846 23.3174V17.6421ZM20.6616 20.6885L16.6499 16.6768H22.3252C22.1814 18.1966 21.5858 19.5726 20.6616 20.6885ZM15.6846 14.3423V11.2C15.9242 10.8577 16.4719 10.0225 17.0333 8.91345C18.0328 9.20098 18.9364 9.68019 19.71 10.3169L15.6846 14.3423ZM15 1.37604C15.9721 1.37604 17.1359 1.77995 17.1359 3.71736C17.1359 5.95599 15.7873 8.46846 15 9.74181C14.2127 8.46846 12.8641 5.96284 12.8641 3.71736C12.8641 1.77995 14.0279 1.37604 15 1.37604ZM15 28.623C8.03765 28.623 2.36919 22.9545 2.36919 15.9922C2.36919 10.3648 6.17555 5.44254 11.5086 3.9022C11.5428 5.1824 11.9125 6.49682 12.3917 7.66064C8.61956 8.84499 6.23716 12.3638 6.23716 15.9922C6.23716 20.8117 10.1531 24.755 15 24.755C19.8469 24.755 23.7628 20.8391 23.7628 15.9922C23.7628 12.3844 21.401 8.85183 17.6083 7.66064C18.0875 6.49682 18.4572 5.1824 18.4914 3.9022C23.8244 5.44254 27.6308 10.3648 27.6308 15.9922C27.6308 22.9545 21.9623 28.623 15 28.623Z" fill="#423D72"/>
<path d="M15 28.623C8.03765 28.623 2.36919 22.9545 2.36919 15.9922C2.36919 10.3648 6.17555 5.44254 11.5086 3.9022C11.5428 5.1824 11.9125 6.49682 12.3917 7.66064C8.61956 8.84499 6.23716 12.3638 6.23716 15.9922C6.23716 20.8117 10.1531 24.755 15 24.755C19.8469 24.755 23.7628 20.8391 23.7628 15.9922C23.7628 12.3844 21.401 8.85183 17.6083 7.66064C18.0875 6.49682 18.4572 5.1824 18.4914 3.9022C23.8244 5.44254 27.6308 10.3648 27.6308 15.9922C27.6308 22.9545 21.9623 28.623 15 28.623Z" fill="#423D72"/>
</svg>
