<svg width="27" height="26" viewBox="0 0 27 26" fill="none" xmlns="http://www.w3.org/2000/svg">
<path d="M2.31329 24.9764C2.31329 25.5191 2.76477 25.9575 3.32359 25.9575H12.3531V14.4295H2.31329V24.9764ZM14.5 25.9575H23.5295C24.0883 25.9575 24.5397 25.5191 24.5397 24.9764V14.4295H14.5V25.9575ZM25.0449 7.07114H20.3849C20.8143 6.41502 21.0669 5.63626 21.0669 4.80232C21.0669 2.46912 19.1126 0.571289 16.71 0.571289C15.4029 0.571289 14.2253 1.13543 13.4265 2.02456C12.6278 1.13543 11.4501 0.571289 10.1431 0.571289C7.74046 0.571289 5.78618 2.46912 5.78618 4.80232C5.78618 5.63626 6.03559 6.41502 6.46812 7.07114H1.80814C1.24933 7.07114 0.797852 7.50957 0.797852 8.05225V12.3446H12.3531V7.07114H14.5V12.3446H26.0552V8.05225C26.0552 7.50957 25.6037 7.07114 25.0449 7.07114ZM12.3531 6.9485H10.1431C8.9244 6.9485 7.93305 5.98578 7.93305 4.80232C7.93305 3.61886 8.9244 2.65615 10.1431 2.65615C11.3617 2.65615 12.3531 3.61886 12.3531 4.80232V6.9485ZM16.71 6.9485H14.5V4.80232C14.5 3.61886 15.4913 2.65615 16.71 2.65615C17.9286 2.65615 18.92 3.61886 18.92 4.80232C18.92 5.98578 17.9286 6.9485 16.71 6.9485Z" fill="white"/>
</svg>
