<svg width="26" height="23" viewBox="0 0 26 23" fill="none" xmlns="http://www.w3.org/2000/svg">
<path d="M13 22L12.9386 22.0789L13 22.1267L13.0614 22.0789L13 22ZM13 22C13.0614 22.0789 13.0615 22.0789 13.0616 22.0788L13.062 22.0785L13.0637 22.0772L13.0703 22.072L13.0962 22.0517C13.119 22.0338 13.1528 22.0072 13.1969 21.9723C13.285 21.9025 13.4142 21.7995 13.5785 21.6667C13.9072 21.401 14.3765 21.0159 14.9397 20.5377C16.066 19.5814 17.568 18.2525 19.0704 16.7627C20.5724 15.2732 22.077 13.6207 23.2068 12.017C24.3335 10.4176 25.1 8.84972 25.1 7.53333C25.1 3.8588 22.0526 0.9 18.28 0.9C16.1345 0.9 14.2224 1.92041 13 3.51669C11.7776 1.92041 9.86552 0.9 7.72 0.9C3.94745 0.9 0.9 3.8588 0.9 7.53333C0.9 8.84972 1.66646 10.4176 2.79325 12.017C3.92305 13.6207 5.42764 15.2732 6.92959 16.7627C8.43197 18.2525 9.93402 19.5814 11.0603 20.5377C11.6235 21.0159 12.0928 21.401 12.4215 21.6667C12.5858 21.7995 12.715 21.9025 12.8031 21.9723C12.8472 22.0072 12.881 22.0338 12.9038 22.0517L12.9297 22.072L12.9363 22.0772L12.938 22.0785L12.9384 22.0788C12.9385 22.0789 12.9386 22.0789 13 22ZM12.9175 6.88989L13.0021 7.01327L13.0838 6.88793L13.0838 6.88792L13.0838 6.88786L13.0841 6.88748L13.0852 6.88578L13.0899 6.87868L13.109 6.85026C13.1261 6.8252 13.1516 6.7882 13.1853 6.74098C13.2526 6.64652 13.3523 6.51121 13.4814 6.34865C13.7398 6.0234 14.1151 5.5899 14.5829 5.15671C15.5217 4.2875 16.818 3.43333 18.28 3.43333C20.6274 3.43333 22.5 5.25787 22.5 7.53333C22.5 8.08859 22.2195 8.82742 21.7058 9.69543C21.1943 10.5599 20.4595 11.5394 19.5693 12.5722C17.8043 14.6198 15.4348 16.8693 13.0009 18.8374C10.5663 16.8115 8.19617 14.5328 6.43074 12.4847C5.5403 11.4517 4.80545 10.4793 4.29381 9.62916C3.77975 8.77499 3.5 8.05857 3.5 7.53333C3.5 5.25787 5.37255 3.43333 7.72 3.43333C9.12155 3.43333 10.4177 4.28687 11.3726 5.15724C11.8482 5.59072 12.2349 6.0245 12.5028 6.35C12.6366 6.51267 12.7406 6.6481 12.811 6.74266C12.8462 6.78993 12.873 6.82698 12.8909 6.85209L12.9111 6.88058L12.916 6.88771L12.9172 6.88943L12.9175 6.88982L12.9175 6.88989Z" fill="#7C78A6" stroke="#7C78A6" stroke-width="0.2"/>
</svg>
