<svg width="29" height="26" viewBox="0 0 29 26" fill="none" xmlns="http://www.w3.org/2000/svg">
<path d="M14.5 25L14.438 25.0785L14.5 25.1274L14.562 25.0785L14.5 25ZM14.5 25C14.562 25.0785 14.5621 25.0784 14.5622 25.0783L14.5627 25.0779L14.5645 25.0765L14.5719 25.0706L14.6011 25.0474C14.6267 25.027 14.6647 24.9966 14.7143 24.9567C14.8134 24.8769 14.9587 24.7593 15.1435 24.6075C15.5132 24.3039 16.0412 23.8638 16.6747 23.3174C17.9416 22.2246 19.6311 20.7062 21.321 19.0038C23.0104 17.3018 24.7024 15.4138 25.9728 13.582C27.2403 11.7543 28.1 9.9659 28.1 8.46667C28.1 4.27694 24.6791 0.9 20.44 0.9C18.0242 0.9 15.8722 2.06989 14.5 3.89809C13.1278 2.06989 10.9758 0.9 8.56 0.9C4.32095 0.9 0.9 4.27694 0.9 8.46667C0.9 9.9659 1.75974 11.7543 3.0272 13.582C4.29755 15.4138 5.98959 17.3018 7.67903 19.0038C9.3689 20.7062 11.0584 22.2246 12.3253 23.3174C12.9588 23.8638 13.4868 24.3039 13.8565 24.6075C14.0413 24.7593 14.1866 24.8769 14.2857 24.9567C14.3046 24.9719 14.3218 24.9857 14.3373 24.9981C14.3624 25.0183 14.3831 25.0348 14.3989 25.0474L14.4281 25.0706L14.4355 25.0765L14.4373 25.0779L14.4378 25.0783C14.4379 25.0784 14.438 25.0785 14.5 25Z" fill="#151339" stroke="#151339" stroke-width="0.2"/>
</svg>
