<svg width="21" height="21" viewBox="0 0 21 21" fill="none" xmlns="http://www.w3.org/2000/svg">
<path d="M19.8058 9.81961L11.1808 1.19461C11.0917 1.10478 10.9857 1.03349 10.8689 0.984835C10.7521 0.936182 10.6269 0.911133 10.5003 0.911133C10.3738 0.911133 10.2486 0.936182 10.1318 0.984835C10.015 1.03349 9.90901 1.10478 9.81992 1.19461L1.19492 9.81961C1.01447 10.0001 0.913086 10.2448 0.913086 10.5C0.913086 10.7552 1.01447 11 1.19492 11.1804C1.37538 11.3609 1.62013 11.4623 1.87534 11.4623C2.13055 11.4623 2.3753 11.3609 2.55576 11.1804L2.83367 10.8929V18.4542C2.85115 18.9025 3.04549 19.3256 3.37416 19.6309C3.70284 19.9362 4.13908 20.0989 4.58742 20.0834H7.14617C7.40034 20.0834 7.6441 19.9824 7.82382 19.8027C8.00354 19.6229 8.10451 19.3792 8.10451 19.125V14.4292C8.10451 14.175 8.20547 13.9313 8.3852 13.7515C8.56492 13.5718 8.80867 13.4709 9.06284 13.4709H11.9378C12.192 13.4709 12.4358 13.5718 12.6155 13.7515C12.7952 13.9313 12.8962 14.175 12.8962 14.4292V19.125C12.8962 19.3792 12.9971 19.6229 13.1769 19.8027C13.3566 19.9824 13.6003 20.0834 13.8545 20.0834H16.4133C16.8616 20.0989 17.2978 19.9362 17.6265 19.6309C17.9552 19.3256 18.1495 18.9025 18.167 18.4542V10.8929L18.4449 11.1804C18.534 11.2703 18.64 11.3416 18.7568 11.3902C18.8736 11.4389 18.9988 11.4639 19.1253 11.4639C19.2519 11.4639 19.3771 11.4389 19.4939 11.3902C19.6107 11.3416 19.7167 11.2703 19.8058 11.1804C19.8956 11.0913 19.9669 10.9854 20.0155 10.8686C20.0642 10.7518 20.0892 10.6265 20.0892 10.5C20.0892 10.3735 20.0642 10.2483 20.0155 10.1315C19.9669 10.0147 19.8956 9.9087 19.8058 9.81961Z" fill="#151339"/>
</svg>
