<svg width="23" height="22" viewBox="0 0 23 22" fill="none" xmlns="http://www.w3.org/2000/svg">
<path d="M11.7787 5.27832C8.6174 5.27832 5.99805 7.80655 5.99805 10.9557C5.99805 14.1049 8.57224 16.6332 11.7787 16.6332C14.9851 16.6332 17.5593 14.0606 17.5593 10.9557C17.5593 7.8509 14.94 5.27832 11.7787 5.27832ZM11.7787 14.5928C9.74643 14.5928 8.07547 12.9517 8.07547 10.9557C8.07547 8.95977 9.74643 7.31864 11.7787 7.31864C13.811 7.31864 15.4819 8.95977 15.4819 10.9557C15.4819 12.9517 13.811 14.5928 11.7787 14.5928Z" fill="#F7F9FB"/>
<path d="M17.7843 6.43098C18.5076 6.43098 19.094 5.85509 19.094 5.14469C19.094 4.43429 18.5076 3.8584 17.7843 3.8584C17.061 3.8584 16.4746 4.43429 16.4746 5.14469C16.4746 5.85509 17.061 6.43098 17.7843 6.43098Z" fill="#F7F9FB"/>
<path d="M21.1697 1.81855C19.9955 0.620968 18.3246 0 16.4278 0H7.12456C3.19553 0 0.576172 2.57258 0.576172 6.43145V15.5242C0.576172 17.4315 1.20843 19.0726 2.47295 20.2702C3.6923 21.4234 5.31811 22 7.16972 22H16.3826C18.3246 22 19.9504 21.379 21.1246 20.2702C22.3439 19.1169 22.9762 17.4758 22.9762 15.5686V6.43145C22.9762 4.56855 22.3439 2.97177 21.1697 1.81855ZM20.9891 15.5686C20.9891 16.9436 20.4923 18.0524 19.6794 18.8065C18.8665 19.5605 17.7375 19.9597 16.3826 19.9597H7.16972C5.81488 19.9597 4.68585 19.5605 3.87295 18.8065C3.06004 18.0081 2.65359 16.8992 2.65359 15.5242V6.43145C2.65359 5.10081 3.06004 3.99194 3.87295 3.19355C4.64069 2.43952 5.81488 2.04032 7.16972 2.04032H16.4729C17.8278 2.04032 18.9568 2.43952 19.7697 3.2379C20.5375 4.03629 20.9891 5.14516 20.9891 6.43145V15.5686Z" fill="#F7F9FB"/>
</svg>
