<svg width="36" height="36" viewBox="0 0 36 36" fill="none" xmlns="http://www.w3.org/2000/svg">
<g clip-path="url(#clip0_1_9235)">
<path d="M24.75 15.75C22.97 15.75 21.2299 16.2778 19.7499 17.2668C18.2698 18.2557 17.1163 19.6613 16.4351 21.3058C15.7539 22.9504 15.5757 24.76 15.9229 26.5058C16.2702 28.2516 17.1274 29.8553 18.386 31.114C19.6447 32.3726 21.2484 33.2298 22.9942 33.5771C24.74 33.9243 26.5496 33.7461 28.1942 33.0649C29.8387 32.3837 31.2443 31.2302 32.2332 29.7501C33.2222 28.2701 33.75 26.53 33.75 24.75C33.7473 22.3639 32.7982 20.0763 31.1109 18.3891C29.4237 16.7018 27.1361 15.7527 24.75 15.75ZM31.3988 23.625H29.2008C29.0547 21.9286 28.5897 20.2749 27.8303 18.7509C28.7622 19.2311 29.5698 19.9214 30.1891 20.7673C30.8084 21.6132 31.2225 22.5915 31.3988 23.625ZM22.5624 23.625C22.7693 21.5916 23.5255 19.6529 24.75 18.0164C25.9747 19.6528 26.731 21.5916 26.9379 23.625H22.5624ZM26.9387 25.875C26.7317 27.9085 25.9751 29.8473 24.75 31.4836C23.5253 29.8472 22.769 27.9084 22.5621 25.875H26.9387ZM21.6702 18.7515C20.9105 20.2752 20.4453 21.9287 20.2989 23.625H18.1013C18.2775 22.5917 18.6916 21.6135 19.3109 20.7677C19.9301 19.9219 20.7384 19.2316 21.6702 18.7515ZM18.1013 25.875H20.2986C20.4447 27.5713 20.9097 29.2247 21.6691 30.7485C20.7373 30.2683 19.9299 29.5781 19.3107 28.7323C18.6915 27.8865 18.2775 26.9083 18.1013 25.875ZM27.8305 30.7485C28.59 29.2247 29.055 27.5713 29.2011 25.875H31.3988C31.2226 26.9084 30.8086 27.8866 30.1894 28.7324C29.5701 29.5782 28.7623 30.2684 27.8305 30.7485Z" fill="white"/>
<path d="M13.5 15.75H6.75V18H13.5V15.75Z" fill="white"/>
<path d="M20.25 6.75H6.75V9H20.25V6.75Z" fill="white"/>
<path d="M20.25 11.25H6.75V13.5H20.25V11.25Z" fill="white"/>
<path d="M13.5 27H6.75V29.25H13.5V27Z" fill="white"/>
<path d="M13.5 33.75H4.5C3.90345 33.7494 3.33152 33.5121 2.9097 33.0903C2.48788 32.6685 2.25063 32.0965 2.25 31.5V4.5C2.25063 3.90345 2.48788 3.33152 2.9097 2.9097C3.33152 2.48788 3.90345 2.25063 4.5 2.25H22.5C23.0965 2.25063 23.6685 2.48788 24.0903 2.9097C24.5121 3.33152 24.7494 3.90345 24.75 4.5V13.5H22.5V4.5H4.5V31.5H13.5V33.75Z" fill="white"/>
</g>
<defs>
<clipPath id="clip0_1_9235">
<rect width="36" height="36" fill="white"/>
</clipPath>
</defs>
</svg>
