<svg width="30" height="30" viewBox="0 0 30 30" fill="none" xmlns="http://www.w3.org/2000/svg">
<path d="M19.5 6C19.8094 6 20.1062 6.12292 20.325 6.34171C20.5437 6.5605 20.6667 6.85725 20.6667 7.16667V12.0667L26.7485 7.80833C26.8359 7.74703 26.9385 7.71091 27.0451 7.70392C27.1517 7.69692 27.2581 7.71932 27.3528 7.76866C27.4476 7.818 27.5269 7.8924 27.5822 7.98374C27.6376 8.07509 27.6668 8.17987 27.6667 8.28667V22.38C27.6668 22.4868 27.6376 22.5916 27.5822 22.6829C27.5269 22.7743 27.4476 22.8487 27.3528 22.898C27.2581 22.9473 27.1517 22.9697 27.0451 22.9627C26.9385 22.9558 26.8359 22.9196 26.7485 22.8583L20.6667 18.6V23.5C20.6667 23.8094 20.5437 24.1062 20.325 24.325C20.1062 24.5437 19.8094 24.6667 19.5 24.6667H3.16667C2.85725 24.6667 2.5605 24.5437 2.34171 24.325C2.12292 24.1062 2 23.8094 2 23.5V7.16667C2 6.85725 2.12292 6.5605 2.34171 6.34171C2.5605 6.12292 2.85725 6 3.16667 6H19.5ZM9.46667 11.6338C9.35908 11.6338 9.2548 11.671 9.17146 11.739C9.08812 11.807 9.03085 11.9018 9.00933 12.0072L9 12.0993V18.565C8.99999 18.6406 9.01833 18.715 9.05345 18.7819C9.08858 18.8489 9.13942 18.9062 9.20162 18.9492C9.26383 18.9921 9.33552 19.0193 9.41055 19.0283C9.48557 19.0374 9.56168 19.0282 9.63233 19.0013L9.7175 18.9593L14.7983 15.7253C14.8576 15.6874 14.9076 15.6366 14.9444 15.5766C14.9813 15.5166 15.0041 15.4491 15.0111 15.3791C15.0182 15.3091 15.0094 15.2384 14.9852 15.1723C14.9611 15.1061 14.9223 15.0463 14.8718 14.9973L14.7983 14.939L9.7175 11.705C9.64222 11.6583 9.55523 11.6329 9.46667 11.6338Z" fill="#423D72"/>
</svg>
