<svg width="27" height="24" viewBox="0 0 27 24" fill="none" xmlns="http://www.w3.org/2000/svg">
<path d="M2.91083 8.31449H9.69177L7.48034 15.1165H0.699398L2.91083 8.31449Z" fill="#F1F2F4"/>
<path d="M19.4546 8.31823H26.2355L24.0241 15.1202H17.2432L19.4546 8.31823Z" fill="#F1F2F4"/>
<path d="M11.1668 16.629H17.9478L15.7364 23.431H8.9554L11.1668 16.629Z" fill="#F1F2F4"/>
<path d="M11.1633 0H17.9442L15.7328 6.80199H8.95184L11.1633 0Z" fill="#F1F2F4"/>
<path d="M8.99237 0L6.78094 6.80199H0C8.99237 0 0 6.80199 8.99237 0Z" fill="#F1F2F4"/>
<path d="M24.7245 6.80199H17.9436L20.155 0C24.7245 6.80199 20.155 0 24.7245 6.80199Z" fill="#F1F2F4"/>
<path d="M19.2582 16.629H27L24.7886 23.431C19.2582 16.629 24.7886 23.431 19.2582 16.629Z" fill="#F1F2F4"/>
<path d="M2.21141 16.629H8.99235L6.78092 23.431C2.21141 16.629 6.78092 23.431 2.21141 16.629Z" fill="#F1F2F4"/>
</svg>
