<svg width="22" height="22" viewBox="0 0 22 22" fill="none" xmlns="http://www.w3.org/2000/svg">
<path d="M3.4375 9.6246C3.25516 9.6246 3.0803 9.55217 2.95136 9.42324C2.82243 9.29431 2.75 9.11944 2.75 8.9371V3.43848C2.75 3.25614 2.82243 3.08127 2.95136 2.95234C3.0803 2.82341 3.25516 2.75098 3.4375 2.75098H8.9375C9.11984 2.75098 9.2947 2.82341 9.42364 2.95234C9.55257 3.08127 9.625 3.25614 9.625 3.43848V8.9371C9.625 9.11944 9.55257 9.29431 9.42364 9.42324C9.2947 9.55217 9.11984 9.6246 8.9375 9.6246H3.4375ZM13.0625 9.6246C12.8802 9.6246 12.7053 9.55217 12.5764 9.42324C12.4474 9.29431 12.375 9.11944 12.375 8.9371V3.43848C12.375 3.25614 12.4474 3.08127 12.5764 2.95234C12.7053 2.82341 12.8802 2.75098 13.0625 2.75098H18.5611C18.7435 2.75098 18.9183 2.82341 19.0473 2.95234C19.1762 3.08127 19.2486 3.25614 19.2486 3.43848V8.9371C19.2486 9.11944 19.1762 9.29431 19.0473 9.42324C18.9183 9.55217 18.7435 9.6246 18.5611 9.6246H13.0625ZM3.4375 19.2496C3.25516 19.2496 3.0803 19.1772 2.95136 19.0482C2.82243 18.9193 2.75 18.7444 2.75 18.5621V13.0621C2.75 12.8798 2.82243 12.7049 2.95136 12.576C3.0803 12.447 3.25516 12.3746 3.4375 12.3746H8.9375C9.11984 12.3746 9.2947 12.447 9.42364 12.576C9.55257 12.7049 9.625 12.8798 9.625 13.0621V18.5621C9.625 18.7444 9.55257 18.9193 9.42364 19.0482C9.2947 19.1772 9.11984 19.2496 8.9375 19.2496H3.4375ZM13.0625 19.2496C12.8802 19.2496 12.7053 19.1772 12.5764 19.0482C12.4474 18.9193 12.375 18.7444 12.375 18.5621V13.0621C12.375 12.8798 12.4474 12.7049 12.5764 12.576C12.7053 12.447 12.8802 12.3746 13.0625 12.3746H18.5611C18.7435 12.3746 18.9183 12.447 19.0473 12.576C19.1762 12.7049 19.2486 12.8798 19.2486 13.0621V18.5621C19.2486 18.7444 19.1762 18.9193 19.0473 19.0482C18.9183 19.1772 18.7435 19.2496 18.5611 19.2496H13.0625Z" fill="#151339"/>
</svg>
