<svg width="38" height="32" viewBox="0 0 38 32" fill="none" xmlns="http://www.w3.org/2000/svg">
<path fill-rule="evenodd" clip-rule="evenodd" d="M13.8798 0C10.1688 0.0876337 6.63928 1.62338 4.04563 4.27899C1.45199 6.9346 0 10.4994 0 14.2114C0 17.9235 1.45199 21.4883 4.04563 24.1439C6.63928 26.7995 10.1688 28.3352 13.8798 28.4229H14.5137V17.1551C14.5137 16.3152 15.1555 15.2376 16.0034 15.2376H28.0477C28.0477 14.7701 28.0952 14.4452 28.0952 14.1916C28.0764 10.4295 26.5719 6.82707 23.9094 4.169C21.2469 1.51094 17.642 0.0124938 13.8798 0ZM25.2268 12.9951H21.5659C21.4963 10.0439 20.8108 7.13984 19.5533 4.46906C21.0931 5.35563 22.4066 6.58679 23.391 8.06603C24.3753 9.54527 25.0036 11.2324 25.2268 12.9951ZM12.2554 3.6529V12.9951H9.00663C9.25227 8.54192 10.6548 5.02372 12.2554 3.6529ZM12.2554 15.4277V24.7621C10.6706 23.3912 9.25227 19.8889 9.00663 15.4277H12.2554ZM15.5042 12.9951V3.6529C17.089 5.02372 18.5153 8.54192 18.753 12.9951H15.5042ZM8.1984 4.46906C6.96248 7.14697 6.28059 10.0471 6.19366 12.9951H2.50907C2.73154 11.2302 3.36134 9.54117 4.34873 8.06146C5.33612 6.58176 6.65404 5.35191 8.1984 4.46906ZM2.51699 15.8319H6.20158C6.26954 18.7739 6.94958 21.6695 8.1984 24.3342C6.65926 23.4518 5.34536 22.225 4.35967 20.7499C3.37398 19.2748 2.74328 17.5915 2.51699 15.8319Z" fill="white"/>
<path fill-rule="evenodd" clip-rule="evenodd" d="M36.0193 17.6465H18.7691C18.2437 17.6465 17.7398 17.8552 17.3683 18.2267C16.9968 18.5982 16.7881 19.1021 16.7881 19.6274V29.2549C16.7881 29.7803 16.9968 30.2842 17.3683 30.6557C17.7398 31.0272 18.2437 31.2359 18.7691 31.2359H36.0193C36.5447 31.2359 37.0485 31.0272 37.42 30.6557C37.7915 30.2842 38.0002 29.7803 38.0002 29.2549V19.6274C38.0002 19.1021 37.7915 18.5982 37.42 18.2267C37.0485 17.8552 36.5447 17.6465 36.0193 17.6465ZM21.0907 29.2549C21.0992 28.9511 21.0477 28.6485 20.9391 28.3645C20.8306 28.0806 20.6671 27.8208 20.4581 27.6C20.2492 27.3793 19.9987 27.2019 19.7211 27.0779C19.4435 26.954 19.1442 26.886 18.8404 26.8778H18.777V21.9571C19.3901 21.972 19.9842 21.7437 20.4296 21.3221C20.875 20.9005 21.1355 20.3197 21.1541 19.7067V19.6512H33.6817C33.6817 20.2573 33.9203 20.8391 34.3459 21.2706C34.7715 21.7021 35.3499 21.9487 35.9559 21.9571H36.0193V26.9095C35.7144 26.9021 35.411 26.9549 35.1265 27.0648C34.842 27.1747 34.5819 27.3396 34.3612 27.5501C34.1404 27.7605 33.9633 28.0124 33.8399 28.2913C33.7165 28.5703 33.6493 28.8708 33.6421 29.1757V29.247L21.0907 29.2549Z" fill="white"/>
<path d="M27.3895 27.5984C29.2276 27.5984 30.7176 26.1084 30.7176 24.2704C30.7176 22.4324 29.2276 20.9424 27.3895 20.9424C25.5515 20.9424 24.0615 22.4324 24.0615 24.2704C24.0615 26.1084 25.5515 27.5984 27.3895 27.5984Z" fill="white"/>
</svg>
