<svg width="30" height="30" viewBox="0 0 30 30" fill="none" xmlns="http://www.w3.org/2000/svg">
<path d="M24.9876 24.7991C27.5589 22.1857 29 18.6663 29 15C29 11.3337 27.5589 7.8143 24.9876 5.20089C24.9634 5.16302 24.9312 5.13087 24.8933 5.10667C24.8691 5.06879 24.837 5.03664 24.7991 5.01245C22.1857 2.44109 18.6663 1 15 1C11.3337 1 7.8143 2.44109 5.20089 5.01245C5.16302 5.03664 5.13087 5.06879 5.10667 5.10667C5.06879 5.13087 5.03664 5.16302 5.01245 5.20089C2.44109 7.8143 1 11.3337 1 15C1 18.6663 2.44109 22.1857 5.01245 24.7991L5.10667 24.8933C5.13087 24.9312 5.16302 24.9634 5.20089 24.9876C7.8143 27.5589 11.3337 29 15 29C18.6663 29 22.1857 27.5589 24.7991 24.9876C24.837 24.9634 24.8691 24.9312 24.8933 24.8933C24.9312 24.8691 24.9634 24.837 24.9876 24.7991ZM3.20877 16.0768H6.4527C6.64652 17.6089 7.25115 19.06 8.20254 20.2764L5.90083 22.5782C4.36194 20.736 3.42266 18.4676 3.20877 16.0768ZM5.90083 7.42184L8.20254 9.72356C7.25115 10.94 6.64652 12.3911 6.4527 13.9232H3.20877C3.42266 11.5324 4.36194 9.264 5.90083 7.42184ZM26.7912 13.9232H23.5473C23.3535 12.3911 22.7489 10.94 21.7975 9.72356L24.0992 7.42184C25.6381 9.264 26.5773 11.5324 26.7912 13.9232ZM20.2764 8.20254C19.06 7.25115 17.6089 6.64652 16.0768 6.4527V3.20877C18.4676 3.42266 20.736 4.36194 22.5782 5.90083L20.2764 8.20254ZM13.9232 6.4527C12.3911 6.64652 10.94 7.25115 9.72356 8.20254L7.42184 5.90083C9.264 4.36194 11.5324 3.42266 13.9232 3.20877V6.4527ZM9.72356 21.7975C10.94 22.7489 12.3911 23.3535 13.9232 23.5473V26.7912C11.5324 26.5773 9.264 25.6381 7.42184 24.0992L9.72356 21.7975ZM16.0768 23.5473C17.6089 23.3535 19.06 22.7489 20.2764 21.7975L22.5782 24.0992C20.736 25.6381 18.4676 26.5773 16.0768 26.7912V23.5473ZM21.7975 20.2764C22.7489 19.06 23.3535 17.6089 23.5473 16.0768H26.7912C26.5773 18.4676 25.6381 20.736 24.0992 22.5782L21.7975 20.2764Z" fill="#423D72"/>
</svg>
