<svg width="32" height="34" viewBox="0 0 32 34" fill="none" xmlns="http://www.w3.org/2000/svg">
<path fill-rule="evenodd" clip-rule="evenodd" d="M14.0196 0.452143C12.9598 0.0025728 11.7936 -0.115059 10.6685 0.114142C9.54341 0.343327 8.50996 0.909021 7.69881 1.73972C6.88768 2.5704 6.33529 3.62878 6.11149 4.78097C5.8877 5.93317 6.00257 7.12746 6.44154 8.21281C6.61552 8.64295 6.83731 9.04833 7.10107 9.42164C6.40143 9.42164 5.87113 9.42578 5.39888 9.50239C2.66038 9.94656 0.512618 12.1461 0.0788771 14.9507C-0.000370363 15.463 -0.000194209 16.0423 6.17896e-05 16.8239L4.5768e-05 17.069C-0.00027423 17.5679 -0.000530406 17.9972 0.0591812 18.3834C0.338107 20.1868 1.56207 21.6568 3.20007 22.2493V24.516C3.20004 25.8572 3.20003 26.9642 3.27311 27.8654C3.34902 28.8015 3.51201 29.6616 3.92061 30.4671C4.52781 31.6642 5.48091 32.6403 6.64981 33.2622C7.43641 33.6805 8.27617 33.8475 9.19032 33.9251C10.0703 34 11.1511 34 12.4607 34H19.5392C20.8488 34 21.9296 34 22.8096 33.9251C23.7238 33.8475 24.5635 33.6805 25.3502 33.2622C26.519 32.6403 27.4721 31.6642 28.0793 30.4671C28.488 29.6616 28.651 28.8015 28.7269 27.8654C28.8 26.9642 28.8 25.8574 28.8 24.5162V22.2493C30.4379 21.6568 31.6619 20.1868 31.9408 18.3834C32.0004 17.9972 32.0003 17.5679 32 17.069V16.8239C32.0001 16.0424 32.0003 15.463 31.9211 14.9507C31.4873 12.1461 29.3397 9.94656 26.6011 9.50239C26.1288 9.42578 25.5986 9.42164 24.8989 9.42164C25.1627 9.04833 25.3845 8.64295 25.5584 8.21281C25.9974 7.12746 26.1123 5.93317 25.8885 4.78097C25.6646 3.62878 25.1123 2.5704 24.3011 1.73972C23.4901 0.909021 22.4565 0.343327 21.3315 0.114142C20.2064 -0.115059 19.0402 0.0025728 17.9804 0.452143C17.2293 0.770743 16.5556 1.24591 16.0001 1.84337C15.4444 1.24591 14.7706 0.770743 14.0196 0.452143ZM14.4001 12.6988H7.36005C6.40706 12.6988 6.11686 12.7039 5.89946 12.7391C4.53021 12.9612 3.45633 14.061 3.23947 15.4632C3.20503 15.6859 3.20007 15.9831 3.20007 16.959C3.20007 17.6305 3.20503 17.7755 3.21977 17.8707C3.3282 18.5719 3.86514 19.1218 4.54976 19.2329C4.64278 19.2479 4.78435 19.253 5.44006 19.253H14.4001V12.6988ZM17.6 19.253V12.6988H24.64C25.593 12.6988 25.8832 12.7039 26.1005 12.7391C27.4697 12.9612 28.5437 14.061 28.7605 15.4632C28.795 15.6859 28.8 15.9831 28.8 16.959C28.8 17.6305 28.795 17.7755 28.7801 17.8707C28.6718 18.5719 28.1349 19.1218 27.4502 19.2329C27.3573 19.2479 27.2157 19.253 26.56 19.253H17.6ZM14.4001 22.5301H6.40005V24.4472C6.40005 25.8744 6.40133 26.8446 6.46212 27.5941C6.5213 28.324 6.62852 28.6967 6.76032 28.9564C7.06392 29.5549 7.54046 30.0431 8.12492 30.3539C8.37865 30.4889 8.74245 30.5987 9.45515 30.6593C10.187 30.7216 11.1344 30.7229 12.528 30.7229H14.4001V22.5301ZM17.6 30.7229V22.5301H25.6V24.4472C25.6 25.8744 25.5987 26.8446 25.5379 27.5941C25.4787 28.324 25.3715 28.6967 25.2397 28.9564C24.936 29.5549 24.4595 30.0431 23.875 30.3539C23.6213 30.4889 23.2574 30.5987 22.5448 30.6593C21.813 30.7216 20.8656 30.7229 19.472 30.7229H17.6ZM20.2 8.60241H17.6V5.93976C17.6 5.41314 17.7525 4.89834 18.0381 4.46047C18.3239 4.0226 18.73 3.68132 19.205 3.4798C19.68 3.27826 20.2029 3.22553 20.7072 3.32828C21.2115 3.43102 21.6747 3.6846 22.0384 4.05698C22.4021 4.42936 22.6496 4.9038 22.7499 5.42031C22.8503 5.93681 22.7989 6.47217 22.6021 6.95871C22.4053 7.44525 22.072 7.86109 21.6445 8.15368C21.2168 8.44626 20.7143 8.60241 20.2 8.60241ZM13.9618 4.46047C14.2476 4.89834 14.4001 5.41314 14.4001 5.93976V8.60241H11.8C11.2858 8.60241 10.7831 8.44626 10.3555 8.15368C9.92798 7.86109 9.59474 7.44525 9.39794 6.95871C9.20116 6.47217 9.14967 5.93681 9.24999 5.42031C9.35031 4.9038 9.59794 4.42936 9.96155 4.05698C10.3252 3.6846 10.7884 3.43102 11.2928 3.32828C11.7971 3.22553 12.3199 3.27827 12.795 3.4798C13.27 3.68132 13.6761 4.0226 13.9618 4.46047Z" fill="white"/>
</svg>
