<svg width="31" height="31" viewBox="0 0 31 31" fill="none" xmlns="http://www.w3.org/2000/svg">
<path fill-rule="evenodd" clip-rule="evenodd" d="M3.45929 14.7534C3.15934 15.0533 2.9214 15.4093 2.75907 15.8011C2.59674 16.193 2.51318 16.6129 2.51318 17.0371C2.51318 17.4612 2.59674 17.8812 2.75907 18.273C2.9214 18.6649 3.15934 19.0209 3.45929 19.3207L11.6795 27.5409C11.9793 27.8409 12.3353 28.0788 12.7272 28.2411C13.119 28.4035 13.539 28.487 13.9631 28.487C14.3872 28.487 14.8072 28.4035 15.1991 28.2411C15.5909 28.0788 15.9469 27.8409 16.2468 27.5409L26.1797 17.608C26.4795 17.3081 26.7174 16.952 26.8796 16.5602C27.0418 16.1684 27.1253 15.7484 27.1252 15.3243V5.8125C27.1252 5.29864 26.9211 4.80583 26.5577 4.44248C26.1944 4.07913 25.7016 3.875 25.1877 3.875H15.6746C15.2505 3.87492 14.8305 3.95838 14.4387 4.12061C14.0469 4.28284 13.6908 4.52066 13.3909 4.8205L3.45929 14.7534ZM19.3597 9.04167C17.926 9.04167 16.7919 10.1163 16.7919 11.6095C16.7919 13.104 17.926 14.2083 19.3597 14.2083C20.8232 14.2083 21.9585 13.104 21.9585 11.6095C21.9585 10.1163 20.8219 9.04167 19.3597 9.04167Z" fill="white"/>
</svg>
