<svg width="15" height="15" viewBox="0 0 15 15" fill="none" xmlns="http://www.w3.org/2000/svg">
<path fill-rule="evenodd" clip-rule="evenodd" d="M7.5 0C11.6421 0 15 3.35783 15 7.5C15 11.6421 11.6421 15 7.5 15C3.35788 15 0 11.6421 0 7.5C0 3.35783 3.35788 0 7.5 0ZM7.49995 9.9375C6.98218 9.9375 6.56246 10.3572 6.56246 10.875C6.56246 11.3928 6.98218 11.8125 7.49995 11.8125C8.01773 11.8125 8.43746 11.3928 8.43746 10.875C8.43746 10.3572 8.01773 9.9375 7.49995 9.9375ZM7.37485 3.28129C6.6448 3.28129 6.03122 3.4802 5.53482 3.87685C4.94659 4.35201 4.65271 5.05376 4.65271 5.98265H6.24746V5.97194C6.24746 5.61754 6.32212 5.32682 6.47104 5.10008C6.67657 4.79526 7.00992 4.64273 7.47075 4.64273C7.75433 4.64273 7.99571 4.71716 8.19388 4.8658C8.4419 5.07175 8.56631 5.38348 8.56631 5.80179C8.56631 6.06418 8.50218 6.298 8.37474 6.50372C8.26835 6.68801 8.09825 6.86865 7.86397 7.04603C7.36775 7.38629 7.04512 7.72311 6.89644 8.0565C6.76881 8.333 6.70468 8.77254 6.70468 9.375H8.20463C8.20463 8.97789 8.25741 8.6803 8.36425 8.48172C8.44917 8.31863 8.62661 8.14508 8.89604 7.9606C9.36415 7.61307 9.69709 7.29039 9.89575 6.99262C10.1367 6.63827 10.2574 6.22334 10.2574 5.74819C10.2574 4.76349 9.85693 4.06499 9.05525 3.65355C8.57341 3.40553 8.01329 3.28129 7.37485 3.28129Z" fill="#7E8096"/>
</svg>
