<svg width="30" height="30" viewBox="0 0 30 30" fill="none" xmlns="http://www.w3.org/2000/svg">
<path d="M15 1C7.28032 1 1 7.2804 1 15C1 22.7196 7.28032 29 15 29C22.7196 29 29 22.7196 29 15C29 7.2804 22.7196 1 15 1ZM28.0964 15C28.0964 16.1123 27.9566 17.1924 27.6944 18.2241L22.5976 16.8585C22.7435 16.2626 22.8213 15.6402 22.8213 14.9999C22.8213 14.3597 22.7435 13.7374 22.5976 13.1414L27.6944 11.7758C27.9566 12.8077 28.0964 13.8877 28.0964 15ZM1.9036 15C1.9036 13.8877 2.04343 12.8076 2.30563 11.7759L7.40231 13.1415C7.25652 13.7375 7.17859 14.3598 7.17859 15.0001C7.17859 15.6404 7.25652 16.2627 7.40231 16.8586L2.30563 18.2243C2.04343 17.1924 1.9036 16.1123 1.9036 15ZM21.2254 13.257C21.2263 13.26 21.2271 13.2631 21.228 13.2662C21.2488 13.3412 21.2686 13.4168 21.2868 13.4929C21.4028 13.9768 21.4659 14.481 21.4659 15.0001C21.4659 15.5192 21.4028 16.0235 21.2867 16.5074C21.2686 16.5833 21.2489 16.6586 21.2281 16.7334C21.2271 16.737 21.2261 16.7406 21.2251 16.7442C21.1403 17.0464 21.0343 17.3395 20.9084 17.622L20.9083 17.6222C20.8133 17.8353 20.7072 18.0424 20.5906 18.2427C20.5903 18.2432 20.59 18.2436 20.5897 18.2441C20.2782 18.7789 19.8921 19.2651 19.4458 19.6886C18.7162 20.3808 17.8262 20.9049 16.8375 21.1986C16.706 21.2378 16.5726 21.2722 16.4379 21.3031C16.4189 21.3074 16.3999 21.312 16.3807 21.3163C16.3235 21.3288 16.2659 21.3403 16.2081 21.3513C16.1708 21.3584 16.1334 21.365 16.0959 21.3715C16.0458 21.3801 15.9956 21.389 15.9451 21.3965C15.8613 21.4089 15.7769 21.4197 15.6921 21.4287C15.658 21.4324 15.6235 21.4351 15.5891 21.4382C15.5222 21.4443 15.4552 21.4496 15.3876 21.4536C15.3562 21.4555 15.3248 21.4574 15.2934 21.4588C15.196 21.4632 15.0983 21.4662 15 21.4662C14.9016 21.4662 14.8039 21.4632 14.7066 21.4588C14.6751 21.4573 14.6438 21.4555 14.6124 21.4536C14.545 21.4496 14.4777 21.4443 14.4109 21.4382C14.3765 21.4351 14.342 21.4324 14.3078 21.4287C14.2231 21.4197 14.1387 21.4089 14.0548 21.3965C14.0043 21.389 13.9542 21.3801 13.9039 21.3714C13.8665 21.365 13.8292 21.3584 13.792 21.3513C13.7341 21.3403 13.6762 21.3288 13.6189 21.3162C13.6002 21.3121 13.5819 21.3076 13.5634 21.3033C13.428 21.2723 13.294 21.2378 13.162 21.1985C12.1732 20.9048 11.2833 20.3805 10.5537 19.688C10.3307 19.4764 10.1228 19.2492 9.93171 19.0081C9.93148 19.0078 9.93118 19.0075 9.93096 19.0071C9.74014 18.7663 9.56613 18.5115 9.41063 18.2447C9.41003 18.2436 9.40943 18.2426 9.40882 18.2414C9.29271 18.042 9.18699 17.8357 9.09234 17.6235C9.09204 17.6228 9.09166 17.622 9.09136 17.6214C9.05981 17.5506 9.02954 17.4791 9.00047 17.407C9.00032 17.4066 9.00017 17.4061 8.99995 17.4056C8.9135 17.1907 8.83835 16.9701 8.77502 16.7445C8.77397 16.7407 8.77292 16.737 8.77186 16.7334C8.75108 16.6586 8.73143 16.5834 8.71328 16.5075C8.59717 16.0236 8.53406 15.5193 8.53406 15.0002C8.53406 14.481 8.59724 13.9767 8.71328 13.4928C8.73143 13.417 8.751 13.3417 8.77186 13.267C8.77292 13.2633 8.77397 13.2596 8.77502 13.2558C8.83828 13.0303 8.91335 12.8097 8.99979 12.5949C9.00002 12.5943 9.00025 12.5937 9.00047 12.5932C9.02946 12.5211 9.05973 12.4498 9.09121 12.3791C9.09159 12.3783 9.09196 12.3775 9.09234 12.3765C9.18684 12.1645 9.29256 11.9585 9.40852 11.7592C9.40928 11.7579 9.40995 11.7566 9.41071 11.7554C9.56605 11.4888 9.73992 11.2344 9.9305 10.9937C9.93095 10.9931 9.93148 10.9925 9.93193 10.9919C10.123 10.7509 10.3307 10.5238 10.5535 10.3123C11.2837 9.61944 12.1744 9.0949 13.164 8.80123C13.2947 8.76245 13.4272 8.72826 13.5611 8.69762C13.5806 8.69317 13.5999 8.68835 13.6194 8.68414C13.6765 8.67164 13.7339 8.66019 13.7914 8.6492C13.829 8.64204 13.8667 8.63542 13.9045 8.62894C13.9545 8.62028 14.0043 8.61147 14.0547 8.60402C14.1386 8.59167 14.223 8.58083 14.3079 8.57171C14.342 8.56802 14.3764 8.56546 14.4106 8.5623C14.4776 8.5562 14.5448 8.55093 14.6124 8.54687C14.6437 8.54498 14.675 8.5431 14.7065 8.54167C14.8038 8.53723 14.9015 8.53421 14.9999 8.53421C15.0983 8.53421 15.196 8.5373 15.2934 8.54167C15.3248 8.5431 15.3562 8.54498 15.3875 8.54687C15.455 8.55086 15.5223 8.5562 15.5892 8.5623C15.6235 8.56546 15.6579 8.5681 15.6919 8.57171C15.7769 8.58083 15.8613 8.59167 15.9452 8.60402C15.9955 8.61147 16.0454 8.62028 16.0954 8.62894C16.1331 8.63542 16.1708 8.64204 16.2083 8.6492C16.266 8.66019 16.3233 8.67164 16.3804 8.68414C16.3999 8.68843 16.4193 8.69317 16.4387 8.69762C16.5726 8.72826 16.7051 8.76252 16.8357 8.80123C17.8252 9.09482 18.7155 9.61914 19.4456 10.3118C19.6688 10.5236 19.877 10.7511 20.0683 10.9925L20.0684 10.9926C20.2596 11.2338 20.4338 11.4889 20.5895 11.7561C20.5899 11.7568 20.5903 11.7574 20.5906 11.758C20.7071 11.9581 20.8132 12.165 20.9081 12.378C20.9082 12.3781 20.9083 12.3783 20.9083 12.3784C20.94 12.4495 20.9705 12.5213 20.9996 12.5937C21.0865 12.8092 21.1619 13.0306 21.2254 13.257ZM20.4053 9.3522C19.5095 8.49453 18.4107 7.84763 17.1893 7.49086L18.555 2.3941C20.6827 2.99492 22.5917 4.12171 24.1335 5.62387L20.4053 9.3522ZM12.8107 7.49086C11.5892 7.84755 10.4904 8.49461 9.59467 9.35227L5.86641 5.62402C7.40818 4.12179 9.31726 2.995 11.4451 2.3941L12.8107 7.49086ZM9.59459 20.6477C10.4904 21.5054 11.5891 22.1524 12.8107 22.5091L11.445 27.6059C9.31719 27.005 7.4081 25.8782 5.86634 24.3759L9.59459 20.6477ZM17.1893 22.5091C18.4107 22.1525 19.5095 21.5055 20.4053 20.6478L24.1335 24.3761C22.5917 25.8783 20.6827 27.0051 18.5548 27.6059L17.1893 22.5091Z" fill="#423D72"/>
</svg>
