<svg width="28" height="28" viewBox="0 0 28 28" fill="none" xmlns="http://www.w3.org/2000/svg">
<path d="M20.4323 4.96086C20.4314 4.93096 20.4297 4.90122 20.4265 4.8717C20.4252 4.86033 20.4232 4.84911 20.4216 4.83774C20.4189 4.81839 20.4158 4.79911 20.4121 4.77999C20.4091 4.76508 20.4062 4.75024 20.4027 4.73549C20.3987 4.71847 20.3939 4.7016 20.389 4.68481C20.3817 4.65891 20.3735 4.63338 20.3643 4.60815C20.3609 4.59874 20.3574 4.58925 20.3536 4.57999C20.3294 4.51779 20.2997 4.45808 20.2648 4.40115C20.2634 4.39897 20.2622 4.39679 20.2607 4.3946C20.1171 4.16245 19.8914 3.9797 19.609 3.89747C19.0205 3.72609 18.4063 4.0492 18.2089 4.62246C18.2028 4.64008 18.1958 4.65717 18.1905 4.6754C18.0138 5.28201 18.3618 5.91898 18.9684 6.09563C19.5751 6.27228 20.2102 5.92259 20.3869 5.31597C20.3968 5.28247 20.4045 5.24881 20.4111 5.21515C20.4128 5.20679 20.4143 5.19828 20.4159 5.18985C20.4216 5.15694 20.4264 5.12403 20.4292 5.09135C20.4295 5.08669 20.4295 5.08217 20.4299 5.07757C20.432 5.04919 20.4329 5.02102 20.4327 4.99286C20.4328 4.98217 20.4327 4.97155 20.4323 4.96086Z" fill="#151339"/>
<path d="M17.5399 16.7671C17.4981 16.7607 17.4557 16.7557 17.4125 16.7557C17.3497 16.7557 17.2886 16.7632 17.2297 16.7763L17.1423 16.6888L15.1181 14.6621L15.0866 14.6305C15.2805 14.253 15.2984 13.8088 15.1404 13.4195C15.13 13.3933 15.1177 13.3678 15.1056 13.3423L15.138 13.3099L17.1637 11.2868L17.2205 11.2301C17.477 11.2718 17.7494 11.1955 17.9478 10.9979C18.2494 10.6963 18.2725 10.2224 18.0195 9.89332C17.9979 9.86478 17.9739 9.83669 17.9478 9.81064C17.6207 9.48248 17.0887 9.48248 16.761 9.81011C16.7055 9.86576 16.6603 9.92682 16.6232 9.99196C16.5291 10.1603 16.4976 10.3541 16.5277 10.5397L16.4722 10.5953L14.4398 12.6248L14.4123 12.6524C14.0072 12.4622 13.5325 12.4689 13.133 12.6744L13.1216 12.663L11.098 10.6368L11.0544 10.5932C11.0996 10.367 11.0517 10.1262 10.9097 9.93225C10.8846 9.89814 10.8581 9.86463 10.8276 9.83406C10.4999 9.50643 9.96785 9.50545 9.64022 9.83308C9.59316 9.88014 9.554 9.93127 9.52049 9.98488C9.31967 10.309 9.35867 10.7398 9.63969 11.0209C9.84617 11.2273 10.1343 11.3038 10.4012 11.2493L10.4433 11.2914L12.4739 13.3247L12.4865 13.3373C12.2974 13.7295 12.2952 14.1888 12.479 14.5829L12.453 14.6088L10.4072 16.6519L10.3433 16.7157C10.3288 16.7142 10.3144 16.7117 10.2998 16.711C10.0714 16.7 9.83894 16.7801 9.66417 16.9549C9.42524 17.1929 9.36056 17.5391 9.46974 17.8366C9.5098 17.9479 9.57396 18.0521 9.66311 18.1412C9.99119 18.4693 10.5223 18.4693 10.8504 18.1423C11.0609 17.9317 11.1359 17.6374 11.0757 17.3666L11.1242 17.318L13.1381 15.3069L13.1679 15.2771C13.5638 15.4669 14.0276 15.467 14.4233 15.2767L14.4563 15.3098L16.4793 17.3355L16.5864 17.4426C16.5774 17.492 16.572 17.5426 16.572 17.5947C16.572 17.6613 16.5805 17.725 16.5946 17.7866C16.6817 18.1579 17.014 18.4349 17.4115 18.4349C17.7466 18.4349 18.0371 18.238 18.171 17.9524C18.2228 17.8447 18.2511 17.7236 18.2511 17.5961C18.2511 17.4686 18.2227 17.3474 18.171 17.2391C18.0543 16.9909 17.8198 16.8102 17.5399 16.7671Z" fill="#151339"/>
<path d="M14 0C6.28032 0 0 6.2804 0 14C0 21.7196 6.28032 28 14 28C21.7196 28 28 21.7196 28 14C28 6.2804 21.7196 0 14 0ZM27.0964 14C27.0964 15.1123 26.9566 16.1924 26.6944 17.2241L21.5976 15.8585C21.7435 15.2626 21.8213 14.6402 21.8213 13.9999C21.8213 13.3597 21.7435 12.7374 21.5976 12.1414L26.6944 10.7758C26.9566 11.8077 27.0964 12.8877 27.0964 14ZM0.9036 14C0.9036 12.8877 1.04343 11.8076 1.30563 10.7759L6.40231 12.1415C6.25652 12.7375 6.17859 13.3598 6.17859 14.0001C6.17859 14.6404 6.25652 15.2627 6.40231 15.8586L1.30563 17.2243C1.04343 16.1924 0.9036 15.1123 0.9036 14ZM20.2254 12.257C20.2263 12.26 20.2271 12.2631 20.228 12.2662C20.2488 12.3412 20.2686 12.4168 20.2868 12.4929C20.4028 12.9768 20.4659 13.481 20.4659 14.0001C20.4659 14.5192 20.4028 15.0235 20.2867 15.5074C20.2686 15.5833 20.2489 15.6586 20.2281 15.7334C20.2271 15.737 20.2261 15.7406 20.225 15.7442C20.1403 16.0464 20.0343 16.3395 19.9084 16.622L19.9083 16.6222C19.8133 16.8353 19.7072 17.0424 19.5906 17.2427C19.5903 17.2432 19.59 17.2436 19.5897 17.2442C19.2782 17.7789 18.8921 18.2651 18.4458 18.6886C17.7162 19.3808 16.8262 19.9049 15.8375 20.1986C15.706 20.2378 15.5726 20.2722 15.4379 20.3031C15.4189 20.3074 15.3999 20.312 15.3807 20.3163C15.3235 20.3288 15.2659 20.3403 15.2081 20.3513C15.1708 20.3584 15.1334 20.365 15.0959 20.3715C15.0458 20.3801 14.9956 20.389 14.9451 20.3965C14.8613 20.4089 14.7769 20.4197 14.6921 20.4287C14.658 20.4324 14.6235 20.4351 14.5891 20.4382C14.5222 20.4443 14.4552 20.4496 14.3876 20.4536C14.3562 20.4555 14.3248 20.4574 14.2934 20.4588C14.196 20.4632 14.0983 20.4662 14 20.4662C13.9016 20.4662 13.8039 20.4632 13.7066 20.4588C13.6751 20.4573 13.6438 20.4555 13.6124 20.4536C13.545 20.4496 13.4777 20.4443 13.4109 20.4382C13.3765 20.4351 13.342 20.4324 13.3078 20.4287C13.2231 20.4197 13.1387 20.4089 13.0548 20.3965C13.0043 20.389 12.9542 20.3801 12.9039 20.3714C12.8665 20.365 12.8292 20.3584 12.792 20.3513C12.7341 20.3403 12.6762 20.3288 12.6189 20.3162C12.6002 20.3121 12.5819 20.3076 12.5634 20.3033C12.428 20.2723 12.294 20.2378 12.162 20.1985C11.1732 19.9048 10.2833 19.3805 9.55369 18.688C9.33072 18.4764 9.12282 18.2492 8.93171 18.0081C8.93148 18.0078 8.93118 18.0075 8.93095 18.0071C8.74014 17.7663 8.56613 17.5115 8.41063 17.2447C8.41003 17.2436 8.40943 17.2426 8.40882 17.2414C8.29271 17.042 8.18699 16.8357 8.09234 16.6235C8.09204 16.6228 8.09166 16.622 8.09136 16.6214C8.05981 16.5506 8.02954 16.4791 8.00047 16.407C8.00032 16.4066 8.00017 16.4061 7.99995 16.4056C7.9135 16.1907 7.83835 15.9701 7.77502 15.7445C7.77397 15.7407 7.77292 15.737 7.77186 15.7334C7.75108 15.6586 7.73143 15.5834 7.71328 15.5075C7.59717 15.0236 7.53406 14.5193 7.53406 14.0002C7.53406 13.481 7.59724 12.9767 7.71328 12.4928C7.73143 12.417 7.751 12.3417 7.77186 12.267C7.77292 12.2633 7.77397 12.2596 7.77502 12.2558C7.83828 12.0303 7.91335 11.8097 7.99979 11.5949C8.00002 11.5943 8.00025 11.5937 8.00047 11.5932C8.02946 11.5211 8.05973 11.4498 8.09121 11.3791C8.09159 11.3783 8.09196 11.3775 8.09234 11.3765C8.18684 11.1645 8.29256 10.9585 8.40852 10.7592C8.40928 10.7579 8.40995 10.7566 8.41071 10.7554C8.56605 10.4888 8.73992 10.2344 8.9305 9.99366C8.93095 9.99306 8.93148 9.99246 8.93193 9.99186C9.12297 9.7509 9.33072 9.52379 9.55353 9.31235C10.2837 8.61944 11.1744 8.0949 12.164 7.80123C12.2947 7.76245 12.4272 7.72826 12.5611 7.69762C12.5806 7.69317 12.5999 7.68835 12.6194 7.68414C12.6765 7.67164 12.7339 7.66019 12.7914 7.6492C12.829 7.64205 12.8667 7.63542 12.9045 7.62894C12.9545 7.62028 13.0043 7.61147 13.0547 7.60402C13.1386 7.59167 13.223 7.58083 13.3079 7.57171C13.342 7.56802 13.3764 7.56546 13.4106 7.5623C13.4776 7.5562 13.5448 7.55093 13.6124 7.54686C13.6437 7.54498 13.675 7.5431 13.7065 7.54167C13.8038 7.53723 13.9015 7.53421 13.9999 7.53421C14.0983 7.53421 14.196 7.5373 14.2934 7.54167C14.3248 7.5431 14.3562 7.54498 14.3875 7.54686C14.455 7.55086 14.5223 7.5562 14.5892 7.5623C14.6235 7.56546 14.6579 7.5681 14.6919 7.57171C14.7769 7.58083 14.8613 7.59167 14.9452 7.60402C14.9955 7.61147 15.0454 7.62028 15.0954 7.62894C15.1331 7.63542 15.1708 7.64205 15.2083 7.6492C15.266 7.66019 15.3233 7.67164 15.3804 7.68414C15.3999 7.68843 15.4193 7.69317 15.4387 7.69762C15.5726 7.72826 15.7051 7.76252 15.8357 7.80123C16.8252 8.09482 17.7155 8.61914 18.4456 9.31182C18.6688 9.52364 18.877 9.75112 19.0683 9.99253L19.0684 9.99261C19.2596 10.2338 19.4338 10.4889 19.5895 10.7561C19.5899 10.7568 19.5903 10.7574 19.5906 10.758C19.7071 10.9581 19.8132 11.165 19.9081 11.378C19.9082 11.3781 19.9083 11.3783 19.9083 11.3784C19.94 11.4495 19.9705 11.5213 19.9996 11.5937C20.0865 11.8092 20.1619 12.0306 20.2254 12.257ZM19.4053 8.3522C18.5095 7.49453 17.4107 6.84763 16.1893 6.49086L17.555 1.3941C19.6827 1.99492 21.5917 3.12171 23.1335 4.62387L19.4053 8.3522ZM11.8107 6.49086C10.5892 6.84755 9.49043 7.49461 8.59467 8.35227L4.86641 4.62402C6.40818 3.12179 8.31726 1.995 10.4451 1.3941L11.8107 6.49086ZM8.59459 19.6476C9.49036 20.5054 10.5891 21.1524 11.8107 21.5091L10.445 26.6059C8.31719 26.005 6.4081 24.8782 4.86634 23.3759L8.59459 19.6476ZM16.1893 21.5091C17.4107 21.1525 18.5095 20.5055 19.4053 19.6478L23.1335 23.3761C21.5917 24.8783 19.6827 26.0051 17.5548 26.6059L16.1893 21.5091Z" fill="#151339"/>
</svg>
