<svg width="25" height="25" viewBox="0 0 25 25" fill="none" xmlns="http://www.w3.org/2000/svg">
<path d="M20.8594 18.1226L16.8844 14.0971C17.5313 12.9677 17.8688 11.7118 17.8688 10.4465C17.8688 6.34132 14.5312 3 10.4344 3C6.3375 3 3 6.34132 3 10.4465C3 14.5517 6.3375 17.893 10.4344 17.893C11.7422 17.893 13.0359 17.5322 14.1891 16.8433L18.1453 20.8547C18.2344 20.9438 18.3609 21 18.4875 21C18.6141 21 18.7406 20.9485 18.8297 20.8547L20.8594 18.8021C21.0469 18.61 21.0469 18.3101 20.8594 18.1226ZM10.4344 5.90081C12.9375 5.90081 14.9719 7.93934 14.9719 10.4465C14.9719 12.9537 12.9375 14.9922 10.4344 14.9922C7.93125 14.9922 5.89688 12.9537 5.89688 10.4465C5.89688 7.93934 7.93125 5.90081 10.4344 5.90081Z" fill="#151339"/>
</svg>
