<svg width="24" height="29" viewBox="0 0 24 29" fill="none" xmlns="http://www.w3.org/2000/svg">
<path d="M15.5673 0.0576172C12.0879 0.0576172 9.2869 2.82268 9.2869 6.2573V10.3904H11.3804V6.2573C11.3804 3.96755 13.2477 2.12418 15.5673 2.12418C17.8868 2.12418 19.7542 3.96755 19.7542 6.2573V10.3904H21.8476V6.2573C21.8476 2.82268 19.0466 0.0576172 15.5673 0.0576172ZM9.2869 2.12418C5.80758 2.12418 3.00654 4.88924 3.00654 8.32386V10.3904H5.1V8.32386C5.1 6.29267 6.56987 4.61386 8.5209 4.26037C8.74334 3.48913 9.09196 2.77143 9.54296 2.12973C9.458 2.12639 9.37273 2.12418 9.2869 2.12418ZM13.6168 3.82546C13.0432 4.27375 12.6331 4.91579 12.4866 5.65376C13.1026 6.3731 13.4738 7.30389 13.4738 8.32386V10.3904H15.5673V8.32386C15.5673 6.54928 14.8195 4.95353 13.6168 3.82546ZM0.913086 12.457V13.7094V20.7232V27.7241C0.913086 27.8963 0.947529 28.0598 1.01633 28.2148C1.09496 28.3697 1.19816 28.5031 1.32592 28.615C1.46352 28.7355 1.61576 28.8259 1.78285 28.8862C1.95976 28.955 2.14657 28.9895 2.34314 28.9895H22.4963C22.8993 28.9895 23.2384 28.8646 23.5136 28.615C23.7986 28.374 23.9411 28.077 23.9411 27.7241V20.7232V13.7094V12.457H22.4963H2.34314H0.913086Z" fill="#151339"/>
</svg>
