<svg width="29" height="29" viewBox="0 0 29 29" fill="none" xmlns="http://www.w3.org/2000/svg">
<path d="M18.1258 14.6472C18.1258 12.7037 16.5522 11.1221 14.6186 11.1221C12.6849 11.1221 11.1113 12.7037 11.1113 14.6472C11.1113 16.5907 12.6849 18.1724 14.6186 18.1724C16.5522 18.1724 18.1258 16.5908 18.1258 14.6472Z" fill="white"/>
<path d="M9.74739 11.408L3.91604 5.54688C2.0829 7.7242 0.897452 10.4621 0.648438 13.4679H8.89162C9.04364 12.7193 9.34055 12.0249 9.74739 11.408Z" fill="white"/>
<path d="M19.4922 17.8772L25.3236 23.7384C27.1567 21.561 28.3422 18.8232 28.59 15.8174H20.348C20.196 16.5659 19.899 17.2615 19.4922 17.8772Z" fill="white"/>
<path d="M8.89243 15.8174H0.650391C0.898254 18.8232 2.0837 21.561 3.91679 23.7384L9.7482 17.8772C9.34136 17.2615 9.04444 16.5659 8.89243 15.8174Z" fill="white"/>
<path d="M5.56934 25.4012C7.73566 27.2437 10.4596 28.4352 13.4501 28.6843V20.4002C12.7054 20.2474 12.0133 19.949 11.4007 19.54L5.56934 25.4012Z" fill="white"/>
<path d="M15.7891 20.4002V28.6843C18.7796 28.4351 21.5047 27.2436 23.6698 25.4012L17.8385 19.54C17.2259 19.949 16.5338 20.2474 15.7891 20.4002Z" fill="white"/>
<path d="M20.348 13.4679H28.5911C28.3421 10.4621 27.1567 7.72426 25.3235 5.54688L19.4922 11.408C19.899 12.0249 20.1959 12.7193 20.348 13.4679Z" fill="white"/>
<path d="M13.4501 8.89053V0.606445C10.4596 0.855574 7.73451 2.04707 5.56934 3.88951L11.4007 9.75067C12.0134 9.34175 12.7054 9.04327 13.4501 8.89053Z" fill="white"/>
<path d="M23.6698 3.88975C21.5036 2.0461 18.7796 0.855754 15.7891 0.605469V8.88955C16.5337 9.04229 17.2247 9.34193 17.8384 9.74969L23.6698 3.88975Z" fill="white"/>
</svg>
