<svg width="25" height="25" viewBox="0 0 25 25" fill="none" xmlns="http://www.w3.org/2000/svg">
<path d="M9.73923 9.04394C9.73923 9.04394 6.01189 9.45678 3.52543 9.73279C3.30132 9.75992 3.10315 9.90972 3.02884 10.1374C2.95453 10.365 3.02884 10.6021 3.19398 10.7519C5.04113 12.4375 7.81658 14.9617 7.81658 14.9617C7.81422 14.9617 7.0546 18.6336 6.54976 21.0835C6.5073 21.3052 6.5875 21.54 6.78095 21.6803C6.97321 21.8207 7.22092 21.823 7.41554 21.7133C9.5906 20.4772 12.8485 18.6182 12.8485 18.6182C12.8485 18.6182 16.1075 20.4772 18.2791 21.7145C18.4772 21.823 18.7249 21.8207 18.9172 21.6803C19.1106 21.54 19.1909 21.3052 19.1472 21.0847C18.6424 18.6336 17.8839 14.9617 17.8839 14.9617C17.8839 14.9617 20.6594 12.4375 22.5065 10.7555C22.6717 10.6009 22.7448 10.3638 22.6717 10.1374C22.5985 9.9109 22.4004 9.7611 22.1763 9.73515C19.6898 9.45678 15.9613 9.04394 15.9613 9.04394C15.9613 9.04394 14.4161 5.62565 13.3864 3.34678C13.2896 3.14272 13.0868 3 12.8485 3C12.6102 3 12.4062 3.1439 12.3142 3.34678C11.2832 5.62565 9.73923 9.04394 9.73923 9.04394Z" fill="#EA4382"/>
</svg>
