<svg width="25" height="25" viewBox="0 0 25 25" fill="none" xmlns="http://www.w3.org/2000/svg">
<path d="M12.5 4C7.80579 4 4 7.80579 4 12.5C4 17.1869 7.81356 21 12.5 21C17.1938 21 21 17.1938 21 12.5C21 7.81315 17.1869 4 12.5 4ZM16.9135 13.8077H12.0096C11.9663 13.8077 11.9247 13.7905 11.894 13.7598C11.8634 13.7292 11.8462 13.6876 11.8462 13.6442V6.77885C11.8462 6.73549 11.8634 6.69392 11.894 6.66326C11.9247 6.63261 11.9663 6.61538 12.0096 6.61538H12.9904C13.0337 6.61538 13.0753 6.63261 13.106 6.66326C13.1366 6.69392 13.1538 6.73549 13.1538 6.77885L13.1538 12.5H16.9135C16.9568 12.5 16.9984 12.5172 17.029 12.5479C17.0597 12.5785 17.0769 12.6201 17.0769 12.6635V13.6442C17.0769 13.6876 17.0597 13.7292 17.029 13.7598C16.9984 13.7905 16.9568 13.8077 16.9135 13.8077Z" fill="#4D487E"/>
</svg>
