<svg width="25" height="25" viewBox="0 0 25 25" fill="none" xmlns="http://www.w3.org/2000/svg">
<path d="M21 16.8125C21 19.3944 17.266 21.4167 12.5 21.4167C7.73398 21.4167 4 19.3944 4 16.8125C4 14.2306 7.73398 12.2083 12.5 12.2083C17.266 12.2083 21 14.2306 21 16.8125ZM12.5 10.7917C13.2705 10.7917 14.0237 10.5632 14.6644 10.1351C15.3051 9.70702 15.8044 9.09858 16.0993 8.3867C16.3941 7.67483 16.4713 6.89151 16.321 6.1358C16.1707 5.38008 15.7996 4.68591 15.2548 4.14106C14.7099 3.59622 14.0158 3.22518 13.26 3.07486C12.5043 2.92454 11.721 3.00169 11.0091 3.29655C10.2973 3.59142 9.68881 4.09076 9.26073 4.73143C8.83265 5.37209 8.60417 6.12531 8.60417 6.89583C8.6054 7.92869 9.01625 8.9189 9.7466 9.64924C10.4769 10.3796 11.4671 10.7904 12.5 10.7917Z" fill="#151339"/>
</svg>
