<svg width="390" height="165" viewBox="0 0 390 165" fill="none" xmlns="http://www.w3.org/2000/svg">
<mask id="mask0_647_13" style="mask-type:alpha" maskUnits="userSpaceOnUse" x="0" y="0" width="390" height="135">
<path d="M0 0H390V135H0V0Z" fill="#25273E"/>
</mask>
<g mask="url(#mask0_647_13)">
<g opacity="0.8">
<path d="M1345.48 70.6179C1309.27 230.522 1165.02 354.153 960.702 424.642C756.411 495.122 492.257 512.39 216.683 459.678C-58.8913 406.966 -293.613 294.273 -450.343 154.737C-607.094 15.1826 -685.692 -151.075 -649.48 -310.978C-613.267 -470.882 -469.02 -594.514 -264.702 -665.003C-60.4105 -735.483 203.743 -752.751 479.317 -700.039C754.892 -647.327 989.614 -534.634 1146.34 -395.098C1303.09 -255.543 1381.69 -89.286 1345.48 70.6179Z" stroke="#1C1D30" stroke-width="2"/>
<path d="M511.429 -88.717C505.391 -62.0516 481.825 -41.2011 448.264 -29.1634C414.724 -17.1333 371.373 -13.9836 326.18 -22.6281C280.987 -31.2726 242.604 -50.0564 217.072 -73.3859C191.523 -96.7302 178.966 -124.49 185.005 -151.156C191.044 -177.821 214.609 -198.671 248.171 -210.709C281.711 -222.739 325.061 -225.889 370.254 -217.244C415.447 -208.6 453.83 -189.816 479.363 -166.487C504.911 -143.142 517.468 -115.382 511.429 -88.717Z" stroke="#1C1D30" stroke-width="2"/>
<path d="M527.469 -85.653C520.85 -56.4266 494.965 -33.5991 458.119 -20.4369C421.295 -7.28248 373.698 -3.86109 324.075 -13.3531C274.451 -22.8452 232.291 -43.4352 204.236 -68.9998C176.164 -94.5795 162.338 -125.003 168.957 -154.229C175.576 -183.456 201.461 -206.283 238.307 -219.445C275.13 -232.6 322.728 -236.021 372.351 -226.529C421.975 -217.037 464.134 -196.447 492.19 -170.883C520.262 -145.303 534.088 -114.879 527.469 -85.653Z" stroke="#1C1D30" stroke-width="2"/>
<path d="M543.508 -82.5891C536.309 -50.8013 508.105 -25.997 467.975 -11.7103C427.867 2.56836 376.023 6.26136 321.969 -4.07819C267.914 -14.4177 221.979 -36.814 191.4 -64.6136C160.805 -92.4286 145.71 -125.515 152.909 -157.303C160.108 -189.091 188.313 -213.895 228.443 -228.182C268.55 -242.46 320.394 -246.153 374.449 -235.814C428.503 -225.474 474.438 -203.078 505.017 -175.278C535.613 -147.463 550.707 -114.377 543.508 -82.5891Z" stroke="#1C1D30" stroke-width="2"/>
<path d="M559.548 -79.5261C551.769 -45.1769 521.244 -18.3958 477.83 -2.98478C434.438 12.4182 378.348 16.3828 319.863 5.19571C261.378 -5.99135 211.667 -30.1937 178.565 -60.2283C145.446 -90.2786 129.082 -126.028 136.861 -160.378C144.64 -194.727 175.165 -221.508 218.579 -236.919C261.971 -252.322 318.061 -256.287 376.546 -245.1C435.031 -233.912 484.742 -209.71 517.844 -179.676C550.963 -149.625 567.326 -113.875 559.548 -79.5261Z" stroke="#1C1D30" stroke-width="2"/>
<path d="M575.587 -76.4602C567.228 -39.5493 534.383 -10.7915 487.685 5.74384C441.01 22.271 380.673 26.5071 317.757 14.4726C254.841 2.43805 201.354 -23.5703 165.73 -55.8399C130.087 -88.1253 112.454 -126.539 120.813 -163.449C129.172 -200.36 162.017 -229.118 208.716 -245.653C255.391 -262.181 315.727 -266.417 378.643 -254.382C441.559 -242.348 495.046 -216.339 530.671 -184.07C566.313 -151.784 583.946 -113.371 575.587 -76.4602Z" stroke="#1C1D30" stroke-width="2"/>
<path d="M591.626 -73.3963C582.687 -33.9236 547.522 -3.18901 497.54 14.4706C447.581 32.1219 382.998 36.6296 315.651 23.7476C248.305 10.8655 191.042 -16.9489 152.894 -51.4534C114.729 -85.9739 95.8265 -127.05 104.766 -166.523C113.705 -205.996 148.87 -236.73 198.852 -254.39C248.811 -272.041 313.394 -276.549 380.741 -263.667C448.087 -250.785 505.35 -222.97 543.498 -188.466C581.663 -153.945 600.566 -112.869 591.626 -73.3963Z" stroke="#1C1D30" stroke-width="2"/>
<path d="M607.666 -70.3323C598.146 -28.2978 560.661 4.41346 507.395 23.1973C454.152 41.9728 385.323 46.752 313.546 33.0225C241.769 19.293 180.73 -10.3275 140.059 -47.0668C99.3702 -83.8224 79.1984 -127.562 88.7178 -169.597C98.2371 -211.631 135.722 -244.343 188.989 -263.126C242.232 -281.902 311.061 -286.681 382.838 -272.952C454.615 -259.222 515.654 -229.602 556.325 -192.862C597.013 -156.107 617.185 -112.367 607.666 -70.3323Z" stroke="#1C1D30" stroke-width="2"/>
<path d="M623.705 -67.2684C613.606 -22.6719 573.8 12.016 517.25 31.9239C460.723 51.8236 387.647 56.8743 311.44 42.2973C235.232 27.7204 170.418 -3.70611 127.224 -42.6803C84.0117 -81.6709 62.5704 -128.074 72.6699 -172.671C82.7695 -217.267 122.575 -251.955 179.125 -271.863C235.652 -291.763 308.728 -296.813 384.935 -282.236C461.143 -267.659 525.957 -236.233 569.151 -197.259C612.363 -158.268 633.805 -111.865 623.705 -67.2684Z" stroke="#1C1D30" stroke-width="2"/>
<path d="M639.74 -64.2044C629.06 -17.0459 586.934 19.6186 527.1 40.6508C467.289 61.6745 389.967 66.9968 309.329 51.5724C228.691 36.1479 160.101 2.91542 114.384 -38.2936C68.6485 -79.5192 45.9375 -128.586 56.6172 -175.744C67.2969 -222.903 109.423 -259.567 169.257 -280.599C229.068 -301.623 306.39 -306.945 387.028 -291.521C467.666 -276.097 536.256 -242.864 581.973 -201.655C627.708 -160.429 650.419 -111.363 639.74 -64.2044Z" stroke="#1C1D30" stroke-width="2"/>
<path d="M655.783 -61.1405C644.523 -11.4199 600.077 27.2212 536.958 49.3775C473.864 71.5254 392.296 77.1192 307.227 60.8473C222.159 44.5753 149.793 9.53688 101.553 -33.907C53.2941 -77.3675 29.3134 -129.097 40.5733 -178.818C51.8332 -228.539 96.2798 -267.18 159.398 -289.336C222.492 -311.484 304.06 -317.078 389.129 -300.806C474.197 -284.534 546.564 -249.495 594.804 -206.051C643.062 -162.591 667.043 -110.861 655.783 -61.1405Z" stroke="#1C1D30" stroke-width="2"/>
<path d="M671.822 -58.0755C659.982 -5.79285 613.215 34.8249 546.813 58.1053C480.435 81.3773 394.621 87.2426 305.122 70.1232C215.623 53.0039 139.481 16.1594 88.7175 -29.5193C37.9359 -75.2146 12.6853 -129.608 24.5255 -181.891C36.3656 -234.173 83.1328 -274.791 149.535 -298.072C215.913 -321.343 301.727 -327.209 391.226 -310.089C480.725 -292.97 556.867 -256.126 607.63 -210.447C658.412 -164.752 683.663 -110.358 671.822 -58.0755Z" stroke="#1C1D30" stroke-width="2"/>
<path d="M687.862 -55.0116C675.441 -0.166789 626.353 42.4276 556.667 66.8321C487.006 91.2281 396.945 97.365 303.016 79.3981C209.086 61.4313 129.168 22.7809 75.8824 -25.1326C22.5777 -73.0628 -3.94276 -130.12 8.47762 -184.964C20.898 -239.809 69.9858 -282.404 139.672 -306.808C209.333 -331.204 299.394 -337.341 393.323 -319.374C487.253 -301.407 567.171 -262.757 620.457 -214.843C673.762 -166.913 700.282 -109.856 687.862 -55.0116Z" stroke="#1C1D30" stroke-width="2"/>
<path d="M703.901 -51.9476C690.9 5.45938 639.492 50.0303 566.522 75.559C493.577 101.079 399.27 107.487 300.91 88.6731C202.55 69.8588 118.856 29.4024 63.0474 -20.7458C7.21947 -70.9109 -20.5708 -130.631 -7.57021 -188.038C5.43042 -245.445 56.8389 -290.016 129.809 -315.545C202.754 -341.065 297.061 -347.473 395.421 -328.659C493.781 -309.845 577.474 -269.388 633.283 -219.24C689.111 -169.075 716.902 -109.355 703.901 -51.9476Z" stroke="#1C1D30" stroke-width="2"/>
<path d="M719.944 -48.8837C706.363 11.0855 652.634 57.633 576.381 84.2858C500.152 110.93 401.598 117.61 298.808 97.948C196.018 78.2863 108.548 36.0239 50.2163 -16.3591C-8.13476 -68.759 -37.195 -131.143 -23.6141 -191.112C-10.0333 -251.081 43.696 -297.629 119.95 -324.281C196.179 -350.925 294.732 -357.605 397.522 -337.943C500.312 -318.282 587.782 -276.019 646.114 -223.636C704.465 -171.236 733.525 -108.853 719.944 -48.8837Z" stroke="#1C1D30" stroke-width="2"/>
<path d="M735.979 -45.8198C721.818 16.7117 665.768 65.2358 586.23 93.0126C506.718 120.781 403.918 127.732 296.698 107.223C189.477 86.7137 98.2316 42.6454 37.3764 -11.9723C-23.4977 -66.6071 -53.828 -131.654 -39.6669 -194.185C-25.5057 -256.717 30.5443 -305.241 110.082 -333.018C189.594 -360.786 292.394 -367.737 399.614 -347.228C506.835 -326.719 598.08 -282.651 658.936 -228.033C719.81 -173.398 750.14 -108.351 735.979 -45.8198Z" stroke="#1C1D30" stroke-width="2"/>
<path d="M752.023 -42.7549C737.282 22.3388 678.911 72.8395 596.09 101.74C513.293 130.633 406.248 137.855 294.597 116.499C182.945 95.1421 87.9245 49.2679 24.5463 -7.58458C-38.851 -64.4542 -70.4512 -132.164 -55.7098 -197.258C-40.9684 -262.352 17.4024 -312.853 100.224 -341.753C183.02 -370.646 290.065 -377.869 401.717 -356.512C513.368 -335.155 608.389 -289.281 671.767 -232.429C735.164 -175.559 766.764 -107.849 752.023 -42.7549Z" stroke="#1C1D30" stroke-width="2"/>
<path d="M768.058 -39.6919C752.736 27.9641 692.044 80.4413 605.939 110.466C519.859 140.482 408.568 147.977 292.486 125.773C176.404 103.569 77.6078 55.8885 11.7065 -3.19874C-54.2139 -62.3032 -87.0842 -132.677 -71.7625 -200.333C-56.4409 -267.989 4.25075 -320.466 90.3558 -350.491C176.436 -380.507 287.728 -388.002 403.809 -365.798C519.891 -343.593 618.687 -295.913 684.589 -236.826C750.509 -177.722 783.379 -107.348 768.058 -39.6919Z" stroke="#1C1D30" stroke-width="2"/>
<path d="M784.102 -36.627C768.2 33.5913 705.187 88.045 615.799 119.194C526.435 150.334 410.897 158.1 290.385 135.049C169.873 111.997 67.3007 62.511 -1.12355 1.189C-69.5671 -60.1502 -103.707 -133.187 -87.8055 -203.406C-71.9035 -273.624 -8.89109 -328.078 80.4977 -359.227C169.861 -390.367 285.399 -398.133 405.911 -375.081C526.423 -352.03 628.996 -302.544 697.42 -241.222C765.863 -179.882 800.004 -106.845 784.102 -36.627Z" stroke="#1C1D30" stroke-width="2"/>
<path d="M800.136 -33.563C783.654 39.2177 718.321 95.6479 625.648 127.921C533.001 160.185 413.217 168.223 288.274 144.324C163.332 120.425 56.9839 69.1326 -13.9634 5.57591C-84.93 -57.9981 -120.34 -133.699 -103.858 -206.479C-87.376 -279.26 -22.0427 -335.69 70.6299 -367.963C163.277 -400.228 283.061 -408.265 408.004 -384.366C532.946 -360.467 639.294 -309.175 710.242 -245.618C781.208 -182.044 816.619 -106.344 800.136 -33.563Z" stroke="#1C1D30" stroke-width="2"/>
<path d="M816.176 -30.4991C799.113 44.8439 731.459 103.251 635.503 136.648C539.572 170.036 415.541 178.345 286.169 153.599C156.796 128.852 46.672 75.7541 -26.7983 9.9627C-100.288 -55.8461 -136.969 -134.21 -119.906 -209.553C-102.844 -284.896 -35.1894 -343.303 60.7669 -376.7C156.698 -410.088 280.728 -418.397 410.101 -393.651C539.474 -368.904 649.598 -315.806 723.068 -250.015C796.558 -184.206 833.238 -105.842 816.176 -30.4991Z" stroke="#1C1D30" stroke-width="2"/>
<path d="M832.215 -27.4351C814.572 50.4702 744.597 110.854 645.357 145.375C546.143 179.887 417.866 188.467 284.063 162.873C150.26 137.28 36.3601 82.3757 -39.6332 14.3496C-115.646 -53.694 -153.597 -134.721 -135.954 -212.627C-118.311 -290.532 -48.336 -350.915 50.904 -385.437C150.119 -419.949 278.395 -428.529 412.198 -402.935C546.001 -377.341 659.901 -322.438 735.894 -254.411C811.907 -186.368 849.858 -105.34 832.215 -27.4351Z" stroke="#1C1D30" stroke-width="2"/>
<path d="M848.254 -24.3712C830.031 56.0965 757.735 118.456 655.212 154.102C552.713 189.738 420.191 198.59 281.957 172.148C143.724 145.707 26.0483 88.9972 -52.4681 18.7363C-131.004 -51.542 -170.225 -135.233 -152.002 -215.7C-133.779 -296.168 -61.4827 -358.528 41.0411 -394.173C143.539 -429.81 276.062 -438.661 414.296 -412.22C552.529 -385.779 670.204 -329.069 748.721 -258.808C827.257 -188.53 866.477 -104.839 848.254 -24.3712Z" stroke="#1C1D30" stroke-width="2"/>
<path d="M864.293 -21.3063C845.489 61.7238 770.873 126.06 665.065 162.829C559.283 199.59 422.514 208.713 279.85 181.424C137.186 154.136 15.7354 95.6198 -65.304 23.1242C-146.363 -49.3889 -186.854 -135.743 -168.051 -218.773C-149.247 -301.803 -74.6303 -366.14 31.1772 -402.909C136.959 -439.669 273.728 -448.793 416.392 -421.504C559.056 -394.215 680.507 -335.699 761.546 -263.204C842.605 -190.691 883.096 -104.336 864.293 -21.3063Z" stroke="#1C1D30" stroke-width="2"/>
<path d="M880.332 -18.2413C860.949 67.3511 784.011 133.664 674.92 171.557C565.854 209.442 424.839 218.836 277.745 190.7C130.65 162.564 5.42355 102.242 -78.1389 27.512C-161.721 -47.2358 -203.482 -136.253 -184.098 -221.846C-164.715 -307.438 -87.7769 -373.751 21.3143 -411.645C130.38 -449.529 271.395 -458.924 418.489 -430.787C565.584 -402.651 690.81 -342.33 774.373 -267.599C857.955 -192.851 899.716 -103.834 880.332 -18.2413Z" stroke="#1C1D30" stroke-width="2"/>
<path d="M896.372 -15.1783C876.408 72.9766 797.149 141.266 684.774 180.283C572.425 219.292 427.164 228.958 275.639 199.974C124.114 170.991 -4.88827 108.863 -90.9738 31.898C-177.079 -45.0846 -220.11 -136.766 -200.146 -224.921C-180.182 -313.075 -100.923 -381.365 11.4515 -420.382C123.801 -459.39 269.062 -469.057 420.587 -440.073C572.111 -411.089 701.114 -348.962 787.199 -271.997C873.304 -195.014 916.336 -103.333 896.372 -15.1783Z" stroke="#1C1D30" stroke-width="2"/>
<path d="M912.416 -12.1145C891.872 78.6028 810.292 148.869 694.633 189.01C579 229.142 429.493 239.08 273.538 209.249C117.583 179.418 -15.1953 115.485 -103.804 36.2848C-192.432 -42.9325 -236.733 -137.277 -216.189 -227.994C-195.645 -318.712 -114.065 -388.977 1.59343 -429.119C117.226 -469.251 266.734 -479.189 422.689 -449.358C578.644 -419.527 711.422 -355.593 800.03 -276.394C888.659 -197.176 932.96 -102.832 912.416 -12.1145Z" stroke="#1C1D30" stroke-width="2"/>
<path d="M928.455 -9.04952C907.331 84.2302 823.43 156.473 704.488 197.738C585.571 238.994 431.817 249.204 271.432 218.525C111.047 187.846 -25.5071 122.107 -116.639 40.6726C-207.79 -40.7794 -253.361 -137.787 -232.237 -231.067C-211.112 -324.347 -127.212 -396.589 -8.26944 -437.854C110.647 -479.111 264.401 -489.32 424.786 -458.642C585.171 -427.963 721.725 -362.224 812.857 -280.789C904.008 -199.337 949.58 -102.329 928.455 -9.04952Z" stroke="#1C1D30" stroke-width="2"/>
<path d="M944.494 -5.98552C922.789 89.8566 836.567 164.076 714.341 206.465C592.141 248.845 434.141 259.326 269.325 227.8C104.51 196.274 -35.82 128.729 -129.475 45.0596C-223.149 -38.6272 -269.991 -138.299 -248.286 -234.141C-226.581 -329.983 -140.359 -404.202 -18.1333 -446.591C104.067 -488.971 262.067 -499.452 426.882 -467.926C591.698 -436.4 732.028 -368.855 825.682 -285.186C919.357 -201.499 966.198 -101.828 944.494 -5.98552Z" stroke="#1C1D30" stroke-width="2"/>
<path d="M960.538 -2.92163C938.253 95.4829 849.71 171.678 724.2 215.192C598.716 258.696 436.471 269.448 267.225 237.075C97.9785 204.701 -46.1269 135.35 -142.304 49.4463C-238.502 -36.4752 -286.614 -138.81 -264.329 -237.214C-242.044 -335.619 -153.501 -411.814 -27.9912 -455.328C97.4927 -498.832 259.739 -509.584 428.985 -477.211C598.231 -444.837 742.336 -375.486 838.514 -289.582C934.711 -203.661 982.823 -101.326 960.538 -2.92163Z" stroke="#1C1D30" stroke-width="2"/>
<path d="M976.572 0.143293C953.707 101.11 862.843 179.282 734.05 223.92C605.282 268.548 438.79 279.572 265.114 246.351C91.4375 213.13 -56.4436 141.973 -155.144 53.8342C-253.865 -34.322 -303.247 -139.32 -280.381 -240.287C-257.516 -341.254 -166.652 -419.426 -37.859 -464.063C90.9086 -508.692 257.401 -519.716 431.077 -486.495C604.754 -453.274 752.635 -382.117 851.335 -293.978C950.056 -205.822 999.438 -100.824 976.572 0.143293Z" stroke="#1C1D30" stroke-width="2"/>
<path d="M992.616 3.20723C969.171 106.737 875.986 186.885 743.909 232.646C611.858 278.399 441.12 289.694 263.013 255.626C84.9061 221.557 -66.7506 148.594 -167.974 58.2212C-269.218 -32.1698 -319.87 -139.831 -296.424 -243.361C-272.979 -346.89 -179.794 -427.039 -47.717 -472.8C84.3342 -518.552 255.072 -529.848 433.179 -495.779C611.286 -461.711 762.943 -388.748 864.166 -298.375C965.41 -207.984 1016.06 -100.322 992.616 3.20723Z" stroke="#1C1D30" stroke-width="2"/>
<path d="M1008.65 6.27019C984.625 112.362 889.119 194.487 753.759 241.372C618.424 288.249 443.439 299.815 260.902 264.9C78.3652 229.984 -77.0673 155.215 -180.814 62.607C-284.58 -30.0187 -336.503 -140.344 -312.477 -246.436C-288.451 -352.527 -192.945 -434.652 -57.5847 -481.538C77.7502 -528.414 252.735 -539.981 435.272 -505.065C617.809 -470.149 773.241 -395.38 876.988 -302.772C980.754 -210.147 1032.68 -99.8217 1008.65 6.27019Z" stroke="#1C1D30" stroke-width="2"/>
<path d="M1024.69 9.33516C1000.08 117.989 902.258 202.091 763.613 250.1C624.995 298.101 445.764 309.939 258.797 274.176C71.8291 238.412 -87.3791 161.838 -193.649 66.9949C-299.938 -27.8655 -353.131 -140.854 -328.525 -249.508C-303.919 -358.163 -206.092 -442.264 -67.4475 -490.273C71.171 -538.274 250.402 -550.112 437.369 -514.349C624.337 -478.585 783.545 -402.011 889.815 -307.168C996.104 -212.308 1049.3 -99.3192 1024.69 9.33516Z" stroke="#1C1D30" stroke-width="2"/>
<path d="M1040.73 12.4001C1015.54 123.617 915.396 209.695 773.467 258.828C631.565 307.952 448.089 320.062 256.691 283.452C65.2929 246.841 -97.691 168.46 -206.484 71.3828C-315.296 -25.7123 -369.759 -141.364 -344.573 -252.581C-319.386 -363.798 -219.239 -449.876 -77.3104 -499.009C64.5918 -548.133 248.069 -560.243 439.466 -523.632C630.864 -487.022 793.848 -408.641 902.641 -311.564C1011.45 -214.469 1065.92 -98.8167 1040.73 12.4001Z" stroke="#1C1D30" stroke-width="2"/>
<path d="M1056.77 15.464C1031 129.243 928.534 217.298 783.322 267.555C638.136 317.803 450.413 330.184 254.585 292.726C58.7569 255.268 -108.003 175.082 -219.318 75.7696C-330.654 -23.5603 -386.388 -141.876 -360.621 -255.655C-334.854 -369.434 -232.385 -457.488 -87.1732 -507.746C58.0126 -557.994 245.736 -570.375 441.564 -532.917C637.392 -495.459 804.151 -415.272 915.467 -315.96C1026.8 -216.631 1082.54 -98.3153 1056.77 15.464Z" stroke="#1C1D30" stroke-width="2"/>
<path d="M1072.81 18.5279C1046.46 134.87 941.671 224.9 793.175 276.282C644.706 327.654 452.737 340.307 252.478 302.001C52.2197 263.696 -118.316 181.703 -232.154 80.1565C-346.013 -21.408 -403.017 -142.387 -376.669 -258.728C-350.322 -375.07 -245.532 -465.101 -97.037 -516.482C51.4325 -567.855 243.401 -580.507 443.66 -542.202C643.919 -503.896 814.454 -421.904 928.293 -320.357C1042.15 -218.793 1099.15 -97.8138 1072.81 18.5279Z" stroke="#1C1D30" stroke-width="2"/>
<path d="M1088.85 21.5919C1061.92 140.496 954.809 232.503 803.03 285.009C651.277 337.505 455.061 350.429 250.373 311.276C45.6836 272.123 -128.627 188.325 -244.989 84.5434C-361.371 -19.2558 -419.645 -142.898 -392.717 -261.802C-365.79 -380.706 -258.679 -472.714 -106.9 -525.219C44.8533 -577.715 241.068 -590.639 445.757 -551.486C650.446 -512.334 824.757 -428.535 941.119 -324.754C1057.5 -220.954 1115.77 -97.3123 1088.85 21.5919Z" stroke="#1C1D30" stroke-width="2"/>
<path d="M1104.89 24.6558C1077.38 146.122 967.947 240.106 812.884 293.736C657.847 347.356 457.386 360.552 248.267 320.551C39.1474 280.551 -138.939 194.946 -257.824 88.9304C-376.729 -17.1036 -436.273 -143.409 -408.765 -264.876C-381.257 -386.342 -271.825 -480.326 -116.763 -533.956C38.2741 -587.576 238.735 -600.772 447.855 -560.771C656.974 -520.771 835.06 -435.166 953.945 -329.15C1072.85 -223.116 1132.39 -96.8108 1104.89 24.6558Z" stroke="#1C1D30" stroke-width="2"/>
<path d="M1120.93 27.7198C1092.84 151.749 981.09 247.709 822.743 302.463C664.423 357.207 459.715 370.674 246.166 329.826C32.6162 288.978 -149.246 201.568 -270.654 93.3172C-392.082 -14.9514 -452.896 -143.92 -424.808 -267.95C-396.72 -391.979 -284.967 -487.939 -126.621 -542.692C31.6998 -597.437 236.407 -610.904 449.957 -570.056C663.506 -529.208 845.369 -441.798 966.777 -333.547C1088.2 -225.278 1149.02 -96.3094 1120.93 27.7198Z" stroke="#1C1D30" stroke-width="2"/>
<path d="M1136.97 30.7837C1108.3 157.375 994.223 255.312 832.593 311.189C670.989 367.058 462.035 380.796 244.055 339.101C26.0752 297.406 -159.563 208.19 -283.494 97.7042C-407.445 -12.7992 -469.529 -144.432 -440.861 -271.023C-412.192 -397.615 -298.118 -495.552 -136.488 -551.429C25.1157 -607.297 234.069 -621.036 452.049 -579.341C670.029 -537.645 855.667 -448.429 979.598 -337.944C1103.55 -227.44 1165.63 -95.8079 1136.97 30.7837Z" stroke="#1C1D30" stroke-width="2"/>
<path d="M1153.01 33.8477C1123.76 163.002 1007.36 262.915 842.451 319.916C677.563 376.909 464.364 390.919 241.953 348.376C19.543 305.833 -169.871 214.811 -296.325 102.091C-422.799 -10.647 -486.153 -144.943 -456.905 -274.097C-427.656 -403.251 -311.261 -503.164 -146.347 -560.166C18.5405 -617.158 231.74 -631.168 454.15 -588.625C676.561 -546.083 865.975 -455.061 992.428 -342.34C1118.9 -229.602 1182.26 -95.3064 1153.01 33.8477Z" stroke="#1C1D30" stroke-width="2"/>
<path d="M1169.04 36.9116C1139.21 168.628 1020.5 270.518 852.301 328.643C684.13 386.76 466.684 401.041 239.844 357.651C13.003 314.261 -180.186 221.433 -309.163 106.478C-438.16 -8.49472 -502.785 -145.454 -472.956 -277.171C-443.127 -408.887 -324.411 -510.777 -156.214 -568.902C11.9574 -627.019 229.403 -641.3 456.244 -597.91C683.084 -554.52 876.274 -461.692 1005.25 -346.737C1134.25 -231.764 1198.87 -94.8049 1169.04 36.9116Z" stroke="#1C1D30" stroke-width="2"/>
<path d="M1185.09 39.9755C1154.68 174.255 1033.64 278.121 862.16 337.37C690.705 396.61 469.013 411.163 237.742 366.926C6.47072 322.688 -190.494 228.054 -321.994 110.865C-453.514 -6.34257 -519.41 -145.965 -489 -280.244C-458.591 -414.523 -337.554 -518.39 -166.073 -577.639C5.38211 -636.879 227.074 -651.432 458.345 -607.195C689.616 -562.957 886.581 -468.323 1018.08 -351.134C1149.6 -233.926 1215.5 -94.3035 1185.09 39.9755Z" stroke="#1C1D30" stroke-width="2"/>
<path d="M1201.12 43.0395C1170.13 179.881 1046.77 285.724 872.009 346.097C697.27 406.461 471.332 421.286 235.631 376.201C-0.0702946 331.116 -200.811 234.676 -334.834 115.252C-468.877 -4.19036 -536.043 -146.477 -505.053 -283.318C-474.063 -420.16 -350.705 -526.002 -175.94 -586.376C-1.20194 -646.74 224.736 -661.564 460.437 -616.479C696.139 -571.394 896.88 -474.955 1030.9 -355.53C1164.95 -236.088 1232.11 -93.802 1201.12 43.0395Z" stroke="#1C1D30" stroke-width="2"/>
<path d="M1217.16 46.1044C1185.59 185.508 1059.91 293.328 881.863 354.825C703.841 416.313 473.657 431.409 233.525 385.477C-6.60635 339.544 -211.123 241.299 -347.669 119.64C-484.235 -2.03717 -552.671 -146.987 -521.101 -286.391C-489.531 -425.795 -363.852 -533.614 -185.803 -595.111C-7.78111 -656.6 222.403 -671.695 462.535 -625.763C702.666 -579.831 907.183 -481.585 1043.73 -359.926C1180.29 -238.249 1248.73 -93.2996 1217.16 46.1044Z" stroke="#1C1D30" stroke-width="2"/>
<path d="M1233.2 49.1694C1201.05 191.136 1073.05 300.932 891.718 363.553C710.412 426.165 475.982 441.532 231.42 394.753C-13.1424 347.973 -221.435 247.921 -360.504 124.028C-499.593 0.116023 -569.299 -147.497 -537.149 -289.464C-504.998 -431.43 -376.998 -541.226 -195.666 -603.847C-14.3603 -666.459 220.07 -681.827 464.632 -635.047C709.194 -588.267 917.486 -488.215 1056.56 -364.322C1195.64 -240.41 1265.35 -92.7971 1233.2 49.1694Z" stroke="#1C1D30" stroke-width="2"/>
<path d="M1249.24 52.2324C1216.51 196.761 1086.19 308.534 901.577 372.279C716.987 436.015 478.311 451.654 229.318 404.027C-19.6738 356.399 -231.742 254.542 -373.334 128.414C-514.946 2.26744 -585.922 -148.009 -553.192 -292.538C-520.461 -437.067 -390.14 -548.839 -205.524 -612.585C-20.9346 -676.321 217.742 -691.96 466.734 -644.332C715.727 -596.705 927.794 -494.848 1069.39 -368.719C1211 -242.573 1281.98 -92.2966 1249.24 52.2324Z" stroke="#1C1D30" stroke-width="2"/>
<path d="M1265.28 55.2972C1231.97 202.389 1099.33 316.137 911.426 381.007C723.553 445.867 480.631 461.777 227.208 413.302C-26.2147 364.828 -242.058 261.164 -386.173 132.801C-530.308 4.42039 -602.555 -148.52 -569.244 -295.611C-535.933 -442.702 -403.291 -556.451 -215.392 -621.32C-27.5186 -686.181 215.404 -702.091 468.827 -653.616C722.249 -605.141 938.093 -501.478 1082.21 -373.115C1226.34 -244.734 1298.59 -91.7943 1265.28 55.2972Z" stroke="#1C1D30" stroke-width="2"/>
<path d="M1281.32 58.3612C1247.43 208.015 1112.47 323.74 921.285 389.734C730.128 455.718 482.959 471.9 225.106 422.577C-32.7469 373.255 -252.366 267.786 -399.004 137.188C-545.662 6.57272 -619.18 -149.031 -585.288 -298.685C-551.397 -448.339 -416.434 -564.064 -225.251 -630.057C-34.0938 -696.041 213.075 -712.223 470.928 -662.901C728.781 -613.579 948.4 -508.109 1095.04 -377.512C1241.7 -246.896 1315.21 -91.2928 1281.32 58.3612Z" stroke="#1C1D30" stroke-width="2"/>
<path d="M1297.36 61.4251C1262.89 213.642 1125.61 331.343 931.139 398.46C736.699 465.569 485.284 482.022 223 431.852C-39.283 381.683 -262.678 274.407 -411.839 141.575C-561.02 8.72488 -635.808 -149.542 -601.336 -301.758C-566.865 -453.975 -429.58 -571.676 -235.113 -638.794C-40.673 -705.902 210.742 -722.355 473.025 -672.186C735.309 -622.016 958.704 -514.741 1107.86 -381.909C1257.05 -249.058 1331.83 -90.7914 1297.36 61.4251Z" stroke="#1C1D30" stroke-width="2"/>
<path d="M1313.4 64.4891C1278.35 219.268 1138.74 338.946 940.993 407.187C743.269 475.419 487.608 492.144 220.894 441.127C-45.8191 390.11 -272.99 281.029 -424.674 145.962C-576.378 10.8772 -652.436 -150.053 -617.384 -304.832C-582.332 -459.611 -442.727 -579.289 -244.976 -647.53C-47.2522 -715.762 208.409 -732.487 475.123 -681.47C741.836 -630.453 969.007 -521.372 1120.69 -386.305C1272.4 -251.22 1348.45 -90.2899 1313.4 64.4891Z" stroke="#1C1D30" stroke-width="2"/>
<path d="M1329.45 67.5539C1293.81 224.895 1151.89 346.55 950.852 415.915C749.845 485.271 489.938 502.268 218.794 450.403C-52.3504 398.539 -283.297 287.652 -437.504 150.35C-591.731 13.0303 -669.059 -150.563 -633.427 -307.905C-597.795 -465.246 -455.868 -586.901 -254.834 -656.266C-53.8264 -725.622 206.081 -742.618 477.225 -690.754C748.369 -638.889 979.315 -528.003 1133.52 -390.701C1287.75 -253.381 1365.08 -89.7875 1329.45 67.5539Z" stroke="#1C1D30" stroke-width="2"/>
</g>
</g>
<path d="M-1338 0H390V165H-1338V0Z" fill="url(#paint0_linear_647_13)"/>
<defs>
<linearGradient id="paint0_linear_647_13" x1="81.4999" y1="21.5" x2="81.4999" y2="114.5" gradientUnits="userSpaceOnUse">
<stop stop-color="#25273E" stop-opacity="0"/>
<stop offset="1" stop-color="#25273E"/>
</linearGradient>
</defs>
</svg>
