<svg width="117" height="97" viewBox="0 0 117 97" fill="none" xmlns="http://www.w3.org/2000/svg">
<rect width="117" height="97" fill="#D22E40"/>
<mask id="mask0_236_815" style="mask-type:alpha" maskUnits="userSpaceOnUse" x="0" y="0" width="117" height="97">
<rect width="117" height="97" rx="3" fill="#E50539"/>
</mask>
<g mask="url(#mask0_236_815)">
<path d="M311.399 49.0002C311.399 55.3696 311.159 61.7368 310.679 68.0881L61.7887 49.2865C61.7959 49.1913 61.7995 49.0957 61.7995 49.0002H311.399Z" fill="#DC3749"/>
<path d="M307.553 93.0021C306.447 99.2747 305.105 105.503 303.529 111.675L61.6845 49.9396C61.7082 49.847 61.7283 49.7536 61.7449 49.6595L307.553 93.0021Z" fill="#DC3749"/>
<path d="M296.116 135.668C293.938 141.653 291.535 147.554 288.911 153.359L61.4613 50.5653C61.5006 50.4783 61.5367 50.3897 61.5693 50.3L296.116 135.668Z" fill="#DC3749"/>
<path d="M277.453 175.701C274.268 181.217 270.876 186.611 267.285 191.871L61.1403 51.1432C61.1941 51.0643 61.245 50.9833 61.2928 50.9006L277.453 175.701Z" fill="#DC3749"/>
<path d="M252.115 211.882C248.021 216.761 243.744 221.485 239.294 226.041L60.7184 51.6548C60.7852 51.5865 60.8493 51.5156 60.9107 51.4424L252.115 211.882Z" fill="#DC3749"/>
<path d="M220.884 243.115C216.005 247.21 210.973 251.118 205.799 254.833L60.218 52.0867C60.2956 52.031 60.3711 51.9723 60.4442 51.9109L220.884 243.115Z" fill="#DC3749"/>
<path d="M184.703 268.452C179.187 271.636 173.553 274.612 167.813 277.372L59.6499 52.4257C59.736 52.3843 59.8205 52.3396 59.9033 52.2919L184.703 268.452Z" fill="#DC3749"/>
<path d="M144.667 287.119C138.681 289.297 132.616 291.249 126.484 292.971L59.0258 52.6595C59.1178 52.6337 59.2088 52.6044 59.2985 52.5717L144.667 287.119Z" fill="#DC3749"/>
<path d="M102.005 298.551C95.7322 299.657 89.4201 300.526 83.082 301.156L58.3785 52.7818C58.4735 52.7724 58.5682 52.7593 58.6623 52.7427L102.005 298.551Z" fill="#DC3749"/>
<path d="M58.0015 302.4C51.6321 302.4 45.265 302.16 38.9137 301.68L57.7152 52.7892C57.8105 52.7964 57.906 52.8 58.0015 52.8V302.4Z" fill="#DC3749"/>
<path d="M13.9984 298.55C7.72579 297.444 1.49707 296.102 -4.67445 294.526L57.0609 52.6818C57.1534 52.7055 57.2469 52.7256 57.341 52.7422L13.9984 298.55Z" fill="#DC3749"/>
<path d="M-28.6701 287.119C-34.6554 284.94 -40.5564 282.537 -46.3606 279.914L56.4327 52.4637C56.5198 52.5031 56.6083 52.5391 56.6981 52.5718L-28.6701 287.119Z" fill="#DC3749"/>
<path d="M-68.7 268.451C-74.2161 265.267 -79.6101 261.875 -84.8706 258.284L55.8573 52.1392C55.9362 52.193 56.0172 52.2439 56.0999 52.2917L-68.7 268.451Z" fill="#DC3749"/>
<path d="M-104.882 243.115C-109.761 239.021 -114.485 234.744 -119.041 230.294L55.3452 51.7184C55.4135 51.7852 55.4844 51.8493 55.5576 51.9107L-104.882 243.115Z" fill="#DC3749"/>
<path d="M-136.115 211.882C-140.21 207.003 -144.118 201.971 -147.833 196.797L54.9133 51.2164C54.969 51.294 55.0277 51.3695 55.0891 51.4427L-136.115 211.882Z" fill="#DC3749"/>
<path d="M-161.451 175.7C-164.636 170.184 -167.611 164.55 -170.372 158.81L54.5748 50.6469C54.6162 50.733 54.6609 50.8175 54.7086 50.9002L-161.451 175.7Z" fill="#DC3749"/>
<path d="M-180.121 135.668C-182.299 129.683 -184.251 123.617 -185.973 117.485L54.3385 50.0269C54.3644 50.1189 54.3936 50.2099 54.4263 50.2996L-180.121 135.668Z" fill="#DC3749"/>
<path d="M-191.55 93.0019C-192.656 86.7293 -193.525 80.4172 -194.156 74.079L54.2187 49.3756C54.2281 49.4706 54.2412 49.5653 54.2578 49.6594L-191.55 93.0019Z" fill="#DC3749"/>
<path d="M-195.399 48.9995C-195.399 42.6301 -195.159 36.2629 -194.679 29.9116L54.2113 48.7131C54.2041 48.8084 54.2005 48.9039 54.2005 48.9995L-195.399 48.9995Z" fill="#DC3749"/>
<path d="M-191.549 4.99623C-190.443 -1.27641 -189.101 -7.50513 -187.525 -13.6766L54.3194 48.0587C54.2957 48.1513 54.2756 48.2447 54.259 48.3388L-191.549 4.99623Z" fill="#DC3749"/>
<path d="M-180.12 -37.6685C-177.942 -43.6538 -175.539 -49.5548 -172.915 -55.359L54.5348 47.4343C54.4955 47.5214 54.4594 47.6099 54.4267 47.6997L-180.12 -37.6685Z" fill="#DC3749"/>
<path d="M-161.449 -77.701C-158.264 -83.2171 -154.873 -88.6111 -151.281 -93.8716L54.8635 46.8564C54.8097 46.9353 54.7588 47.0162 54.711 47.0989L-161.449 -77.701Z" fill="#DC3749"/>
<path d="M-136.115 -113.883C-132.021 -118.762 -127.744 -123.485 -123.294 -128.042L55.2816 46.3447C55.2148 46.413 55.1507 46.4839 55.0893 46.5571L-136.115 -113.883Z" fill="#DC3749"/>
<path d="M-104.884 -145.116C-100.005 -149.21 -94.9728 -153.119 -89.799 -156.834L55.782 45.9128C55.7044 45.9685 55.6289 46.0272 55.5558 46.0886L-104.884 -145.116Z" fill="#DC3749"/>
<path d="M-68.6994 -170.452C-63.1833 -173.637 -57.5491 -176.612 -51.8088 -179.373L56.3539 45.5738C56.2678 45.6152 56.1832 45.6599 56.1005 45.7076L-68.6994 -170.452Z" fill="#DC3749"/>
<path d="M-28.6706 -189.119C-22.6853 -191.298 -16.62 -193.25 -10.4876 -194.971L56.9703 45.3401C56.8783 45.3659 56.7873 45.3952 56.6975 45.4279L-28.6706 -189.119Z" fill="#DC3749"/>
<path d="M13.999 -200.552C20.2717 -201.658 26.5838 -202.527 32.9219 -203.158L57.6254 45.2165C57.5304 45.2259 57.4357 45.239 57.3416 45.2556L13.999 -200.552Z" fill="#DC3749"/>
<path d="M57.9985 -204.401C64.3679 -204.401 70.735 -204.161 77.0863 -203.681L58.2848 45.2092C58.1895 45.202 58.094 45.1984 57.9985 45.1984L57.9985 -204.401Z" fill="#DC3749"/>
<path d="M102.002 -200.552C108.274 -199.446 114.503 -198.104 120.674 -196.528L58.9391 45.3165C58.8466 45.2928 58.7531 45.2727 58.659 45.2561L102.002 -200.552Z" fill="#DC3749"/>
<path d="M144.666 -189.119C150.651 -186.941 156.552 -184.537 162.357 -181.914L59.5634 45.5359C59.4763 45.4966 59.3878 45.4605 59.298 45.4278L144.666 -189.119Z" fill="#DC3749"/>
<path d="M184.7 -170.452C190.216 -167.267 195.61 -163.876 200.871 -160.284L60.1427 45.8605C60.0638 45.8066 59.9828 45.7557 59.9001 45.708L184.7 -170.452Z" fill="#DC3749"/>
<path d="M220.882 -145.117C225.761 -141.023 230.485 -136.746 235.041 -132.296L60.6548 46.28C60.5865 46.2132 60.5156 46.1491 60.4424 46.0877L220.882 -145.117Z" fill="#DC3749"/>
<path d="M252.115 -113.884C256.21 -109.005 260.118 -103.973 263.833 -98.799L61.0867 46.782C61.031 46.7044 60.9723 46.6289 60.9109 46.5558L252.115 -113.884Z" fill="#DC3749"/>
<path d="M277.451 -77.7005C280.636 -72.1844 283.611 -66.5502 286.372 -60.8099L61.4252 47.3528C61.3838 47.2667 61.3391 47.1821 61.2914 47.0994L277.451 -77.7005Z" fill="#DC3749"/>
<path d="M296.117 -37.6682C298.295 -31.6829 300.247 -25.6176 301.969 -19.4852L61.6576 47.9727C61.6317 47.8808 61.6025 47.7898 61.5698 47.7L296.117 -37.6682Z" fill="#DC3749"/>
<path d="M307.55 4.99634C308.656 11.269 309.525 17.5811 310.156 23.9192L61.7813 48.6227C61.7719 48.5277 61.7588 48.433 61.7422 48.3389L307.55 4.99634Z" fill="#DC3749"/>
</g>
<path d="M37.409 76.713L36.936 78H35L38.069 70.212H39.983L43.008 78H41.061L40.599 76.713H37.409ZM37.959 75.107H40.049C39.8803 74.6157 39.708 74.128 39.532 73.644C39.3633 73.1527 39.191 72.6613 39.015 72.17L37.959 75.107ZM48.4163 70.212H50.3633L47.3273 78H45.5233L42.4983 70.212H44.4673L46.4693 75.756L48.4163 70.212ZM52.9791 78H51.1861V70.212H52.9791V78ZM56.1971 76.713L55.7241 78H53.7881L56.8571 70.212H58.7711L61.7961 78H59.8491L59.3871 76.713H56.1971ZM56.7471 75.107H58.8371C58.6684 74.6157 58.4961 74.128 58.3201 73.644C58.1514 73.1527 57.9791 72.6613 57.8031 72.17L56.7471 75.107ZM61.3304 71.851V70.212H67.8754V71.851H65.4994V78H63.7064V71.851H61.3304ZM72.2475 70.113C72.8415 70.113 73.3769 70.2083 73.8535 70.399C74.3375 70.5823 74.7482 70.85 75.0855 71.202C75.4302 71.5467 75.6942 71.961 75.8775 72.445C76.0609 72.929 76.1525 73.468 76.1525 74.062C76.1525 74.6487 76.0609 75.1877 75.8775 75.679C75.6942 76.1703 75.4302 76.5957 75.0855 76.955C74.7482 77.3143 74.3375 77.593 73.8535 77.791C73.3695 77.989 72.8269 78.0843 72.2255 78.077C71.6169 78.077 71.0705 77.9817 70.5865 77.791C70.1099 77.593 69.7029 77.318 69.3655 76.966C69.0282 76.614 68.7679 76.196 68.5845 75.712C68.4085 75.2207 68.3205 74.6817 68.3205 74.095C68.3205 73.501 68.4122 72.962 68.5955 72.478C68.7862 71.9867 69.0502 71.565 69.3875 71.213C69.7322 70.861 70.1465 70.5897 70.6305 70.399C71.1145 70.2083 71.6535 70.113 72.2475 70.113ZM70.1575 74.084C70.1575 74.3847 70.1979 74.6743 70.2785 74.953C70.3665 75.2317 70.4949 75.481 70.6635 75.701C70.8395 75.9137 71.0595 76.086 71.3235 76.218C71.5875 76.35 71.9029 76.4197 72.2695 76.427C72.6215 76.427 72.9259 76.361 73.1825 76.229C73.4392 76.097 73.6519 75.921 73.8205 75.701C73.9892 75.481 74.1139 75.2317 74.1945 74.953C74.2752 74.6743 74.3155 74.392 74.3155 74.106C74.3155 73.82 74.2752 73.5377 74.1945 73.259C74.1212 72.9803 74.0002 72.731 73.8315 72.511C73.6629 72.291 73.4465 72.1113 73.1825 71.972C72.9259 71.8327 72.6142 71.763 72.2475 71.763C71.8882 71.763 71.5765 71.829 71.3125 71.961C71.0485 72.093 70.8322 72.269 70.6635 72.489C70.4949 72.7017 70.3665 72.9473 70.2785 73.226C70.1979 73.5047 70.1575 73.7907 70.1575 74.084ZM80.577 70.212C80.9364 70.212 81.2994 70.245 81.666 70.311C82.0327 70.377 82.3627 70.5017 82.656 70.685C82.9494 70.8683 83.1877 71.125 83.371 71.455C83.5544 71.7777 83.646 72.1957 83.646 72.709C83.6314 73.281 83.492 73.776 83.228 74.194C82.964 74.612 82.5717 74.9017 82.051 75.063L83.811 78H81.787L80.258 75.294H79.147V78H77.354V70.212H80.577ZM80.566 73.743C80.9547 73.743 81.2664 73.6697 81.501 73.523C81.7357 73.3763 81.8604 73.127 81.875 72.775C81.8824 72.5917 81.853 72.4413 81.787 72.324C81.721 72.1993 81.6294 72.104 81.512 72.038C81.402 71.9647 81.2664 71.917 81.105 71.895C80.951 71.8657 80.7824 71.851 80.599 71.851H79.147V73.743H80.566Z" fill="#F7F9FB"/>
<g clip-path="url(#clip0_236_815)">
<path d="M44.9261 37.267L42.3616 47.6642C43.0056 47.6642 43.6185 47.4318 44.1993 46.9707C44.78 46.5107 45.1503 45.9564 45.3159 45.3124L47.2962 37.2681H50.3817L50.3598 37.3555H55.6395L53.3395 46.314C53.336 46.3324 53.3257 46.3612 53.3096 46.4095C53.2958 46.4497 53.2866 46.4842 53.2797 46.513L53.2762 46.5268C53.1658 47.1903 53.4234 47.571 54.0467 47.6687L54.0697 47.6722L53.6615 49.2408H53.1831C52.0768 49.2408 51.2453 49.0016 50.6864 48.5278C50.1264 48.0505 49.9136 47.4077 50.0505 46.5981C50.062 46.5153 50.0815 46.4337 50.108 46.3543L50.1206 46.314L52.0365 38.9241H49.9757L48.8487 43.5253C48.483 45.0444 47.6366 46.3681 46.3072 47.4963L46.2601 47.5353C44.9031 48.6715 43.4736 49.2408 41.9706 49.2408H38.8886L41.4289 38.8448L41.7567 37.2681L44.9261 37.267ZM67.1441 37.267L64.8809 46.6027C64.8763 46.6337 64.8671 46.6648 64.8556 46.6947C64.8429 46.7246 64.8326 46.7568 64.8268 46.789C64.7406 47.3387 64.9913 47.6285 65.5801 47.6607L65.1937 49.2408H64.1173C63.0512 49.2408 62.3267 48.9188 61.9392 48.2736C61.1652 48.9177 60.3303 49.2397 59.431 49.2397H58.9526C57.9142 49.2397 57.0758 48.9522 56.4364 48.3794C55.7947 47.8067 55.5475 47.0799 55.6889 46.2002C55.7004 46.0967 55.7234 45.9932 55.7579 45.8943L57.0333 40.6135C57.261 39.659 57.8475 38.8609 58.7951 38.2238C59.7415 37.5879 60.7639 37.2681 61.8633 37.2681H67.1429L67.1441 37.267ZM79.6469 37.267C80.6899 37.267 81.5271 37.5556 82.1654 38.1295C82.7921 38.693 83.0417 39.4083 82.9152 40.2731L82.9094 40.3111L82.86 40.6146L81.5559 45.8932C81.3293 46.8212 80.744 47.6112 79.7964 48.2633C78.8637 48.9027 77.8506 49.2293 76.75 49.2408H76.236C75.1803 49.2408 74.327 48.9579 73.683 48.3932C73.0355 47.8251 72.786 47.096 72.9297 46.2002C72.9412 46.1116 72.9608 46.0231 72.9861 45.9369L72.9987 45.8943L74.3063 40.6146C74.5328 39.674 75.1147 38.8793 76.0543 38.2341C76.9766 37.6016 77.9943 37.2796 79.1087 37.2681L79.6469 37.267ZM36.5828 32C37.7903 32 38.7471 32.2967 39.459 32.8878C40.1651 33.4835 40.4411 34.2701 40.2812 35.2499C40.2755 35.2844 40.2651 35.3454 40.241 35.4408C40.2157 35.5328 40.2065 35.5926 40.2007 35.6271L37.3798 46.95C37.3039 47.3985 37.4902 47.64 37.9364 47.671L37.5396 49.2408H36.3068C35.5513 49.2408 34.9843 49.0545 34.614 48.6807C34.238 48.307 34.108 47.7826 34.2184 47.111C34.2311 47.0075 34.2552 46.9063 34.2886 46.8085L35.2856 42.833H32.475L30.8719 49.2408H27.7853L29.3838 42.833H25C25 41.7118 25.8913 40.7998 27.0033 40.7998C27.7531 40.7998 28.7064 40.7952 29.7392 40.794H29.8944L31.187 35.6271C31.4584 34.5335 32.0955 33.6549 33.1018 32.9936C34.108 32.3324 35.2661 32 36.5828 32ZM73.6933 34.3943L72.9987 37.1002H74.327L73.936 38.6389H72.633L70.8045 45.9138C70.8034 45.9323 70.793 45.9598 70.7803 46.0058C70.7643 46.0518 70.7539 46.0909 70.7493 46.122C70.6412 46.7809 70.9034 47.1409 71.5336 47.2007L71.1415 48.7612H70.0651C69.1968 48.7612 68.5482 48.5347 68.117 48.0851C67.6892 47.632 67.5385 47.0178 67.6662 46.2381C67.6754 46.1829 67.6869 46.1289 67.7018 46.0772C67.7225 45.999 67.7363 45.9449 67.7409 45.9138L69.5694 38.6389H68.0629L68.4539 37.1002H69.957L70.6286 34.3943H73.6933ZM88.7675 36.9565L88.5283 37.9524C89.4598 37.2888 90.5684 36.9565 91.8484 36.9565H92.9133L92.0657 40.1754H90.335L90.711 38.6481C89.9382 38.9103 89.2482 39.3842 88.6341 40.0718C88.0212 40.7561 87.6106 41.4921 87.4002 42.2799L85.7499 48.7118H82.5736L85.6073 36.9565H88.7675ZM63.6918 38.8471H61.4964C60.8559 38.8471 60.4361 39.2415 60.236 40.0259L58.7675 46.0817C58.7629 46.1128 58.7525 46.1611 58.7341 46.2243L58.7031 46.3393C58.5651 47.2225 58.9365 47.6618 59.8209 47.6618C60.2924 47.6618 60.7409 47.4893 61.1606 47.1443C61.5804 46.797 61.8529 46.3796 61.976 45.8943L63.6918 38.8471ZM78.9994 38.8701C78.6314 38.8701 78.2979 39.0322 78.0024 39.3542C77.7149 39.667 77.5044 40.0718 77.3745 40.5675L77.363 40.6135L76.0819 45.8943C76.0738 45.938 76.0635 45.9805 76.0508 46.0231C76.0336 46.0783 76.0221 46.1208 76.0163 46.153C75.9473 46.5935 75.9922 46.9535 76.1543 47.2352C76.3165 47.5204 76.5511 47.6607 76.8581 47.6607C77.1951 47.6607 77.5182 47.5078 77.8264 47.2007C78.1277 46.9029 78.3474 46.4819 78.4854 45.9391L78.4969 45.8932L79.778 40.6146L79.8194 40.3559C79.8964 39.8855 79.8527 39.521 79.6952 39.26C79.5376 39.0001 79.3065 38.8701 78.9994 38.8701ZM36.1872 33.5697C35.7709 33.5697 35.3903 33.7215 35.0545 34.024C34.7198 34.3276 34.499 34.7151 34.3932 35.1855L32.9661 40.7929L32.9603 40.8274H35.7663L35.7767 40.7929L37.2038 35.182L37.2395 34.9704C37.3039 34.5668 37.2395 34.2287 37.0543 33.9665C36.8634 33.6985 36.5782 33.5675 36.1872 33.5675V33.5697ZM55.2197 32C55.6659 32 56.0247 32.1575 56.2938 32.4692C56.5606 32.7808 56.6572 33.1557 56.5836 33.5916C56.5112 34.0286 56.2846 34.4069 55.9143 34.7266C55.5406 35.0464 55.1289 35.2062 54.6792 35.2062C54.2319 35.2062 53.8742 35.0487 53.6086 34.737C53.3395 34.4242 53.2417 34.0447 53.3211 33.5916C53.3935 33.1557 53.6166 32.7808 53.9881 32.4692C54.3618 32.1575 54.7712 32 55.2197 32Z" fill="#F7F9FB"/>
</g>
<defs>
<clipPath id="clip0_236_815">
<rect width="69" height="17.25" fill="white" transform="translate(25 32)"/>
</clipPath>
</defs>
</svg>
