<svg width="31" height="26" viewBox="0 0 31 26" fill="none" xmlns="http://www.w3.org/2000/svg">
<rect x="13.2285" y="17.4719" width="6.16673" height="7.19452" fill="#3ADED4"/>
<rect x="13.2285" y="10.2776" width="6.16673" height="7.19452" fill="#EA3589"/>
<path d="M19.5777 8.36389e-06C20.5151 -0.000104641 21.436 0.249831 22.2478 0.724685C23.0596 1.19954 23.7338 1.88257 24.2024 2.70511C24.671 3.52765 24.9176 4.46069 24.9175 5.41043C24.9173 6.36016 24.6703 7.29312 24.2014 8.11548L30.256 8.11412V10.8188H27.5864V24.3424C27.5864 24.701 27.4458 25.045 27.1955 25.2986C26.9451 25.5522 26.6056 25.6947 26.2516 25.6947H4.89499C4.54099 25.6947 4.20148 25.5522 3.95115 25.2986C3.70083 25.045 3.5602 24.701 3.5602 24.3424V10.8188H0.890625V8.11412L6.94523 8.11548C6.28299 6.95365 6.07053 5.58395 6.34909 4.27232C6.62765 2.9607 7.37737 1.80076 8.45265 1.01772C9.52794 0.234692 10.8521 -0.115551 12.1679 0.0350054C13.4838 0.185561 14.6975 0.826171 15.5733 1.83245C16.0733 1.25551 16.6893 0.793533 17.3799 0.477494C18.0705 0.161455 18.8199 -0.00134457 19.5777 8.36389e-06ZM16.9081 10.8188H14.2385V24.3424H16.9081V10.8188ZM11.5689 2.70471C10.8762 2.70157 10.2094 2.97138 9.70938 3.45713C9.20936 3.94289 8.91529 4.60655 8.8893 5.30791C8.8633 6.00927 9.10742 6.6934 9.57008 7.21578C10.0327 7.73815 10.6777 8.05786 11.3687 8.10736L11.5689 8.11412H14.2385V5.40942C14.2385 4.76308 14.0101 4.13809 13.5946 3.64765C13.1791 3.15721 12.604 2.83374 11.9734 2.73582L11.7678 2.71147L11.5689 2.70471ZM19.5777 2.70471C18.9042 2.7045 18.2555 2.96221 17.7616 3.42619C17.2678 3.89017 16.9653 4.52612 16.9148 5.20656L16.9081 5.40942V8.11412H19.5777C20.2512 8.11434 20.8999 7.85663 21.3937 7.39265C21.8876 6.92867 22.1901 6.29271 22.2406 5.61227L22.2473 5.40942C22.2473 4.69209 21.966 4.00413 21.4654 3.4969C20.9647 2.98967 20.2857 2.70471 19.5777 2.70471Z" fill="#151339"/>
</svg>
