<svg width="29" height="28" viewBox="0 0 29 28" fill="none" xmlns="http://www.w3.org/2000/svg">
<rect x="10.0791" y="23.6384" width="9.25009" height="3.08336" fill="#3ADED4"/>
<path d="M27.6495 4.62505H23.5903C23.7938 3.40127 23.9138 2.16507 23.9494 0.925009C23.9495 0.803516 23.9256 0.6832 23.8792 0.570942C23.8327 0.458683 23.7646 0.356683 23.6787 0.270774C23.5928 0.184866 23.4908 0.116733 23.3785 0.0702711C23.2662 0.0238096 23.1459 -6.91601e-05 23.0244 1.50453e-07H6.37427C6.25278 -6.91601e-05 6.13246 0.0238096 6.02021 0.0702711C5.90795 0.116733 5.80595 0.184866 5.72004 0.270774C5.63413 0.356683 5.566 0.458683 5.51954 0.570942C5.47307 0.6832 5.4492 0.803516 5.44926 0.925009C5.48493 2.16507 5.60491 3.40127 5.80839 4.62505H1.74923C1.62773 4.62498 1.50742 4.64886 1.39516 4.69532C1.2829 4.74178 1.1809 4.80991 1.09499 4.89582C1.00908 4.98173 0.940951 5.08373 0.89449 5.19599C0.848028 5.30825 0.82415 5.42856 0.824219 5.55006V9.25009C0.831069 10.7071 1.15302 12.1453 1.76799 13.4661C2.38295 14.787 3.27637 15.9591 4.38695 16.9022C5.67531 17.9941 7.30517 18.6006 8.9939 18.6167C9.18704 18.6167 9.38087 18.6045 9.57474 18.5881C10.104 19.8754 10.7965 21.0894 11.6351 22.2002H10.0743C9.95282 22.2002 9.8325 22.224 9.72024 22.2705C9.60798 22.317 9.50599 22.3851 9.42008 22.471C9.33417 22.5569 9.26603 22.6589 9.21957 22.7712C9.17311 22.8834 9.14923 23.0037 9.1493 23.1252V26.8253C9.14923 26.9468 9.17311 27.0671 9.21957 27.1793C9.26603 27.2916 9.33417 27.3936 9.42008 27.4795C9.50599 27.5654 9.60798 27.6335 9.72024 27.68C9.8325 27.7265 9.95282 27.7503 10.0743 27.7503H19.3244C19.4459 27.7503 19.5662 27.7265 19.6785 27.68C19.7907 27.6335 19.8927 27.5654 19.9786 27.4795C20.0645 27.3936 20.1327 27.2916 20.1791 27.1793C20.2256 27.0671 20.2495 26.9468 20.2494 26.8253V23.1252C20.2495 23.0037 20.2256 22.8834 20.1791 22.7712C20.1327 22.6589 20.0645 22.5569 19.9786 22.471C19.8927 22.3851 19.7907 22.317 19.6785 22.2705C19.5662 22.224 19.4459 22.2002 19.3244 22.2002H17.7636C18.6022 21.0894 19.2947 19.8754 19.8239 18.5881C20.0178 18.6045 20.2116 18.6167 20.4047 18.6167C22.0934 18.6002 23.7231 17.9937 25.0117 16.9022C26.1223 15.9591 27.0157 14.787 27.6307 13.4661C28.2457 12.1453 28.5676 10.7071 28.5745 9.25009V5.55006C28.5746 5.42856 28.5507 5.30825 28.5042 5.19599C28.4578 5.08373 28.3896 4.98173 28.3037 4.89582C28.2178 4.80991 28.1158 4.74178 28.0036 4.69532C27.8913 4.64886 27.771 4.62498 27.6495 4.62505ZM5.55947 15.4713C4.66425 14.6988 3.9439 13.7444 3.4464 12.6716C2.9489 11.5989 2.68567 10.4325 2.67424 9.25009V6.47506H6.11699C6.58159 9.02062 7.18587 11.5387 7.9271 14.0179C8.22666 15.007 8.53273 15.9144 8.8437 16.7586C7.63644 16.7058 6.48103 16.253 5.55947 15.4713ZM18.3994 24.0502V25.9003H10.9993V24.0502H18.3994ZM26.7245 9.25009C26.713 10.4325 26.4498 11.5989 25.9523 12.6716C25.4548 13.7444 24.7345 14.6988 23.8392 15.4713C22.9177 16.2522 21.7625 16.7042 20.5558 16.7563C20.8664 15.913 21.1723 15.0061 21.4716 14.0179C22.2128 11.5387 22.8171 9.02062 23.2817 6.47506H26.7245V9.25009Z" fill="#151339"/>
</svg>
