<svg width="30" height="27" viewBox="0 0 30 27" fill="none" xmlns="http://www.w3.org/2000/svg">
<rect x="11.5117" y="9.97754" width="10.0656" height="8.9472" fill="#EA3589"/>
<path d="M2.99042 4.7017L8.6663 8.48562L14.3233 0.566419C14.4483 0.391236 14.6133 0.248442 14.8046 0.149921C14.996 0.0513994 15.2081 0 15.4233 0C15.6385 0 15.8506 0.0513994 16.0419 0.149921C16.2333 0.248442 16.3983 0.391236 16.5233 0.566419L22.1803 8.48562L27.8562 4.7017C28.071 4.55879 28.3222 4.48035 28.5802 4.47566C28.8381 4.47097 29.0921 4.54023 29.3119 4.67524C29.5318 4.81026 29.7084 5.00539 29.8209 5.23758C29.9334 5.46977 29.9771 5.72931 29.9468 5.98553L27.7264 24.8605C27.6877 25.1893 27.5297 25.4923 27.2823 25.7123C27.035 25.9322 26.7155 26.0538 26.3845 26.0538H4.46209C4.13109 26.0538 3.81161 25.9322 3.56426 25.7123C3.31691 25.4923 3.15888 25.1893 3.12015 24.8605L0.899803 5.98418C0.869802 5.72807 0.913703 5.46871 1.02632 5.23674C1.13894 5.00477 1.31558 4.80986 1.53538 4.67502C1.75518 4.54019 2.00898 4.47105 2.2668 4.47578C2.52462 4.48051 2.77571 4.5589 2.99042 4.7017ZM15.4233 17.9454C16.1401 17.9454 16.8276 17.6607 17.3345 17.1538C17.8413 16.6469 18.1261 15.9594 18.1261 15.2426C18.1261 14.5258 17.8413 13.8383 17.3345 13.3314C16.8276 12.8246 16.1401 12.5398 15.4233 12.5398C14.7065 12.5398 14.019 12.8246 13.5121 13.3314C13.0053 13.8383 12.7205 14.5258 12.7205 15.2426C12.7205 15.9594 13.0053 16.6469 13.5121 17.1538C14.019 17.6607 14.7065 17.9454 15.4233 17.9454Z" fill="#151339"/>
</svg>
