<svg width="26" height="26" viewBox="0 0 26 26" fill="none" xmlns="http://www.w3.org/2000/svg">
<path d="M14 18.9995L19 12.9995L13 6.49951L7.5 12.9995L13 18.9995H14Z" fill="#3ADED4" stroke="#EA3589"/>
<path d="M22.1867 3.81285C19.8467 1.47285 16.5533 -0.000488281 13 -0.000488281C9.44667 -0.000488281 6.15333 1.47285 3.81333 3.81285C1.47333 6.15285 0 9.44618 0 12.9995C0 16.5528 1.47333 19.8462 3.81333 22.1862C6.15333 24.5262 9.44667 25.9995 13 25.9995C16.5533 25.9995 19.8467 24.5262 22.1867 22.1862C24.5267 19.8462 26 16.5528 26 12.9995C26 9.44618 24.5267 6.15285 22.1867 3.81285ZM21.58 5.71951C23.0533 7.45285 24.0933 9.70618 24.2667 12.1328H22.5333C22.36 10.1395 21.58 8.31951 20.3667 6.93285L21.58 5.71951ZM12.1333 1.81951V3.55285C10.14 3.72618 8.32 4.50618 6.93333 5.71951L5.72 4.41951C7.45333 2.94618 9.70667 1.99284 12.1333 1.81951ZM4.42 20.2795C2.94667 18.5462 1.90667 16.2928 1.73333 13.8662H3.46667C3.64 15.8595 4.42 17.6795 5.63333 19.0662L4.42 20.2795ZM3.55333 12.1328H1.82C1.99333 9.70618 2.94667 7.45285 4.50667 5.71951L5.72 6.93285C4.50667 8.31951 3.72667 10.1395 3.55333 12.1328ZM12.1333 24.1795C9.70667 24.0062 7.45333 23.0528 5.72 21.4928L6.93333 20.2795C8.40667 21.4928 10.2267 22.2728 12.1333 22.4462V24.1795ZM13 18.1995C12.74 18.1995 12.48 18.1128 12.3067 17.8528L8.84 13.5195C8.58 13.1728 8.58 12.7395 8.84 12.4795L12.3067 8.14618C12.6533 7.71284 13.3467 7.71284 13.6933 8.14618L17.16 12.4795C17.42 12.8262 17.42 13.2595 17.16 13.5195L13.6933 17.8528C13.52 18.1128 13.26 18.1995 13 18.1995ZM13.8667 24.1795V22.4462C15.86 22.2728 17.68 21.4928 19.0667 20.2795L20.28 21.4928C18.5467 23.0528 16.2933 24.0062 13.8667 24.1795ZM19.0667 5.71951C17.5933 4.50618 15.7733 3.72618 13.8667 3.55285V1.81951C16.2933 1.99284 18.5467 2.94618 20.28 4.50618L19.0667 5.71951ZM21.58 20.2795L20.28 19.0662C21.4933 17.5928 22.2733 15.7728 22.4467 13.8662H24.18C24.0067 16.2928 23.0533 18.5462 21.58 20.2795Z" fill="#151339"/>
</svg>
