<svg width="30" height="32" viewBox="0 0 30 32" fill="none" xmlns="http://www.w3.org/2000/svg">
<path d="M27.5221 4.72601L11.7156 0.583817C10.6249 0.29787 9.50334 0.930895 9.21082 1.99789L2.85834 25.1869C2.56582 26.2544 3.2135 27.3512 4.30424 27.6377L20.1102 31.7804C21.2009 32.0658 22.323 31.4328 22.615 30.3653L28.9675 7.17627C29.2605 6.10826 28.6133 5.01146 27.5221 4.72601Z" fill="#3ADED4"/>
<path d="M19.5206 10.0835L8.7402 7.46769C7.99629 7.28711 7.23135 7.68687 7.03185 8.3607L2.69928 23.0049C2.49978 23.679 2.94151 24.3717 3.68543 24.5526L14.4655 27.1688C15.2094 27.349 15.9747 26.9492 16.1739 26.2751L20.5064 11.6309C20.7063 10.9565 20.2649 10.2638 19.5206 10.0835Z" fill="#EA3589"/>
<path fill-rule="evenodd" clip-rule="evenodd" d="M2.79036 3.54614H18.957C20.073 3.54614 20.9778 4.45097 20.9778 5.56697V29.8164C20.9778 30.9324 20.073 31.8373 18.957 31.8373H2.79036C1.67436 31.8373 0.769531 30.9324 0.769531 29.8164V5.56697C0.769531 4.45097 1.67436 3.54614 2.79036 3.54614ZM13.098 16.5733C13.4486 16.4096 13.8376 16.3101 14.2534 16.3101C15.7316 16.3101 16.93 17.4696 16.93 18.8998C16.93 20.33 15.7316 21.4895 14.2534 21.4895C13.2273 21.4895 12.3467 20.9242 11.8976 20.1037C11.1615 23.4987 13.6734 23.7574 13.6734 23.7574H7.90394C10.3436 23.4649 9.95256 20.8691 9.80403 20.178C9.33873 20.9459 8.48544 21.4673 7.49877 21.4673C6.01699 21.4673 4.81662 20.3053 4.81662 18.8725C4.81662 17.4387 6.01699 16.2773 7.49877 16.2773C7.86201 16.2773 8.20808 16.349 8.52383 16.4758C8.07874 15.963 7.80037 15.3098 7.80037 14.5873C7.80037 12.956 9.16696 11.6339 10.8528 11.6339C12.5382 11.6339 13.9048 12.956 13.9048 14.5873C13.9048 15.3553 13.5946 16.0489 13.098 16.5733Z" fill="#151339"/>
</svg>
