<svg width="27" height="26" viewBox="0 0 27 26" fill="none" xmlns="http://www.w3.org/2000/svg">
<path d="M8.34904 2.29468L3.75928 6.42547L4.67723 9.6383L8.34904 11.4742L13.3978 7.8024L12.9388 3.67161L8.34904 2.29468Z" fill="#3ADED4" stroke="#3ADED4"/>
<path d="M2.37464 11.9331L2.37505 15.6045L4.21083 18.8178L7.88331 19.735L9.71846 18.3584L8.34153 12.3917L4.66975 10.5559L2.37464 11.9331Z" fill="#EA3589" stroke="#EA3589"/>
<path d="M20.2719 11.0171L15.6821 15.1479L16.6001 18.3607L20.2719 20.1966L25.3206 16.5248L24.8617 12.394L20.2719 11.0171Z" fill="#3ADED4" stroke="#3ADED4"/>
<path d="M24.3111 20.195C25.7799 18.0837 26.606 15.6052 26.606 12.8513C26.606 10.3729 25.8717 8.07799 24.6783 6.15029C24.6783 6.05849 24.5865 6.05849 24.5865 5.9667C22.2916 2.38668 18.3444 0 13.7547 0C9.1649 0 5.12591 2.38668 2.92282 6.05849C2.92282 6.15029 2.83102 6.15029 2.83102 6.24208C1.63768 8.16979 0.995117 10.4647 0.995117 12.9431C0.995117 15.697 1.82128 18.1755 3.29 20.2868L3.3818 20.3786C5.58488 23.5914 9.44029 25.7027 13.7547 25.7027C18.069 25.7027 21.8327 23.5914 24.2193 20.3786C24.2193 20.2868 24.2193 20.2868 24.3111 20.195ZM22.9342 18.818L19.6296 19.277L18.3444 17.9919L20.1803 12.6678L23.026 11.2908L24.8619 12.3924C24.8619 12.576 24.8619 12.7596 24.8619 13.0349C24.7701 15.0544 24.1275 17.1657 22.9342 18.818ZM22.8424 6.70106L22.108 9.45492L19.1706 10.9236L14.6726 7.8026V4.22259L17.7937 2.66207C19.905 3.48822 21.6491 4.86515 22.8424 6.70106ZM9.62388 2.66207L12.8367 4.22259V7.8026L8.33874 11.0154L5.3095 9.54672L4.57514 6.70106C5.86027 4.86515 7.60438 3.48822 9.62388 2.66207ZM2.73923 12.2088L4.57514 11.1072L7.42079 12.576L9.2567 17.9001L7.97156 19.1852L4.57514 18.818C3.3818 17.0739 2.73923 15.0544 2.73923 12.8513C2.73923 12.6678 2.73923 12.3924 2.73923 12.2088ZM10.909 23.4996L9.34849 20.3786L10.45 19.277H17.0593L18.1608 20.3786L16.6003 23.4996C15.6824 23.775 14.7644 23.8668 13.7547 23.8668C12.7449 23.8668 11.827 23.6832 10.909 23.4996Z" fill="#151339"/>
</svg>
