<svg width="42" height="42" viewBox="0 0 42 42" fill="none" xmlns="http://www.w3.org/2000/svg">
<path d="M21 0C9.41283 0 0 9.41283 0 21C0 32.5872 9.41283 42 21 42C32.5872 42 42 32.5872 42 21C42 9.41283 32.5872 0 21 0ZM21 1.82609C31.6003 1.82609 40.1739 10.3997 40.1739 21C40.1739 31.6003 31.6003 40.1739 21 40.1739C10.3997 40.1739 1.82609 31.6003 1.82609 21C1.82609 10.3997 10.3997 1.82609 21 1.82609ZM20.8431 13.6957C17.5616 13.6957 16.6256 16.0399 16.6256 17.3674C16.6256 19.1643 18.0322 20.1002 18.6568 20.3348C17.8752 20.6471 16.1566 21.5068 16.1566 23.9282C16.1566 25.9588 17.4071 28.3026 21.0785 28.3026C22.4846 28.3026 25.8434 27.5995 25.8434 23.9282C25.8434 21.4282 24.124 20.5695 23.2648 20.3348C23.8117 20.1011 25.2175 19.1643 25.2175 17.3674C25.2175 16.6644 24.9837 13.6957 20.8431 13.6957ZM12.3261 13.9239C11.9353 16.1134 10.4078 16.5382 8.21739 16.6167V18.0237L11.8696 18.0326V28.0761H13.6957V13.9239H12.3261ZM20.9215 15.2578C23.0307 15.2578 23.3432 16.7429 23.3432 17.4459C23.3432 18.2275 22.953 19.7891 21 19.7891C18.5786 19.7891 18.4222 17.8367 18.4231 17.4459C18.4231 17.1327 18.5778 15.2578 20.9215 15.2578ZM31.0435 17.3478V20.087H28.3043V21.913H31.0435V24.6522H32.8696V21.913H35.6087V20.087H32.8696V17.3478H31.0435ZM21 21.2728C23.3438 21.2728 23.9692 23.3839 23.9692 24.0084C23.9692 25.336 22.953 26.8189 21 26.8189C19.5154 26.8189 17.9524 26.0399 17.9524 24.0084C17.9524 22.8361 18.7347 21.2728 21 21.2728Z" fill="white" fill-opacity="0.3"/>
</svg>
