<svg width="1728" height="844" viewBox="0 0 1728 844" fill="none" xmlns="http://www.w3.org/2000/svg">
<g style="mix-blend-mode:lighten" opacity="0.03">
<path d="M998.435 823.498C997.541 827.446 994.571 830.684 990.347 832.687C986.123 834.691 980.702 835.423 975.096 834.35C969.49 833.278 964.837 830.619 961.833 827.233C958.83 823.848 957.512 819.79 958.406 815.842C959.301 811.894 962.27 808.656 966.494 806.653C970.718 804.649 976.14 803.917 981.745 804.99C987.351 806.062 992.004 808.721 995.008 812.107C998.011 815.492 999.329 819.55 998.435 823.498Z" stroke="#C8C4FC" stroke-width="2"/>
<path d="M2035.85 1021.68C1997.45 1191.26 1844.47 1322.36 1627.82 1397.1C1411.2 1471.84 1131.1 1490.15 838.901 1434.26C546.698 1378.36 297.809 1258.87 131.617 1110.91C-34.5947 962.932 -117.95 786.628 -79.5466 617.05C-41.1434 447.473 111.828 316.373 328.478 241.629C545.103 166.894 825.199 148.585 1117.4 204.478C1409.6 260.371 1658.49 379.864 1824.69 527.824C1990.9 675.802 2074.25 852.106 2035.85 1021.68Z" stroke="#C8C4FC" stroke-width="2"/>
<path d="M1015.44 826.747C1013.94 833.366 1008.56 838.707 1000.84 841.92C993.13 845.13 983.19 846.16 972.864 844.185C962.538 842.209 953.869 837.62 948.191 831.849C942.508 826.072 939.892 819.201 941.391 812.582C942.89 805.964 948.272 800.623 955.99 797.409C963.703 794.199 973.643 793.17 983.969 795.145C994.295 797.12 1002.96 801.709 1008.64 807.481C1014.32 813.257 1016.94 820.128 1015.44 826.747Z" stroke="#C8C4FC" stroke-width="2"/>
<path d="M1032.45 829.997C1030.34 839.312 1022.52 846.754 1011.31 851.166C1000.11 855.575 985.663 856.895 970.631 854.02C955.599 851.144 942.922 844.635 934.569 836.487C926.207 828.331 922.266 818.64 924.376 809.324C926.485 800.008 934.306 792.567 945.514 788.154C956.711 783.746 971.161 782.426 986.193 785.301C1001.23 788.176 1013.9 794.686 1022.26 802.834C1030.62 810.99 1034.56 820.681 1032.45 829.997Z" stroke="#C8C4FC" stroke-width="2"/>
<path d="M1049.46 833.245C1046.73 845.267 1036.46 854.807 1021.77 860.416C1007.09 866.019 988.133 867.629 968.399 863.854C948.665 860.079 931.982 851.652 920.952 841.131C909.913 830.6 904.638 818.087 907.36 806.065C910.083 794.043 920.352 784.503 935.047 778.895C949.728 773.292 968.684 771.682 988.418 775.456C1008.15 779.231 1024.83 787.658 1035.86 798.179C1046.9 808.71 1052.18 821.223 1049.46 833.245Z" stroke="#C8C4FC" stroke-width="2"/>
<path d="M1066.46 836.494C1063.12 851.226 1050.4 862.863 1032.22 869.666C1014.06 876.463 990.598 878.362 966.164 873.688C941.73 869.015 921.042 858.671 907.337 845.778C893.62 832.874 887.007 817.538 890.343 802.806C893.679 788.074 906.401 776.437 924.581 769.633C942.745 762.836 966.205 760.938 990.64 765.612C1015.07 770.285 1035.76 780.629 1049.47 793.522C1063.18 806.426 1069.8 821.762 1066.46 836.494Z" stroke="#C8C4FC" stroke-width="2"/>
<path d="M1083.47 839.743C1079.52 857.187 1064.34 870.921 1042.68 878.918C1021.03 886.908 993.065 889.095 963.932 883.523C934.798 877.95 910.105 865.691 893.725 850.427C877.332 835.15 869.377 816.991 873.328 799.547C877.278 782.103 892.455 768.368 914.12 760.371C935.766 752.381 963.73 750.194 992.864 755.767C1022 761.34 1046.69 773.599 1063.07 788.863C1079.46 804.139 1087.42 822.299 1083.47 839.743Z" stroke="#C8C4FC" stroke-width="2"/>
<path d="M1100.48 842.992C1095.91 863.15 1078.28 878.981 1053.13 888.171C1028 897.354 995.532 899.829 961.699 893.358C927.867 886.886 899.17 872.711 880.114 855.077C861.044 837.429 851.747 816.446 856.312 796.289C860.877 776.131 878.511 760.3 903.659 751.11C928.788 741.927 961.255 739.452 995.088 745.923C1028.92 752.395 1057.62 766.57 1076.67 784.204C1095.74 801.852 1105.04 822.835 1100.48 842.992Z" stroke="#C8C4FC" stroke-width="2"/>
<path d="M1117.48 846.241C1112.3 869.113 1092.21 887.041 1063.58 897.423C1034.97 907.799 997.998 910.562 959.467 903.192C920.936 895.822 888.235 879.731 866.504 859.727C844.758 839.708 834.117 815.901 839.297 793.03C844.476 770.158 864.568 752.23 893.199 741.847C921.81 731.472 958.781 728.708 997.312 736.078C1035.84 743.449 1068.54 759.539 1090.27 779.544C1112.02 799.563 1122.66 823.369 1117.48 846.241Z" stroke="#C8C4FC" stroke-width="2"/>
<path d="M1134.49 849.49C1128.69 875.076 1106.14 895.101 1074.03 906.676C1041.94 918.244 1000.46 921.295 957.234 913.026C914.005 904.757 877.3 886.752 852.894 864.377C828.472 841.987 816.487 815.357 822.281 789.77C828.076 764.184 850.626 744.159 882.74 732.584C914.833 721.016 956.307 717.965 999.536 726.234C1042.77 734.503 1079.47 752.508 1103.88 774.883C1128.3 797.273 1140.28 823.903 1134.49 849.49Z" stroke="#C8C4FC" stroke-width="2"/>
<path d="M1151.5 852.739C1145.09 881.041 1120.08 903.162 1084.48 915.929C1048.91 928.689 1002.93 932.029 955.002 922.861C907.074 913.694 866.366 893.773 839.284 869.028C812.186 844.268 798.856 814.814 805.266 786.512C811.675 758.21 836.685 736.09 872.281 723.322C907.856 710.562 953.833 707.222 1001.76 716.39C1049.69 725.558 1090.4 745.478 1117.48 770.223C1144.58 794.983 1157.91 824.437 1151.5 852.739Z" stroke="#C8C4FC" stroke-width="2"/>
<path d="M1168.5 855.988C1161.48 887.006 1134.01 911.222 1094.93 925.182C1055.87 939.134 1005.39 942.762 952.767 932.696C900.142 922.63 855.429 900.794 825.673 873.679C795.899 846.549 781.224 814.271 788.249 783.253C795.273 752.235 822.742 728.019 861.821 714.059C900.878 700.107 951.357 696.479 1003.98 706.545C1056.61 716.611 1101.32 738.447 1131.08 765.562C1160.85 792.692 1175.53 824.97 1168.5 855.988Z" stroke="#C8C4FC" stroke-width="2"/>
<path d="M1185.51 859.237C1177.87 892.97 1147.94 919.283 1105.38 934.435C1062.84 949.579 1007.86 953.495 950.537 942.53C893.213 931.565 844.497 907.814 812.065 878.329C779.616 848.829 763.596 813.728 771.235 779.994C778.875 746.26 808.803 719.948 851.364 704.796C893.903 689.651 948.885 685.736 1006.21 696.701C1063.53 707.665 1112.25 731.416 1144.68 760.901C1177.13 790.401 1193.15 825.503 1185.51 859.237Z" stroke="#C8C4FC" stroke-width="2"/>
<path d="M1202.52 862.485C1194.26 898.935 1161.87 927.344 1115.83 943.688C1069.81 960.024 1010.33 964.228 948.304 952.364C886.283 940.501 833.563 914.835 798.456 882.98C763.331 851.11 745.965 813.185 754.22 776.735C762.474 740.285 794.863 711.876 840.906 695.532C886.927 679.196 946.411 674.992 1008.43 686.856C1070.45 698.719 1123.17 724.385 1158.28 756.24C1193.41 788.11 1210.77 826.035 1202.52 862.485Z" stroke="#C8C4FC" stroke-width="2"/>
<path d="M1219.52 865.735C1210.65 904.901 1175.81 935.405 1126.28 952.942C1076.78 970.47 1012.79 974.961 946.072 962.199C879.353 949.437 822.629 921.856 784.847 887.632C747.047 853.392 728.335 812.643 737.204 773.477C746.074 734.311 780.923 703.806 830.448 686.27C879.951 668.742 943.937 664.25 1010.66 677.012C1077.38 689.774 1134.1 717.355 1171.88 751.579C1209.68 785.819 1228.39 826.569 1219.52 865.735Z" stroke="#C8C4FC" stroke-width="2"/>
<path d="M1236.53 868.984C1227.05 910.866 1189.74 943.466 1136.73 962.195C1083.75 980.915 1015.26 985.694 943.839 972.034C872.422 958.373 811.695 928.877 771.238 892.283C730.762 855.673 710.704 812.1 720.189 770.217C729.674 728.335 766.983 695.735 819.99 677.006C872.974 658.286 941.464 653.507 1012.88 667.167C1084.3 680.828 1145.02 710.324 1185.48 746.918C1225.96 783.528 1246.02 827.101 1236.53 868.984Z" stroke="#C8C4FC" stroke-width="2"/>
<path d="M1253.54 872.232C1243.44 916.831 1203.67 951.527 1147.18 971.448C1090.71 991.36 1017.72 996.427 941.607 981.868C865.492 967.309 800.762 935.898 757.629 896.934C714.478 857.955 693.074 811.557 703.174 766.958C713.274 722.36 753.043 687.663 809.532 667.743C865.998 647.831 938.99 642.763 1015.1 657.323C1091.22 671.882 1155.95 703.293 1199.08 742.256C1242.23 781.236 1263.64 827.633 1253.54 872.232Z" stroke="#C8C4FC" stroke-width="2"/>
<path d="M1270.54 875.481C1259.83 922.796 1217.6 959.588 1157.63 980.701C1097.68 1001.8 1020.18 1007.16 939.372 991.702C858.56 976.244 789.826 942.918 744.018 901.585C698.191 860.236 675.441 811.014 686.156 763.699C696.871 716.384 739.101 679.592 799.072 658.479C859.02 637.375 936.515 632.02 1017.33 647.478C1098.14 662.936 1166.87 696.262 1212.68 737.595C1258.51 778.944 1281.26 828.166 1270.54 875.481Z" stroke="#C8C4FC" stroke-width="2"/>
<path d="M1287.55 878.731C1276.22 928.762 1231.53 967.65 1168.08 989.955C1104.65 1012.25 1022.65 1017.89 937.14 1001.54C851.63 985.181 778.892 949.94 730.409 906.237C681.907 862.518 657.81 810.473 669.141 760.441C680.471 710.409 725.161 671.521 788.615 649.217C852.044 626.921 934.041 621.278 1019.55 637.634C1105.06 653.991 1177.8 689.231 1226.28 732.934C1274.78 776.653 1298.88 828.699 1287.55 878.731Z" stroke="#C8C4FC" stroke-width="2"/>
<path d="M1304.56 881.979C1292.61 934.728 1245.46 975.711 1178.53 999.208C1111.61 1022.7 1025.12 1028.63 934.907 1011.37C844.7 994.117 767.958 956.961 716.8 910.889C665.623 864.8 640.18 809.93 652.125 757.182C664.071 704.433 711.221 663.45 778.157 639.953C845.068 616.466 931.567 610.534 1021.78 627.789C1111.98 645.044 1188.72 682.2 1239.88 728.272C1291.06 774.361 1316.5 829.231 1304.56 881.979Z" stroke="#C8C4FC" stroke-width="2"/>
<path d="M1321.56 885.228C1309 940.693 1259.39 983.773 1188.97 1008.46C1118.58 1033.14 1027.58 1039.36 932.675 1021.21C837.77 1003.05 757.025 963.982 703.191 915.54C649.339 867.081 622.549 809.388 635.11 753.923C647.671 698.458 697.282 655.378 767.699 630.69C838.093 606.01 929.094 599.791 1024 617.945C1118.9 636.098 1199.65 675.169 1253.48 723.611C1307.34 772.069 1334.13 829.763 1321.56 885.228Z" stroke="#C8C4FC" stroke-width="2"/>
<path d="M1338.57 888.477C1325.4 946.659 1273.32 991.835 1199.42 1017.71C1125.55 1043.59 1030.05 1050.09 930.443 1031.04C830.839 1011.99 746.091 971.003 689.582 920.192C633.054 869.364 604.918 808.846 618.095 750.665C631.271 692.483 683.342 647.307 757.242 621.427C831.117 595.556 926.62 589.049 1026.22 608.101C1125.83 627.153 1210.57 668.139 1267.08 718.95C1323.61 769.778 1351.75 830.296 1338.57 888.477Z" stroke="#C8C4FC" stroke-width="2"/>
<path d="M1355.58 891.726C1341.79 952.625 1287.25 999.896 1209.87 1026.97C1132.52 1054.03 1032.51 1060.83 928.21 1040.88C823.909 1020.92 735.158 978.024 675.973 924.843C616.77 871.645 587.288 808.304 601.079 747.405C614.87 686.507 669.403 639.236 746.784 612.164C824.141 585.1 924.147 578.306 1028.45 598.256C1132.75 618.207 1221.5 661.107 1280.68 714.288C1339.89 767.486 1369.37 830.828 1355.58 891.726Z" stroke="#C8C4FC" stroke-width="2"/>
<path d="M1372.58 894.975C1358.18 958.59 1301.18 1007.96 1220.32 1036.22C1139.48 1064.48 1034.97 1071.56 925.976 1050.71C816.977 1029.86 724.222 985.045 662.363 929.495C600.484 873.927 569.655 807.761 584.062 744.146C598.468 680.531 655.461 631.164 736.325 602.9C817.163 574.645 921.671 567.562 1030.67 588.411C1139.67 609.261 1232.42 654.076 1294.28 709.626C1356.16 765.194 1386.99 831.36 1372.58 894.975Z" stroke="#C8C4FC" stroke-width="2"/>
<path d="M1389.59 898.224C1374.57 964.556 1315.11 1016.02 1230.77 1045.47C1146.45 1074.92 1037.44 1082.29 923.743 1060.54C810.047 1038.8 713.288 992.066 648.754 934.146C584.2 876.209 552.025 807.219 567.046 740.887C582.068 674.555 641.522 623.092 725.867 593.637C810.187 564.189 919.198 556.819 1032.89 578.567C1146.59 600.315 1243.35 647.045 1307.88 704.965C1372.44 762.902 1404.61 831.891 1389.59 898.224Z" stroke="#C8C4FC" stroke-width="2"/>
<path d="M1406.6 901.473C1390.96 970.522 1329.05 1024.08 1241.22 1054.73C1153.42 1085.37 1039.9 1093.03 921.511 1070.38C803.117 1047.73 702.355 999.088 635.145 938.798C567.916 878.491 534.394 806.678 550.031 737.629C565.668 668.58 627.583 615.022 715.409 584.374C803.211 553.735 916.724 546.077 1035.12 568.723C1153.51 591.369 1254.27 640.014 1321.48 700.304C1388.71 760.611 1422.23 832.424 1406.6 901.473Z" stroke="#C8C4FC" stroke-width="2"/>
<path d="M1423.6 904.722C1407.35 976.487 1342.98 1032.14 1251.67 1063.98C1160.38 1095.81 1042.37 1103.76 919.278 1080.21C796.187 1056.67 691.421 1006.11 621.536 943.449C551.632 880.773 516.763 806.135 533.016 734.37C549.268 662.604 613.643 606.95 704.952 575.11C796.236 543.28 914.251 535.333 1037.34 558.878C1160.43 582.423 1265.2 632.983 1335.08 695.642C1404.99 758.318 1439.86 832.956 1423.6 904.722Z" stroke="#C8C4FC" stroke-width="2"/>
<path d="M1440.61 907.97C1423.74 982.453 1356.91 1040.2 1262.12 1073.23C1167.35 1106.26 1044.83 1114.49 917.046 1090.05C789.257 1065.6 680.488 1013.13 607.928 948.101C535.348 883.055 499.133 805.593 516 731.111C532.868 656.628 599.704 598.878 694.494 565.847C789.26 532.824 911.777 524.59 1039.57 549.034C1167.35 573.477 1276.12 625.952 1348.68 690.98C1421.26 756.026 1457.48 833.488 1440.61 907.97Z" stroke="#C8C4FC" stroke-width="2"/>
<path d="M1457.62 911.22C1440.14 988.42 1370.84 1048.27 1272.57 1082.49C1174.32 1116.7 1047.3 1125.22 914.815 1099.88C782.329 1074.54 669.556 1020.15 594.321 952.753C519.066 885.338 481.504 805.052 498.987 727.852C516.47 650.653 585.767 590.807 684.039 556.584C782.286 522.37 909.306 513.848 1041.79 539.19C1174.28 564.532 1287.05 618.921 1362.29 686.319C1437.54 753.735 1475.1 834.021 1457.62 911.22Z" stroke="#C8C4FC" stroke-width="2"/>
<path d="M1474.63 914.469C1456.53 994.385 1384.77 1056.33 1283.02 1091.74C1181.29 1127.15 1049.76 1135.96 912.581 1109.72C775.397 1083.48 658.621 1027.17 580.71 957.404C502.78 887.619 463.871 804.51 481.969 724.593C500.068 644.677 571.826 582.735 673.58 547.321C775.308 511.914 906.83 503.104 1044.01 529.345C1181.2 555.586 1297.97 611.89 1375.88 681.658C1453.81 751.443 1492.72 834.552 1474.63 914.469Z" stroke="#C8C4FC" stroke-width="2"/>
<path d="M1491.63 917.717C1472.92 1000.35 1398.7 1064.39 1293.46 1100.99C1188.25 1137.59 1052.23 1146.69 910.348 1119.55C768.467 1092.41 647.687 1034.19 567.101 962.056C486.496 889.901 446.241 803.967 464.954 721.334C483.667 638.701 557.886 574.664 663.122 538.057C768.332 501.459 904.357 492.361 1046.24 519.5C1188.12 546.64 1308.9 604.859 1389.49 676.996C1470.09 749.15 1510.35 835.084 1491.63 917.717Z" stroke="#C8C4FC" stroke-width="2"/>
<path d="M1508.64 920.966C1489.31 1006.32 1412.63 1072.45 1303.91 1110.25C1195.22 1148.04 1054.69 1157.42 908.116 1129.39C761.537 1101.35 636.754 1041.21 553.493 966.707C470.212 892.183 428.61 803.425 447.939 718.075C467.267 632.725 543.947 566.592 652.665 528.793C761.357 491.004 901.883 481.618 1048.46 509.656C1195.04 537.693 1319.82 597.827 1403.09 672.334C1486.37 746.858 1527.97 835.616 1508.64 920.966Z" stroke="#C8C4FC" stroke-width="2"/>
<path d="M1525.65 924.216C1505.7 1012.28 1426.56 1080.51 1314.36 1119.5C1202.19 1158.48 1057.16 1168.16 905.883 1139.22C754.607 1110.28 625.82 1048.24 539.884 971.359C453.928 894.466 410.979 802.884 430.923 714.817C450.867 626.75 530.008 558.521 642.207 519.531C754.381 480.549 899.41 470.876 1050.69 499.812C1201.96 528.748 1330.75 590.797 1416.69 667.673C1502.64 744.567 1545.59 836.149 1525.65 924.216Z" stroke="#C8C4FC" stroke-width="2"/>
<path d="M1542.65 927.464C1522.09 1018.25 1440.49 1088.57 1324.81 1128.76C1209.16 1168.93 1059.63 1178.89 903.651 1149.05C747.676 1119.22 614.887 1055.26 526.275 976.011C437.644 896.748 393.348 802.342 413.908 711.558C434.467 620.774 516.069 550.449 631.75 510.267C747.405 470.094 896.936 460.132 1052.91 489.967C1208.88 519.802 1341.67 583.766 1430.29 663.011C1518.92 742.274 1563.21 836.68 1542.65 927.464Z" stroke="#C8C4FC" stroke-width="2"/>
<path d="M1559.66 930.713C1538.49 1024.21 1454.42 1096.63 1335.26 1138.01C1216.12 1179.37 1062.09 1189.62 901.418 1158.89C740.746 1128.16 603.953 1062.28 512.667 980.662C421.361 899.03 375.718 801.799 396.892 708.299C418.067 614.798 502.13 542.377 621.292 501.003C740.43 459.638 894.463 449.389 1055.13 480.122C1215.81 510.856 1352.6 576.734 1443.89 658.349C1535.19 739.982 1580.84 837.212 1559.66 930.713Z" stroke="#C8C4FC" stroke-width="2"/>
<path d="M1576.67 933.962C1554.88 1030.18 1468.35 1104.7 1345.71 1147.26C1223.09 1189.82 1064.55 1200.36 899.184 1168.72C733.814 1137.09 593.018 1069.3 499.056 985.314C405.075 901.311 358.085 801.257 379.875 705.039C401.665 608.821 488.188 534.306 610.833 491.74C733.452 449.183 891.987 438.646 1057.36 470.278C1222.73 501.91 1363.52 569.703 1457.48 653.688C1551.47 737.69 1598.46 837.744 1576.67 933.962Z" stroke="#C8C4FC" stroke-width="2"/>
<path d="M1593.67 937.211C1571.27 1036.15 1482.28 1112.76 1356.16 1156.52C1230.06 1200.26 1067.02 1211.09 896.951 1178.56C726.884 1146.03 582.084 1076.32 485.447 989.966C388.791 903.594 340.454 800.716 362.86 701.781C385.265 602.846 474.249 526.235 600.376 482.477C726.476 438.728 889.514 427.903 1059.58 460.434C1229.65 492.964 1374.45 562.673 1471.08 649.027C1567.74 735.398 1616.08 838.277 1593.67 937.211Z" stroke="#C8C4FC" stroke-width="2"/>
<path d="M1610.68 940.46C1587.66 1042.11 1496.21 1120.82 1366.61 1165.77C1237.02 1210.71 1069.48 1221.82 894.719 1188.39C719.954 1154.96 571.151 1083.34 471.839 994.617C372.507 905.876 322.824 800.174 345.844 698.522C368.865 596.87 460.31 518.163 589.918 473.214C719.5 428.273 887.04 417.16 1061.8 450.589C1236.57 484.018 1385.37 555.641 1484.69 644.365C1584.02 733.106 1633.7 838.808 1610.68 940.46Z" stroke="#C8C4FC" stroke-width="2"/>
<path d="M1627.69 943.709C1604.05 1048.08 1510.14 1128.88 1377.05 1175.02C1243.99 1221.15 1071.95 1232.55 892.486 1198.23C713.024 1163.9 560.218 1090.36 458.23 999.269C356.223 908.158 305.193 799.632 328.829 695.263C352.465 590.894 446.371 510.091 579.461 463.95C712.525 417.818 884.567 406.417 1064.03 440.745C1243.49 475.072 1396.3 548.61 1498.29 639.703C1600.29 730.814 1651.32 839.34 1627.69 943.709Z" stroke="#C8C4FC" stroke-width="2"/>
<path d="M1644.69 946.958C1620.44 1054.04 1524.08 1136.94 1387.5 1184.28C1250.96 1231.6 1074.41 1243.29 890.254 1208.06C706.094 1172.84 549.284 1097.38 444.622 1003.92C339.939 910.441 287.562 799.09 311.813 692.005C336.065 584.919 432.432 502.02 569.003 454.687C705.549 407.363 882.094 395.675 1066.25 430.901C1250.41 466.127 1407.22 541.58 1511.89 635.042C1616.57 728.522 1668.94 839.873 1644.69 946.958Z" stroke="#C8C4FC" stroke-width="2"/>
<path d="M1661.7 950.207C1636.83 1060.01 1538.01 1145 1397.95 1193.53C1257.93 1242.04 1076.88 1254.02 888.021 1217.9C699.164 1181.77 538.351 1104.4 431.013 1008.57C323.655 912.723 269.932 798.548 294.798 688.746C319.664 578.943 418.493 493.948 558.546 445.424C698.573 396.908 879.62 384.931 1068.48 421.056C1257.33 457.181 1418.15 534.548 1525.49 630.38C1632.84 726.23 1686.57 840.404 1661.7 950.207Z" stroke="#C8C4FC" stroke-width="2"/>
<path d="M1678.71 953.456C1653.22 1065.98 1551.93 1153.07 1408.4 1202.78C1264.89 1252.49 1079.34 1264.75 885.787 1227.73C692.232 1190.71 527.415 1111.43 417.402 1013.22C307.37 915.005 252.299 798.006 277.781 685.486C303.262 572.967 404.552 485.877 548.087 436.16C691.596 386.452 877.145 374.188 1070.7 411.211C1264.25 448.235 1429.07 527.517 1539.08 625.718C1649.12 723.937 1704.19 840.936 1678.71 953.456Z" stroke="#C8C4FC" stroke-width="2"/>
<path d="M1695.71 956.704C1669.62 1071.94 1565.87 1161.13 1418.85 1212.04C1271.86 1262.93 1081.81 1275.49 883.555 1237.57C685.302 1199.64 516.482 1118.45 403.794 1017.88C291.086 917.287 234.668 797.464 260.765 682.227C286.862 566.99 390.613 477.805 537.629 426.896C684.62 375.997 874.671 363.445 1072.92 401.367C1271.18 439.288 1440 520.485 1552.68 621.056C1665.39 721.645 1721.81 841.468 1695.71 956.704Z" stroke="#C8C4FC" stroke-width="2"/>
<path d="M1712.72 959.954C1686.01 1077.91 1579.8 1169.19 1429.3 1221.29C1278.83 1273.38 1084.27 1286.22 881.322 1247.4C678.372 1208.58 505.548 1125.47 390.185 1022.53C274.802 919.57 217.038 796.923 243.75 678.969C270.462 561.015 376.673 469.734 527.172 417.634C677.644 365.542 872.198 352.703 1075.15 391.523C1278.1 430.343 1450.92 513.455 1566.28 616.395C1681.67 719.354 1739.43 842 1712.72 959.954Z" stroke="#C8C4FC" stroke-width="2"/>
<path d="M1729.73 963.203C1702.4 1083.87 1593.73 1177.25 1439.75 1230.54C1285.79 1283.83 1086.74 1296.95 879.09 1257.23C671.442 1217.52 494.615 1132.49 376.576 1027.18C258.518 921.851 199.407 796.381 226.735 675.71C254.062 555.039 362.734 461.662 516.714 408.37C670.669 355.087 869.724 341.959 1077.37 381.678C1285.02 421.397 1461.85 506.424 1579.88 611.734C1697.94 717.061 1757.05 842.532 1729.73 963.203Z" stroke="#C8C4FC" stroke-width="2"/>
<path d="M1746.74 966.451C1718.79 1089.84 1607.66 1185.31 1450.2 1239.8C1292.76 1294.27 1089.2 1307.69 876.859 1267.07C664.514 1226.45 483.683 1139.51 362.97 1031.83C242.236 924.133 181.778 795.839 209.721 672.451C237.664 549.063 348.797 453.59 506.259 399.106C663.695 344.632 867.253 331.216 1079.6 371.833C1291.94 412.451 1472.77 499.392 1593.49 607.072C1714.22 714.769 1774.68 843.064 1746.74 966.451Z" stroke="#C8C4FC" stroke-width="2"/>
<path d="M1763.74 969.701C1735.18 1095.81 1621.59 1193.37 1460.65 1249.05C1299.73 1304.72 1091.67 1318.42 874.627 1276.9C657.584 1235.39 472.75 1146.53 349.361 1036.48C225.952 926.416 164.147 795.297 192.706 669.193C221.264 543.088 334.858 445.519 495.802 389.844C656.719 334.177 864.779 320.474 1081.82 361.99C1298.86 403.506 1483.7 492.362 1607.09 602.411C1730.5 712.477 1792.3 843.596 1763.74 969.701Z" stroke="#C8C4FC" stroke-width="2"/>
<path d="M1780.75 972.95C1751.57 1101.77 1635.52 1201.44 1471.09 1258.3C1306.69 1315.16 1094.13 1329.15 872.392 1286.74C650.652 1244.32 461.814 1153.55 335.75 1041.13C209.666 928.698 146.515 794.755 175.688 665.933C204.862 537.112 320.917 437.447 485.342 380.58C649.741 323.722 862.304 309.73 1084.04 352.145C1305.78 394.559 1494.62 485.331 1620.69 597.749C1746.77 710.185 1809.92 844.128 1780.75 972.95Z" stroke="#C8C4FC" stroke-width="2"/>
<path d="M1797.75 976.198C1767.97 1107.74 1649.45 1209.5 1481.54 1267.56C1313.66 1325.61 1096.6 1339.89 870.16 1296.57C643.722 1253.26 450.881 1160.57 322.142 1045.79C193.383 930.98 128.884 794.213 158.673 662.674C188.462 531.135 306.978 429.376 474.885 371.316C642.766 313.266 859.83 298.987 1086.27 342.3C1312.71 385.613 1505.55 478.299 1634.29 593.087C1763.04 707.892 1827.54 844.659 1797.75 976.198Z" stroke="#C8C4FC" stroke-width="2"/>
<path d="M1814.76 979.447C1784.36 1113.7 1663.38 1217.56 1491.99 1276.81C1320.63 1336.05 1099.06 1350.62 867.927 1306.41C636.792 1262.2 439.948 1167.59 308.533 1050.44C177.099 933.262 111.253 793.671 141.657 659.415C172.062 525.159 293.039 421.304 464.428 362.053C635.79 302.811 857.357 288.244 1088.49 332.455C1319.63 376.667 1516.47 471.268 1647.89 588.425C1779.32 705.6 1845.17 845.191 1814.76 979.447Z" stroke="#C8C4FC" stroke-width="2"/>
<path d="M1831.77 982.697C1800.75 1119.67 1677.31 1225.62 1502.44 1286.06C1327.6 1346.5 1101.53 1361.35 865.695 1316.24C629.862 1271.13 429.014 1174.62 294.925 1055.09C160.815 935.545 93.6226 793.13 124.642 656.157C155.662 519.184 279.1 413.233 453.97 352.79C628.814 292.356 854.884 277.502 1090.72 322.612C1326.55 367.722 1527.4 464.238 1661.49 583.764C1795.6 703.309 1862.79 845.724 1831.77 982.697Z" stroke="#C8C4FC" stroke-width="2"/>
<path d="M1848.78 985.945C1817.14 1125.64 1691.24 1233.68 1512.89 1295.32C1334.56 1356.94 1103.99 1372.08 863.462 1326.08C622.932 1280.07 418.081 1181.64 281.316 1059.74C144.531 937.827 75.9919 792.588 107.627 652.898C139.261 513.208 265.161 405.161 443.513 343.526C621.839 281.901 852.41 266.758 1092.94 312.767C1333.47 358.776 1538.32 457.206 1675.09 579.102C1811.87 701.016 1880.41 846.255 1848.78 985.945Z" stroke="#C8C4FC" stroke-width="2"/>
<path d="M1865.78 989.194C1833.53 1131.6 1705.17 1241.74 1523.34 1304.57C1341.53 1367.39 1106.46 1382.82 861.23 1335.91C616.002 1289 407.147 1188.66 267.707 1064.39C128.247 940.109 58.3612 792.046 90.6113 649.639C122.861 507.232 251.222 397.089 433.056 334.263C614.863 271.446 849.937 256.015 1095.16 302.922C1340.39 349.829 1549.25 450.175 1688.69 574.44C1828.15 698.724 1898.03 846.787 1865.78 989.194Z" stroke="#C8C4FC" stroke-width="2"/>
<path d="M1882.79 992.443C1849.92 1137.57 1719.1 1249.8 1533.79 1313.82C1348.5 1377.83 1108.92 1393.55 858.995 1345.74C609.07 1297.94 396.212 1195.68 254.097 1069.04C111.962 942.391 40.7285 791.504 73.5939 646.38C106.459 501.256 237.281 389.017 422.596 324.999C607.885 260.99 847.461 245.272 1097.39 293.078C1347.31 340.883 1560.17 443.143 1702.29 569.778C1844.42 696.431 1915.65 847.319 1882.79 992.443Z" stroke="#C8C4FC" stroke-width="2"/>
<path d="M1899.79 995.692C1866.31 1143.53 1733.03 1257.87 1544.23 1323.08C1355.46 1388.28 1111.39 1404.28 856.763 1355.58C602.14 1306.88 385.279 1202.7 240.488 1073.7C95.6777 944.674 23.0978 790.962 56.5785 643.121C90.0592 495.28 223.342 380.946 412.139 315.736C600.91 250.536 844.988 234.529 1099.61 283.234C1354.23 331.938 1571.09 436.113 1715.89 565.117C1860.7 694.14 1933.28 847.851 1899.79 995.692Z" stroke="#C8C4FC" stroke-width="2"/>
<path d="M1916.8 998.941C1882.71 1149.5 1746.96 1265.93 1554.68 1332.33C1362.43 1398.72 1113.85 1415.02 854.53 1365.41C595.21 1315.81 374.345 1209.72 226.88 1078.35C79.3939 946.956 5.46711 790.42 39.5631 639.862C73.6591 489.304 209.403 372.874 401.682 306.473C593.934 240.08 842.515 223.786 1101.83 273.389C1361.16 322.992 1582.02 429.082 1729.49 560.456C1876.97 691.847 1950.9 848.383 1916.8 998.941Z" stroke="#C8C4FC" stroke-width="2"/>
<path d="M1933.81 1002.19C1899.1 1155.46 1760.89 1273.99 1565.13 1341.58C1369.4 1409.17 1116.32 1425.75 852.298 1375.25C588.28 1324.75 363.412 1216.74 213.271 1083C63.1101 949.238 -12.1636 789.878 22.5477 636.603C57.259 483.328 195.464 364.803 391.224 297.209C586.958 229.625 840.041 213.043 1104.06 263.544C1368.08 314.046 1592.94 422.05 1743.09 555.794C1893.25 689.555 1968.52 848.915 1933.81 1002.19Z" stroke="#C8C4FC" stroke-width="2"/>
<path d="M1950.82 1005.44C1915.49 1161.43 1774.82 1282.05 1575.58 1350.84C1376.37 1419.61 1118.78 1436.48 850.065 1385.08C581.35 1333.68 352.478 1223.76 199.662 1087.65C46.8263 951.521 -29.7943 789.337 5.53232 633.345C40.859 477.353 181.525 356.732 380.767 287.946C579.983 219.17 837.568 202.301 1106.28 253.701C1375 305.101 1603.87 415.02 1756.69 551.133C1909.52 687.263 1986.14 849.447 1950.82 1005.44Z" stroke="#C8C4FC" stroke-width="2"/>
<path d="M1967.82 1008.69C1931.88 1167.4 1788.75 1290.11 1586.03 1360.09C1383.33 1430.06 1121.25 1447.22 847.833 1394.92C574.42 1342.62 341.545 1230.79 186.054 1092.3C30.5425 953.803 -47.425 788.795 -11.4831 630.086C24.4589 471.377 167.586 348.66 370.31 278.683C573.007 208.715 835.094 191.557 1108.51 243.856C1381.92 296.154 1614.8 407.988 1770.29 546.471C1925.8 684.971 2003.76 849.979 1967.82 1008.69Z" stroke="#C8C4FC" stroke-width="2"/>
<path d="M1984.83 1011.94C1948.27 1173.36 1802.68 1298.18 1596.48 1369.34C1390.3 1440.5 1123.71 1457.95 845.598 1404.75C567.488 1351.55 330.61 1237.81 172.443 1096.95C14.2567 956.085 -65.0577 788.253 -28.5004 626.827C8.05683 465.4 153.645 340.588 359.85 269.419C566.03 198.26 832.619 180.814 1110.73 234.011C1388.84 287.208 1625.72 400.957 1783.88 541.809C1942.07 682.679 2021.39 850.51 1984.83 1011.94Z" stroke="#C8C4FC" stroke-width="2"/>
<path d="M2001.84 1015.19C1964.66 1179.33 1816.61 1306.24 1606.93 1378.6C1397.27 1450.95 1126.17 1468.68 843.366 1414.59C560.558 1360.49 319.676 1244.83 158.835 1101.61C-2.02712 958.367 -82.6884 787.711 -45.5158 623.567C-8.34327 459.424 139.706 332.516 349.393 260.156C559.054 187.804 830.145 170.071 1112.95 224.166C1395.76 278.262 1636.64 393.926 1797.48 537.147C1958.35 680.386 2039.01 851.042 2001.84 1015.19Z" stroke="#C8C4FC" stroke-width="2"/>
<path d="M2018.84 1018.43C1981.05 1185.3 1830.54 1314.3 1617.38 1387.85C1404.23 1461.39 1128.64 1479.42 841.133 1424.42C553.628 1369.43 308.743 1251.85 145.226 1106.26C-18.3109 960.649 -100.319 787.17 -62.5312 620.309C-24.7433 453.449 125.767 324.445 338.936 250.893C552.078 177.35 827.672 159.329 1115.18 214.323C1402.68 269.317 1647.57 386.895 1811.08 532.486C1974.62 678.095 2056.63 851.575 2018.84 1018.43Z" stroke="#C8C4FC" stroke-width="2"/>
</g>
</svg>
