<svg width="137" height="28" viewBox="0 0 137 28" fill="none" xmlns="http://www.w3.org/2000/svg">
<path fill-rule="evenodd" clip-rule="evenodd" d="M65.7993 15.4826C65.7993 14.1462 66.6742 13.051 68.1089 13.051C69.48 13.051 70.4026 14.1014 70.4026 15.4826C70.4026 16.8635 69.48 17.9143 68.1089 17.9143C66.6742 17.9143 65.7993 16.8191 65.7993 15.4826ZM71.9646 15.4826V11.6732H70.3072V12.597C69.7339 11.865 68.8419 11.4539 67.9117 11.4923C65.7771 11.4923 64.0942 13.1618 64.0942 15.4826C64.0942 17.8032 65.7675 19.4726 67.9117 19.4726C68.847 19.512 69.7431 19.0971 70.3167 18.3587V19.2793H71.9742L71.9646 15.4826ZM127.923 15.4826C127.923 14.1462 128.798 13.051 130.233 13.051C131.604 13.051 132.526 14.1014 132.526 15.4826C132.526 16.8635 131.604 17.9143 130.233 17.9143C128.798 17.9143 127.923 16.8156 127.923 15.4826ZM135.937 18.9171V19.0377H136.048C136.068 19.0438 136.089 19.0438 136.109 19.0377C136.123 19.0279 136.132 19.0111 136.131 18.9936C136.132 18.9758 136.123 18.959 136.109 18.9492C136.089 18.9431 136.068 18.9431 136.048 18.9492L135.937 18.9171ZM136.048 18.8349C136.096 18.8314 136.143 18.845 136.182 18.873C136.213 18.8984 136.231 18.9371 136.229 18.9777C136.231 19.0123 136.217 19.046 136.191 19.0698C136.162 19.0955 136.125 19.1114 136.086 19.1139L136.233 19.2825H136.118L135.981 19.1139H135.937V19.2825H135.841V18.8377L136.048 18.8349ZM136.019 19.438C136.07 19.4387 136.119 19.4291 136.166 19.4095C136.21 19.3904 136.249 19.3637 136.283 19.3301C136.431 19.1825 136.431 18.9441 136.283 18.7965C136.25 18.7631 136.21 18.7362 136.166 18.7171C136.119 18.6981 136.07 18.6882 136.019 18.6889C135.968 18.6882 135.917 18.6977 135.87 18.7171C135.677 18.7993 135.588 19.0209 135.67 19.213C135.689 19.2568 135.716 19.2964 135.749 19.3301C135.784 19.3641 135.825 19.391 135.87 19.4095C135.919 19.4301 135.972 19.4396 136.026 19.438H136.019ZM136.019 18.5809C136.085 18.5806 136.15 18.5936 136.21 18.619C136.269 18.6438 136.321 18.679 136.366 18.7238C136.41 18.7673 136.446 18.819 136.471 18.8758C136.523 18.9955 136.523 19.1311 136.471 19.2507C136.446 19.3076 136.41 19.3593 136.366 19.4031C136.321 19.4472 136.268 19.4828 136.21 19.5079C136.15 19.5336 136.085 19.5466 136.019 19.546C135.821 19.5485 135.641 19.432 135.561 19.2507C135.51 19.1311 135.51 18.9955 135.561 18.8758C135.611 18.7593 135.705 18.6669 135.822 18.619C135.887 18.5923 135.956 18.5793 136.026 18.5809H136.019ZM134.082 15.4826V8.62891H132.425V12.6034C131.851 11.865 130.955 11.4498 130.02 11.4891C127.885 11.4891 126.202 13.1589 126.202 15.4791C126.202 17.8 127.875 19.4698 130.02 19.4698C130.955 19.5091 131.851 19.0939 132.425 18.3555V19.2758H134.082V15.4826ZM92.5188 12.9716C93.5877 12.9716 94.2717 13.6379 94.4466 14.8157H90.4987C90.6736 13.7173 91.3417 12.9716 92.522 12.9716H92.5188ZM92.5506 11.4923C90.3237 11.4923 88.7585 13.1145 88.7585 15.4826C88.7585 17.8981 90.3842 19.4726 92.6619 19.4726C93.7992 19.5126 94.9114 19.133 95.7859 18.4063L94.9747 17.181C94.342 17.686 93.5581 17.9654 92.7478 17.9746C91.6789 17.9746 90.7086 17.4825 90.47 16.114H96.1263C96.1423 15.908 96.1582 15.7013 96.1582 15.4791C96.1582 13.111 94.6757 11.4891 92.541 11.4891L92.5506 11.4923ZM112.548 15.4826C112.548 14.1462 113.423 13.051 114.858 13.051C116.229 13.051 117.151 14.1014 117.151 15.4826C117.151 16.8635 116.229 17.9143 114.858 17.9143C113.423 17.9143 112.548 16.8156 112.548 15.4826ZM118.713 15.4826V11.6732H117.056V12.597C116.482 11.8586 115.586 11.4431 114.651 11.4825C112.516 11.4825 110.833 13.1525 110.833 15.4731C110.833 17.7933 112.507 19.4634 114.651 19.4634C115.586 19.5028 116.482 19.0873 117.056 18.3489V19.2698H118.713V15.4826ZM103.195 15.4826C103.195 17.7873 104.805 19.4726 107.258 19.4726C108.252 19.5222 109.229 19.198 109.997 18.565L109.201 17.2286C108.628 17.6638 107.93 17.9032 107.21 17.9108C105.886 17.9108 104.916 16.9397 104.916 15.4791C104.916 14.0192 105.89 13.0637 107.21 13.0478C107.93 13.0554 108.628 13.2948 109.201 13.73L109.997 12.3938C109.229 11.7605 108.252 11.4367 107.258 11.4859C104.805 11.4859 103.195 13.1716 103.195 15.476V15.4826ZM124.538 11.4923C123.715 11.4682 122.945 11.8958 122.531 12.6062V11.6824H120.889V19.2825H122.547V15.0223C122.547 13.7525 123.088 13.0668 124.172 13.0668C124.527 13.0618 124.88 13.1262 125.209 13.257L125.718 11.6986C125.34 11.5634 124.941 11.4936 124.538 11.4923ZM80.1532 12.2859C79.2147 11.7294 78.136 11.4542 77.0451 11.4923C75.1173 11.4923 73.8638 12.4161 73.8638 13.9239C73.8638 15.1652 74.7864 15.9267 76.4916 16.1648L77.271 16.2762C78.1776 16.4029 78.6103 16.641 78.6103 17.0699C78.6103 17.6571 78.0058 17.9936 76.8733 17.9936C75.9597 18.0225 75.0629 17.7429 74.3283 17.2L73.5743 18.4857C74.5395 19.159 75.6959 19.505 76.8733 19.4726C79.0716 19.4726 80.3473 18.4381 80.3473 16.9937C80.3473 15.6572 79.342 14.9588 77.6877 14.7207L76.9083 14.6096C76.1925 14.5141 75.6167 14.3716 75.6167 13.8633C75.6167 13.3078 76.1575 12.9748 77.0674 12.9748C77.9012 12.9872 78.7178 13.211 79.4406 13.6252L80.1532 12.2859ZM101.522 11.4923C100.698 11.4682 99.9283 11.8958 99.5144 12.6062V11.6824H97.8729V19.2825H99.5303V15.0223C99.5303 13.7525 100.071 13.0668 101.156 13.0668C101.511 13.0618 101.863 13.1262 102.193 13.257L102.702 11.6986C102.323 11.5634 101.924 11.4936 101.522 11.4923ZM87.3874 11.6824H84.6801V9.37809H83.0068V11.6824H81.4607V13.1938H83.0068V16.6569C83.0068 18.4222 83.6908 19.4727 85.6504 19.4727C86.3824 19.4752 87.1001 19.2717 87.7214 18.8857L87.2442 17.4698C86.7995 17.734 86.295 17.8816 85.7777 17.8981C84.9506 17.8981 84.677 17.3905 84.677 16.6283V13.1938H87.3842L87.3874 11.6824ZM62.6276 19.2825V14.5208C62.6276 12.724 61.4792 11.5145 59.6308 11.4983C58.5588 11.4291 57.5337 11.9475 56.9554 12.851C56.4283 11.9739 55.4627 11.4552 54.439 11.4983C53.5486 11.4555 52.7017 11.8853 52.2121 12.6288V11.6764H50.5547V19.2825H52.228V15.0696C52.228 13.7494 52.9597 13.051 54.0923 13.051C55.2248 13.051 55.7497 13.7652 55.7497 15.0537V19.2825H57.4135V15.0696C57.4135 13.7494 58.177 13.051 59.2777 13.051C60.3784 13.051 60.9511 13.7652 60.9511 15.0537V19.2825H62.6276Z" fill="#C48F8F"/>
<path fill-rule="evenodd" clip-rule="evenodd" d="M15.5801 24.2884H27.2385V3.88623H15.5801V24.2884Z" fill="#FF5F00"/>
<path fill-rule="evenodd" clip-rule="evenodd" d="M16.3633 14.0858C16.3602 10.0619 18.2207 6.26005 21.4088 3.77558C15.6726 -0.700094 7.36773 0.288352 2.85938 5.9836C-1.64873 11.6786 -0.653125 19.9237 5.0834 24.3996C9.87405 28.1375 16.6184 28.1375 21.4088 24.3996C18.2197 21.9144 16.359 18.1109 16.3633 14.0858Z" fill="#EB001B"/>
<path fill-rule="evenodd" clip-rule="evenodd" d="M43.5378 14.0895C43.5375 21.3322 37.6233 27.203 30.3278 27.203C27.3669 27.203 24.4917 26.2152 22.1641 24.3983C27.9 19.9231 28.8955 11.679 24.3877 5.98462C23.7376 5.16323 22.9912 4.42222 22.1641 3.77685C27.8993 -0.699515 36.2038 0.287388 40.7126 5.98104C42.5434 8.2928 43.5385 11.1486 43.5378 14.0895Z" fill="#F79E1B"/>
</svg>
