<svg width="162" height="28" viewBox="0 0 162 28" fill="none" xmlns="http://www.w3.org/2000/svg">
<path fill-rule="evenodd" clip-rule="evenodd" d="M29.8742 12.3531C29.8742 11.804 29.6059 11.5295 29.0692 11.5295H26.3859C25.5809 11.5295 25.3126 12.0785 25.3126 12.6276V17.5687C25.3126 18.3923 25.8492 18.6668 26.3859 18.6668H29.0692C29.3376 18.6668 29.3376 18.6668 29.6059 18.3923C29.8742 18.3923 29.8742 18.1178 29.8742 17.8433V12.3531ZM21.8242 11.804C21.8242 10.4315 22.0926 9.60796 22.6292 8.78443C22.8976 8.50992 23.4342 8.50992 23.7026 8.23541C24.2392 7.9609 24.5076 7.9609 25.0442 7.9609H30.1426C32.2892 7.9609 33.3626 9.05894 33.3626 11.5295V19.2158C33.3626 20.0393 33.0942 20.8629 32.2892 21.4119C31.7526 21.9609 30.9476 22.5099 30.1426 22.5099H25.3126V28.0001H21.8242V11.804ZM39.8026 18.1178C39.8026 18.1178 39.8026 18.3923 40.0709 18.3923C40.0709 18.6668 40.3392 18.6668 40.6076 18.6668H43.2909C43.8276 18.6668 44.0959 18.3923 44.3642 18.1178V17.0197C44.3642 16.4707 43.8276 16.1962 43.2909 16.1962H39.8026V18.1178ZM44.3642 12.3531C44.3642 11.804 43.8276 11.5295 43.2909 11.5295H36.3142V7.9609H44.0959C46.5109 7.9609 47.5842 9.05894 47.8526 11.255V18.9413C47.5842 20.0393 47.3159 20.8629 46.7792 21.4119C46.2425 22.2354 45.4375 22.5099 44.6326 22.5099H39.8026C37.3876 22.5099 36.3142 21.4119 36.3142 19.2158V16.1962C36.3142 14.0001 37.3876 12.9021 39.5342 12.6276H44.3642V12.3531ZM57.5126 24.157C57.7809 24.157 58.0492 24.157 58.3176 23.8825C58.5859 23.608 58.5859 23.608 58.5859 23.3334V22.5099H54.0242C53.4876 22.5099 52.9509 22.2354 52.6826 22.2354C52.4142 21.9609 51.8776 21.6864 51.6092 21.4119C51.3409 21.1374 51.0725 20.5884 50.8042 20.3138C50.5359 19.7648 50.5359 19.2158 50.5359 18.6668V7.9609H54.0242V17.5687C54.0242 18.3923 54.2925 18.6668 55.0975 18.6668H57.5126C57.7809 18.6668 58.0492 18.6668 58.3176 18.3923C58.3176 18.3923 58.5859 18.1178 58.5859 17.8433V7.9609H62.0742V23.8825C62.0742 24.9805 61.8059 26.0785 61.2692 26.9021C60.4642 27.4511 59.6592 28.0001 58.8542 28.0001H50.5359V24.157H57.5126ZM64.7575 18.6668H70.9292C71.4659 18.6668 72.0025 18.3923 72.0025 18.1178V17.8433C72.0025 17.5687 72.0025 17.5687 71.7342 17.2942C71.7342 17.0197 71.4659 17.0197 71.1975 17.0197H68.2459C67.1726 17.0197 66.6359 16.7452 65.8309 15.9217C65.2942 15.3727 64.7575 14.8236 64.7575 14.0001V11.255C64.7575 9.05894 66.0992 7.9609 68.2459 7.9609H75.4909V11.5295H69.3192C68.5142 11.5295 68.2459 11.804 68.2459 12.3531V12.6276C68.2459 13.1766 68.5142 13.1766 69.3192 13.1766H72.5392C73.3442 13.4511 73.8809 13.7256 74.6859 14.2746C75.2225 14.8236 75.4909 15.6472 75.4909 16.4707V19.2158C75.4909 20.0393 75.2225 20.5884 74.4175 21.4119C74.1492 21.9609 73.8809 21.9609 73.6125 22.2354C73.0759 22.5099 72.8075 22.5099 72.0025 22.5099H64.7575V18.6668ZM81.3942 18.1178L81.6625 18.3923C81.9309 18.6668 82.1992 18.6668 82.4675 18.6668H85.1509C85.6875 18.6668 85.9559 18.3923 85.9559 18.1178V17.0197C85.9559 16.4707 85.6875 16.1962 85.1509 16.1962H81.6625C81.6625 16.4707 81.3942 16.7452 81.3942 17.0197V18.1178ZM85.9559 12.3531C85.9559 11.804 85.6875 11.5295 85.1509 11.5295H77.9059V7.9609H85.9559C88.3709 7.9609 89.4442 9.05894 89.4442 11.255V18.9413C89.4442 20.0393 89.1759 20.8629 88.6392 21.4119C88.1025 22.2354 87.2975 22.5099 86.2242 22.5099H81.3942C79.2475 22.5099 77.9059 21.4119 77.9059 19.2158V16.1962C77.9059 14.0001 79.2475 12.9021 81.3942 12.6276H85.9559V12.3531ZM92.3959 5.76482C92.3959 4.94129 92.6642 4.11776 93.4692 3.29423C94.0059 2.74521 95.0792 2.4707 96.1525 2.4707H98.2992V6.03933H96.9576C96.1525 6.03933 95.8842 6.31384 95.8842 7.13737V7.9609H98.2992V11.5295H95.8842V22.5099H92.3959V5.76482ZM108.228 12.3531V12.0785C108.228 12.0785 108.228 11.804 107.959 11.804C107.959 11.5295 107.691 11.5295 107.423 11.5295H105.008C104.739 11.5295 104.471 11.5295 104.203 11.804C103.934 12.0785 103.934 12.3531 103.934 12.6276V14.0001L108.228 12.3531ZM103.934 17.5687V17.8433C103.934 18.1178 103.934 18.3923 104.203 18.3923C104.203 18.6668 104.471 18.6668 104.739 18.6668H111.716V22.5099H104.203C103.398 22.5099 102.861 22.2354 102.593 22.2354C102.056 21.9609 101.788 21.9609 101.519 21.4119C100.983 21.1374 100.714 20.8629 100.714 20.3138C100.446 20.0393 100.446 19.4903 100.446 18.6668V11.255C100.446 9.05894 101.519 7.9609 103.934 7.9609H108.496C110.643 7.9609 111.716 9.05894 111.984 11.5295V14.2746L103.934 17.5687ZM119.229 22.5099C118.693 22.5099 118.156 22.5099 117.888 22.2354C117.351 22.2354 116.814 21.9609 116.546 21.6864C116.009 21.1374 115.741 20.8629 115.473 20.3138C115.204 19.7648 115.204 19.2158 115.204 18.3923V10.157C115.473 9.60796 115.741 9.33345 116.009 8.78443C116.546 8.50992 116.814 8.23541 117.351 7.9609C117.888 7.9609 118.424 7.68639 118.961 7.68639H124.328V8.78443H118.961C118.156 8.78443 117.351 8.78443 116.814 9.33345C116.278 9.60796 116.009 10.4315 116.009 11.5295V18.3923C116.009 18.6668 116.009 19.2158 116.278 19.7648C116.278 20.0393 116.546 20.5884 116.814 20.8629C117.351 21.1374 117.619 21.4119 118.156 21.4119C118.424 21.4119 118.961 21.6864 119.229 21.6864H124.328V22.5099H119.229ZM138.013 13.4511H131.036C130.231 13.4511 129.426 13.7256 129.158 14.2746C128.621 14.8236 128.353 15.6472 128.353 16.4707V19.7648C128.621 20.3138 128.621 20.5884 129.158 20.8629C129.694 21.4119 130.231 21.6864 131.036 21.6864H135.329C137.208 21.6864 138.013 20.5884 138.013 18.6668V13.4511ZM138.818 18.3923V20.0393C138.549 20.3138 138.549 20.8629 138.013 21.4119C137.208 21.9609 136.403 22.5099 135.329 22.5099H131.036C129.963 22.5099 129.158 22.2354 128.621 21.4119C127.816 20.8629 127.548 19.7648 127.548 18.6668V16.4707C127.548 14.0001 128.621 12.6276 131.036 12.6276H138.013V11.804C138.013 10.9805 137.744 10.157 137.476 9.60796C137.208 9.33345 136.671 9.05894 136.403 8.78443H127.548V7.68639H134.793C135.329 7.68639 135.866 7.9609 136.403 7.9609C136.671 7.9609 136.939 8.23541 137.208 8.23541C137.476 8.50992 137.744 8.50992 138.013 9.05894C138.549 9.88247 138.818 10.706 138.818 11.804V18.3923ZM146.868 8.78443C144.721 8.78443 143.916 9.88247 143.916 11.804V22.5099H143.111V11.804C143.111 9.05894 144.184 7.68639 146.868 7.68639H147.941V8.78443H146.868ZM160.821 8.78443H153.039C152.503 8.78443 152.234 9.05894 151.966 9.60796C151.429 9.88247 151.161 10.4315 151.161 10.706C151.161 10.9805 150.893 11.5295 150.893 12.0785V18.6668C150.893 19.7648 151.429 20.5884 151.966 20.8629C152.234 21.1374 152.771 21.4119 153.039 21.4119C153.308 21.4119 153.844 21.6864 154.381 21.6864H157.333C158.406 21.6864 159.211 21.4119 159.748 20.8629C160.553 20.3138 160.821 19.4903 160.821 18.3923V8.78443ZM161.894 18.3923C161.626 21.1374 160.284 22.5099 157.333 22.5099H154.381C153.576 22.5099 153.039 22.5099 152.503 22.2354C151.966 22.2354 151.429 21.6864 151.161 21.4119C150.624 20.8629 150.356 20.3138 150.356 19.7648C150.088 19.4903 150.088 18.9413 150.088 18.1178V12.0785C150.088 9.05894 151.698 7.68639 154.381 7.68639H160.821V3.01972H161.894V18.3923Z" fill="#288FCC"/>
<path fill-rule="evenodd" clip-rule="evenodd" d="M2.50453 7.41177C2.77286 7.13726 3.0412 7.13726 3.30953 7.13726C3.8462 4.66667 5.99286 2.7451 8.40787 2.7451C11.0912 2.7451 13.2379 4.66667 13.5062 7.13726C14.3112 7.13726 15.1162 7.41177 15.6529 7.96079V6.58824C15.1162 3.01961 12.1645 0 8.40787 0C4.6512 0 1.4312 3.01961 1.16286 7.13726V7.96079C1.69953 7.68628 1.96786 7.41177 2.50453 7.41177ZM12.7012 7.96079H4.11453C3.57786 7.96079 3.30953 7.96079 2.77286 8.2353C2.2362 8.50981 1.96786 8.50981 1.69953 8.78432C1.16286 9.60785 0.894531 10.4314 0.894531 11.8039V18.6667C0.894531 19.7647 1.16286 20.8628 1.69953 21.4118C1.96786 21.6863 2.2362 21.9608 2.77286 22.2353C3.30953 22.2353 3.57786 22.5098 4.11453 22.5098H12.7012C14.8479 22.5098 15.9212 21.1373 15.9212 18.6667V11.5294C15.9212 9.05883 14.8479 7.96079 12.7012 7.96079Z" fill="#C32728"/>
</svg>
