<svg width="71" height="25" viewBox="0 0 71 25" fill="none" xmlns="http://www.w3.org/2000/svg">
<path fill-rule="evenodd" clip-rule="evenodd" d="M0.288086 8.88803C0.288086 15.8708 8.65303 15.5217 9.94901 15.9872C11.5984 16.5691 11.4806 19.4785 7.7105 19.4785C5.70763 19.4785 4.0582 19.2458 2.17314 18.6639C1.70188 18.5475 1.23061 18.3148 0.75935 18.1984V23.4354C2.17314 24.1337 7.0036 24.2501 9.00648 24.2501C14.1904 24.2501 18.903 20.7587 17.6071 15.5217C16.3111 9.81907 8.77085 10.401 7.7105 9.81907C6.41452 9.23717 6.41452 7.60786 7.82832 7.02596C9.71337 6.21131 13.4835 7.02596 15.3685 7.60786C15.9576 7.84062 16.5467 8.07338 17.018 8.18976V3.18545C16.1933 2.95269 15.722 2.71993 14.0726 2.37079C11.7162 1.90527 10.7737 1.90527 8.4174 1.90527C4.17602 1.90527 0.288086 4.69838 0.288086 8.88803Z" fill="#B692AA"/>
<path fill-rule="evenodd" clip-rule="evenodd" d="M19.2568 3.06907V24.0173H25.3833V17.7329C25.5011 17.9656 25.3833 17.8492 25.5011 18.082L26.0902 19.1294C26.3258 19.5949 26.5614 20.0604 26.7971 20.6423C27.0327 21.2242 27.7396 23.3191 27.7396 24.0173H35.162C35.0442 23.7846 34.9264 23.3191 34.8086 22.9699L33.3948 19.8277C30.4494 13.8923 31.0384 17.0346 33.6304 12.0303C34.1017 11.332 35.3976 8.65527 35.5155 7.72424H28.5643C28.3287 8.88803 26.0902 12.7285 25.3833 13.3104V1.90527C24.2051 1.90527 20.1994 3.06907 19.2568 3.06907Z" fill="#B692AA"/>
<path fill-rule="evenodd" clip-rule="evenodd" d="M55.8975 2.95269V24.0173H61.7883V1.90527C60.8457 1.90527 57.1934 2.83631 55.8975 2.95269Z" fill="#B692AA"/>
<path fill-rule="evenodd" clip-rule="evenodd" d="M64.3799 2.95269V24.0173H70.2707V1.90527C69.5638 1.90527 65.0868 2.95269 64.3799 2.95269Z" fill="#B692AA"/>
<path fill-rule="evenodd" clip-rule="evenodd" d="M36.2217 14.707V24.0174H42.1125V17.0346C42.1125 13.776 42.5837 12.4958 45.8826 12.4958V7.60788C44.8223 7.60788 45.7648 7.4915 43.9975 7.60788C42.2303 7.84064 40.9343 7.84064 39.0493 9.00443C37.3998 10.0518 36.2217 12.0303 36.2217 14.707Z" fill="#B692AA"/>
<path fill-rule="evenodd" clip-rule="evenodd" d="M47.6504 24.0175H53.5412V7.84082H47.6504V24.0175Z" fill="#B692AA"/>
<path fill-rule="evenodd" clip-rule="evenodd" d="M47.7676 3.30192C47.7676 4.23296 47.8854 4.81486 48.5923 5.51313C51.1842 8.07348 55.3078 4.23296 52.598 1.43986C50.8308 -0.422213 47.7676 1.2071 47.7676 3.30192Z" fill="#B692AA"/>
</svg>
