<svg width="109" height="19" viewBox="0 0 109 19" fill="none" xmlns="http://www.w3.org/2000/svg">
<path d="M95.5525 8.07302C95.0143 8.43688 94.1175 8.61881 93.0412 8.61881H91.965L92.6825 3.88861H93.5793C94.4762 3.88861 95.1937 4.07055 95.7318 4.25248C96.0906 4.61634 96.4493 4.9802 96.4493 6.07178C96.4493 7.16337 96.0906 7.70916 95.5525 8.07302ZM27.7487 14.0767H18.9593L19.4975 10.802H25.0581L25.5962 7.3453H20.215L20.7531 4.25248H29.5425L27.7487 14.0767ZM100.396 1.52351C98.9606 0.613861 96.9875 0.25 94.4762 0.25H87.8393L85.3281 14.0767H76.5387L77.0768 10.802H82.2787L82.9962 7.3453H77.615L78.3325 4.25248H83.7137L84.4312 0.25H73.31L70.9781 13.349H66.8525L69.3637 0.25H63.4443L61.1125 13.349H57.1662L59.4981 0.25H53.7581L51.2468 14.0767H42.4575L42.9956 10.802H48.1975L48.915 7.3453H43.5337L44.0718 4.25248H49.6325L50.35 0.25H15.7306L13.7575 11.1658L9.99059 0.25H3.89184L0.663086 18.0792H6.40309L8.37621 6.79951L12.1431 18.0792H32.7712L35.2825 4.25248H38.5112L36 18.0792H90.1712L91.7856 9.34654L94.2968 18.0792H100.037L97.3462 10.9839L98.0637 10.802C99.3193 10.4381 100.396 9.89233 101.113 8.98267C101.831 8.07302 102.189 6.79951 102.189 5.34406C102.189 3.70668 101.651 2.43317 100.396 1.52351ZM105.059 15.896H106.315C106.315 15.7141 106.315 15.7141 106.494 15.7141V15.3503C106.494 15.1683 106.494 15.1683 106.315 14.9864H105.059V15.896ZM104.701 17.5334V14.8045L105.777 14.6225H106.494C106.494 14.8045 106.674 14.8045 106.674 14.9864C106.853 14.9864 106.853 15.1683 106.853 15.3503C106.853 15.5322 106.853 15.7141 106.674 15.896C106.674 16.078 106.315 16.078 106.136 16.2599H106.315L106.674 16.6238L107.212 17.3515H106.674L106.315 16.8057C106.315 16.6238 106.136 16.6238 106.136 16.4418C105.956 16.4418 105.956 16.2599 105.956 16.2599H105.059V17.5334H104.701Z" fill="#8CC540"/>
<path d="M103.624 16.0781C103.624 15.5323 103.803 14.9865 104.162 14.6227C104.521 14.2588 105.059 13.8949 105.597 13.8949C106.853 13.8949 107.75 14.8046 107.929 15.8962V16.0781C107.929 17.1697 107.032 18.0793 105.777 18.2613C104.7 18.2613 103.624 17.3516 103.624 16.0781ZM105.597 13.5311C104.88 13.5311 104.342 13.713 103.803 14.2588C103.265 14.8046 103.086 15.5323 103.086 16.26C103.265 17.7155 104.342 18.8071 105.777 18.6251C107.212 18.6251 108.288 17.3516 108.288 15.8962C108.288 14.4407 107.032 13.3491 105.597 13.5311Z" fill="#8CC540"/>
</svg>
