<svg width="83" height="28" viewBox="0 0 83 28" fill="none" xmlns="http://www.w3.org/2000/svg">
<path fill-rule="evenodd" clip-rule="evenodd" d="M77.7078 27.125H5.01285C2.615 27.125 0.672852 25.2455 0.672852 22.925V5.075C0.672852 2.7545 2.615 0.875 5.01285 0.875H77.7078C80.1057 0.875 82.0479 2.7545 82.0479 5.075V22.925C82.0479 25.2455 80.1057 27.125 77.7078 27.125ZM30.5214 19.25V10.6295H27.3098V8.75H35.8488V10.64H32.6372V19.25H30.5214ZM35.61 11.6165V19.2395H37.6281V15.7745C37.6281 14.084 38.507 13.5275 39.5052 13.5275H40.1779V11.6165H39.4075C38.724 11.6165 38.0838 11.8055 37.5739 12.824V11.6165H35.61ZM41.2954 16.4885V11.627H43.3135V16.0265C43.3135 17.003 43.8343 17.654 44.7566 17.654C45.6463 17.654 46.3081 17.003 46.3081 16.037V11.6165H48.3262V19.25H46.3732V18.284C45.8633 19.0505 45.0821 19.418 44.0947 19.418C42.4347 19.4285 41.2954 18.347 41.2954 16.4885ZM51.1798 16.709L49.4004 17.0975C49.5089 18.032 50.3986 19.397 52.7856 19.4075C54.9773 19.4075 56.008 18.2 56.008 16.9715C56.008 15.848 55.357 15.0815 54.0008 14.7665L52.2648 14.3675C51.8308 14.2625 51.5487 14.063 51.5487 13.706C51.5487 13.2965 52.0261 13.013 52.6662 13.013C53.6427 13.013 54.0116 13.517 54.0984 13.9895L55.8778 13.6115C55.7585 12.719 54.8688 11.48 52.7096 11.48C50.6698 11.48 49.5523 12.509 49.5523 13.8005C49.5523 15.071 50.2575 15.7535 51.7548 16.0895L53.0351 16.373C53.7838 16.5515 53.9899 16.772 53.9899 17.108C53.9899 17.5175 53.5451 17.8325 52.7747 17.8325C51.8308 17.8325 51.2666 17.381 51.1798 16.709ZM60.1636 19.25C58.8073 19.25 57.9502 18.5045 57.9502 17.108V13.3175H56.6373V11.6165H57.9502V9.884L59.9683 9.3275V11.627H61.5741V13.328H59.9683V16.7825C59.9683 17.339 60.2504 17.5595 60.8363 17.5595H61.7151V19.25H60.1636ZM63.0388 8.75V19.25H65.0569V8.75H63.0388ZM71.7405 11.627H73.9105L70.5796 21.9905H68.4096L69.3318 19.2605H68.236L65.9901 11.627H68.16L69.8743 17.633L71.7405 11.627ZM13.8775 13.349H8.81055V8.75H23.2736V13.349H18.7708V19.25H13.8775V17.255L17.9137 13.349L13.8775 9.443V13.349Z" fill="#0EE06E"/>
</svg>
