<svg width="66" height="21" viewBox="0 0 66 21" fill="none" xmlns="http://www.w3.org/2000/svg">
<path fill-rule="evenodd" clip-rule="evenodd" d="M23.1619 20.2583L26.4545 0.729774H31.7908L28.4982 20.2583H23.1619ZM47.6861 1.18393C46.6643 0.843312 45.0747 0.38916 42.9175 0.38916C37.6948 0.38916 34.0615 3.00054 33.948 6.86083C33.948 9.58574 36.6729 11.1753 38.6031 12.0836C40.7603 13.1054 41.4415 13.6731 41.4415 14.5814C41.4415 15.8303 39.7384 16.398 38.2624 16.398C36.1052 16.398 34.9698 16.1709 33.2668 15.3762L32.472 15.1491L31.7908 19.4636C33.0397 20.0312 35.3105 20.4854 37.6948 20.4854C43.2581 20.4854 46.8913 17.874 47.0049 13.9002C47.0049 11.6294 45.5289 9.92636 42.4633 8.5639C40.6467 7.6556 39.5114 7.0879 39.5114 6.1796C39.5114 5.38483 40.5332 4.47653 42.5769 4.47653C44.28 4.47653 45.5289 4.81714 46.5507 5.15776L47.0049 5.38483L47.6861 1.18393ZM61.4242 0.729774H57.2233C55.9744 0.729774 55.0661 1.07039 54.4984 2.31931L46.5507 20.2583H52.1141C52.1141 20.2583 53.0224 17.874 53.2495 17.3063H60.0618C60.2888 17.9876 60.743 20.2583 60.743 20.2583H65.6251L61.4242 0.729774ZM54.839 13.3325C55.2932 12.1971 56.8827 7.88267 56.8827 7.88267C56.8827 7.88267 57.3368 6.74729 57.6775 5.95252L58.0181 7.6556C58.0181 7.6556 59.0399 12.3107 59.267 13.3325H54.839ZM18.6204 0.729774L13.5111 14.0137L12.9435 11.2888C11.9216 8.22329 8.96962 4.81714 5.56348 3.11407L10.3321 20.2583H15.8954L24.2973 0.729774H18.6204Z" fill="#51A5EB"/>
<path fill-rule="evenodd" clip-rule="evenodd" d="M8.62889 0.72998H0.113538L0 1.18413C6.69875 2.77367 11.1267 6.63396 12.9433 11.289L11.0132 2.43305C10.7861 1.18413 9.76427 0.72998 8.62889 0.72998Z" fill="#F7A707"/>
</svg>
