<svg width="78" height="35" viewBox="0 0 78 35" fill="none" xmlns="http://www.w3.org/2000/svg">
<path d="M66.8684 13.6387C63.0084 13.8741 64.7417 18.8083 69.008 18.5478C73.1819 18.2931 70.9802 13.3879 66.8684 13.6387Z" fill="#FF9C2C"/>
<path d="M65.2411 10.589C62.7822 10.589 60.3782 11.3048 58.3335 12.646C56.2888 13.9871 54.6951 15.8934 53.754 18.1236C52.813 20.3539 52.5668 22.8081 53.0465 25.1757C53.5263 27.5433 54.7105 29.7181 56.4493 31.4251C58.1882 33.132 60.4037 34.2945 62.8159 34.7655C65.2273 35.2364 67.7275 34.9947 69.9991 34.0709C72.2716 33.1471 74.2136 31.5827 75.5793 29.5755C76.9459 27.5684 77.6749 25.2085 77.6749 22.7945C77.6749 19.5574 76.3653 16.4529 74.0333 14.1639C71.7013 11.8749 68.5385 10.589 65.2411 10.589ZM65.2411 33.7208C63.0402 33.7212 60.8888 33.0809 59.0585 31.8808C57.2284 30.6808 55.8018 28.9749 54.9593 26.9789C54.1167 24.983 53.8961 22.7866 54.3252 20.6675C54.7544 18.5484 55.8141 16.6019 57.3702 15.074C58.9264 13.5462 60.9091 12.5056 63.0678 12.084C65.2264 11.6623 67.4635 11.8786 69.497 12.7052C71.5305 13.5319 73.2689 14.9321 74.4914 16.7285C75.7139 18.5248 76.367 20.6368 76.367 22.7974C76.367 25.6941 75.1946 28.4723 73.1084 30.5208C71.0223 32.5693 68.1925 33.7203 65.2411 33.7208ZM64.8666 2.0682C61.9146 4.25847 62.4276 7.61738 62.4276 7.61738C62.4276 7.61738 60.5723 2.88992 58.1629 0C57.8378 3.72028 59.0254 8.64955 59.0254 8.64955C59.0254 8.64955 57.5167 5.59338 53.8199 5.42232C56.8862 7.15222 58.0758 10.2689 58.348 11.1051C60.1753 9.99785 62.2646 9.37711 64.4111 9.30403C64.1695 8.52558 63.3094 5.24548 64.8666 2.0682Z" fill="#FF9C2C"/>
<path d="M1.08283 23.9882V26.5427H0V19.9614H2.2792C3.05196 19.9614 3.63285 20.1418 4.02186 20.5025C4.41088 20.8632 4.60663 21.3572 4.6093 21.9844C4.6093 22.6065 4.40984 23.0961 4.01108 23.4529C3.61232 23.8098 3.03635 23.9882 2.28308 23.9882H1.08283ZM3.50395 21.9844C3.50395 21.6115 3.39792 21.3271 3.18578 21.131C2.97363 20.935 2.63362 20.8372 2.16566 20.8378H1.08283V23.1214H2.16566C3.05723 23.1214 3.50326 22.7423 3.50395 21.9844ZM9.0785 26.5427L7.40736 23.9142H6.63779V26.5427H5.55505V19.9614H7.92035C8.68595 19.9614 9.26684 20.1446 9.66301 20.5111C10.0592 20.8776 10.2569 21.3626 10.2563 21.9661C10.2563 22.4787 10.1091 22.9013 9.81477 23.2338C9.5204 23.5664 9.09619 23.7775 8.54205 23.8671L10.3043 26.5427H9.0785ZM6.63779 23.1589H7.83227C8.70683 23.1589 9.14381 22.7799 9.14312 22.0219C9.14312 21.6618 9.03709 21.3806 8.82494 21.1781C8.61253 20.9763 8.28262 20.8754 7.83227 20.8754H6.63779V23.1589ZM15.2327 25.1165H12.4023L11.8893 26.5427H10.7312L13.2003 20.0642H14.4446L16.904 26.5427H15.7448L15.2327 25.1165ZM14.9283 24.2968L13.817 21.2213L12.7058 24.2968H14.9283ZM22.3738 20.4832C22.9052 20.8685 23.2791 21.4275 23.4282 22.0594H22.2886C22.1466 21.7093 21.8954 21.4123 21.571 21.2108C21.2173 20.9935 20.8063 20.8831 20.3893 20.8937C19.9942 20.8873 19.605 20.987 19.2634 21.1819C18.9292 21.3763 18.659 21.6609 18.485 22.0018C18.2915 22.3915 18.1971 22.8215 18.21 23.255C18.1973 23.7033 18.295 24.1481 18.4949 24.5514C18.6721 24.8989 18.9514 25.1861 19.2967 25.376C19.665 25.5725 20.0789 25.6718 20.4979 25.6643C21.024 25.6734 21.5347 25.4897 21.9302 25.1492C22.3284 24.8109 22.5689 24.3464 22.6518 23.7556H20.1895V22.9724H23.5603V23.9882C23.4892 24.4617 23.3091 24.9129 23.0336 25.3078C22.7541 25.7063 22.3793 26.0313 21.942 26.2544C21.4621 26.4963 20.9287 26.6178 20.3893 26.6081C19.7841 26.6203 19.1869 26.4722 18.6603 26.1794C18.1664 25.9001 17.7645 25.4874 17.5021 24.9907C17.2334 24.449 17.0938 23.8545 17.0938 23.2521C17.0938 22.6497 17.2334 22.0551 17.5021 21.5135C17.7633 21.0188 18.1636 20.6078 18.6554 20.3295C19.1813 20.0397 19.7766 19.8934 20.3794 19.9056C21.1777 19.9056 21.8425 20.0982 22.3738 20.4832ZM31.2056 20.0642V26.5427H30.1129V21.6865L28.2049 26.5427H27.2552L25.3363 21.6865V26.5427H24.2545V20.0642H25.5644L27.7486 25.2376L29.8947 20.0642H31.2056ZM36.5041 25.1165H33.6786L33.1656 26.5427H32.0035L34.4726 20.0642H35.716L38.1762 26.5427H37.0171L36.5041 25.1165ZM36.2006 24.2968L35.0893 21.2213L33.9782 24.2968H36.2006ZM42.81 19.9614V20.8187H40.9391V26.5427H39.8465V20.8187H37.9864V19.9614H42.81ZM44.4714 19.9614V26.5427H43.3896V19.9614H44.4714ZM50.5972 20.5111C51.1465 20.9289 51.5349 21.5175 51.6986 22.1804H50.5492C50.4025 21.7964 50.1389 21.4659 49.7944 21.2338C49.4185 20.992 48.9758 20.8698 48.5265 20.884C48.1498 20.8781 47.7791 20.9781 47.4584 21.1723C47.1378 21.3738 46.881 21.6595 46.7173 21.9969C46.5392 22.3903 46.4471 22.8159 46.4471 23.2463C46.4471 23.6767 46.5392 24.1024 46.7173 24.4957C46.8807 24.8336 47.1375 25.1196 47.4584 25.3213C47.7791 25.5155 48.1498 25.6155 48.5265 25.6096C48.9757 25.624 49.4183 25.5022 49.7944 25.2607C50.1371 25.0308 50.4003 24.704 50.5492 24.3237H51.6986C51.5359 24.9854 51.1472 25.5725 50.5972 25.9872C50.0529 26.3948 49.3692 26.5985 48.5461 26.5985C47.9569 26.6094 47.3758 26.4626 46.8651 26.1737C46.3803 25.894 45.988 25.4829 45.7354 24.9896C45.4723 24.4464 45.3358 23.8525 45.3358 23.2511C45.3358 22.6497 45.4723 22.0558 45.7354 21.5125C45.9889 21.0188 46.3809 20.6063 46.8651 20.3237C47.3748 20.0323 47.9563 19.884 48.5461 19.8951C49.3685 19.8957 50.0522 20.1011 50.5972 20.5111ZM56.8062 23.9882V26.5427H55.7244V19.9614H58.0035C58.775 19.9614 59.3559 20.1418 59.7462 20.5025C60.1365 20.8632 60.3323 21.3572 60.3336 21.9844C60.3336 22.6065 60.1343 23.0961 59.7355 23.4529C59.3366 23.8098 58.7607 23.9882 58.0075 23.9882H56.8062ZM59.2312 21.9844C59.2312 21.6115 59.1252 21.3271 58.913 21.131C58.701 20.935 58.3605 20.8372 57.892 20.8378H56.8062V23.1214H57.889C58.7838 23.1214 59.2312 22.7423 59.2312 21.9844ZM62.1907 25.7134H64.508V26.5427H61.108V19.9614H62.1907V25.7134ZM69.4654 25.1165H66.6356L66.1222 26.5427H64.9636L67.4336 20.0642H68.6768L71.1374 26.5427H69.9778L69.4654 25.1165ZM69.1617 24.2968L68.0505 21.2213L66.9392 24.2968H69.1617ZM75.483 19.9614L73.252 24.1468V26.5427H72.1623V24.1468L69.9209 19.9614H71.1753L72.7145 23.0099L74.2527 19.9614H75.483Z" fill="#151339"/>
</svg>
