<svg width="89" height="32" viewBox="0 0 89 32" fill="none" xmlns="http://www.w3.org/2000/svg">
<path d="M19.1611 9.28711L16.0312 23.7035H19.825L22.86 9.28711H19.1611Z" fill="#151339"/>
<path d="M13.6576 9.28427L9.76896 19.0532L8.1566 10.7069C7.96691 9.7585 7.20816 9.28427 6.44941 9.28427H0.0948213L0 9.66368C1.32782 9.94821 2.75051 10.4224 3.69896 10.8966C4.26802 11.1812 4.36283 11.4657 4.55252 12.1296L7.49273 23.6058H11.4762L17.5462 9.18945H13.6576V9.28427Z" fill="#151339"/>
<path d="M43.1555 9.28711H39.9308C39.1721 9.28711 38.603 9.66652 38.3185 10.3304L32.7227 23.7035H36.6113L37.3701 21.5221H42.1123L42.5865 23.7035H46.0009L43.1555 9.28711ZM38.603 18.5818L40.5947 13.1758L41.7329 18.5818H38.603Z" fill="#151339"/>
<path d="M27.785 13.268C27.785 12.7938 28.2593 12.2247 29.3974 12.035C29.9665 11.9402 31.3892 11.9402 33.0964 12.699L33.7602 9.66392C32.9066 9.37939 31.6737 9 30.251 9C26.5521 9 23.9913 10.9917 23.9913 13.7422C23.9913 15.8288 25.8882 16.9669 27.216 17.6308C28.6387 18.2947 29.1129 18.769 29.1129 19.4329C29.1129 20.3813 27.9747 20.8556 26.8366 20.8556C24.9397 20.8556 23.8964 20.3813 23.0428 19.9071L22.3789 23.037C23.2325 23.4163 24.8449 23.7957 26.5521 23.7957C30.4407 23.7957 33.0015 21.8989 33.0015 18.8638C33.0015 15.2598 27.6902 14.9752 27.785 13.268Z" fill="#151339"/>
<path d="M73.0112 8.87205C74.0908 9.71944 74.9634 10.8013 75.5631 12.0358C76.1628 13.2703 76.4738 14.625 76.4726 15.9974C76.4734 17.3693 76.1622 18.7235 75.5625 19.9575C74.9629 21.1915 74.0904 22.2729 73.0112 23.12C71.9319 22.2728 71.0593 21.1911 70.4596 19.9569C69.86 18.7227 69.5489 17.3682 69.5499 15.996C69.5489 14.6239 69.86 13.2694 70.4596 12.0352C71.0593 10.801 71.9319 9.71931 73.0112 8.87205ZM71.8512 8.09605C70.7085 9.07148 69.7912 10.2834 69.1627 11.6481C68.5343 13.0128 68.2096 14.4976 68.2112 16C68.2097 17.5018 68.5341 18.986 69.1621 20.3502C69.7901 21.7144 70.7067 22.926 71.8486 23.9014C70.4691 24.6758 68.9109 25.0756 67.329 25.0612C65.7471 25.0468 64.1965 24.6186 62.8314 23.8192C61.4662 23.0197 60.3341 21.877 59.5475 20.5044C58.7609 19.1318 58.3473 17.5773 58.3477 15.9953C58.3481 14.4133 58.7625 12.859 59.5498 11.4868C60.3371 10.1146 61.4698 8.97243 62.8353 8.1737C64.2009 7.37497 65.7517 6.94755 67.3336 6.93393C68.9155 6.92031 70.4721 7.32096 71.8512 8.09605ZM74.1739 23.9014C75.3158 22.926 76.2324 21.7144 76.8604 20.3502C77.4884 18.986 77.8128 17.5018 77.8112 16C77.8128 14.4976 77.4882 13.0128 76.8597 11.6481C76.2313 10.2834 75.314 9.07148 74.1712 8.09605C75.5503 7.32096 77.1083 6.92031 78.6902 6.93393C80.2721 6.94755 81.8229 7.37497 83.1885 8.1737C84.554 8.97243 85.6867 10.1146 86.474 11.4868C87.2613 12.859 87.6757 14.4133 87.6761 15.9953C87.6765 17.5773 87.2629 19.1318 86.4763 20.5044C85.6897 21.877 84.5576 23.0197 83.1924 23.8192C81.8273 24.6186 80.2767 25.0468 78.6948 25.0612C77.1129 25.0756 75.5547 24.6758 74.1752 23.9014H74.1739Z" fill="#151339"/>
</svg>
