<svg width="84" height="23" viewBox="0 0 84 23" fill="none" xmlns="http://www.w3.org/2000/svg">
<path d="M5.60191 0.585938L0 16.9995H3.29112L4.87366 12.2099H9.42522L11.0498 16.9995H14.4109L8.795 0.585938H5.60191ZM8.62694 9.47897H5.68594L6.91836 5.86574C7.00239 5.61365 7.08642 5.37557 7.15644 5.13749C7.24047 5.38958 7.3105 5.64166 7.40853 5.90775L8.62694 9.47897Z" fill="#151339"/>
<path d="M19.9419 9.52601C18.4294 8.9238 18.2613 8.64371 18.2613 8.20956C18.2613 7.64937 18.7235 7.31325 19.4797 7.31325C20.362 7.31325 21.0622 7.66337 21.3984 7.87344L22.0426 8.27958L22.8969 5.67469L22.5047 5.42261C21.7625 4.93244 20.6421 4.65234 19.5077 4.65234C16.9729 4.65234 15.1382 6.24889 15.1382 8.46164C15.1382 10.4923 16.9308 11.5707 18.4434 12.1169C19.9419 12.6771 20.0679 13.0692 20.0679 13.5454C20.0679 14.4417 19.1296 14.5677 18.5694 14.5677C17.7011 14.5677 16.7628 14.2036 16.2306 13.8815L15.5864 13.5034L14.7461 16.1503L15.1522 16.3883C16.0765 16.9345 17.309 17.2426 18.5274 17.2426C21.3143 17.2426 23.191 15.6741 23.191 13.3493C23.191 11.0105 21.3283 10.0442 19.9419 9.52601Z" fill="#151339"/>
<path d="M28.1324 2.04688L24.9954 2.9992V4.87584H23.3008V7.57876H24.9954V12.9426C24.9954 14.4411 25.2895 15.5055 25.9197 16.2197C26.5359 16.8779 27.4462 17.2561 28.5106 17.2561C29.4629 17.2561 30.1491 17.06 30.4712 16.948L30.8914 16.8079L30.7233 14.091L29.9951 14.3011C29.785 14.3571 29.5329 14.4131 29.0147 14.4131C28.6366 14.4131 28.1184 14.4131 28.1184 12.8866V7.57876H30.9614V4.87584H28.1324V2.04688Z" fill="#151339"/>
<path d="M38.6285 4.76276L38.0543 4.67873C37.8863 4.65072 37.7182 4.63672 37.4942 4.63672C36.4998 4.63672 35.5895 5.04286 34.8893 5.7571L34.8473 4.8748H31.9062L31.9483 5.50501C32.0043 6.44333 32.0463 7.5077 32.0463 8.88017V17.0029H35.2254V10.5888C35.2254 10.2947 35.2534 9.98654 35.2814 9.77647C35.5195 8.51604 36.3038 7.73177 37.3681 7.73177C37.6202 7.73177 37.7743 7.73177 37.9143 7.75978L38.6425 7.91384L38.6285 4.76276Z" fill="#151339"/>
<path d="M44.4088 4.65234C40.8656 4.65234 38.3867 7.27124 38.3867 11.0385C38.3867 14.7078 40.7815 17.2566 44.2267 17.2566C47.1397 17.2566 50.2628 15.254 50.2628 10.8565C50.2768 7.20121 47.868 4.65234 44.4088 4.65234ZM47.0557 10.9265C47.0557 13.0412 45.9073 14.5817 44.3388 14.5817C42.7702 14.5817 41.6358 13.0552 41.6358 10.9825C41.6358 9.63804 42.21 7.35527 44.3808 7.35527C46.4955 7.32726 47.0557 9.68006 47.0557 10.9265Z" fill="#151339"/>
<path d="M60.6962 1.89105C59.6598 0.952726 58.0773 0.476562 56.0326 0.476562C54.6601 0.476562 53.3577 0.574597 52.1533 0.770664L51.6631 0.854693V17.0022H54.8142V11.0082C55.1363 11.0362 55.4724 11.0502 55.8085 11.0502C57.9372 11.0502 59.7438 10.3919 60.8922 9.20154C61.7885 8.27723 62.2367 7.04481 62.2367 5.53229C62.2227 4.06179 61.6765 2.77335 60.6962 1.89105ZM59.0716 5.63032C59.0716 7.92711 57.0549 8.26322 55.8505 8.26322C55.4444 8.26322 55.1083 8.24922 54.8282 8.2072V3.27752C55.1363 3.2355 55.5564 3.2215 56.0886 3.2215C57.4331 3.2215 59.0716 3.64164 59.0716 5.63032Z" fill="#151339"/>
<path d="M71.8886 13.7835V9.69407C71.8886 6.43095 70.194 4.65234 67.141 4.65234C65.7265 4.65234 64.242 5.04448 63.2196 5.6887L62.8135 5.94078L63.6678 8.46164L64.312 8.0275C64.9702 7.57934 65.9226 7.31325 66.8469 7.31325C67.4911 7.29925 67.9532 7.4533 68.2614 7.7474C68.5134 7.99949 68.6675 8.37762 68.7235 8.85378C66.2447 8.9238 64.4381 9.512 63.3177 10.6184C62.5474 11.3886 62.1553 12.355 62.1553 13.5174C62.1553 15.38 63.4997 17.2566 66.1046 17.2566C67.211 17.2566 68.2474 16.9065 69.0596 16.2903L69.1437 17.0186H72.1547L72.0426 16.3323C71.9446 15.6601 71.8886 14.8058 71.8886 13.7835ZM66.5948 14.5957C66.1186 14.5957 65.3344 14.4277 65.3344 13.2933C65.3344 12.8591 65.4604 12.509 65.7405 12.2429C66.1046 11.8788 66.9309 11.4587 68.7795 11.4307V12.7331C68.7795 12.8311 68.7655 12.9992 68.7235 13.1672C68.4994 13.8255 67.8132 14.5957 66.5948 14.5957Z" fill="#151339"/>
<path d="M80.64 4.87305L78.3292 11.6934C78.2732 11.8614 78.2171 12.0435 78.1611 12.2116C78.1051 12.0435 78.0491 11.8754 77.9791 11.7214L75.4582 4.87305H71.999L76.3405 15.7548L76.3545 15.7828C76.4245 15.9228 76.4525 16.0068 76.4525 16.0349C76.4245 16.0909 76.3825 16.2029 76.3545 16.2729C75.9764 17.0712 75.4162 17.8275 74.856 18.2756L74.842 18.2896C74.2118 18.8358 73.5676 19.0739 73.3015 19.1439L72.7413 19.326L73.5536 22.0429L74.0717 21.9449C74.3938 21.8889 75.5142 21.6228 76.8027 20.5444C78.3432 19.1719 79.3655 17.0012 80.71 13.472L84.0011 4.87305H80.64Z" fill="#151339"/>
<path d="M11.5948 5.09774C13.6395 3.01103 17.1127 1.7646 20.88 1.7646C22.3505 1.7646 23.779 1.94666 25.1375 2.32479L25.2495 2.3528L27.6583 1.62455L26.58 1.20441C24.5212 0.420144 22.1544 0 19.7176 0C16.1744 0 12.8693 0.854291 10.4184 2.40882L10.1523 2.57688L11.1747 5.5599L11.5948 5.09774Z" fill="#FF0000"/>
</svg>
