<svg width="1728" height="72" viewBox="0 0 1728 72" fill="none" xmlns="http://www.w3.org/2000/svg">
<g opacity="0.34">
<mask id="mask0_242_57679" style="mask-type:alpha" maskUnits="userSpaceOnUse" x="-28" y="0" width="1768" height="72">
<path d="M-28 0H1740V72H-28V0Z" fill="#F7F9FB"/>
</mask>
<g mask="url(#mask0_242_57679)">
<g opacity="0.5">
<path d="M1724.21 139.608C1693.45 275.453 1570.9 380.51 1397.25 440.416C1223.63 500.314 999.131 514.992 764.915 470.191C530.698 425.39 331.21 329.611 198.012 211.026C64.7939 92.422 -1.97357 -48.8473 28.7905 -184.692C59.5545 -320.537 182.106 -425.594 355.75 -485.501C529.368 -545.399 753.871 -560.076 988.087 -515.275C1222.3 -470.474 1421.79 -374.695 1554.99 -256.11C1688.21 -137.506 1754.98 3.7631 1724.21 139.608Z" stroke="#0A0F1D" stroke-width="2"/>
<path d="M906.198 -16.6632C905.016 -11.4409 900.764 -7.2026 894.617 -4.64368C888.476 -2.08751 880.548 -1.26353 872.304 -2.84049C864.06 -4.41746 857.148 -8.08 852.627 -12.6755C848.101 -17.276 846.042 -22.7214 847.225 -27.9437C848.408 -33.166 852.66 -37.4043 858.807 -39.9632C864.947 -42.5194 872.875 -43.3434 881.119 -41.7664C889.364 -40.1895 896.276 -36.5269 900.797 -31.9314C905.322 -27.3309 907.381 -21.8856 906.198 -16.6632Z" stroke="#0A0F1D" stroke-width="2"/>
<path d="M919.832 -14.0579C918.16 -6.67741 911.958 -0.754518 903.012 2.76755C894.077 6.28518 882.533 7.34308 870.514 5.04417C858.496 2.74526 848.369 -2.45774 841.703 -8.95954C835.029 -15.4695 831.913 -23.1748 833.584 -30.5554C835.256 -37.9359 841.458 -43.8587 850.404 -47.3808C859.339 -50.8984 870.884 -51.9563 882.902 -49.6574C894.921 -47.3585 905.047 -42.1555 911.713 -35.6537C918.387 -29.1437 921.503 -21.4384 919.832 -14.0579Z" stroke="#0A0F1D" stroke-width="2"/>
<path d="M933.469 -11.454C931.307 -1.9065 923.144 5.69927 911.402 10.181C899.674 14.6572 884.517 15.9474 868.728 12.9274C852.939 9.9073 839.601 3.16649 830.79 -5.23848C821.968 -13.6537 817.785 -23.6209 819.948 -33.1685C822.11 -42.716 830.272 -50.3218 842.015 -54.8035C853.743 -59.2798 868.9 -60.57 884.689 -57.5499C900.477 -54.5298 913.816 -47.789 922.627 -39.3841C931.448 -30.9688 935.631 -21.0016 933.469 -11.454Z" stroke="#0A0F1D" stroke-width="2"/>
<path d="M947.098 -8.84921C944.445 2.86942 934.317 12.1571 919.78 17.5969C905.26 23.0306 886.491 24.5525 866.934 20.8116C847.377 17.0706 830.827 8.79313 819.872 -1.51365C808.903 -11.8321 803.649 -24.062 806.303 -35.7807C808.957 -47.4993 819.084 -56.787 833.621 -62.2268C848.141 -67.6605 866.91 -69.1823 886.467 -65.4414C906.024 -61.7005 922.574 -53.423 933.53 -43.1162C944.498 -32.7978 949.752 -20.5678 947.098 -8.84921Z" stroke="#0A0F1D" stroke-width="2"/>
<path d="M960.732 -6.24534C957.586 7.64655 945.491 18.6157 928.161 25.0127C910.848 31.4031 888.469 33.1563 865.144 28.6948C841.819 24.2332 822.059 14.4195 808.959 2.21167C795.844 -10.0088 789.516 -24.5019 792.662 -38.3938C795.808 -52.2857 807.903 -63.2548 825.233 -69.6518C842.546 -76.0423 864.925 -77.7955 888.25 -73.3339C911.575 -68.8723 931.335 -59.0586 944.435 -46.8508C957.55 -34.6303 963.878 -20.1372 960.732 -6.24534Z" stroke="#0A0F1D" stroke-width="2"/>
<path d="M974.365 -3.6405C970.727 12.426 956.663 25.0762 936.54 32.4299C916.436 39.7767 890.446 41.7611 863.354 36.5789C836.262 31.3968 813.292 20.0473 798.046 5.93882C782.786 -8.18308 775.383 -24.9395 779.021 -41.006C782.66 -57.0724 796.723 -69.7226 816.846 -77.0764C836.951 -84.4231 862.94 -86.4075 890.032 -81.2254C917.124 -76.0432 940.095 -64.6937 955.34 -50.5853C970.6 -36.4634 978.004 -19.707 974.365 -3.6405Z" stroke="#0A0F1D" stroke-width="2"/>
<path d="M987.999 -1.03566C983.867 17.2062 967.834 31.5372 944.918 39.8474C922.023 48.1503 892.423 50.3658 861.564 44.4631C830.705 38.5605 804.525 25.6754 787.135 9.66653C769.729 -6.35633 761.249 -25.3762 765.38 -43.6181C769.512 -61.86 785.545 -76.191 808.46 -84.5012C831.356 -92.8041 860.956 -95.0196 891.815 -89.1169C922.674 -83.2142 948.854 -70.3291 966.244 -54.3203C983.649 -38.2974 992.13 -19.2775 987.999 -1.03566Z" stroke="#0A0F1D" stroke-width="2"/>
<path d="M1001.64 1.56821C997.012 21.9861 979.009 37.9978 953.3 47.2641C927.613 56.523 894.403 58.9695 859.778 52.3463C825.153 45.7232 795.763 31.3026 776.228 13.3936C756.677 -4.52988 747.12 -25.8134 751.744 -46.2312C756.368 -66.6491 774.371 -82.6608 800.079 -91.9272C825.767 -101.186 858.976 -103.632 893.602 -97.0094C928.227 -90.3862 957.617 -75.9656 977.152 -58.0566C996.703 -40.1332 1006.26 -18.8497 1001.64 1.56821Z" stroke="#0A0F1D" stroke-width="2"/>
<path d="M1015.27 4.17353C1010.15 26.7678 990.178 44.46 961.678 54.6824C933.199 64.8971 896.38 67.5745 857.988 60.231C819.596 52.8874 786.996 36.9314 765.317 17.1224C743.621 -2.70149 732.986 -26.2486 738.103 -48.8429C743.22 -71.4372 763.194 -89.1294 791.694 -99.3518C820.173 -109.567 856.993 -112.244 895.384 -104.9C933.776 -97.5568 966.376 -81.6008 988.055 -61.7918C1009.75 -41.9679 1020.39 -18.4208 1015.27 4.17353Z" stroke="#0A0F1D" stroke-width="2"/>
<path d="M1028.9 6.77789C1023.29 31.5489 1001.35 50.9216 970.055 62.0999C938.785 73.2704 898.356 76.1787 856.198 68.1147C814.04 60.0507 778.23 42.5594 754.406 20.8504C730.565 -0.873701 718.852 -26.6846 724.462 -51.4556C730.072 -76.2266 752.017 -95.5992 783.309 -106.778C814.58 -117.948 855.009 -120.856 897.167 -112.792C939.325 -104.728 975.134 -87.2371 998.959 -65.5281C1022.8 -43.804 1034.51 -17.9931 1028.9 6.77789Z" stroke="#0A0F1D" stroke-width="2"/>
<path d="M1042.54 9.38225C1036.43 36.3302 1012.52 57.3832 978.432 69.5174C944.371 81.6436 900.332 84.7828 854.408 75.9984C808.484 67.214 769.465 48.1874 743.496 24.5786C717.51 0.954337 704.719 -27.1203 710.821 -54.0682C716.924 -81.0162 740.841 -102.069 774.925 -114.203C808.986 -126.33 853.025 -129.469 898.95 -120.684C944.874 -111.9 983.893 -92.8734 1009.86 -69.2646C1035.85 -45.6403 1048.64 -17.5657 1042.54 9.38225Z" stroke="#0A0F1D" stroke-width="2"/>
<path d="M1056.17 11.9861C1049.57 41.1112 1023.68 63.8445 986.809 76.9344C949.957 90.0162 902.308 93.3863 852.618 83.8815C802.928 74.3768 760.699 53.815 732.585 28.3064C704.455 2.78208 690.585 -27.5563 697.181 -56.6814C703.776 -85.8064 729.665 -108.54 766.541 -121.63C803.393 -134.712 851.042 -138.082 900.732 -128.577C950.422 -119.072 992.651 -98.5103 1020.76 -73.0017C1048.9 -47.4774 1062.77 -17.139 1056.17 11.9861Z" stroke="#0A0F1D" stroke-width="2"/>
<path d="M1069.8 14.5917C1062.71 45.894 1034.85 70.3077 995.186 84.3533C955.542 98.3907 904.284 101.992 850.828 91.7665C797.371 81.5413 751.933 59.4443 721.675 32.036C691.399 4.61172 676.451 -27.9905 683.54 -59.2928C690.629 -90.5951 718.489 -115.009 758.156 -129.054C797.8 -143.092 849.058 -146.693 902.515 -136.468C955.971 -126.242 1001.41 -104.145 1031.67 -76.7371C1061.94 -49.3128 1076.89 -16.7107 1069.8 14.5917Z" stroke="#0A0F1D" stroke-width="2"/>
<path d="M1083.44 17.1958C1075.85 50.6755 1046.02 76.7694 1003.56 91.7707C961.128 106.764 906.26 110.595 849.038 99.6499C791.815 88.7044 743.168 65.0722 710.765 35.7642C678.344 6.44003 662.317 -28.426 669.899 -61.9057C677.481 -95.3854 707.314 -121.479 749.772 -136.481C792.207 -151.474 847.075 -155.305 904.297 -144.36C961.52 -133.414 1010.17 -109.782 1042.57 -80.4741C1074.99 -51.1499 1091.02 -16.2839 1083.44 17.1958Z" stroke="#0A0F1D" stroke-width="2"/>
<path d="M1097.07 19.8001C1088.99 55.4573 1057.19 83.2314 1011.94 99.1883C966.713 115.137 908.236 119.199 847.248 107.534C786.259 95.8677 734.402 70.7004 699.855 39.4927C665.289 8.26869 648.183 -28.8611 656.258 -64.5183C664.333 -100.176 696.138 -127.95 741.388 -143.907C786.615 -159.855 845.091 -163.918 906.08 -152.252C967.068 -140.586 1018.93 -115.419 1053.47 -84.2109C1088.04 -52.9869 1105.14 -15.8571 1097.07 19.8001Z" stroke="#0A0F1D" stroke-width="2"/>
<path d="M1110.7 22.4045C1102.13 60.2392 1068.36 89.6935 1020.32 106.606C972.298 123.51 910.212 127.803 845.458 115.417C780.703 103.031 725.637 76.3286 688.945 43.2212C652.235 10.0974 634.049 -29.2962 642.618 -67.131C651.186 -104.966 684.963 -134.42 733.004 -151.333C781.022 -168.237 843.108 -172.53 907.862 -160.144C972.617 -147.758 1027.68 -121.055 1064.38 -87.9477C1101.09 -54.824 1119.27 -15.4303 1110.7 22.4045Z" stroke="#0A0F1D" stroke-width="2"/>
<path d="M1124.33 25.0093C1115.27 65.0217 1079.52 96.1562 1028.69 114.024C977.88 131.884 912.184 136.408 843.664 123.301C775.143 110.195 716.867 81.9573 678.031 46.9503C639.176 11.9268 619.911 -29.7308 628.973 -69.7431C638.034 -109.756 673.783 -140.89 724.616 -158.758C775.425 -176.618 841.121 -181.142 909.641 -168.035C978.161 -154.929 1036.44 -126.691 1075.27 -91.6841C1114.13 -56.6606 1133.39 -15.0031 1124.33 25.0093Z" stroke="#0A0F1D" stroke-width="2"/>
<path d="M1137.97 27.6137C1128.41 69.8038 1090.69 102.618 1037.07 121.442C983.469 140.257 914.164 145.012 841.878 131.185C769.591 117.358 708.106 87.5855 667.125 50.6789C626.125 13.7556 605.781 -30.1657 615.336 -72.3558C624.89 -114.546 662.612 -147.36 716.236 -166.184C769.836 -184.999 839.141 -189.754 911.428 -175.927C983.714 -162.1 1045.2 -132.328 1086.18 -95.421C1127.18 -58.4977 1147.52 -14.5764 1137.97 27.6137Z" stroke="#0A0F1D" stroke-width="2"/>
<path d="M1151.6 30.2186C1141.56 74.5864 1101.86 109.081 1045.45 128.86C989.054 148.631 916.14 153.617 840.088 139.069C764.035 124.522 699.34 93.2143 656.215 54.4081C613.07 15.5851 591.647 -30.6001 601.695 -74.9679C611.743 -119.336 651.437 -153.83 707.853 -173.61C764.244 -193.38 837.158 -198.366 913.21 -183.819C989.263 -169.271 1053.96 -137.964 1097.08 -99.1575C1140.23 -60.3345 1161.65 -14.1493 1151.6 30.2186Z" stroke="#0A0F1D" stroke-width="2"/>
<path d="M1165.24 32.8234C1154.7 79.369 1113.03 115.544 1053.82 136.278C994.639 157.005 918.116 162.221 838.298 146.954C758.479 131.686 690.575 98.8431 645.305 58.1372C600.016 17.4146 577.513 -31.0345 588.054 -77.5801C598.595 -124.126 640.262 -160.301 699.469 -181.035C758.651 -201.761 835.175 -206.978 914.993 -191.71C994.811 -176.443 1062.72 -143.6 1107.99 -102.894C1153.27 -62.1713 1175.78 -13.7222 1165.24 32.8234Z" stroke="#0A0F1D" stroke-width="2"/>
<path d="M1178.87 35.4273C1167.84 84.1506 1124.2 122.006 1062.2 143.696C1000.22 165.377 920.092 170.825 836.508 154.837C752.924 138.849 681.81 104.471 634.395 61.8654C586.961 19.2431 563.379 -31.4698 574.414 -80.1932C585.448 -128.917 629.087 -166.772 691.085 -188.462C753.058 -210.143 833.191 -215.591 916.775 -199.603C1000.36 -183.615 1071.47 -149.237 1118.89 -106.631C1166.32 -64.0091 1189.9 -13.2961 1178.87 35.4273Z" stroke="#0A0F1D" stroke-width="2"/>
<path d="M1192.51 38.0316C1180.98 88.9328 1135.37 128.468 1070.58 151.114C1005.81 173.751 922.072 179.429 834.722 162.72C747.372 146.012 673.048 110.099 623.489 65.5941C573.911 21.0722 549.25 -31.9047 560.777 -82.8059C572.304 -133.707 617.916 -173.242 682.705 -195.888C747.47 -218.525 831.212 -224.203 918.562 -207.495C1005.91 -190.786 1080.24 -154.873 1129.79 -110.368C1179.37 -65.8465 1204.03 -12.8696 1192.51 38.0316Z" stroke="#0A0F1D" stroke-width="2"/>
<path d="M1206.14 40.6364C1194.12 93.7155 1146.53 134.931 1078.95 158.532C1011.39 182.124 924.043 188.033 832.928 170.605C741.812 153.176 664.279 115.728 612.575 69.3233C560.852 22.9017 535.111 -32.339 547.132 -85.4181C559.152 -138.497 606.737 -179.712 674.317 -203.313C741.873 -226.906 829.225 -232.815 920.341 -215.386C1011.46 -197.958 1088.99 -160.51 1140.69 -114.105C1192.42 -67.6834 1218.16 -12.4427 1206.14 40.6364Z" stroke="#0A0F1D" stroke-width="2"/>
<path d="M1219.77 43.2412C1207.26 98.4982 1157.7 141.393 1087.33 165.95C1016.98 190.498 926.023 196.638 831.141 178.489C736.26 160.34 655.518 121.357 601.669 73.0525C547.801 24.7313 520.982 -32.7733 533.495 -88.0302C546.009 -143.287 595.566 -186.182 665.938 -210.739C736.285 -235.287 827.246 -241.427 922.127 -223.278C1017.01 -205.129 1097.75 -166.146 1151.6 -117.842C1205.47 -69.5203 1232.29 -12.0157 1219.77 43.2412Z" stroke="#0A0F1D" stroke-width="2"/>
<path d="M1233.4 45.8451C1220.4 103.28 1168.87 147.855 1095.7 173.367C1022.57 198.871 927.995 205.241 829.347 186.372C730.7 167.503 646.748 126.984 590.755 76.7809C534.743 26.56 506.843 -33.2085 519.85 -90.6434C532.857 -148.078 584.387 -192.654 657.55 -218.166C730.688 -243.669 825.258 -250.04 923.906 -231.17C1022.55 -212.301 1106.5 -171.783 1162.5 -121.579C1218.51 -71.3582 1246.41 -11.5897 1233.4 45.8451Z" stroke="#0A0F1D" stroke-width="2"/>
<path d="M1247.04 48.45C1233.54 108.063 1180.04 154.318 1104.08 180.786C1028.15 207.245 929.975 213.846 827.562 194.256C725.148 174.666 637.987 132.613 579.849 80.5101C521.692 28.3896 492.714 -33.6427 506.214 -93.2555C519.714 -152.868 573.216 -199.124 649.17 -225.591C725.1 -252.05 823.279 -258.651 925.692 -239.062C1028.11 -219.472 1115.27 -177.419 1173.4 -125.316C1231.56 -73.1952 1260.54 -11.1628 1247.04 48.45Z" stroke="#0A0F1D" stroke-width="2"/>
<path d="M1260.67 51.0548C1246.68 112.846 1191.2 160.781 1112.46 188.204C1033.74 215.618 931.947 222.45 825.767 202.14C719.588 181.83 629.218 138.242 568.936 84.2394C508.634 30.2194 478.575 -34.0769 492.569 -95.8677C506.562 -157.658 562.037 -205.594 640.783 -233.017C719.503 -260.431 821.292 -267.263 927.471 -246.953C1033.65 -226.643 1124.02 -183.055 1184.3 -129.052C1244.6 -75.0322 1274.66 -10.7359 1260.67 51.0548Z" stroke="#0A0F1D" stroke-width="2"/>
<path d="M1274.3 53.6592C1259.82 117.628 1202.37 167.243 1120.83 195.622C1039.32 223.992 933.923 231.054 823.977 210.024C714.032 188.994 620.453 143.87 558.026 87.9682C495.579 32.0486 464.442 -34.5116 478.928 -98.4803C493.415 -162.449 550.862 -212.065 632.399 -240.443C713.911 -268.813 819.308 -275.876 929.254 -254.845C1039.2 -233.815 1132.78 -188.692 1195.21 -132.789C1257.65 -76.8697 1288.79 -10.3095 1274.3 53.6592Z" stroke="#0A0F1D" stroke-width="2"/>
<path d="M1287.94 56.2635C1272.96 122.41 1213.54 173.706 1129.21 203.04C1044.91 232.365 935.898 239.658 822.187 217.908C708.476 196.157 611.687 149.499 547.116 91.697C482.525 33.8778 450.307 -34.9463 465.287 -101.093C480.267 -167.24 539.687 -218.535 624.015 -247.869C708.318 -277.194 817.325 -284.488 931.036 -262.737C1044.75 -240.987 1141.54 -194.328 1206.11 -136.526C1270.7 -78.7072 1302.92 -9.88314 1287.94 56.2635Z" stroke="#0A0F1D" stroke-width="2"/>
<path d="M1301.57 58.8679C1286.1 127.193 1224.7 180.168 1137.58 210.457C1050.49 240.738 937.874 248.262 820.397 225.791C702.92 203.32 602.922 155.127 536.206 95.4257C469.471 35.707 436.173 -35.381 451.647 -103.706C467.12 -172.03 528.513 -225.006 615.632 -255.295C702.726 -285.576 815.342 -293.1 932.819 -270.629C1050.3 -248.158 1150.29 -199.965 1217.01 -140.264C1283.75 -80.5448 1317.04 -9.45681 1301.57 58.8679Z" stroke="#0A0F1D" stroke-width="2"/>
<path d="M1315.2 61.4727C1299.24 131.975 1235.87 186.631 1145.96 217.876C1056.08 249.112 939.85 256.867 818.607 233.676C697.365 210.484 594.157 160.756 525.296 99.1551C456.416 37.5368 422.039 -35.8151 438.006 -106.318C453.972 -176.82 517.338 -231.476 607.248 -262.721C697.133 -293.957 813.359 -301.712 934.601 -278.521C1055.84 -255.329 1159.05 -205.601 1227.91 -144C1296.79 -82.3818 1331.17 -9.02993 1315.2 61.4727Z" stroke="#0A0F1D" stroke-width="2"/>
<path d="M1328.84 64.0776C1312.38 136.758 1247.04 193.094 1154.34 225.294C1061.66 257.486 941.826 265.471 816.817 241.56C691.809 217.648 585.392 166.385 514.386 102.884C443.362 39.3665 407.905 -36.2493 424.365 -108.93C440.825 -181.611 506.163 -237.946 598.865 -270.147C691.541 -302.338 811.376 -310.324 936.384 -286.412C1061.39 -262.501 1167.81 -211.237 1238.81 -147.737C1309.84 -84.2189 1345.3 -8.6031 1328.84 64.0776Z" stroke="#0A0F1D" stroke-width="2"/>
<path d="M1342.47 66.6815C1325.52 141.54 1258.21 199.556 1162.71 232.712C1067.25 265.858 943.802 274.075 815.027 249.443C686.253 224.811 576.627 172.013 503.477 106.613C430.307 41.1953 393.771 -36.6844 410.724 -111.543C427.677 -186.402 494.988 -244.418 590.481 -277.573C685.948 -310.72 809.392 -318.937 938.167 -294.305C1066.94 -269.673 1176.57 -216.874 1249.72 -151.474C1322.89 -86.0569 1359.42 -8.17721 1342.47 66.6815Z" stroke="#0A0F1D" stroke-width="2"/>
<path d="M1356.11 69.2858C1338.66 146.322 1269.38 206.018 1171.09 240.129C1072.83 274.232 945.781 282.679 813.241 257.327C680.701 231.974 567.865 177.641 492.571 110.341C417.257 43.0246 379.641 -37.119 397.087 -114.156C414.534 -191.192 483.818 -250.888 582.101 -284.999C680.36 -319.102 807.413 -327.549 939.953 -302.197C1072.49 -276.844 1185.33 -222.511 1260.62 -155.211C1335.94 -87.8945 1373.55 -7.75093 1356.11 69.2858Z" stroke="#0A0F1D" stroke-width="2"/>
<path d="M1369.74 71.8911C1351.8 151.106 1280.54 212.482 1179.47 247.548C1078.42 282.606 947.757 291.284 811.451 265.211C675.145 239.139 559.1 183.27 481.661 114.071C404.203 44.8548 365.507 -37.5527 383.447 -116.767C401.386 -195.982 472.643 -257.358 573.718 -292.425C674.767 -327.482 805.43 -336.16 941.736 -310.088C1078.04 -284.015 1194.09 -228.146 1271.53 -158.948C1348.98 -89.7311 1387.68 -7.32362 1369.74 71.8911Z" stroke="#0A0F1D" stroke-width="2"/>
<path d="M1383.37 74.495C1364.94 155.888 1291.71 218.944 1187.85 254.966C1084 290.979 949.733 299.888 809.661 273.095C669.589 246.302 550.335 188.898 470.751 117.8C391.148 46.6837 351.373 -37.9878 369.806 -119.381C388.238 -200.773 461.468 -263.829 565.334 -299.851C669.175 -335.864 803.447 -344.773 943.518 -317.98C1083.59 -291.187 1202.84 -233.784 1282.43 -162.685C1362.03 -91.5692 1401.81 -6.89777 1383.37 74.495Z" stroke="#0A0F1D" stroke-width="2"/>
<path d="M1397.01 77.0993C1378.09 160.67 1302.88 225.406 1196.23 262.383C1089.59 299.352 951.713 308.492 807.875 280.978C664.038 253.465 541.574 194.526 459.846 121.528C378.098 48.5129 337.243 -38.4224 356.169 -121.993C375.095 -205.564 450.298 -270.3 556.955 -307.277C663.586 -344.246 801.468 -353.385 945.305 -325.872C1089.14 -298.359 1211.61 -239.42 1293.33 -166.422C1375.08 -93.4068 1415.94 -6.47148 1397.01 77.0993Z" stroke="#0A0F1D" stroke-width="2"/>
<path d="M1410.64 79.7046C1391.22 165.453 1314.05 231.869 1204.6 269.802C1095.17 307.726 953.685 317.096 806.081 288.863C658.478 260.629 532.805 200.156 448.932 125.258C365.039 50.3432 323.105 -38.856 342.524 -124.605C361.943 -210.354 439.119 -276.77 548.567 -314.702C657.99 -352.626 799.48 -361.997 947.084 -333.763C1094.69 -305.53 1220.36 -245.056 1304.23 -170.159C1388.13 -95.2435 1430.06 -6.04423 1410.64 79.7046Z" stroke="#0A0F1D" stroke-width="2"/>
<path d="M1424.28 82.309C1404.37 170.236 1325.22 238.332 1212.98 277.22C1100.76 316.099 955.664 325.701 804.295 296.747C652.926 267.793 524.043 205.784 438.026 128.987C351.989 52.1726 308.975 -39.2906 328.888 -127.218C348.8 -215.144 427.948 -283.24 540.188 -322.129C652.401 -361.008 797.501 -370.609 948.87 -341.655C1100.24 -312.701 1229.12 -250.693 1315.14 -173.896C1401.18 -97.0811 1444.19 -5.61793 1424.28 82.309Z" stroke="#0A0F1D" stroke-width="2"/>
<path d="M1437.91 84.9129C1417.5 175.018 1336.38 244.794 1221.35 284.637C1106.34 324.472 957.636 334.304 802.501 304.63C647.366 274.956 515.274 211.412 427.112 132.715C338.931 54.0014 294.837 -39.7257 315.243 -129.831C335.648 -219.936 416.769 -289.712 531.8 -329.555C646.805 -369.39 795.514 -379.222 950.649 -349.548C1105.78 -319.873 1237.88 -256.33 1326.04 -177.633C1414.22 -98.9192 1458.31 -5.19213 1437.91 84.9129Z" stroke="#0A0F1D" stroke-width="2"/>
<path d="M1451.54 87.5177C1430.64 179.801 1347.55 251.257 1229.73 292.056C1111.93 332.846 959.612 342.909 800.711 312.514C641.81 282.119 506.509 217.041 416.203 136.445C325.876 55.8312 280.703 -40.1598 301.602 -132.443C322.501 -224.726 405.595 -296.182 523.417 -336.981C641.213 -377.771 793.531 -387.834 952.431 -357.439C1111.33 -327.044 1246.63 -261.966 1336.94 -181.37C1427.27 -100.756 1472.44 -4.76532 1451.54 87.5177Z" stroke="#0A0F1D" stroke-width="2"/>
<path d="M1465.17 90.1226C1443.78 184.584 1358.72 257.72 1238.1 299.474C1117.51 341.22 961.588 351.513 798.921 320.398C636.254 289.283 497.744 222.67 405.293 140.174C312.822 57.6611 266.569 -40.5938 287.961 -135.055C309.353 -229.516 394.42 -302.652 515.033 -344.407C635.62 -386.152 791.547 -396.445 954.214 -365.331C1116.88 -334.216 1255.39 -267.602 1347.84 -185.107C1440.31 -102.593 1486.57 -4.33857 1465.17 90.1226Z" stroke="#0A0F1D" stroke-width="2"/>
<path d="M1478.81 92.7269C1456.92 189.366 1369.88 264.182 1246.48 306.892C1123.1 349.593 963.563 360.117 797.131 328.282C630.699 296.447 488.979 228.298 394.383 143.903C299.768 59.4903 252.435 -41.0285 274.32 -137.668C296.206 -234.307 383.245 -309.123 506.649 -351.833C630.028 -394.534 789.564 -405.058 955.997 -373.223C1122.43 -341.387 1264.15 -273.239 1358.74 -188.844C1453.36 -104.431 1500.69 -3.91233 1478.81 92.7269Z" stroke="#0A0F1D" stroke-width="2"/>
<path d="M1492.44 95.3312C1470.06 194.148 1381.05 270.645 1254.85 314.31C1128.69 357.966 965.539 368.721 795.341 336.165C625.143 303.61 480.213 233.926 383.473 147.632C286.713 61.3197 238.301 -41.4631 260.68 -140.28C283.058 -239.098 372.071 -315.594 498.266 -359.259C624.435 -402.915 787.581 -413.67 957.779 -381.115C1127.98 -348.559 1272.91 -278.875 1369.65 -192.581C1466.41 -106.269 1514.82 -3.48604 1492.44 95.3312Z" stroke="#0A0F1D" stroke-width="2"/>
<path d="M1506.07 97.9361C1483.2 198.931 1392.22 277.108 1263.23 321.728C1134.27 366.34 967.515 377.326 793.551 344.05C619.587 310.774 471.448 239.555 372.564 151.361C273.659 63.1496 224.167 -41.8971 247.039 -142.892C269.911 -243.888 360.896 -322.064 489.882 -366.685C618.843 -411.296 785.598 -422.282 959.562 -389.006C1133.53 -355.73 1281.66 -284.511 1380.55 -196.318C1479.45 -108.106 1528.95 -3.05924 1506.07 97.9361Z" stroke="#0A0F1D" stroke-width="2"/>
<path d="M1519.71 100.54C1496.34 203.714 1403.38 283.57 1271.61 329.146C1139.85 374.713 969.491 385.93 791.761 351.933C614.031 317.937 462.683 245.183 361.654 155.09C260.605 64.9789 210.033 -42.3316 233.398 -145.505C256.763 -248.679 349.721 -328.535 481.499 -374.111C613.25 -419.678 783.615 -430.894 961.344 -396.898C1139.07 -362.902 1290.42 -290.148 1391.45 -200.055C1492.5 -109.944 1543.07 -2.633 1519.71 100.54Z" stroke="#0A0F1D" stroke-width="2"/>
<path d="M1533.34 103.145C1509.49 208.496 1414.56 290.033 1279.99 336.564C1145.44 383.086 971.471 394.534 789.975 359.817C608.479 325.101 453.922 250.812 350.748 158.819C247.554 66.8083 195.903 -42.7662 219.761 -148.118C243.62 -253.469 338.551 -335.005 473.119 -381.537C607.662 -428.059 781.635 -439.507 963.131 -404.79C1144.63 -370.073 1299.18 -295.785 1402.36 -203.792C1505.55 -111.781 1557.2 -2.20674 1533.34 103.145Z" stroke="#0A0F1D" stroke-width="2"/>
<path d="M1546.97 105.749C1522.62 213.279 1425.72 296.495 1288.36 343.982C1151.03 391.46 973.442 403.138 788.181 367.701C602.919 332.264 445.153 256.44 339.834 162.548C234.496 68.6376 181.765 -43.2008 206.117 -150.73C230.468 -258.26 327.372 -341.476 464.732 -388.963C602.065 -436.441 779.648 -448.119 964.91 -412.682C1150.17 -377.245 1307.94 -301.421 1413.26 -207.529C1518.59 -113.619 1571.33 -1.78046 1546.97 105.749Z" stroke="#0A0F1D" stroke-width="2"/>
<path d="M1560.61 108.354C1535.77 218.062 1436.89 302.958 1296.74 351.4C1156.61 399.833 975.422 411.742 786.395 375.585C597.368 339.428 436.392 262.069 328.929 166.277C221.446 70.4675 167.635 -43.6348 192.48 -153.343C217.325 -263.05 316.201 -347.946 456.352 -396.389C596.477 -444.822 777.669 -456.731 966.696 -420.574C1155.72 -384.416 1316.7 -307.057 1424.16 -211.266C1531.65 -115.456 1585.46 -1.35374 1560.61 108.354Z" stroke="#0A0F1D" stroke-width="2"/>
<path d="M1574.24 110.958C1548.9 222.844 1448.05 309.42 1305.11 358.818C1162.19 408.207 977.394 420.346 784.601 383.469C591.808 346.591 427.622 267.697 318.015 170.006C208.387 72.2969 153.497 -44.0694 178.835 -155.955C204.173 -267.841 305.023 -354.417 447.965 -403.815C590.881 -453.203 775.682 -465.343 968.475 -428.465C1161.27 -391.588 1325.45 -312.694 1435.06 -215.003C1544.69 -117.294 1599.58 -0.927481 1574.24 110.958Z" stroke="#0A0F1D" stroke-width="2"/>
<path d="M1587.88 113.563C1562.05 227.627 1459.22 315.883 1313.49 366.236C1167.78 416.58 979.374 428.95 782.815 391.352C586.256 353.755 418.861 273.326 307.109 173.735C195.337 74.1263 139.367 -44.5039 165.198 -158.568C191.03 -272.632 293.852 -360.888 439.585 -411.241C585.292 -461.585 773.703 -473.955 970.261 -436.357C1166.82 -398.76 1334.21 -318.331 1445.97 -218.74C1557.74 -119.131 1613.71 -0.50122 1587.88 113.563Z" stroke="#0A0F1D" stroke-width="2"/>
<path d="M1601.51 116.167C1575.18 232.409 1470.39 322.345 1321.86 373.654C1173.36 424.953 981.345 437.554 781.021 399.236C580.696 360.918 410.092 278.954 296.195 177.464C182.279 75.9555 125.229 -44.9385 151.553 -161.181C177.878 -277.423 282.673 -367.359 431.198 -418.667C579.696 -469.966 771.715 -482.568 972.04 -444.249C1172.36 -405.931 1342.97 -323.967 1456.87 -222.477C1570.78 -120.969 1627.83 -0.0750191 1601.51 116.167Z" stroke="#0A0F1D" stroke-width="2"/>
<path d="M1615.14 118.772C1588.32 237.192 1481.55 328.808 1330.24 381.072C1178.95 433.327 983.321 446.159 779.231 407.12C575.14 368.082 401.327 284.583 285.286 181.193C169.224 77.7854 111.095 -45.3726 137.913 -163.793C164.731 -282.213 271.499 -373.829 422.814 -426.093C574.103 -478.348 769.732 -491.179 973.823 -452.141C1177.91 -413.103 1351.73 -329.604 1467.77 -226.214C1583.83 -122.806 1641.96 0.351723 1615.14 118.772Z" stroke="#0A0F1D" stroke-width="2"/>
<path d="M1628.77 121.377C1601.46 241.975 1492.72 335.271 1338.62 388.49C1184.53 441.701 985.297 454.763 777.441 415.004C569.585 375.246 392.562 290.212 274.376 184.923C156.17 79.6153 96.9607 -45.8066 124.272 -166.405C151.583 -287.003 260.324 -380.299 414.431 -433.519C568.511 -486.729 767.749 -499.791 975.605 -460.032C1183.46 -420.274 1360.48 -335.24 1478.67 -229.951C1596.88 -124.643 1656.09 0.778495 1628.77 121.377Z" stroke="#0A0F1D" stroke-width="2"/>
<path d="M1642.41 123.981C1614.61 246.757 1503.89 341.733 1346.99 395.908C1190.12 450.073 987.276 463.367 775.655 422.888C564.033 382.409 383.801 295.84 263.47 188.651C143.12 81.4443 82.8307 -46.2415 110.635 -169.018C138.44 -291.794 249.154 -386.771 406.051 -440.945C562.922 -495.111 765.77 -508.404 977.392 -467.925C1189.01 -427.446 1369.25 -340.877 1489.58 -233.688C1609.93 -126.482 1670.22 1.20425 1642.41 123.981Z" stroke="#0A0F1D" stroke-width="2"/>
<path d="M1656.04 126.586C1627.74 251.54 1515.06 348.197 1355.37 403.327C1195.7 458.447 989.248 471.972 773.861 430.772C558.473 389.573 375.031 301.469 252.557 192.381C130.061 83.2745 68.6926 -46.6752 96.9903 -171.63C125.288 -296.584 237.975 -393.24 397.664 -448.37C557.326 -503.491 763.783 -517.015 979.17 -475.816C1194.56 -434.617 1378 -346.513 1500.47 -237.424C1622.97 -128.318 1684.34 1.63142 1656.04 126.586Z" stroke="#0A0F1D" stroke-width="2"/>
<path d="M1669.68 129.19C1640.89 256.323 1526.23 354.659 1363.75 410.745C1201.29 466.821 991.228 480.576 772.075 438.656C552.921 396.736 366.27 307.097 241.651 196.11C117.011 85.1039 54.5626 -47.1097 83.3536 -174.242C112.145 -301.375 226.804 -399.711 389.284 -455.797C551.738 -511.873 761.804 -525.628 980.957 -483.708C1200.11 -441.788 1386.76 -352.149 1511.38 -241.162C1636.02 -130.156 1698.47 2.0577 1669.68 129.19Z" stroke="#0A0F1D" stroke-width="2"/>
<path d="M1683.31 131.795C1654.03 261.105 1537.39 361.122 1372.12 418.162C1206.88 475.194 993.204 489.18 770.285 446.54C547.365 403.9 357.505 312.726 230.741 199.838C103.957 86.9333 40.4286 -47.5442 69.7128 -176.855C98.997 -306.166 215.63 -406.182 380.901 -463.223C546.145 -520.254 759.82 -534.24 982.74 -491.6C1205.66 -448.96 1395.52 -357.786 1522.28 -244.899C1649.07 -131.994 1712.6 2.48393 1683.31 131.795Z" stroke="#0A0F1D" stroke-width="2"/>
<path d="M1696.94 134.399C1667.17 265.887 1548.56 367.584 1380.5 425.58C1212.46 483.567 995.18 497.783 768.495 454.423C541.809 411.062 348.74 318.353 219.831 203.567C90.9025 88.7623 26.2945 -47.9793 56.072 -179.468C85.8495 -310.957 204.455 -412.653 372.517 -470.649C540.553 -528.636 757.837 -542.853 984.522 -499.492C1211.21 -456.132 1404.28 -363.423 1533.19 -248.636C1662.11 -133.832 1726.72 2.90967 1696.94 134.399Z" stroke="#0A0F1D" stroke-width="2"/>
<path d="M1710.58 137.004C1680.31 270.671 1559.73 374.047 1388.88 432.999C1218.05 491.941 997.16 506.388 766.709 462.307C536.258 418.227 339.979 323.983 208.926 207.297C77.8523 90.5925 12.1645 -48.4129 42.4353 -182.08C72.7061 -315.747 193.285 -419.123 364.138 -478.075C534.965 -537.017 755.858 -551.464 986.309 -507.383C1216.76 -463.303 1413.04 -369.059 1544.09 -252.373C1675.17 -135.669 1740.85 3.33687 1710.58 137.004Z" stroke="#0A0F1D" stroke-width="2"/>
</g>
</g>
</g>
</svg>
