<svg width="255" height="34" viewBox="0 0 255 34" fill="none" xmlns="http://www.w3.org/2000/svg">
<path d="M188.962 13.14C188.309 13.14 187.716 12.986 187.184 12.678C186.661 12.37 186.246 11.9547 185.938 11.432C185.639 10.9 185.49 10.312 185.49 9.668C185.49 9.01467 185.639 8.42667 185.938 7.904C186.246 7.38133 186.661 6.97067 187.184 6.672C187.716 6.364 188.309 6.21 188.962 6.21C189.475 6.21 189.951 6.308 190.39 6.504C190.829 6.69067 191.207 6.966 191.524 7.33L190.684 8.17C190.479 7.92733 190.227 7.74533 189.928 7.624C189.639 7.49333 189.317 7.428 188.962 7.428C188.542 7.428 188.169 7.526 187.842 7.722C187.515 7.90867 187.259 8.17 187.072 8.506C186.885 8.842 186.792 9.22933 186.792 9.668C186.792 10.1067 186.885 10.494 187.072 10.83C187.259 11.166 187.515 11.432 187.842 11.628C188.169 11.824 188.542 11.922 188.962 11.922C189.317 11.922 189.639 11.8613 189.928 11.74C190.227 11.6093 190.483 11.4227 190.698 11.18L191.524 12.02C191.216 12.3747 190.838 12.65 190.39 12.846C189.951 13.042 189.475 13.14 188.962 13.14ZM195.465 13.14C194.858 13.14 194.308 12.9907 193.813 12.692C193.318 12.384 192.926 11.9687 192.637 11.446C192.357 10.9233 192.217 10.3353 192.217 9.682C192.217 9.02867 192.357 8.44067 192.637 7.918C192.926 7.39533 193.314 6.98 193.799 6.672C194.294 6.364 194.849 6.21 195.465 6.21C195.969 6.21 196.417 6.31733 196.809 6.532C197.21 6.73733 197.532 7.02667 197.775 7.4C198.018 7.764 198.153 8.18867 198.181 8.674V10.676C198.153 11.152 198.018 11.5767 197.775 11.95C197.542 12.3233 197.224 12.6173 196.823 12.832C196.431 13.0373 195.978 13.14 195.465 13.14ZM195.675 11.95C196.3 11.95 196.804 11.74 197.187 11.32C197.57 10.8907 197.761 10.3447 197.761 9.682C197.761 9.22467 197.672 8.828 197.495 8.492C197.327 8.14667 197.084 7.88067 196.767 7.694C196.45 7.498 196.081 7.4 195.661 7.4C195.241 7.4 194.868 7.498 194.541 7.694C194.224 7.89 193.972 8.16067 193.785 8.506C193.608 8.842 193.519 9.22933 193.519 9.668C193.519 10.116 193.608 10.5127 193.785 10.858C193.972 11.194 194.228 11.46 194.555 11.656C194.882 11.852 195.255 11.95 195.675 11.95ZM197.677 13V11.208L197.915 9.584L197.677 7.974V6.35H198.951V13H197.677ZM202.899 13.14C202.526 13.14 202.171 13.0933 201.835 13C201.509 12.8973 201.205 12.7573 200.925 12.58C200.645 12.3933 200.403 12.174 200.197 11.922L201.009 11.11C201.252 11.4087 201.532 11.6327 201.849 11.782C202.167 11.922 202.521 11.992 202.913 11.992C203.305 11.992 203.609 11.9267 203.823 11.796C204.038 11.656 204.145 11.4647 204.145 11.222C204.145 10.9793 204.057 10.7927 203.879 10.662C203.711 10.522 203.492 10.41 203.221 10.326C202.951 10.2327 202.661 10.144 202.353 10.06C202.055 9.96667 201.77 9.85 201.499 9.71C201.229 9.57 201.005 9.37867 200.827 9.136C200.659 8.89333 200.575 8.57133 200.575 8.17C200.575 7.76867 200.673 7.42333 200.869 7.134C201.065 6.83533 201.336 6.60667 201.681 6.448C202.036 6.28933 202.461 6.21 202.955 6.21C203.478 6.21 203.94 6.30333 204.341 6.49C204.752 6.66733 205.088 6.938 205.349 7.302L204.537 8.114C204.351 7.87133 204.117 7.68467 203.837 7.554C203.567 7.42333 203.259 7.358 202.913 7.358C202.549 7.358 202.269 7.42333 202.073 7.554C201.887 7.67533 201.793 7.848 201.793 8.072C201.793 8.296 201.877 8.46867 202.045 8.59C202.213 8.71133 202.433 8.814 202.703 8.898C202.983 8.982 203.273 9.07067 203.571 9.164C203.87 9.248 204.155 9.36467 204.425 9.514C204.696 9.66333 204.915 9.864 205.083 10.116C205.261 10.368 205.349 10.6993 205.349 11.11C205.349 11.7353 205.125 12.23 204.677 12.594C204.239 12.958 203.646 13.14 202.899 13.14ZM206.774 13V6.35H208.034V13H206.774ZM207.404 5.02C207.171 5.02 206.979 4.94533 206.83 4.796C206.681 4.63733 206.606 4.44133 206.606 4.208C206.606 3.984 206.681 3.79733 206.83 3.648C206.979 3.48933 207.171 3.41 207.404 3.41C207.637 3.41 207.829 3.48933 207.978 3.648C208.127 3.79733 208.202 3.984 208.202 4.208C208.202 4.44133 208.127 4.63733 207.978 4.796C207.829 4.94533 207.637 5.02 207.404 5.02ZM214.595 13V9.122C214.595 8.618 214.436 8.20267 214.119 7.876C213.801 7.54933 213.391 7.386 212.887 7.386C212.551 7.386 212.252 7.46067 211.991 7.61C211.729 7.75933 211.524 7.96467 211.375 8.226C211.225 8.48733 211.151 8.786 211.151 9.122L210.633 8.828C210.633 8.324 210.745 7.876 210.969 7.484C211.193 7.092 211.505 6.784 211.907 6.56C212.308 6.32667 212.761 6.21 213.265 6.21C213.769 6.21 214.212 6.336 214.595 6.588C214.987 6.84 215.295 7.17133 215.519 7.582C215.743 7.98333 215.855 8.41267 215.855 8.87V13H214.595ZM209.891 13V6.35H211.151V13H209.891ZM220.599 13.14C219.945 13.14 219.357 12.986 218.835 12.678C218.312 12.37 217.897 11.9547 217.589 11.432C217.281 10.9 217.127 10.3073 217.127 9.654C217.127 9.01 217.281 8.43133 217.589 7.918C217.897 7.39533 218.312 6.98 218.835 6.672C219.357 6.364 219.945 6.21 220.599 6.21C221.243 6.21 221.826 6.364 222.349 6.672C222.881 6.97067 223.301 7.38133 223.609 7.904C223.917 8.42667 224.071 9.01 224.071 9.654C224.071 10.3073 223.917 10.9 223.609 11.432C223.301 11.9547 222.881 12.37 222.349 12.678C221.826 12.986 221.243 13.14 220.599 13.14ZM220.599 11.922C221.019 11.922 221.392 11.824 221.719 11.628C222.045 11.432 222.302 11.166 222.489 10.83C222.675 10.4847 222.769 10.0927 222.769 9.654C222.769 9.22467 222.671 8.842 222.475 8.506C222.288 8.17 222.031 7.90867 221.705 7.722C221.387 7.526 221.019 7.428 220.599 7.428C220.179 7.428 219.805 7.526 219.479 7.722C219.152 7.90867 218.895 8.17 218.709 8.506C218.522 8.842 218.429 9.22467 218.429 9.654C218.429 10.0927 218.522 10.4847 218.709 10.83C218.895 11.166 219.152 11.432 219.479 11.628C219.805 11.824 220.179 11.922 220.599 11.922ZM234.997 13L230.349 8.016C229.985 7.624 229.714 7.25067 229.537 6.896C229.359 6.54133 229.271 6.14933 229.271 5.72C229.271 5.22533 229.387 4.78667 229.621 4.404C229.854 4.012 230.176 3.704 230.587 3.48C230.997 3.24667 231.469 3.13 232.001 3.13C232.393 3.13 232.747 3.19533 233.065 3.326C233.391 3.44733 233.676 3.61067 233.919 3.816C234.171 4.02133 234.381 4.25467 234.549 4.516L233.639 5.342C233.424 5.04333 233.186 4.80533 232.925 4.628C232.673 4.44133 232.365 4.348 232.001 4.348C231.581 4.348 231.231 4.474 230.951 4.726C230.671 4.978 230.531 5.30467 230.531 5.706C230.531 6.042 230.601 6.32667 230.741 6.56C230.881 6.79333 231.091 7.064 231.371 7.372L236.537 13H234.997ZM231.511 13.14C230.867 13.14 230.302 13.014 229.817 12.762C229.331 12.51 228.953 12.1647 228.683 11.726C228.421 11.278 228.291 10.7693 228.291 10.2C228.291 9.612 228.449 9.08 228.767 8.604C229.084 8.128 229.546 7.75 230.153 7.47L230.755 8.254C230.381 8.44067 230.087 8.69733 229.873 9.024C229.658 9.34133 229.551 9.724 229.551 10.172C229.551 10.536 229.635 10.8487 229.803 11.11C229.971 11.3713 230.204 11.5767 230.503 11.726C230.811 11.866 231.161 11.936 231.553 11.936C232.047 11.936 232.467 11.8333 232.813 11.628C233.158 11.4227 233.419 11.1613 233.597 10.844L234.423 11.81C234.236 12.062 233.989 12.2907 233.681 12.496C233.382 12.692 233.046 12.8507 232.673 12.972C232.309 13.084 231.921 13.14 231.511 13.14ZM188.038 27.14C187.665 27.14 187.31 27.0933 186.974 27C186.647 26.8973 186.344 26.7573 186.064 26.58C185.784 26.3933 185.541 26.174 185.336 25.922L186.148 25.11C186.391 25.4087 186.671 25.6327 186.988 25.782C187.305 25.922 187.66 25.992 188.052 25.992C188.444 25.992 188.747 25.9267 188.962 25.796C189.177 25.656 189.284 25.4647 189.284 25.222C189.284 24.9793 189.195 24.7927 189.018 24.662C188.85 24.522 188.631 24.41 188.36 24.326C188.089 24.2327 187.8 24.144 187.492 24.06C187.193 23.9667 186.909 23.85 186.638 23.71C186.367 23.57 186.143 23.3787 185.966 23.136C185.798 22.8933 185.714 22.5713 185.714 22.17C185.714 21.7687 185.812 21.4233 186.008 21.134C186.204 20.8353 186.475 20.6067 186.82 20.448C187.175 20.2893 187.599 20.21 188.094 20.21C188.617 20.21 189.079 20.3033 189.48 20.49C189.891 20.6673 190.227 20.938 190.488 21.302L189.676 22.114C189.489 21.8713 189.256 21.6847 188.976 21.554C188.705 21.4233 188.397 21.358 188.052 21.358C187.688 21.358 187.408 21.4233 187.212 21.554C187.025 21.6753 186.932 21.848 186.932 22.072C186.932 22.296 187.016 22.4687 187.184 22.59C187.352 22.7113 187.571 22.814 187.842 22.898C188.122 22.982 188.411 23.0707 188.71 23.164C189.009 23.248 189.293 23.3647 189.564 23.514C189.835 23.6633 190.054 23.864 190.222 24.116C190.399 24.368 190.488 24.6993 190.488 25.11C190.488 25.7353 190.264 26.23 189.816 26.594C189.377 26.958 188.785 27.14 188.038 27.14ZM195.399 27.14C194.895 27.14 194.437 27.0373 194.027 26.832C193.625 26.6173 193.303 26.3233 193.061 25.95C192.818 25.5767 192.683 25.152 192.655 24.676V22.674C192.683 22.1887 192.818 21.764 193.061 21.4C193.313 21.0267 193.639 20.7373 194.041 20.532C194.451 20.3173 194.904 20.21 195.399 20.21C196.005 20.21 196.551 20.364 197.037 20.672C197.531 20.98 197.919 21.3953 198.199 21.918C198.479 22.4407 198.619 23.0287 198.619 23.682C198.619 24.3353 198.479 24.9233 198.199 25.446C197.919 25.9687 197.531 26.384 197.037 26.692C196.551 26.9907 196.005 27.14 195.399 27.14ZM195.189 25.95C195.609 25.95 195.977 25.852 196.295 25.656C196.612 25.46 196.864 25.194 197.051 24.858C197.237 24.5127 197.331 24.116 197.331 23.668C197.331 23.2293 197.237 22.8373 197.051 22.492C196.864 22.1467 196.612 21.8807 196.295 21.694C195.977 21.498 195.613 21.4 195.203 21.4C194.783 21.4 194.414 21.498 194.097 21.694C193.779 21.8807 193.532 22.1467 193.355 22.492C193.177 22.8373 193.089 23.234 193.089 23.682C193.089 24.1207 193.173 24.5127 193.341 24.858C193.518 25.194 193.765 25.46 194.083 25.656C194.409 25.852 194.778 25.95 195.189 25.95ZM191.899 29.786V20.35H193.159V22.1L192.921 23.71L193.159 25.334V29.786H191.899ZM203.085 27.14C202.432 27.14 201.844 26.986 201.321 26.678C200.798 26.37 200.383 25.9547 200.075 25.432C199.767 24.9 199.613 24.3073 199.613 23.654C199.613 23.01 199.767 22.4313 200.075 21.918C200.383 21.3953 200.798 20.98 201.321 20.672C201.844 20.364 202.432 20.21 203.085 20.21C203.729 20.21 204.312 20.364 204.835 20.672C205.367 20.9707 205.787 21.3813 206.095 21.904C206.403 22.4267 206.557 23.01 206.557 23.654C206.557 24.3073 206.403 24.9 206.095 25.432C205.787 25.9547 205.367 26.37 204.835 26.678C204.312 26.986 203.729 27.14 203.085 27.14ZM203.085 25.922C203.505 25.922 203.878 25.824 204.205 25.628C204.532 25.432 204.788 25.166 204.975 24.83C205.162 24.4847 205.255 24.0927 205.255 23.654C205.255 23.2247 205.157 22.842 204.961 22.506C204.774 22.17 204.518 21.9087 204.191 21.722C203.874 21.526 203.505 21.428 203.085 21.428C202.665 21.428 202.292 21.526 201.965 21.722C201.638 21.9087 201.382 22.17 201.195 22.506C201.008 22.842 200.915 23.2247 200.915 23.654C200.915 24.0927 201.008 24.4847 201.195 24.83C201.382 25.166 201.638 25.432 201.965 25.628C202.292 25.824 202.665 25.922 203.085 25.922ZM207.977 27V20.35H209.237V27H207.977ZM209.237 23.206L208.761 22.996C208.761 22.1467 208.957 21.47 209.349 20.966C209.741 20.462 210.305 20.21 211.043 20.21C211.379 20.21 211.682 20.2707 211.953 20.392C212.223 20.504 212.475 20.6953 212.709 20.966L211.883 21.82C211.743 21.6707 211.589 21.5633 211.421 21.498C211.253 21.4327 211.057 21.4 210.833 21.4C210.366 21.4 209.983 21.5493 209.685 21.848C209.386 22.1467 209.237 22.5993 209.237 23.206ZM214.591 27V17.564H215.851V27H214.591ZM212.953 21.498V20.35H217.489V21.498H212.953ZM220.7 27.14C220.327 27.14 219.972 27.0933 219.636 27C219.309 26.8973 219.006 26.7573 218.726 26.58C218.446 26.3933 218.203 26.174 217.998 25.922L218.81 25.11C219.053 25.4087 219.333 25.6327 219.65 25.782C219.967 25.922 220.322 25.992 220.714 25.992C221.106 25.992 221.409 25.9267 221.624 25.796C221.839 25.656 221.946 25.4647 221.946 25.222C221.946 24.9793 221.857 24.7927 221.68 24.662C221.512 24.522 221.293 24.41 221.022 24.326C220.751 24.2327 220.462 24.144 220.154 24.06C219.855 23.9667 219.571 23.85 219.3 23.71C219.029 23.57 218.805 23.3787 218.628 23.136C218.46 22.8933 218.376 22.5713 218.376 22.17C218.376 21.7687 218.474 21.4233 218.67 21.134C218.866 20.8353 219.137 20.6067 219.482 20.448C219.837 20.2893 220.261 20.21 220.756 20.21C221.279 20.21 221.741 20.3033 222.142 20.49C222.553 20.6673 222.889 20.938 223.15 21.302L222.338 22.114C222.151 21.8713 221.918 21.6847 221.638 21.554C221.367 21.4233 221.059 21.358 220.714 21.358C220.35 21.358 220.07 21.4233 219.874 21.554C219.687 21.6753 219.594 21.848 219.594 22.072C219.594 22.296 219.678 22.4687 219.846 22.59C220.014 22.7113 220.233 22.814 220.504 22.898C220.784 22.982 221.073 23.0707 221.372 23.164C221.671 23.248 221.955 23.3647 222.226 23.514C222.497 23.6633 222.716 23.864 222.884 24.116C223.061 24.368 223.15 24.6993 223.15 25.11C223.15 25.7353 222.926 26.23 222.478 26.594C222.039 26.958 221.447 27.14 220.7 27.14ZM228.061 27.14C227.557 27.14 227.099 27.0373 226.689 26.832C226.287 26.6173 225.965 26.3233 225.723 25.95C225.48 25.5767 225.345 25.152 225.317 24.676V22.674C225.345 22.1887 225.48 21.764 225.723 21.4C225.975 21.0267 226.301 20.7373 226.703 20.532C227.113 20.3173 227.566 20.21 228.061 20.21C228.667 20.21 229.213 20.364 229.699 20.672C230.193 20.98 230.581 21.3953 230.861 21.918C231.141 22.4407 231.281 23.0287 231.281 23.682C231.281 24.3353 231.141 24.9233 230.861 25.446C230.581 25.9687 230.193 26.384 229.699 26.692C229.213 26.9907 228.667 27.14 228.061 27.14ZM227.851 25.95C228.271 25.95 228.639 25.852 228.957 25.656C229.274 25.46 229.526 25.194 229.713 24.858C229.899 24.5127 229.993 24.116 229.993 23.668C229.993 23.2293 229.899 22.8373 229.713 22.492C229.526 22.1467 229.274 21.8807 228.957 21.694C228.639 21.498 228.275 21.4 227.865 21.4C227.445 21.4 227.076 21.498 226.759 21.694C226.441 21.8807 226.194 22.1467 226.017 22.492C225.839 22.8373 225.751 23.234 225.751 23.682C225.751 24.1207 225.835 24.5127 226.003 24.858C226.18 25.194 226.427 25.46 226.745 25.656C227.071 25.852 227.44 25.95 227.851 25.95ZM224.561 27V17.004H225.821V21.974L225.583 23.584L225.821 25.208V27H224.561ZM235.747 27.14C235.094 27.14 234.506 26.986 233.983 26.678C233.46 26.37 233.045 25.9547 232.737 25.432C232.429 24.9 232.275 24.3073 232.275 23.654C232.275 23.01 232.429 22.4313 232.737 21.918C233.045 21.3953 233.46 20.98 233.983 20.672C234.506 20.364 235.094 20.21 235.747 20.21C236.391 20.21 236.974 20.364 237.497 20.672C238.029 20.9707 238.449 21.3813 238.757 21.904C239.065 22.4267 239.219 23.01 239.219 23.654C239.219 24.3073 239.065 24.9 238.757 25.432C238.449 25.9547 238.029 26.37 237.497 26.678C236.974 26.986 236.391 27.14 235.747 27.14ZM235.747 25.922C236.167 25.922 236.54 25.824 236.867 25.628C237.194 25.432 237.45 25.166 237.637 24.83C237.824 24.4847 237.917 24.0927 237.917 23.654C237.917 23.2247 237.819 22.842 237.623 22.506C237.436 22.17 237.18 21.9087 236.853 21.722C236.536 21.526 236.167 21.428 235.747 21.428C235.327 21.428 234.954 21.526 234.627 21.722C234.3 21.9087 234.044 22.17 233.857 22.506C233.67 22.842 233.577 23.2247 233.577 23.654C233.577 24.0927 233.67 24.4847 233.857 24.83C234.044 25.166 234.3 25.432 234.627 25.628C234.954 25.824 235.327 25.922 235.747 25.922ZM243.677 27.14C243.024 27.14 242.436 26.986 241.913 26.678C241.39 26.37 240.975 25.9547 240.667 25.432C240.359 24.9 240.205 24.3073 240.205 23.654C240.205 23.01 240.359 22.4313 240.667 21.918C240.975 21.3953 241.39 20.98 241.913 20.672C242.436 20.364 243.024 20.21 243.677 20.21C244.321 20.21 244.904 20.364 245.427 20.672C245.959 20.9707 246.379 21.3813 246.687 21.904C246.995 22.4267 247.149 23.01 247.149 23.654C247.149 24.3073 246.995 24.9 246.687 25.432C246.379 25.9547 245.959 26.37 245.427 26.678C244.904 26.986 244.321 27.14 243.677 27.14ZM243.677 25.922C244.097 25.922 244.47 25.824 244.797 25.628C245.124 25.432 245.38 25.166 245.567 24.83C245.754 24.4847 245.847 24.0927 245.847 23.654C245.847 23.2247 245.749 22.842 245.553 22.506C245.366 22.17 245.11 21.9087 244.783 21.722C244.466 21.526 244.097 21.428 243.677 21.428C243.257 21.428 242.884 21.526 242.557 21.722C242.23 21.9087 241.974 22.17 241.787 22.506C241.6 22.842 241.507 23.2247 241.507 23.654C241.507 24.0927 241.6 24.4847 241.787 24.83C241.974 25.166 242.23 25.432 242.557 25.628C242.884 25.824 243.257 25.922 243.677 25.922ZM252.825 27L249.717 23.598L252.797 20.35H254.323L250.893 23.934L250.949 23.206L254.449 27H252.825ZM248.569 27V17.004H249.829V27H248.569Z" fill="#EDE8FB"/>
<path d="M56.222 26.3799C54.55 26.3799 53.0427 25.9746 51.7 25.1639C50.3573 24.3279 49.2933 23.2006 48.508 21.7819C47.748 20.3633 47.368 18.7673 47.368 16.9939C47.368 15.2206 47.748 13.6246 48.508 12.2059C49.2933 10.7873 50.3573 9.65994 51.7 8.82394C53.0427 7.98794 54.5373 7.56994 56.184 7.56994C57.5773 7.56994 58.806 7.86127 59.87 8.44394C60.9593 9.00127 61.8207 9.78661 62.454 10.7999C63.1127 11.7879 63.48 12.9406 63.556 14.2579V19.6919C63.48 20.9839 63.1127 22.1366 62.454 23.1499C61.8207 24.1633 60.9593 24.9613 59.87 25.5439C58.806 26.1013 57.59 26.3799 56.222 26.3799ZM56.754 23.1499C58.4513 23.1499 59.8193 22.5799 60.858 21.4399C61.8967 20.2746 62.416 18.7926 62.416 16.9939C62.416 15.7526 62.1753 14.6759 61.694 13.7639C61.238 12.8266 60.5793 12.1046 59.718 11.5979C58.882 11.0659 57.894 10.7999 56.754 10.7999C55.614 10.7999 54.6007 11.0659 53.714 11.5979C52.8527 12.1299 52.1687 12.8646 51.662 13.8019C51.1553 14.7139 50.902 15.7653 50.902 16.9559C50.902 18.1719 51.1553 19.2486 51.662 20.1859C52.1687 21.0979 52.8527 21.8199 53.714 22.3519C54.6007 22.8839 55.614 23.1499 56.754 23.1499ZM62.226 33.5619V21.4779L62.834 17.0699L62.226 12.6999V7.94994H65.646V33.5619H62.226Z" fill="#EDE8FB"/>
<path d="M77.9203 26.3799C76.451 26.3799 75.121 26.0506 73.9303 25.3919C72.765 24.7079 71.853 23.7706 71.1943 22.5799C70.5356 21.3893 70.2063 20.0086 70.2063 18.4379V7.94994H73.6263V18.2859C73.6263 19.2739 73.791 20.1353 74.1203 20.8699C74.475 21.5793 74.9816 22.1239 75.6403 22.5039C76.299 22.8839 77.0716 23.0739 77.9583 23.0739C79.301 23.0739 80.3523 22.6559 81.1123 21.8199C81.8723 20.9586 82.2523 19.7806 82.2523 18.2859V7.94994H85.6723V18.4379C85.6723 20.0086 85.343 21.3893 84.6843 22.5799C84.0256 23.7706 83.1136 24.7079 81.9483 25.3919C80.8083 26.0506 79.4656 26.3799 77.9203 26.3799Z" fill="#EDE8FB"/>
<path d="M97.9321 26.3799C96.2854 26.3799 94.7907 25.9746 93.4481 25.1639C92.1054 24.3279 91.0414 23.2006 90.2561 21.7819C89.4961 20.3633 89.1161 18.7673 89.1161 16.9939C89.1161 15.2206 89.4961 13.6246 90.2561 12.2059C91.0414 10.7873 92.0927 9.65994 93.4101 8.82394C94.7527 7.98794 96.2601 7.56994 97.9321 7.56994C99.3001 7.56994 100.516 7.86127 101.58 8.44394C102.669 9.00127 103.543 9.78661 104.202 10.7999C104.861 11.7879 105.228 12.9406 105.304 14.2579V19.6919C105.228 20.9839 104.861 22.1366 104.202 23.1499C103.569 24.1633 102.707 24.9613 101.618 25.5439C100.554 26.1013 99.3254 26.3799 97.9321 26.3799ZM98.5021 23.1499C100.199 23.1499 101.567 22.5799 102.606 21.4399C103.645 20.2746 104.164 18.7926 104.164 16.9939C104.164 15.7526 103.923 14.6759 103.442 13.7639C102.986 12.8266 102.327 12.1046 101.466 11.5979C100.605 11.0659 99.6041 10.7999 98.4641 10.7999C97.3241 10.7999 96.3107 11.0659 95.4241 11.5979C94.5627 12.1299 93.8787 12.8646 93.3721 13.8019C92.8907 14.7139 92.6501 15.7653 92.6501 16.9559C92.6501 18.1719 92.8907 19.2486 93.3721 20.1859C93.8787 21.0979 94.5754 21.8199 95.4621 22.3519C96.3487 22.8839 97.3621 23.1499 98.5021 23.1499ZM103.936 25.9999V21.1359L104.582 16.7279L103.936 12.3579V7.94994H107.394V25.9999H103.936Z" fill="#EDE8FB"/>
<path d="M115.147 25.9999V0.387939H118.567V25.9999H115.147ZM110.701 11.0659V7.94994H133.767V11.0659H110.701ZM125.901 25.9999V0.387939H129.321V25.9999H125.901Z" fill="#EDE8FB"/>
<path d="M137.125 25.9999V7.94994H140.545V25.9999H137.125ZM140.545 15.7019L139.253 15.1319C139.253 12.8266 139.785 10.9899 140.849 9.62194C141.913 8.25394 143.446 7.56994 145.447 7.56994C146.359 7.56994 147.183 7.73461 147.917 8.06394C148.652 8.36794 149.336 8.88727 149.969 9.62194L147.727 11.9399C147.347 11.5346 146.929 11.2433 146.473 11.0659C146.017 10.8886 145.485 10.7999 144.877 10.7999C143.611 10.7999 142.572 11.2053 141.761 12.0159C140.951 12.8266 140.545 14.0553 140.545 15.7019Z" fill="#EDE8FB"/>
<path d="M160.029 26.3799C158.256 26.3799 156.66 25.9619 155.241 25.1259C153.823 24.2899 152.695 23.1626 151.859 21.7439C151.023 20.2999 150.605 18.6913 150.605 16.9179C150.605 15.1699 151.023 13.5993 151.859 12.2059C152.695 10.7873 153.823 9.65994 155.241 8.82394C156.66 7.98794 158.256 7.56994 160.029 7.56994C161.777 7.56994 163.361 7.98794 164.779 8.82394C166.223 9.63461 167.363 10.7493 168.199 12.1679C169.035 13.5866 169.453 15.1699 169.453 16.9179C169.453 18.6913 169.035 20.2999 168.199 21.7439C167.363 23.1626 166.223 24.2899 164.779 25.1259C163.361 25.9619 161.777 26.3799 160.029 26.3799ZM160.029 23.0739C161.169 23.0739 162.183 22.8079 163.069 22.2759C163.956 21.7439 164.653 21.0219 165.159 20.1099C165.666 19.1726 165.919 18.1086 165.919 16.9179C165.919 15.7526 165.653 14.7139 165.121 13.8019C164.615 12.8899 163.918 12.1806 163.031 11.6739C162.17 11.1419 161.169 10.8759 160.029 10.8759C158.889 10.8759 157.876 11.1419 156.989 11.6739C156.103 12.1806 155.406 12.8899 154.899 13.8019C154.393 14.7139 154.139 15.7526 154.139 16.9179C154.139 18.1086 154.393 19.1726 154.899 20.1099C155.406 21.0219 156.103 21.7439 156.989 22.2759C157.876 22.8079 158.889 23.0739 160.029 23.0739Z" fill="#EDE8FB"/>
<rect y="12.6655" width="8.72154" height="8.72154" fill="#EDE8FB"/>
<rect x="21.2773" y="12.6655" width="8.72154" height="8.72154" fill="#6766F6"/>
<rect x="10.6133" y="23.3311" width="8.72154" height="8.72154" fill="#63D4B4"/>
<rect x="10.6133" y="2" width="8.72154" height="8.72154" fill="#EDE8FB"/>
<path d="M8.72154 2V10.7215H0C2.92174 7.82883 5.82858 4.92149 8.72154 2Z" fill="#EA3589"/>
<path d="M30 10.7215H21.2785V2C24.1712 4.92174 27.0785 7.82858 30 10.7215Z" fill="#EDE8FB"/>
<path d="M0 23.3309H8.72154V32.0525C5.82883 29.1308 2.92149 26.2239 0 23.3309Z" fill="#EDE8FB"/>
<path d="M21 23.3309H29.7215V32.0525C26.8288 29.1308 23.9215 26.2239 21 23.3309Z" fill="#F4BA40"/>
</svg>
