<svg width="243" height="31" viewBox="0 0 243 31" fill="none" xmlns="http://www.w3.org/2000/svg">
<rect x="166" y="2" width="77" height="27" rx="13.5" fill="#DFDCF6"/>
<path d="M189.096 19.14C188.434 19.14 187.832 18.986 187.29 18.678C186.758 18.37 186.338 17.95 186.03 17.418C185.722 16.886 185.568 16.2933 185.568 15.64C185.568 14.9773 185.722 14.3846 186.03 13.862C186.338 13.33 186.758 12.91 187.29 12.602C187.832 12.294 188.434 12.14 189.096 12.14C189.619 12.14 190.104 12.2426 190.552 12.448C191.01 12.644 191.397 12.9286 191.714 13.302L190.706 14.324C190.51 14.0906 190.272 13.918 189.992 13.806C189.722 13.6846 189.423 13.624 189.096 13.624C188.714 13.624 188.373 13.7126 188.074 13.89C187.785 14.058 187.556 14.2913 187.388 14.59C187.23 14.8886 187.15 15.2386 187.15 15.64C187.15 16.032 187.23 16.382 187.388 16.69C187.556 16.9886 187.785 17.2266 188.074 17.404C188.373 17.572 188.714 17.656 189.096 17.656C189.423 17.656 189.722 17.6 189.992 17.488C190.272 17.3666 190.51 17.1893 190.706 16.956L191.714 17.978C191.397 18.3513 191.01 18.6406 190.552 18.846C190.104 19.042 189.619 19.14 189.096 19.14Z" fill="#4F4A81"/>
<path d="M195.502 19.14C194.895 19.14 194.345 18.986 193.85 18.678C193.365 18.37 192.977 17.9546 192.688 17.432C192.408 16.9 192.268 16.3073 192.268 15.654C192.268 14.9913 192.408 14.3986 192.688 13.876C192.977 13.344 193.365 12.924 193.85 12.616C194.345 12.2986 194.895 12.14 195.502 12.14C196.015 12.14 196.468 12.252 196.86 12.476C197.261 12.6906 197.579 12.9893 197.812 13.372C198.045 13.7546 198.162 14.1886 198.162 14.674V16.606C198.162 17.0913 198.045 17.5253 197.812 17.908C197.588 18.2906 197.275 18.594 196.874 18.818C196.473 19.0326 196.015 19.14 195.502 19.14ZM195.754 17.684C196.323 17.684 196.781 17.4926 197.126 17.11C197.481 16.7273 197.658 16.2373 197.658 15.64C197.658 15.2386 197.579 14.884 197.42 14.576C197.261 14.268 197.037 14.03 196.748 13.862C196.468 13.6846 196.137 13.596 195.754 13.596C195.381 13.596 195.049 13.6846 194.76 13.862C194.48 14.03 194.256 14.268 194.088 14.576C193.929 14.884 193.85 15.2386 193.85 15.64C193.85 16.0413 193.929 16.396 194.088 16.704C194.256 17.012 194.48 17.2546 194.76 17.432C195.049 17.6 195.381 17.684 195.754 17.684ZM197.56 19V17.194L197.826 15.556L197.56 13.932V12.28H199.1V19H197.56Z" fill="#4F4A81"/>
<path d="M203.007 19.14C202.634 19.14 202.274 19.0933 201.929 19C201.584 18.8973 201.266 18.7573 200.977 18.58C200.688 18.3933 200.436 18.1693 200.221 17.908L201.201 16.928C201.434 17.1986 201.7 17.404 201.999 17.544C202.307 17.6746 202.652 17.74 203.035 17.74C203.38 17.74 203.642 17.6886 203.819 17.586C203.996 17.4833 204.085 17.334 204.085 17.138C204.085 16.9326 204.001 16.774 203.833 16.662C203.665 16.55 203.446 16.4566 203.175 16.382C202.914 16.298 202.634 16.214 202.335 16.13C202.046 16.046 201.766 15.934 201.495 15.794C201.234 15.6446 201.019 15.444 200.851 15.192C200.683 14.94 200.599 14.6133 200.599 14.212C200.599 13.7826 200.697 13.414 200.893 13.106C201.098 12.798 201.383 12.56 201.747 12.392C202.12 12.224 202.564 12.14 203.077 12.14C203.618 12.14 204.094 12.238 204.505 12.434C204.925 12.6206 205.275 12.9053 205.555 13.288L204.575 14.268C204.379 14.0253 204.155 13.8433 203.903 13.722C203.651 13.6006 203.362 13.54 203.035 13.54C202.727 13.54 202.489 13.5866 202.321 13.68C202.153 13.7733 202.069 13.9086 202.069 14.086C202.069 14.2726 202.153 14.4173 202.321 14.52C202.489 14.6226 202.704 14.7113 202.965 14.786C203.236 14.8606 203.516 14.9446 203.805 15.038C204.104 15.122 204.384 15.2433 204.645 15.402C204.916 15.5513 205.135 15.7566 205.303 16.018C205.471 16.27 205.555 16.6013 205.555 17.012C205.555 17.6653 205.326 18.1833 204.869 18.566C204.412 18.9486 203.791 19.14 203.007 19.14Z" fill="#4F4A81"/>
<path d="M206.839 19V12.28H208.379V19H206.839ZM207.609 11.048C207.347 11.048 207.128 10.9593 206.951 10.782C206.783 10.6046 206.699 10.3853 206.699 10.124C206.699 9.86262 206.783 9.64328 206.951 9.46595C207.128 9.28862 207.347 9.19995 207.609 9.19995C207.879 9.19995 208.099 9.28862 208.267 9.46595C208.435 9.64328 208.519 9.86262 208.519 10.124C208.519 10.3853 208.435 10.6046 208.267 10.782C208.099 10.9593 207.879 11.048 207.609 11.048Z" fill="#4F4A81"/>
<path d="M214.712 19V15.122C214.712 14.674 214.567 14.3053 214.278 14.016C213.998 13.7266 213.634 13.582 213.186 13.582C212.887 13.582 212.621 13.6473 212.388 13.778C212.155 13.9086 211.973 14.0906 211.842 14.324C211.711 14.5573 211.646 14.8233 211.646 15.122L211.044 14.786C211.044 14.2726 211.156 13.82 211.38 13.428C211.604 13.0266 211.912 12.714 212.304 12.49C212.705 12.2566 213.153 12.14 213.648 12.14C214.152 12.14 214.6 12.2706 214.992 12.532C215.384 12.784 215.692 13.1153 215.916 13.526C216.14 13.9273 216.252 14.3473 216.252 14.786V19H214.712ZM210.106 19V12.28H211.646V19H210.106Z" fill="#4F4A81"/>
<path d="M220.897 19.14C220.243 19.14 219.651 18.986 219.119 18.678C218.587 18.3606 218.162 17.936 217.845 17.404C217.537 16.872 217.383 16.2793 217.383 15.626C217.383 14.9726 217.537 14.3846 217.845 13.862C218.162 13.3393 218.587 12.924 219.119 12.616C219.651 12.2986 220.243 12.14 220.897 12.14C221.559 12.14 222.157 12.294 222.689 12.602C223.221 12.91 223.641 13.33 223.949 13.862C224.266 14.3846 224.425 14.9726 224.425 15.626C224.425 16.2793 224.266 16.872 223.949 17.404C223.641 17.936 223.221 18.3606 222.689 18.678C222.157 18.986 221.559 19.14 220.897 19.14ZM220.897 17.656C221.279 17.656 221.615 17.572 221.905 17.404C222.203 17.2266 222.432 16.984 222.591 16.676C222.759 16.368 222.843 16.018 222.843 15.626C222.843 15.234 222.759 14.8886 222.591 14.59C222.423 14.2913 222.194 14.058 221.905 13.89C221.615 13.7126 221.279 13.624 220.897 13.624C220.523 13.624 220.187 13.7126 219.889 13.89C219.599 14.058 219.371 14.2913 219.203 14.59C219.044 14.8886 218.965 15.234 218.965 15.626C218.965 16.018 219.044 16.368 219.203 16.676C219.371 16.984 219.599 17.2266 219.889 17.404C220.187 17.572 220.523 17.656 220.897 17.656Z" fill="#4F4A81"/>
<path d="M55.0701 23.3C53.7501 23.3 52.5601 22.98 51.5001 22.34C50.4401 21.68 49.6001 20.79 48.9801 19.67C48.3801 18.55 48.0801 17.29 48.0801 15.89C48.0801 14.49 48.3801 13.23 48.9801 12.11C49.6001 10.99 50.4401 10.1 51.5001 9.44003C52.5601 8.78003 53.7401 8.45003 55.0401 8.45003C56.1401 8.45003 57.1101 8.68003 57.9501 9.14003C58.8101 9.58003 59.4901 10.2 59.9901 11C60.5101 11.78 60.8001 12.69 60.8601 13.73V18.02C60.8001 19.04 60.5101 19.95 59.9901 20.75C59.4901 21.55 58.8101 22.18 57.9501 22.64C57.1101 23.08 56.1501 23.3 55.0701 23.3ZM55.4901 20.75C56.8301 20.75 57.9101 20.3 58.7301 19.4C59.5501 18.48 59.9601 17.31 59.9601 15.89C59.9601 14.91 59.7701 14.06 59.3901 13.34C59.0301 12.6 58.5101 12.03 57.8301 11.63C57.1701 11.21 56.3901 11 55.4901 11C54.5901 11 53.7901 11.21 53.0901 11.63C52.4101 12.05 51.8701 12.63 51.4701 13.37C51.0701 14.09 50.8701 14.92 50.8701 15.86C50.8701 16.82 51.0701 17.67 51.4701 18.41C51.8701 19.13 52.4101 19.7 53.0901 20.12C53.7901 20.54 54.5901 20.75 55.4901 20.75ZM59.8101 28.97V19.43L60.2901 15.95L59.8101 12.5V8.75003H62.5101V28.97H59.8101Z" fill="#151339"/>
<path d="M72.2003 23.3C71.0403 23.3 69.9903 23.04 69.0503 22.52C68.1303 21.98 67.4103 21.24 66.8903 20.3C66.3703 19.36 66.1103 18.27 66.1103 17.03V8.75003H68.8103V16.91C68.8103 17.69 68.9403 18.37 69.2003 18.95C69.4803 19.51 69.8803 19.94 70.4003 20.24C70.9203 20.54 71.5303 20.69 72.2303 20.69C73.2903 20.69 74.1203 20.36 74.7203 19.7C75.3203 19.02 75.6203 18.09 75.6203 16.91V8.75003H78.3203V17.03C78.3203 18.27 78.0603 19.36 77.5403 20.3C77.0203 21.24 76.3003 21.98 75.3803 22.52C74.4803 23.04 73.4203 23.3 72.2003 23.3Z" fill="#151339"/>
<path d="M87.9991 23.3C86.6991 23.3 85.5191 22.98 84.4591 22.34C83.3991 21.68 82.5591 20.79 81.9391 19.67C81.3391 18.55 81.0391 17.29 81.0391 15.89C81.0391 14.49 81.3391 13.23 81.9391 12.11C82.5591 10.99 83.3891 10.1 84.4291 9.44003C85.4891 8.78003 86.6791 8.45003 87.9991 8.45003C89.0791 8.45003 90.0391 8.68003 90.8791 9.14003C91.7391 9.58003 92.4291 10.2 92.9491 11C93.4691 11.78 93.7591 12.69 93.8191 13.73V18.02C93.7591 19.04 93.4691 19.95 92.9491 20.75C92.4491 21.55 91.7691 22.18 90.9091 22.64C90.0691 23.08 89.0991 23.3 87.9991 23.3ZM88.4491 20.75C89.7891 20.75 90.8691 20.3 91.6891 19.4C92.5091 18.48 92.9191 17.31 92.9191 15.89C92.9191 14.91 92.7291 14.06 92.3491 13.34C91.9891 12.6 91.4691 12.03 90.7891 11.63C90.1091 11.21 89.3191 11 88.4191 11C87.5191 11 86.7191 11.21 86.0191 11.63C85.3391 12.05 84.7991 12.63 84.3991 13.37C84.0191 14.09 83.8291 14.92 83.8291 15.86C83.8291 16.82 84.0191 17.67 84.3991 18.41C84.7991 19.13 85.3491 19.7 86.0491 20.12C86.7491 20.54 87.5491 20.75 88.4491 20.75ZM92.7391 23V19.16L93.2491 15.68L92.7391 12.23V8.75003H95.4691V23H92.7391Z" fill="#151339"/>
<path d="M101.59 23V2.78003H104.29V23H101.59ZM98.08 11.21V8.75003H116.29V11.21H98.08ZM110.08 23V2.78003H112.78V23H110.08Z" fill="#151339"/>
<path d="M118.941 23V8.75003H121.641V23H118.941ZM121.641 14.87L120.621 14.42C120.621 12.6 121.041 11.15 121.881 10.07C122.721 8.99003 123.931 8.45003 125.511 8.45003C126.231 8.45003 126.881 8.58003 127.461 8.84003C128.041 9.08003 128.581 9.49003 129.081 10.07L127.311 11.9C127.011 11.58 126.681 11.35 126.321 11.21C125.961 11.07 125.541 11 125.061 11C124.061 11 123.241 11.32 122.601 11.96C121.961 12.6 121.641 13.57 121.641 14.87Z" fill="#151339"/>
<path d="M137.023 23.3C135.623 23.3 134.363 22.97 133.243 22.31C132.123 21.65 131.233 20.76 130.573 19.64C129.913 18.5 129.583 17.23 129.583 15.83C129.583 14.45 129.913 13.21 130.573 12.11C131.233 10.99 132.123 10.1 133.243 9.44003C134.363 8.78003 135.623 8.45003 137.023 8.45003C138.403 8.45003 139.653 8.78003 140.773 9.44003C141.913 10.08 142.813 10.96 143.473 12.08C144.133 13.2 144.463 14.45 144.463 15.83C144.463 17.23 144.133 18.5 143.473 19.64C142.813 20.76 141.913 21.65 140.773 22.31C139.653 22.97 138.403 23.3 137.023 23.3ZM137.023 20.69C137.923 20.69 138.723 20.48 139.423 20.06C140.123 19.64 140.673 19.07 141.073 18.35C141.473 17.61 141.673 16.77 141.673 15.83C141.673 14.91 141.463 14.09 141.043 13.37C140.643 12.65 140.093 12.09 139.393 11.69C138.713 11.27 137.923 11.06 137.023 11.06C136.123 11.06 135.323 11.27 134.623 11.69C133.923 12.09 133.373 12.65 132.973 13.37C132.573 14.09 132.373 14.91 132.373 15.83C132.373 16.77 132.573 17.61 132.973 18.35C133.373 19.07 133.923 19.64 134.623 20.06C135.323 20.48 136.123 20.69 137.023 20.69Z" fill="#151339"/>
<rect y="10.6655" width="8.72154" height="8.72154" fill="#151339"/>
<rect x="21.2783" y="10.6655" width="8.72154" height="8.72154" fill="#6766F6"/>
<rect x="10.613" y="21.3311" width="8.72154" height="8.72154" fill="#63D4B4"/>
<rect x="10.613" width="8.72154" height="8.72154" fill="#151339"/>
<path d="M8.72154 0V8.72154H0C2.92174 5.82883 5.82858 2.92149 8.72154 0Z" fill="#EA3589"/>
<path d="M30 8.72154H21.2785V0C24.1712 2.92174 27.0785 5.82858 30 8.72154Z" fill="#151339"/>
<path d="M0 21.3309H8.72154V30.0525C5.82883 27.1308 2.92149 24.2239 0 21.3309Z" fill="#151339"/>
<path d="M21 21.3309H29.7215V30.0525C26.8288 27.1308 23.9215 24.2239 21 21.3309Z" fill="#F4BA40"/>
</svg>
