<svg id="eMIRLxyeoSF1" xmlns="http://www.w3.org/2000/svg" xmlns:xlink="http://www.w3.org/1999/xlink" viewBox="0 0 39 56" shape-rendering="geometricPrecision" text-rendering="geometricPrecision">
<style><![CDATA[
#eMIRLxyeoSF5_to {animation: eMIRLxyeoSF5_to__to 5000ms linear infinite normal forwards}@keyframes eMIRLxyeoSF5_to__to { 0% {transform: translate(111.325478px,186.156381px);animation-timing-function: cubic-bezier(0,0,0.01,1)} 19.4% {transform: translate(114.325478px,164.156381px)} 30.8% {transform: translate(114.325478px,164.156381px);animation-timing-function: cubic-bezier(1,0.01,1,1)} 41.6% {transform: translate(111.325478px,186.156381px)} 100% {transform: translate(111.325478px,186.156381px)}} #eMIRLxyeoSF5_tr {animation: eMIRLxyeoSF5_tr__tr 5000ms linear infinite normal forwards}@keyframes eMIRLxyeoSF5_tr__tr { 0% {transform: rotate(0deg);animation-timing-function: cubic-bezier(0,0,0.01,1)} 22.6% {transform: rotate(40deg)} 30.8% {transform: rotate(40deg);animation-timing-function: cubic-bezier(1,0.01,1,1)} 41.6% {transform: rotate(0deg)} 100% {transform: rotate(0deg)}} #eMIRLxyeoSF5_ts {animation: eMIRLxyeoSF5_ts__ts 5000ms linear infinite normal forwards}@keyframes eMIRLxyeoSF5_ts__ts { 0% {transform: scale(0.599779,0.599779);animation-timing-function: cubic-bezier(0,0,0.01,1)} 22.6% {transform: scale(0.82,0.82)} 30.8% {transform: scale(0.82,0.82);animation-timing-function: cubic-bezier(1,0.01,1,1)} 41.6% {transform: scale(0.6,0.6)} 100% {transform: scale(0.6,0.6)}} #eMIRLxyeoSF12_ts {animation: eMIRLxyeoSF12_ts__ts 5000ms linear infinite normal forwards}@keyframes eMIRLxyeoSF12_ts__ts { 0% {transform: translate(110.808102px,192.130641px) scale(1,1);animation-timing-function: cubic-bezier(0,0,0.01,1)} 22.6% {transform: translate(110.808102px,192.130641px) scale(1,0.8)} 30.8% {transform: translate(110.808102px,192.130641px) scale(1,0.8);animation-timing-function: cubic-bezier(1,0.01,1,1)} 41.6% {transform: translate(110.808102px,192.130641px) scale(1,1)} 44.8% {transform: translate(110.808102px,192.130641px) scale(1,0.9)} 47.8% {transform: translate(110.808102px,192.130641px) scale(1,1)} 100% {transform: translate(110.808102px,192.130641px) scale(1,1)}} #eMIRLxyeoSF17_to {animation: eMIRLxyeoSF17_to__to 5000ms linear infinite normal forwards}@keyframes eMIRLxyeoSF17_to__to { 0% {transform: translate(110.809315px,162.014711px);animation-timing-function: cubic-bezier(0,0,0.01,1)} 22.6% {transform: translate(106.809315px,147.014711px)} 30.8% {transform: translate(106.809315px,147.014711px);animation-timing-function: cubic-bezier(1,0.01,1,1)} 41.6% {transform: translate(110.809315px,162.014711px)} 44.8% {transform: translate(110.809315px,164.014711px)} 47.8% {transform: translate(110.809315px,162.014711px)} 100% {transform: translate(110.809315px,162.014711px)}} #eMIRLxyeoSF17_tr {animation: eMIRLxyeoSF17_tr__tr 5000ms linear infinite normal forwards}@keyframes eMIRLxyeoSF17_tr__tr { 0% {transform: rotate(0deg);animation-timing-function: cubic-bezier(0,0,0.01,1)} 22.6% {transform: rotate(-15deg)} 30.8% {transform: rotate(-15deg);animation-timing-function: cubic-bezier(1,0.01,1,1)} 41.6% {transform: rotate(0deg)} 100% {transform: rotate(0deg)}} #eMIRLxyeoSF28_to {animation: eMIRLxyeoSF28_to__to 5000ms linear infinite normal forwards}@keyframes eMIRLxyeoSF28_to__to { 0% {transform: translate(35.94091px,-6.480105px)} 14% {transform: translate(35.94091px,-6.480105px);animation-timing-function: cubic-bezier(0,0.665,0.28,1)} 22% {transform: translate(21.127313px,-15.520945px)} 100% {transform: translate(21.127313px,-15.520945px)}} #eMIRLxyeoSF28_tr {animation: eMIRLxyeoSF28_tr__tr 5000ms linear infinite normal forwards}@keyframes eMIRLxyeoSF28_tr__tr { 0% {transform: rotate(0deg)} 14% {transform: rotate(0deg)} 22% {transform: rotate(60deg)} 100% {transform: rotate(60deg)}} #eMIRLxyeoSF28_ts {animation: eMIRLxyeoSF28_ts__ts 5000ms linear infinite normal forwards}@keyframes eMIRLxyeoSF28_ts__ts { 0% {transform: scale(0,0)} 14% {transform: scale(0,0);animation-timing-function: cubic-bezier(0,0.665,0.28,1)} 22% {transform: scale(0.8,0.8)} 100% {transform: scale(0.8,0.8)}} #eMIRLxyeoSF28 {animation: eMIRLxyeoSF28_c_o 5000ms linear infinite normal forwards}@keyframes eMIRLxyeoSF28_c_o { 0% {opacity: 0} 14% {opacity: 0} 16.6% {opacity: 1} 19.4% {opacity: 1} 22% {opacity: 0} 100% {opacity: 0}} #eMIRLxyeoSF30_to {animation: eMIRLxyeoSF30_to__to 5000ms linear infinite normal forwards}@keyframes eMIRLxyeoSF30_to__to { 0% {transform: translate(27.425998px,-22.712817px)} 12% {transform: translate(27.425998px,-22.712817px);animation-timing-function: cubic-bezier(0,0.665,0.28,1)} 20% {transform: translate(47.835992px,-27.817508px)} 100% {transform: translate(47.835992px,-27.817508px)}} #eMIRLxyeoSF30_tr {animation: eMIRLxyeoSF30_tr__tr 5000ms linear infinite normal forwards}@keyframes eMIRLxyeoSF30_tr__tr { 0% {transform: rotate(0deg)} 12% {transform: rotate(0deg)} 20% {transform: rotate(60deg)} 100% {transform: rotate(60deg)}} #eMIRLxyeoSF30_ts {animation: eMIRLxyeoSF30_ts__ts 5000ms linear infinite normal forwards}@keyframes eMIRLxyeoSF30_ts__ts { 0% {transform: scale(0,0)} 12% {transform: scale(0,0);animation-timing-function: cubic-bezier(0,0.665,0.28,1)} 20% {transform: scale(1,1)} 100% {transform: scale(1,1)}} #eMIRLxyeoSF30 {animation: eMIRLxyeoSF30_c_o 5000ms linear infinite normal forwards}@keyframes eMIRLxyeoSF30_c_o { 0% {opacity: 0} 12% {opacity: 0} 14.6% {opacity: 1} 17.2% {opacity: 1} 20% {opacity: 0} 100% {opacity: 0}} #eMIRLxyeoSF32_to {animation: eMIRLxyeoSF32_to__to 5000ms linear infinite normal forwards}@keyframes eMIRLxyeoSF32_to__to { 0% {transform: translate(27.425998px,-22.712817px)} 16% {transform: translate(27.425998px,-22.712817px);animation-timing-function: cubic-bezier(0,0.665,0.28,1)} 24.2% {transform: translate(36.241172px,-6.946878px)} 100% {transform: translate(36.241172px,-6.946878px)}} #eMIRLxyeoSF32_tr {animation: eMIRLxyeoSF32_tr__tr 5000ms linear infinite normal forwards}@keyframes eMIRLxyeoSF32_tr__tr { 0% {transform: rotate(0deg)} 16% {transform: rotate(0deg)} 24.2% {transform: rotate(60deg)} 100% {transform: rotate(60deg)}} #eMIRLxyeoSF32_ts {animation: eMIRLxyeoSF32_ts__ts 5000ms linear infinite normal forwards}@keyframes eMIRLxyeoSF32_ts__ts { 0% {transform: scale(0,0)} 16% {transform: scale(0,0);animation-timing-function: cubic-bezier(0,0.665,0.28,1)} 24.2% {transform: scale(1,1)} 100% {transform: scale(1,1)}} #eMIRLxyeoSF32 {animation: eMIRLxyeoSF32_c_o 5000ms linear infinite normal forwards}@keyframes eMIRLxyeoSF32_c_o { 0% {opacity: 0} 16% {opacity: 0} 18.6% {opacity: 1} 21.4% {opacity: 1} 24.2% {opacity: 0} 100% {opacity: 0}} #eMIRLxyeoSF34_to {animation: eMIRLxyeoSF34_to__to 5000ms linear infinite normal forwards}@keyframes eMIRLxyeoSF34_to__to { 0% {transform: translate(0.064256px,16.885494px)} 8% {transform: translate(0.064256px,16.885494px);animation-timing-function: cubic-bezier(0,0.665,0.28,1)} 16% {transform: translate(11.224144px,-2.119228px)} 100% {transform: translate(11.224144px,-2.119228px)}} #eMIRLxyeoSF34_tr {animation: eMIRLxyeoSF34_tr__tr 5000ms linear infinite normal forwards}@keyframes eMIRLxyeoSF34_tr__tr { 0% {transform: rotate(0deg)} 8% {transform: rotate(0deg)} 30.8% {transform: rotate(360deg)} 100% {transform: rotate(360deg)}} #eMIRLxyeoSF34_ts {animation: eMIRLxyeoSF34_ts__ts 5000ms linear infinite normal forwards}@keyframes eMIRLxyeoSF34_ts__ts { 0% {transform: scale(0,0)} 8% {transform: scale(0,0);animation-timing-function: cubic-bezier(0,0.665,0.28,1)} 20% {transform: scale(1.3,1.3)} 30.8% {transform: scale(0,0)} 100% {transform: scale(0,0)}} #eMIRLxyeoSF34 {animation: eMIRLxyeoSF34_c_o 5000ms linear infinite normal forwards}@keyframes eMIRLxyeoSF34_c_o { 0% {opacity: 0} 8% {opacity: 0} 12% {opacity: 1} 20% {opacity: 1} 30.8% {opacity: 1} 100% {opacity: 1}} #eMIRLxyeoSF37_to {animation: eMIRLxyeoSF37_to__to 5000ms linear infinite normal forwards}@keyframes eMIRLxyeoSF37_to__to { 0% {transform: translate(111.325478px,186.156381px);animation-timing-function: cubic-bezier(0,0,0.01,1)} 19.4% {transform: translate(114.325478px,164.156381px)} 30.8% {transform: translate(114.325478px,164.156381px);animation-timing-function: cubic-bezier(1,0.01,1,1)} 41.6% {transform: translate(111.325478px,186.156381px)} 100% {transform: translate(111.325478px,186.156381px)}} #eMIRLxyeoSF37_tr {animation: eMIRLxyeoSF37_tr__tr 5000ms linear infinite normal forwards}@keyframes eMIRLxyeoSF37_tr__tr { 0% {transform: rotate(0deg);animation-timing-function: cubic-bezier(0,0,0.01,1)} 22.6% {transform: rotate(25deg)} 30.8% {transform: rotate(25deg);animation-timing-function: cubic-bezier(1,0.01,1,1)} 41.6% {transform: rotate(0deg)} 100% {transform: rotate(0deg)}} #eMIRLxyeoSF37_ts {animation: eMIRLxyeoSF37_ts__ts 5000ms linear infinite normal forwards}@keyframes eMIRLxyeoSF37_ts__ts { 0% {transform: scale(0.599779,0.599779);animation-timing-function: cubic-bezier(0,0,0.01,1)} 22.6% {transform: scale(0.82,0.82)} 30.8% {transform: scale(0.82,0.82);animation-timing-function: cubic-bezier(1,0.01,1,1)} 41.6% {transform: scale(0.6,0.6)} 100% {transform: scale(0.6,0.6)}} #eMIRLxyeoSF45_to {animation: eMIRLxyeoSF45_to__to 5000ms linear infinite normal forwards}@keyframes eMIRLxyeoSF45_to__to { 0% {transform: translate(111.325478px,186.156381px);animation-timing-function: cubic-bezier(0,0,0.01,1)} 19.4% {transform: translate(114.325478px,164.156381px)} 30.8% {transform: translate(114.325478px,164.156381px);animation-timing-function: cubic-bezier(1,0.01,1,1)} 41.6% {transform: translate(111.325478px,186.156381px)} 100% {transform: translate(111.325478px,186.156381px)}} #eMIRLxyeoSF45_tr {animation: eMIRLxyeoSF45_tr__tr 5000ms linear infinite normal forwards}@keyframes eMIRLxyeoSF45_tr__tr { 0% {transform: rotate(0deg);animation-timing-function: cubic-bezier(0,0,0.01,1)} 22.6% {transform: rotate(13deg)} 30.8% {transform: rotate(13deg);animation-timing-function: cubic-bezier(1,0.01,1,1)} 41.6% {transform: rotate(0deg)} 100% {transform: rotate(0deg)}} #eMIRLxyeoSF45_ts {animation: eMIRLxyeoSF45_ts__ts 5000ms linear infinite normal forwards}@keyframes eMIRLxyeoSF45_ts__ts { 0% {transform: scale(0.599779,0.599779);animation-timing-function: cubic-bezier(0,0,0.01,1)} 22.6% {transform: scale(0.82,0.82)} 30.8% {transform: scale(0.82,0.82);animation-timing-function: cubic-bezier(1,0.01,1,1)} 41.6% {transform: scale(0.6,0.6)} 100% {transform: scale(0.6,0.6)}} #eMIRLxyeoSF55_to {animation: eMIRLxyeoSF55_to__to 5000ms linear infinite normal forwards}@keyframes eMIRLxyeoSF55_to__to { 0% {transform: translate(111.325478px,186.156381px);animation-timing-function: cubic-bezier(0,0,0.01,1)} 19.4% {transform: translate(114.325478px,164.156381px)} 30.8% {transform: translate(114.325478px,164.156381px);animation-timing-function: cubic-bezier(1,0.01,1,1)} 41.6% {transform: translate(111.325478px,186.156381px)} 100% {transform: translate(111.325478px,186.156381px)}} #eMIRLxyeoSF55_tr {animation: eMIRLxyeoSF55_tr__tr 5000ms linear infinite normal forwards}@keyframes eMIRLxyeoSF55_tr__tr { 0% {transform: rotate(0deg);animation-timing-function: cubic-bezier(0,0,0.01,1)} 22.6% {transform: rotate(40deg)} 30.8% {transform: rotate(40deg);animation-timing-function: cubic-bezier(1,0.01,1,1)} 41.6% {transform: rotate(0deg)} 100% {transform: rotate(0deg)}} #eMIRLxyeoSF55_ts {animation: eMIRLxyeoSF55_ts__ts 5000ms linear infinite normal forwards}@keyframes eMIRLxyeoSF55_ts__ts { 0% {transform: scale(0.599779,0.599779);animation-timing-function: cubic-bezier(0,0,0.01,1)} 22.6% {transform: scale(0.82,0.82)} 30.8% {transform: scale(0.82,0.82);animation-timing-function: cubic-bezier(1,0.01,1,1)} 41.6% {transform: scale(0.6,0.6)} 100% {transform: scale(0.6,0.6)}} #eMIRLxyeoSF63_to {animation: eMIRLxyeoSF63_to__to 5000ms linear infinite normal forwards}@keyframes eMIRLxyeoSF63_to__to { 0% {transform: translate(111.325478px,186.156381px);animation-timing-function: cubic-bezier(0,0,0.01,1)} 19.4% {transform: translate(114.325478px,164.156381px)} 30.8% {transform: translate(114.325478px,164.156381px);animation-timing-function: cubic-bezier(1,0.01,1,1)} 41.6% {transform: translate(111.325478px,186.156381px)} 100% {transform: translate(111.325478px,186.156381px)}} #eMIRLxyeoSF63_tr {animation: eMIRLxyeoSF63_tr__tr 5000ms linear infinite normal forwards}@keyframes eMIRLxyeoSF63_tr__tr { 0% {transform: rotate(0deg);animation-timing-function: cubic-bezier(0,0,0.01,1)} 22.6% {transform: rotate(13deg)} 30.8% {transform: rotate(13deg);animation-timing-function: cubic-bezier(1,0.01,1,1)} 41.6% {transform: rotate(0deg)} 100% {transform: rotate(0deg)}} #eMIRLxyeoSF63_ts {animation: eMIRLxyeoSF63_ts__ts 5000ms linear infinite normal forwards}@keyframes eMIRLxyeoSF63_ts__ts { 0% {transform: scale(0.599779,0.599779);animation-timing-function: cubic-bezier(0,0,0.01,1)} 22.6% {transform: scale(0.82,0.82)} 30.8% {transform: scale(0.82,0.82);animation-timing-function: cubic-bezier(1,0.01,1,1)} 41.6% {transform: scale(0.6,0.6)} 100% {transform: scale(0.6,0.6)}} #eMIRLxyeoSF74_ts {animation: eMIRLxyeoSF74_ts__ts 5000ms linear infinite normal forwards}@keyframes eMIRLxyeoSF74_ts__ts { 0% {transform: translate(20.999984px,55.436466px) scale(1,1);animation-timing-function: cubic-bezier(0,0,0.01,1)} 22.6% {transform: translate(20.999984px,55.436466px) scale(1,0.8)} 30.8% {transform: translate(20.999984px,55.436466px) scale(1,0.8);animation-timing-function: cubic-bezier(1,0.01,1,1)} 41.6% {transform: translate(20.999984px,55.436466px) scale(1,1)} 44.8% {transform: translate(20.999984px,55.436466px) scale(1,0.9)} 47.8% {transform: translate(20.999984px,55.436466px) scale(1,1)} 100% {transform: translate(20.999984px,55.436466px) scale(1,1)}} #eMIRLxyeoSF80_to {animation: eMIRLxyeoSF80_to__to 5000ms linear infinite normal forwards}@keyframes eMIRLxyeoSF80_to__to { 0% {transform: translate(110.809315px,162.014711px);animation-timing-function: cubic-bezier(0,0,0.01,1)} 22.6% {transform: translate(106.809315px,147.014711px)} 30.8% {transform: translate(106.809315px,147.014711px);animation-timing-function: cubic-bezier(1,0.01,1,1)} 41.6% {transform: translate(110.809315px,162.014711px)} 44.8% {transform: translate(110.809315px,164.014711px)} 47.8% {transform: translate(110.809315px,162.014711px)} 100% {transform: translate(110.809315px,162.014711px)}} #eMIRLxyeoSF80_tr {animation: eMIRLxyeoSF80_tr__tr 5000ms linear infinite normal forwards}@keyframes eMIRLxyeoSF80_tr__tr { 0% {transform: rotate(0deg);animation-timing-function: cubic-bezier(0,0,0.01,1)} 22.6% {transform: rotate(-15deg)} 30.8% {transform: rotate(-15deg);animation-timing-function: cubic-bezier(1,0.01,1,1)} 41.6% {transform: rotate(0deg)} 100% {transform: rotate(0deg)}} #eMIRLxyeoSF91_to {animation: eMIRLxyeoSF91_to__to 5000ms linear infinite normal forwards}@keyframes eMIRLxyeoSF91_to__to { 0% {transform: translate(35.94091px,-6.480105px)} 14% {transform: translate(35.94091px,-6.480105px);animation-timing-function: cubic-bezier(0,0.665,0.28,1)} 22% {transform: translate(21.127313px,-15.520945px)} 100% {transform: translate(21.127313px,-15.520945px)}} #eMIRLxyeoSF91_tr {animation: eMIRLxyeoSF91_tr__tr 5000ms linear infinite normal forwards}@keyframes eMIRLxyeoSF91_tr__tr { 0% {transform: rotate(0deg)} 14% {transform: rotate(0deg)} 22% {transform: rotate(60deg)} 100% {transform: rotate(60deg)}} #eMIRLxyeoSF91_ts {animation: eMIRLxyeoSF91_ts__ts 5000ms linear infinite normal forwards}@keyframes eMIRLxyeoSF91_ts__ts { 0% {transform: scale(0,0)} 14% {transform: scale(0,0);animation-timing-function: cubic-bezier(0,0.665,0.28,1)} 22% {transform: scale(0.8,0.8)} 100% {transform: scale(0.8,0.8)}} #eMIRLxyeoSF91 {animation: eMIRLxyeoSF91_c_o 5000ms linear infinite normal forwards}@keyframes eMIRLxyeoSF91_c_o { 0% {opacity: 0} 14% {opacity: 0} 16.6% {opacity: 1} 19.4% {opacity: 1} 22% {opacity: 0} 100% {opacity: 0}} #eMIRLxyeoSF93_to {animation: eMIRLxyeoSF93_to__to 5000ms linear infinite normal forwards}@keyframes eMIRLxyeoSF93_to__to { 0% {transform: translate(27.425998px,-22.712817px)} 12% {transform: translate(27.425998px,-22.712817px);animation-timing-function: cubic-bezier(0,0.665,0.28,1)} 20% {transform: translate(47.835992px,-27.817508px)} 100% {transform: translate(47.835992px,-27.817508px)}} #eMIRLxyeoSF93_tr {animation: eMIRLxyeoSF93_tr__tr 5000ms linear infinite normal forwards}@keyframes eMIRLxyeoSF93_tr__tr { 0% {transform: rotate(0deg)} 12% {transform: rotate(0deg)} 20% {transform: rotate(60deg)} 100% {transform: rotate(60deg)}} #eMIRLxyeoSF93_ts {animation: eMIRLxyeoSF93_ts__ts 5000ms linear infinite normal forwards}@keyframes eMIRLxyeoSF93_ts__ts { 0% {transform: scale(0,0)} 12% {transform: scale(0,0);animation-timing-function: cubic-bezier(0,0.665,0.28,1)} 20% {transform: scale(1,1)} 100% {transform: scale(1,1)}} #eMIRLxyeoSF93 {animation: eMIRLxyeoSF93_c_o 5000ms linear infinite normal forwards}@keyframes eMIRLxyeoSF93_c_o { 0% {opacity: 0} 12% {opacity: 0} 14.6% {opacity: 1} 17.2% {opacity: 1} 20% {opacity: 0} 100% {opacity: 0}} #eMIRLxyeoSF95_to {animation: eMIRLxyeoSF95_to__to 5000ms linear infinite normal forwards}@keyframes eMIRLxyeoSF95_to__to { 0% {transform: translate(27.425998px,-22.712817px)} 16% {transform: translate(27.425998px,-22.712817px);animation-timing-function: cubic-bezier(0,0.665,0.28,1)} 24.2% {transform: translate(36.241172px,-6.946878px)} 100% {transform: translate(36.241172px,-6.946878px)}} #eMIRLxyeoSF95_tr {animation: eMIRLxyeoSF95_tr__tr 5000ms linear infinite normal forwards}@keyframes eMIRLxyeoSF95_tr__tr { 0% {transform: rotate(0deg)} 16% {transform: rotate(0deg)} 24.2% {transform: rotate(60deg)} 100% {transform: rotate(60deg)}} #eMIRLxyeoSF95_ts {animation: eMIRLxyeoSF95_ts__ts 5000ms linear infinite normal forwards}@keyframes eMIRLxyeoSF95_ts__ts { 0% {transform: scale(0,0)} 16% {transform: scale(0,0);animation-timing-function: cubic-bezier(0,0.665,0.28,1)} 24.2% {transform: scale(1,1)} 100% {transform: scale(1,1)}} #eMIRLxyeoSF95 {animation: eMIRLxyeoSF95_c_o 5000ms linear infinite normal forwards}@keyframes eMIRLxyeoSF95_c_o { 0% {opacity: 0} 16% {opacity: 0} 18.6% {opacity: 1} 21.4% {opacity: 1} 24.2% {opacity: 0} 100% {opacity: 0}} #eMIRLxyeoSF97_to {animation: eMIRLxyeoSF97_to__to 5000ms linear infinite normal forwards}@keyframes eMIRLxyeoSF97_to__to { 0% {transform: translate(0.064256px,16.885494px)} 8% {transform: translate(0.064256px,16.885494px);animation-timing-function: cubic-bezier(0,0.665,0.28,1)} 16% {transform: translate(11.224144px,-2.119228px)} 100% {transform: translate(11.224144px,-2.119228px)}} #eMIRLxyeoSF97_tr {animation: eMIRLxyeoSF97_tr__tr 5000ms linear infinite normal forwards}@keyframes eMIRLxyeoSF97_tr__tr { 0% {transform: rotate(0deg)} 8% {transform: rotate(0deg)} 30.8% {transform: rotate(360deg)} 100% {transform: rotate(360deg)}} #eMIRLxyeoSF97_ts {animation: eMIRLxyeoSF97_ts__ts 5000ms linear infinite normal forwards}@keyframes eMIRLxyeoSF97_ts__ts { 0% {transform: scale(0,0)} 8% {transform: scale(0,0);animation-timing-function: cubic-bezier(0,0.665,0.28,1)} 20% {transform: scale(1.3,1.3)} 30.8% {transform: scale(0,0)} 100% {transform: scale(0,0)}} #eMIRLxyeoSF97 {animation: eMIRLxyeoSF97_c_o 5000ms linear infinite normal forwards}@keyframes eMIRLxyeoSF97_c_o { 0% {opacity: 0} 8% {opacity: 0} 12% {opacity: 1} 20% {opacity: 1} 30.8% {opacity: 1} 100% {opacity: 1}}
]]></style>
<defs><radialGradient id="eMIRLxyeoSF6-fill" cx="0" cy="0" r="1" spreadMethod="pad" gradientUnits="userSpaceOnUse" gradientTransform="matrix(17.5547 16.3675 -16.3675 17.5547 -8.69258 -8.26855)"><stop id="eMIRLxyeoSF6-fill-0" offset="5.09875%" stop-color="#f3eaff"/><stop id="eMIRLxyeoSF6-fill-1" offset="90.629%" stop-color="#d9baff"/><stop id="eMIRLxyeoSF6-fill-2" offset="100%" stop-color="#bf8bff"/></radialGradient><linearGradient id="eMIRLxyeoSF9-fill" x1="21.7706" y1="20.2848" x2="4.19195" y2="2.70576" spreadMethod="pad" gradientUnits="userSpaceOnUse" gradientTransform="translate(0 0)"><stop id="eMIRLxyeoSF9-fill-0" offset="0%" stop-color="#6b1fde"/><stop id="eMIRLxyeoSF9-fill-1" offset="100%" stop-color="#c8a3ff"/></linearGradient><linearGradient id="eMIRLxyeoSF13-fill" x1="8.43844" y1="0.162109" x2="8.43844" y2="23.7198" spreadMethod="pad" gradientUnits="userSpaceOnUse" gradientTransform="translate(0 0)"><stop id="eMIRLxyeoSF13-fill-0" offset="0%" stop-color="#3c64f2"/><stop id="eMIRLxyeoSF13-fill-1" offset="100%" stop-color="#2c17ac"/></linearGradient><linearGradient id="eMIRLxyeoSF14-fill" x1="23.8682" y1="0.162109" x2="23.8682" y2="23.7198" spreadMethod="pad" gradientUnits="userSpaceOnUse" gradientTransform="translate(0 0)"><stop id="eMIRLxyeoSF14-fill-0" offset="0%" stop-color="#3c64f2"/><stop id="eMIRLxyeoSF14-fill-1" offset="100%" stop-color="#2c17ac"/></linearGradient><linearGradient id="eMIRLxyeoSF16-fill" x1="16.1509" y1="0" x2="16.1509" y2="23.73" spreadMethod="pad" gradientUnits="userSpaceOnUse" gradientTransform="translate(0 0)"><stop id="eMIRLxyeoSF16-fill-0" offset="0%" stop-color="#f90"/><stop id="eMIRLxyeoSF16-fill-1" offset="100%" stop-color="rgba(255,153,0,0.37)"/></linearGradient><radialGradient id="eMIRLxyeoSF38-fill" cx="0" cy="0" r="1" spreadMethod="pad" gradientUnits="userSpaceOnUse" gradientTransform="matrix(17.5547 16.3675 -16.3675 17.5547 -8.69258 -8.26855)"><stop id="eMIRLxyeoSF38-fill-0" offset="10.9375%" stop-color="#fff6d4"/><stop id="eMIRLxyeoSF38-fill-1" offset="90.629%" stop-color="#ffd3ba"/><stop id="eMIRLxyeoSF38-fill-2" offset="100%" stop-color="#ffac89"/></radialGradient><linearGradient id="eMIRLxyeoSF41-fill" x1="21.7706" y1="20.2848" x2="4.19195" y2="2.70576" spreadMethod="pad" gradientUnits="userSpaceOnUse" gradientTransform="translate(0 0)"><stop id="eMIRLxyeoSF41-fill-0" offset="0%" stop-color="#dc4615"/><stop id="eMIRLxyeoSF41-fill-1" offset="100%" stop-color="#ffc477"/></linearGradient><radialGradient id="eMIRLxyeoSF56-fill" cx="0" cy="0" r="1" spreadMethod="pad" gradientUnits="userSpaceOnUse" gradientTransform="matrix(17.5547 16.3675 -16.3675 17.5547 -8.69258 -8.26855)"><stop id="eMIRLxyeoSF56-fill-0" offset="5.09875%" stop-color="#f3eaff"/><stop id="eMIRLxyeoSF56-fill-1" offset="90.629%" stop-color="#d9baff"/><stop id="eMIRLxyeoSF56-fill-2" offset="100%" stop-color="#bf8bff"/></radialGradient><linearGradient id="eMIRLxyeoSF59-fill" x1="21.7706" y1="20.2848" x2="4.19195" y2="2.70576" spreadMethod="pad" gradientUnits="userSpaceOnUse" gradientTransform="translate(0 0)"><stop id="eMIRLxyeoSF59-fill-0" offset="0%" stop-color="#6b1fde"/><stop id="eMIRLxyeoSF59-fill-1" offset="100%" stop-color="#c8a3ff"/></linearGradient><linearGradient id="eMIRLxyeoSF75-fill" x1="8.78414" y1="0.59668" x2="8.78414" y2="24.1544" spreadMethod="pad" gradientUnits="userSpaceOnUse" gradientTransform="translate(0 0)"><stop id="eMIRLxyeoSF75-fill-0" offset="0%" stop-color="#b62ce6"/><stop id="eMIRLxyeoSF75-fill-1" offset="100%" stop-color="#270783"/></linearGradient><linearGradient id="eMIRLxyeoSF76-fill" x1="24.2139" y1="0.59668" x2="24.2139" y2="24.1544" spreadMethod="pad" gradientUnits="userSpaceOnUse" gradientTransform="translate(0 0)"><stop id="eMIRLxyeoSF76-fill-0" offset="0%" stop-color="#b62ce6"/><stop id="eMIRLxyeoSF76-fill-1" offset="100%" stop-color="#270783"/></linearGradient><linearGradient id="eMIRLxyeoSF78-fill" x1="16.4966" y1="0.43457" x2="16.4966" y2="24.1646" spreadMethod="pad" gradientUnits="userSpaceOnUse" gradientTransform="translate(0 0)"><stop id="eMIRLxyeoSF78-fill-0" offset="0%" stop-color="#f90"/><stop id="eMIRLxyeoSF78-fill-1" offset="100%" stop-color="rgba(255,153,0,0.37)"/></linearGradient></defs><g display="none" transform="translate(-89.815231-136.683975)"><g transform="translate(.023792-1.16593)"><g id="eMIRLxyeoSF5_to" transform="translate(111.325478,186.156381)"><g id="eMIRLxyeoSF5_tr" transform="rotate(0)"><g id="eMIRLxyeoSF5_ts" transform="scale(0.599779,0.599779)"><g transform="translate(-12.167865,-12.193758)"><circle r="12" transform="translate(12 12)" fill="url(#eMIRLxyeoSF6-fill)"/><g mask="url(#eMIRLxyeoSF10)"><g><path d="M18.8881,11.6211c.6786-3.27298.6155-5.01169.6016-5.31815.5566-.0352,1.3678-.12675,1.7622-.17322.0093.02753.0245.05295.045.0743c1.2587,1.28257,2.1696,2.86493,2.6465,4.59757.0114.0439.0373.0827.0736.11s.0809.0413.1263.0399c.0146.0015.0294.0015.044,0c.0511-.0136.0947-.0469.1213-.0926s.034-.1001.0206-.1513c-.4862-1.81287-1.4386-3.46685-2.7625-4.79741-.0191-.01537-.0406-.02695-.0635-.03441.0466-.57297.0872-1.15126.0872-1.15126C20.0282,2.6934,17.8566,1.216,15.3937,0.508789c-.199.989321-.3897,1.753901-.4805,2.103071-3.4593.4609-5.20522,1.56828-5.31461,1.63766l-.00296.00187c-.00681.0044-.01333.0092-.01951.01435-.43339-.25188-1.62981-.84947-3.53226-1.06399.01981-.36112.10326-1.46028.39438-2.0209.02319-.04677.02717-.10075.01108-.15041s-.05098-.09106-.09719-.115342-.10009-.02952-.15011-.014597-.09223.048819-.11759.094449c-.38332.73551-.44275,2.16995-.44564,2.30467-.50626.31322-1.88165,1.29306-3.22365,3.50069-.03119-.01032-.06472-.01301-.0977-.0074-.58518.10241-1.15263.28821-1.685075.5517-.022977.01273-.043232.02985-.059587.0504s-.028507.04412-.035747.06937-.00942.05168-.006442.07777.011073.05135.023815.07431c.017521.03118.043069.05708.074008.07501s.06614.02724.101898.02694c.033188.00194.066294-.00496.095945-.01999.479935-.23228.988635-.39948,1.512645-.49724.11449.45826.50031,1.6787,1.66026,3.42242-.01552.018-.02784.0388-.0362.0615-.03598.1079-.84554,2.6466-.66764,5.3211.00195.0324.01172.0635.02814.0909-.6368.3699-1.31749.6591-2.02637.8607l-.05797.1559c1.05537,2.2528,2.78401,4.1226,4.94733,5.3511l.24389-.092c0,0,.62733-.0501,1.07994-.1113.01345.0376.03797.0706.07063.0943.09795.064,2.61659,1.5552,5.09529,2.0229.0125.002.0254.002.038,0l-.006.008c.053.0048.1057-.0117.1466-.0458s.0665-.083.0712-.1361c.0048-.053-.0117-.1057-.0458-.1466s-.083-.0665-.1361-.0712c-2.4067-.4558-4.93731-1.959-4.9633-1.975-.01578-.0071-.03229-.0121-.0491-.0149-.09699-.6189-.1307-1.2461-.1006-1.8719.59689-.1573,3.2727-.8856,5.1905-1.7774.5506.4291,2.3162,1.6798,4.4702,1.9205-.0112.9854-.1893,1.9619-.5271,2.8881-.0189.0493-.0176.1042.0037.1525s.061.0862.1102.1054c.0228.0094.0473.0142.072.014.0389.0009.0772-.0096.1102-.0302s.0593-.0504.0757-.0858c.3706-1.0039.5588-2.0661.5557-3.1363c0-.0161-.002-.0321-.0058-.0475.5752-.4971,2.3098-2.1026,3.1503-4.0561h.1087c.3638,0,1.4592-.07,3.0124-.7876.0478-.0222.0849-.0623.1032-.1117s.0165-.1041-.0053-.1521c-.011-.024-.0266-.0455-.0459-.0634s-.042-.0317-.0667-.0408-.0509-.0133-.0772-.0122-.0522.0073-.0761.0184c-1.5924.7389-2.6862.7553-2.903.7509-.1102-.545-.5415-2.1686-2.0101-4.0176.0048-.0113.0087-.0231.0114-.0352ZM7.42168,19.7591c.19203-.0419,3.19312-.8199,5.26142-1.7877.2483-1.4879.5078-3.8904.5884-4.6588-2.2659-1.9931-3.77068-3.265-4.41114-3.80635L8.8602,9.50611c-.23216-.19624-.3507-.29643-.3507-.30014-.01627-.01522-.02973-.0329-.04-.05224-1.40584.43255-2.78305.95317-4.12346,1.55877.00676.0317.00576.0648-.00328.0965c0,.0019-.0052.0198-.01469.0525v0h-.00001l-.00003.0001-.00002.0001h-.00001c-.10996.3787-.79293,2.7309-.63289,5.1185.00329.0527-.01441.1046-.04924.1443-.01055.012-.02242.0227-.03529.0317c1.2186,1.6804,3.15899,3.1375,3.8111,3.6029ZM8.76336,8.89813c.01792.01394,1.68744,1.38797,4.77944,4.11237c1.6772-.3965,3.3297-.8906,4.9493-1.4799.7042-3.36478.6053-5.11058.5983-5.23556L19.09,6.28795c-.0039-.05272.0133-.10482.0478-.14491l.0023-.00267c-.4516-.52204-1.9238-2.10889-3.98-3.17074-.0235.01389-.0498.02299-.0774.02644-3.4862.44576-5.2492,1.58115-5.26719,1.59914-.03359.01835-.07176.02668-.10995.02398-.00571.00005-.0114-.00016-.01706-.0006-.41023,1.39668-.73682,2.81658-.97805,4.25215.01875.00638.0366.01556.05291.02739Z" clip-rule="evenodd" fill="url(#eMIRLxyeoSF9-fill)" fill-rule="evenodd"/></g><mask id="eMIRLxyeoSF10" mask-type="alpha" x="-150%" y="-150%" height="400%" width="400%"><circle r="12" transform="translate(12 12)" fill="#fff"/></mask></g></g></g></g></g></g><g id="eMIRLxyeoSF12_ts" transform="translate(110.808102,192.130641) scale(1,1)"><g transform="translate(-16.15385,-23.7198)"><path d="M16.8769,0.162109h-16.8769L0,22.3736c.002218.7426.603614,1.344,1.34615,1.3462h15.53075v-23.557691Z" fill="url(#eMIRLxyeoSF13-fill)"/><path d="M15.4298,0.162109h16.8768v22.211491c-.0022.7426-.6036,1.344-1.3461,1.3462h-15.5307v-23.557691Z" fill="url(#eMIRLxyeoSF14-fill)"/><path d="M0,0.105469h32.3077v3.150001h-32.3077v-3.150001Z" opacity="0.7" fill="#190b89"/><path d="M13.4629,0h5.376v23.73h-5.376v-23.73Z" fill="url(#eMIRLxyeoSF16-fill)"/></g></g><g id="eMIRLxyeoSF17_to" transform="translate(110.809315,162.014711)"><g id="eMIRLxyeoSF17_tr" transform="rotate(0)"><g transform="translate(-17.5,-8.0766)"><path d="M28.1671,5.1681c1.0299-.43232,1.9755-1.04296,2.7932-1.80384l.6731,2.69231l2.6923-.67308c-.6731,4.03846-4.0384,5.38461-6.7308,5.38461L17.4988,12.4508L7.40264,10.7681c-2.6923,0-6.05769-1.34615-6.730765-5.38461l2.692305.67308.67308-2.69231c.8195.7619,1.76747,1.37261,2.8,1.80384L17.4988,7.18733L28.1671,5.1681Z" fill="#f90"/><path d="M17.4994,6.72976c0,0-1.2788-5.801247-6.9609-6.715286-.3192-.047902-.64478.024027-.91406.201923-.89856.583558-2.78048,2.262213-2.88952,6.144523-.00731.25456.05907.50582.19115.72356.57212.9349,2.55096,3.35322,7.87503,3.74832l2.6983-4.10304Z" fill="#ffc235"/><path d="M17.5059,6.7298c0,0,1.2788-5.801246,6.9609-6.715284.319-.047991.6444.023951.9134.201923.8992.583557,2.7811,2.262211,2.8895,6.144521.0076.2545-.0586.50576-.1905.72356-.5728.93625-2.5577,3.36068-7.8999,3.74968L17.5059,6.7298Z" fill="#ffc235"/><path d="M1.34615,10.7686h32.30765c.7435,0,1.3462.6026,1.3462,1.3461v3.3654c0,.3717-.3013.6731-.6731.6731h-33.653823C0.301347,16.1532,0,15.8518,0,15.4801v-3.3654c0-.7435.602694-1.3461,1.34615-1.3461Z" fill="#3957e7"/><path d="M14.1348,10.7686h6.7307v5.3846h-6.7307v-5.3846Z" fill="#ffc235"/><path d="M15.2864,7.7256c-.2405-.00001-.4627-.12829-.5829-.33654-.3002-.5176-1.3892-2.24269-2.8014-2.71519-.2284-.07623-.3988-.26854-.447-.50449s.0331-.4797.2133-.63943.432-.21116.6605-.13493c1.8085.60577,3.0773,2.52,3.539,3.31558.1201.20804.1203.46433.0004.67249s-.3417.33664-.5819.33712v.00539Z" fill="#f90"/><path d="M19.7147,7.72644c-.2402-.00048-.462-.12896-.5819-.33712s-.1198-.46445.0003-.67249c.4618-.79423,1.7332-2.71183,3.5391-3.31692.2284-.07623.4802-.0248.6604.13493s.2616.40347.2134.63942-.2186.42826-.4471.50449c-1.4134.47116-2.5011,2.1976-2.8013,2.71519-.1213.2067-.3433.33333-.5829.3325Z" fill="#f90"/><path d="M16.1547,6.72949h2.6924c.7434,0,1.3461.6027,1.3461,1.34616v2.69235h-5.3846v-2.69235c0-.74346.6027-1.34616,1.3461-1.34616Z" fill="#f90"/></g></g></g><g transform="translate(.000001 0.000001)"><g style="mix-blend-mode:color-dodge" transform="matrix(.431227 0 0 0.431228 105.039848 161.509174)"><g id="eMIRLxyeoSF28_to" transform="translate(35.94091,-6.480105)"><g id="eMIRLxyeoSF28_tr" transform="rotate(0)"><g id="eMIRLxyeoSF28_ts" transform="scale(0,0)"><path id="eMIRLxyeoSF28" d="M9.43233,0l.92017,4.50179c.4127,2.01946,1.9909,3.59765,4.0104,4.01041l4.5018.92013-4.5018.92017c-2.0195.4127-3.5977,1.9909-4.0104,4.0104l-.92017,4.5018-.92013-4.5018c-.41276-2.0195-1.99095-3.5977-4.01042-4.0104L0,9.43233L4.50179,8.5122C6.52125,8.09944,8.09944,6.52125,8.5122,4.50178L9.43233,0Z" transform="translate(-9.43235,-9.43235)" opacity="0" fill="#fff"/></g></g></g></g><g style="mix-blend-mode:color-dodge" transform="matrix(.431227 0 0 0.431228 109.039848 168.509174)"><g id="eMIRLxyeoSF30_to" transform="translate(27.425998,-22.712817)"><g id="eMIRLxyeoSF30_tr" transform="rotate(0)"><g id="eMIRLxyeoSF30_ts" transform="scale(0,0)"><path id="eMIRLxyeoSF30" d="M9.43233,0l.92017,4.50179c.4127,2.01946,1.9909,3.59765,4.0104,4.01041l4.5018.92013-4.5018.92017c-2.0195.4127-3.5977,1.9909-4.0104,4.0104l-.92017,4.5018-.92013-4.5018c-.41276-2.0195-1.99095-3.5977-4.01042-4.0104L0,9.43233L4.50179,8.5122C6.52125,8.09944,8.09944,6.52125,8.5122,4.50178L9.43233,0Z" transform="translate(-9.43235,-9.43235)" opacity="0" fill="#fff"/></g></g></g></g><g style="mix-blend-mode:color-dodge" transform="matrix(.431227 0 0 0.431228 109.039848 168.509174)"><g id="eMIRLxyeoSF32_to" transform="translate(27.425998,-22.712817)"><g id="eMIRLxyeoSF32_tr" transform="rotate(0)"><g id="eMIRLxyeoSF32_ts" transform="scale(0,0)"><path id="eMIRLxyeoSF32" d="M9.43233,0l.92017,4.50179c.4127,2.01946,1.9909,3.59765,4.0104,4.01041l4.5018.92013-4.5018.92017c-2.0195.4127-3.5977,1.9909-4.0104,4.0104l-.92017,4.5018-.92013-4.5018c-.41276-2.0195-1.99095-3.5977-4.01042-4.0104L0,9.43233L4.50179,8.5122C6.52125,8.09944,8.09944,6.52125,8.5122,4.50178L9.43233,0Z" transform="translate(-9.43235,-9.43235)" opacity="0" fill="#fff"/></g></g></g></g><g style="mix-blend-mode:color-dodge" transform="matrix(.431227 0 0 0.431228 116.039848 159.509174)"><g id="eMIRLxyeoSF34_to" transform="translate(0.064256,16.885494)"><g id="eMIRLxyeoSF34_tr" transform="rotate(0)"><g id="eMIRLxyeoSF34_ts" transform="scale(0,0)"><path id="eMIRLxyeoSF34" d="M9.43233,0l.92017,4.50179c.4127,2.01946,1.9909,3.59765,4.0104,4.01041l4.5018.92013-4.5018.92017c-2.0195.4127-3.5977,1.9909-4.0104,4.0104l-.92017,4.5018-.92013-4.5018c-.41276-2.0195-1.99095-3.5977-4.01042-4.0104L0,9.43233L4.50179,8.5122C6.52125,8.09944,8.09944,6.52125,8.5122,4.50178L9.43233,0Z" transform="translate(-9.43235,-9.43235)" opacity="0" fill="#fff"/></g></g></g></g></g></g><g transform="translate(0 0.000001)"><g display="none" transform="translate(-91-138)"><g id="eMIRLxyeoSF37_to" transform="translate(111.325478,186.156381)"><g id="eMIRLxyeoSF37_tr" transform="rotate(0)"><g id="eMIRLxyeoSF37_ts" transform="scale(0.599779,0.599779)"><g transform="translate(-12.432513,-12.165627)"><circle r="12" transform="translate(12 12)" fill="url(#eMIRLxyeoSF38-fill)"/><g mask="url(#eMIRLxyeoSF42)"><g><path d="M18.8881,11.6211c.6786-3.27298.6155-5.01169.6016-5.31815.5566-.0352,1.3678-.12675,1.7622-.17322.0093.02753.0245.05295.045.0743c1.2587,1.28257,2.1696,2.86493,2.6465,4.59757.0114.0439.0373.0827.0736.11s.0809.0413.1263.0399c.0146.0015.0294.0015.044,0c.0511-.0136.0947-.0469.1213-.0926s.034-.1001.0206-.1513c-.4862-1.81287-1.4386-3.46685-2.7625-4.79741-.0191-.01537-.0406-.02695-.0635-.03441.0466-.57297.0872-1.15126.0872-1.15126C20.0282,2.6934,17.8566,1.216,15.3937,0.508789c-.199.989321-.3897,1.753901-.4805,2.103071-3.4593.4609-5.20522,1.56828-5.31461,1.63766l-.00296.00187c-.00681.0044-.01333.0092-.01951.01435-.43339-.25188-1.62981-.84947-3.53226-1.06399.01981-.36112.10326-1.46028.39438-2.0209.02319-.04677.02717-.10075.01108-.15041s-.05098-.09106-.09719-.115342-.10009-.02952-.15011-.014597-.09223.048819-.11759.094449c-.38332.73551-.44275,2.16995-.44564,2.30467-.50626.31322-1.88165,1.29306-3.22365,3.50069-.03119-.01032-.06472-.01301-.0977-.0074-.58518.10241-1.15263.28821-1.685075.5517-.022977.01273-.043232.02985-.059587.0504s-.028507.04412-.035747.06937-.00942.05168-.006442.07777.011073.05135.023815.07431c.017521.03118.043069.05708.074008.07501s.06614.02724.101898.02694c.033188.00194.066294-.00496.095945-.01999.479935-.23228.988635-.39948,1.512645-.49724.11449.45826.50031,1.6787,1.66026,3.42242-.01552.018-.02784.0388-.0362.0615-.03598.1079-.84554,2.6466-.66764,5.3211.00195.0324.01172.0635.02814.0909-.6368.3699-1.31749.6591-2.02637.8607l-.05797.1559c1.05537,2.2528,2.78401,4.1226,4.94733,5.3511l.24389-.092c0,0,.62733-.0501,1.07994-.1113.01345.0376.03797.0706.07063.0943.09795.064,2.61659,1.5552,5.09529,2.0229.0125.002.0254.002.038,0l-.006.008c.053.0048.1057-.0117.1466-.0458s.0665-.083.0712-.1361c.0048-.053-.0117-.1057-.0458-.1466s-.083-.0665-.1361-.0712c-2.4067-.4558-4.93731-1.959-4.9633-1.975-.01578-.0071-.03229-.0121-.0491-.0149-.09699-.6189-.1307-1.2461-.1006-1.8719.59689-.1573,3.2727-.8856,5.1905-1.7774.5506.4291,2.3162,1.6798,4.4702,1.9205-.0112.9854-.1893,1.9619-.5271,2.8881-.0189.0493-.0176.1042.0037.1525s.061.0862.1102.1054c.0228.0094.0473.0142.072.014.0389.0009.0772-.0096.1102-.0302s.0593-.0504.0757-.0858c.3706-1.0039.5588-2.0661.5557-3.1363c0-.0161-.002-.0321-.0058-.0475.5752-.4971,2.3098-2.1026,3.1503-4.0561h.1087c.3638,0,1.4592-.07,3.0124-.7876.0478-.0222.0849-.0623.1032-.1117s.0165-.1041-.0053-.1521c-.011-.024-.0266-.0455-.0459-.0634s-.042-.0317-.0667-.0408-.0509-.0133-.0772-.0122-.0522.0073-.0761.0184c-1.5924.7389-2.6862.7553-2.903.7509-.1102-.545-.5415-2.1686-2.0101-4.0176.0048-.0113.0087-.0231.0114-.0352ZM7.42168,19.7591c.19203-.0419,3.19312-.8199,5.26142-1.7877.2483-1.4879.5078-3.8904.5884-4.6588-2.2659-1.9931-3.77068-3.265-4.41114-3.80635L8.8602,9.50611c-.23216-.19624-.3507-.29643-.3507-.30014-.01627-.01522-.02973-.0329-.04-.05224-1.40584.43255-2.78305.95317-4.12346,1.55877.00676.0317.00576.0648-.00328.0965c0,.0019-.0052.0198-.01469.0525v0h-.00001l-.00003.0001-.00002.0001h-.00001c-.10996.3787-.79293,2.7309-.63289,5.1185.00329.0527-.01441.1046-.04924.1443-.01055.012-.02242.0227-.03529.0317c1.2186,1.6804,3.15899,3.1375,3.8111,3.6029ZM8.76336,8.89813c.01792.01394,1.68744,1.38797,4.77944,4.11237c1.6772-.3965,3.3297-.8906,4.9493-1.4799.7042-3.36478.6053-5.11058.5983-5.23556L19.09,6.28795c-.0039-.05272.0133-.10482.0478-.14491l.0023-.00267c-.4516-.52204-1.9238-2.10889-3.98-3.17074-.0235.01389-.0498.02299-.0774.02644-3.4862.44576-5.2492,1.58115-5.26719,1.59914-.03359.01835-.07176.02668-.10995.02398-.00571.00005-.0114-.00016-.01706-.0006-.41023,1.39668-.73682,2.81658-.97805,4.25215.01875.00638.0366.01556.05291.02739Z" clip-rule="evenodd" fill="url(#eMIRLxyeoSF41-fill)" fill-rule="evenodd"/></g><mask id="eMIRLxyeoSF42" mask-type="alpha" x="-150%" y="-150%" height="400%" width="400%"><circle r="12" transform="translate(12 12)" fill="#fff"/></mask></g></g></g></g></g></g><g display="none" transform="translate(-91.999999-138)"><g id="eMIRLxyeoSF55_to" transform="translate(111.325478,186.156381)"><g id="eMIRLxyeoSF55_tr" transform="rotate(0)"><g id="eMIRLxyeoSF55_ts" transform="scale(0.599779,0.599779)"><g transform="translate(-12.167865,-12.193758)"><circle r="12" transform="translate(12 12)" fill="url(#eMIRLxyeoSF56-fill)"/><g mask="url(#eMIRLxyeoSF60)"><g><path d="M18.8881,11.6211c.6786-3.27298.6155-5.01169.6016-5.31815.5566-.0352,1.3678-.12675,1.7622-.17322.0093.02753.0245.05295.045.0743c1.2587,1.28257,2.1696,2.86493,2.6465,4.59757.0114.0439.0373.0827.0736.11s.0809.0413.1263.0399c.0146.0015.0294.0015.044,0c.0511-.0136.0947-.0469.1213-.0926s.034-.1001.0206-.1513c-.4862-1.81287-1.4386-3.46685-2.7625-4.79741-.0191-.01537-.0406-.02695-.0635-.03441.0466-.57297.0872-1.15126.0872-1.15126C20.0282,2.6934,17.8566,1.216,15.3937,0.508789c-.199.989321-.3897,1.753901-.4805,2.103071-3.4593.4609-5.20522,1.56828-5.31461,1.63766l-.00296.00187c-.00681.0044-.01333.0092-.01951.01435-.43339-.25188-1.62981-.84947-3.53226-1.06399.01981-.36112.10326-1.46028.39438-2.0209.02319-.04677.02717-.10075.01108-.15041s-.05098-.09106-.09719-.115342-.10009-.02952-.15011-.014597-.09223.048819-.11759.094449c-.38332.73551-.44275,2.16995-.44564,2.30467-.50626.31322-1.88165,1.29306-3.22365,3.50069-.03119-.01032-.06472-.01301-.0977-.0074-.58518.10241-1.15263.28821-1.685075.5517-.022977.01273-.043232.02985-.059587.0504s-.028507.04412-.035747.06937-.00942.05168-.006442.07777.011073.05135.023815.07431c.017521.03118.043069.05708.074008.07501s.06614.02724.101898.02694c.033188.00194.066294-.00496.095945-.01999.479935-.23228.988635-.39948,1.512645-.49724.11449.45826.50031,1.6787,1.66026,3.42242-.01552.018-.02784.0388-.0362.0615-.03598.1079-.84554,2.6466-.66764,5.3211.00195.0324.01172.0635.02814.0909-.6368.3699-1.31749.6591-2.02637.8607l-.05797.1559c1.05537,2.2528,2.78401,4.1226,4.94733,5.3511l.24389-.092c0,0,.62733-.0501,1.07994-.1113.01345.0376.03797.0706.07063.0943.09795.064,2.61659,1.5552,5.09529,2.0229.0125.002.0254.002.038,0l-.006.008c.053.0048.1057-.0117.1466-.0458s.0665-.083.0712-.1361c.0048-.053-.0117-.1057-.0458-.1466s-.083-.0665-.1361-.0712c-2.4067-.4558-4.93731-1.959-4.9633-1.975-.01578-.0071-.03229-.0121-.0491-.0149-.09699-.6189-.1307-1.2461-.1006-1.8719.59689-.1573,3.2727-.8856,5.1905-1.7774.5506.4291,2.3162,1.6798,4.4702,1.9205-.0112.9854-.1893,1.9619-.5271,2.8881-.0189.0493-.0176.1042.0037.1525s.061.0862.1102.1054c.0228.0094.0473.0142.072.014.0389.0009.0772-.0096.1102-.0302s.0593-.0504.0757-.0858c.3706-1.0039.5588-2.0661.5557-3.1363c0-.0161-.002-.0321-.0058-.0475.5752-.4971,2.3098-2.1026,3.1503-4.0561h.1087c.3638,0,1.4592-.07,3.0124-.7876.0478-.0222.0849-.0623.1032-.1117s.0165-.1041-.0053-.1521c-.011-.024-.0266-.0455-.0459-.0634s-.042-.0317-.0667-.0408-.0509-.0133-.0772-.0122-.0522.0073-.0761.0184c-1.5924.7389-2.6862.7553-2.903.7509-.1102-.545-.5415-2.1686-2.0101-4.0176.0048-.0113.0087-.0231.0114-.0352ZM7.42168,19.7591c.19203-.0419,3.19312-.8199,5.26142-1.7877.2483-1.4879.5078-3.8904.5884-4.6588-2.2659-1.9931-3.77068-3.265-4.41114-3.80635L8.8602,9.50611c-.23216-.19624-.3507-.29643-.3507-.30014-.01627-.01522-.02973-.0329-.04-.05224-1.40584.43255-2.78305.95317-4.12346,1.55877.00676.0317.00576.0648-.00328.0965c0,.0019-.0052.0198-.01469.0525v0h-.00001l-.00003.0001-.00002.0001h-.00001c-.10996.3787-.79293,2.7309-.63289,5.1185.00329.0527-.01441.1046-.04924.1443-.01055.012-.02242.0227-.03529.0317c1.2186,1.6804,3.15899,3.1375,3.8111,3.6029ZM8.76336,8.89813c.01792.01394,1.68744,1.38797,4.77944,4.11237c1.6772-.3965,3.3297-.8906,4.9493-1.4799.7042-3.36478.6053-5.11058.5983-5.23556L19.09,6.28795c-.0039-.05272.0133-.10482.0478-.14491l.0023-.00267c-.4516-.52204-1.9238-2.10889-3.98-3.17074-.0235.01389-.0498.02299-.0774.02644-3.4862.44576-5.2492,1.58115-5.26719,1.59914-.03359.01835-.07176.02668-.10995.02398-.00571.00005-.0114-.00016-.01706-.0006-.41023,1.39668-.73682,2.81658-.97805,4.25215.01875.00638.0366.01556.05291.02739Z" clip-rule="evenodd" fill="url(#eMIRLxyeoSF59-fill)" fill-rule="evenodd"/></g><mask id="eMIRLxyeoSF60" mask-type="alpha" x="-150%" y="-150%" height="400%" width="400%"><circle r="12" transform="translate(12 12)" fill="#fff"/></mask></g></g></g></g></g></g><g transform="translate(-90.93738-136.578796)"><g id="eMIRLxyeoSF63_to" transform="translate(111.325478,186.156381)"><g id="eMIRLxyeoSF63_tr" transform="rotate(0)"><g id="eMIRLxyeoSF63_ts" transform="scale(0.599779,0.599779)"><g transform="translate(-11.999538,-9.040685)"><g><path d="M12.06,0.1L8,5.21L4.11,0.08c.126896-.052313.262745-.079482.4-.08Z" fill="#ffb38e"/><path d="M20,0.29l-4,5L12.07,0.1l7.55.1c.131727.001827.261447.03255.38.09Z" fill="#fbb674"/><path d="M24,5.42l-8-.11l4-5v0c.138402.066903.261087.162325.36.28l3.39,4.18c.158524.179713.247241.410377.25.65Z" fill="#f4814e"/><path d="M12.07,0.1L8,5.21l8,.1Z" fill="#ffe8c7"/><path d="M8,5.21l-8-.1c-.010904-.246157.07528-.486753.24-.67l3.5-4.09c.102398-.115652.228623-.207762.37-.27v0Z" fill="#fce7c8"/><path d="M16,5.31L12,18.07c-.096072.015164-.193928.015164-.29,0L8,5.21Z" fill="#f4814e"/><path d="M11.69,18.06c-.222754-.034987-.427146-.144231-.58-.31v0L0.26,5.75v0c-.162154-.178262-.254483-.409083-.26-.65l8,.11Z" fill="#fbb674"/><path d="M24,5.42c-.012973.23525-.108594.458364-.27.63v0L12.56,17.77v0c-.154317.162084-.358544.267718-.58.3L16,5.31Z" fill="#cf583b"/></g></g></g></g></g></g><g transform="translate(.000001 0)"><g id="eMIRLxyeoSF74_ts" transform="translate(20.999984,55.436466) scale(1,1)"><g transform="translate(-16.499515,-24.154398)"><path d="M17.2226,0.59668h-16.876897v22.21152c.002218.7426.603614,1.344,1.346157,1.3462h15.53074v-23.55772Z" fill="url(#eMIRLxyeoSF75-fill)"/><path d="M15.7755,0.59668h16.8768v22.21152c-.0022.7426-.6036,1.344-1.3461,1.3462h-15.5307v-23.55772Z" fill="url(#eMIRLxyeoSF76-fill)"/><path d="M0.345703,0.540039h32.307697v3.150001h-32.307697v-3.150001Z" opacity="0.7" fill="#310a8a"/><path d="M13.8086,0.43457h5.376v23.73003h-5.376v-23.73003Z" fill="url(#eMIRLxyeoSF78-fill)"/></g></g><g transform="translate(-89.809298-136.68397)"><g id="eMIRLxyeoSF80_to" transform="translate(110.809315,162.014711)"><g id="eMIRLxyeoSF80_tr" transform="rotate(0)"><g transform="translate(-17.5,-8.0766)"><path d="M1.34615,10.7686h32.30765c.7435,0,1.3462.6026,1.3462,1.3461v3.3654c0,.3717-.3013.6731-.6731.6731h-33.653823C0.301347,16.1532,0,15.8518,0,15.4801v-3.3654c0-.7435.602694-1.3461,1.34615-1.3461Z" fill="#a027d7"/><path d="M28.1671,5.1681c1.0299-.43232,1.9755-1.04296,2.7932-1.80384l.6731,2.69231l2.6923-.67308c-.6731,4.03846-4.0384,5.38461-6.7308,5.38461L17.4988,12.4508L7.40264,10.7681c-2.6923,0-6.05769-1.34615-6.730765-5.38461l2.692305.67308.67308-2.69231c.8195.7619,1.76747,1.37261,2.8,1.80384L17.4988,7.18733L28.1671,5.1681Z" fill="#f90"/><path d="M17.4994,6.72976c0,0-1.2788-5.801247-6.9609-6.715286-.3192-.047902-.64478.024027-.91406.201923-.89856.583558-2.78048,2.262213-2.88952,6.144523-.00731.25456.05907.50582.19115.72356.57212.9349,2.55096,3.35322,7.87503,3.74832l2.6983-4.10304Z" fill="#ffc235"/><path d="M17.5059,6.7298c0,0,1.2788-5.801246,6.9609-6.715284.319-.047991.6444.023951.9134.201923.8992.583557,2.7811,2.262211,2.8895,6.144521.0076.2545-.0586.50576-.1905.72356-.5728.93625-2.5577,3.36068-7.8999,3.74968L17.5059,6.7298Z" fill="#ffc235"/><path d="M14.1348,10.7686h6.7307v5.3846h-6.7307v-5.3846Z" fill="#ffc235"/><path d="M15.2864,7.7256c-.2405-.00001-.4627-.12829-.5829-.33654-.3002-.5176-1.3892-2.24269-2.8014-2.71519-.2284-.07623-.3988-.26854-.447-.50449s.0331-.4797.2133-.63943.432-.21116.6605-.13493c1.8085.60577,3.0773,2.52,3.539,3.31558.1201.20804.1203.46433.0004.67249s-.3417.33664-.5819.33712v.00539Z" fill="#f90"/><path d="M19.7147,7.72644c-.2402-.00048-.462-.12896-.5819-.33712s-.1198-.46445.0003-.67249c.4618-.79423,1.7332-2.71183,3.5391-3.31692.2284-.07623.4802-.0248.6604.13493s.2616.40347.2134.63942-.2186.42826-.4471.50449c-1.4134.47116-2.5011,2.1976-2.8013,2.71519-.1213.2067-.3433.33333-.5829.3325Z" fill="#f90"/><path d="M16.1547,6.72949h2.6924c.7434,0,1.3461.6027,1.3461,1.34616v2.69235h-5.3846v-2.69235c0-.74346.6027-1.34616,1.3461-1.34616Z" fill="#f90"/></g></g></g></g></g><g transform="translate(-92.999999-135.999999)"><g style="mix-blend-mode:color-dodge" transform="matrix(.431227 0 0 0.431228 105.039848 161.509174)"><g id="eMIRLxyeoSF91_to" transform="translate(35.94091,-6.480105)"><g id="eMIRLxyeoSF91_tr" transform="rotate(0)"><g id="eMIRLxyeoSF91_ts" transform="scale(0,0)"><path id="eMIRLxyeoSF91" d="M9.43233,0l.92017,4.50179c.4127,2.01946,1.9909,3.59765,4.0104,4.01041l4.5018.92013-4.5018.92017c-2.0195.4127-3.5977,1.9909-4.0104,4.0104l-.92017,4.5018-.92013-4.5018c-.41276-2.0195-1.99095-3.5977-4.01042-4.0104L0,9.43233L4.50179,8.5122C6.52125,8.09944,8.09944,6.52125,8.5122,4.50178L9.43233,0Z" transform="translate(-9.43235,-9.43235)" opacity="0" fill="#fff"/></g></g></g></g><g style="mix-blend-mode:color-dodge" transform="matrix(.431227 0 0 0.431228 109.039848 168.509174)"><g id="eMIRLxyeoSF93_to" transform="translate(27.425998,-22.712817)"><g id="eMIRLxyeoSF93_tr" transform="rotate(0)"><g id="eMIRLxyeoSF93_ts" transform="scale(0,0)"><path id="eMIRLxyeoSF93" d="M9.43233,0l.92017,4.50179c.4127,2.01946,1.9909,3.59765,4.0104,4.01041l4.5018.92013-4.5018.92017c-2.0195.4127-3.5977,1.9909-4.0104,4.0104l-.92017,4.5018-.92013-4.5018c-.41276-2.0195-1.99095-3.5977-4.01042-4.0104L0,9.43233L4.50179,8.5122C6.52125,8.09944,8.09944,6.52125,8.5122,4.50178L9.43233,0Z" transform="translate(-9.43235,-9.43235)" opacity="0" fill="#fff"/></g></g></g></g><g style="mix-blend-mode:color-dodge" transform="matrix(.431227 0 0 0.431228 109.039848 168.509174)"><g id="eMIRLxyeoSF95_to" transform="translate(27.425998,-22.712817)"><g id="eMIRLxyeoSF95_tr" transform="rotate(0)"><g id="eMIRLxyeoSF95_ts" transform="scale(0,0)"><path id="eMIRLxyeoSF95" d="M9.43233,0l.92017,4.50179c.4127,2.01946,1.9909,3.59765,4.0104,4.01041l4.5018.92013-4.5018.92017c-2.0195.4127-3.5977,1.9909-4.0104,4.0104l-.92017,4.5018-.92013-4.5018c-.41276-2.0195-1.99095-3.5977-4.01042-4.0104L0,9.43233L4.50179,8.5122C6.52125,8.09944,8.09944,6.52125,8.5122,4.50178L9.43233,0Z" transform="translate(-9.43235,-9.43235)" opacity="0" fill="#fff"/></g></g></g></g><g style="mix-blend-mode:color-dodge" transform="matrix(.431227 0 0 0.431228 116.039848 159.509174)"><g id="eMIRLxyeoSF97_to" transform="translate(0.064256,16.885494)"><g id="eMIRLxyeoSF97_tr" transform="rotate(0)"><g id="eMIRLxyeoSF97_ts" transform="scale(0,0)"><path id="eMIRLxyeoSF97" d="M9.43233,0l.92017,4.50179c.4127,2.01946,1.9909,3.59765,4.0104,4.01041l4.5018.92013-4.5018.92017c-2.0195.4127-3.5977,1.9909-4.0104,4.0104l-.92017,4.5018-.92013-4.5018c-.41276-2.0195-1.99095-3.5977-4.01042-4.0104L0,9.43233L4.50179,8.5122C6.52125,8.09944,8.09944,6.52125,8.5122,4.50178L9.43233,0Z" transform="translate(-9.43235,-9.43235)" opacity="0" fill="#fff"/></g></g></g></g></g></g></svg>
